<svg width="343" height="696" viewBox="0 0 343 696" fill="none" xmlns="http://www.w3.org/2000/svg">
<path d="M304.83 365V359.682L317.256 348.176C318.313 347.153 319.199 346.233 319.915 345.415C320.642 344.597 321.193 343.795 321.568 343.011C321.943 342.216 322.131 341.358 322.131 340.438C322.131 339.415 321.898 338.534 321.432 337.795C320.966 337.045 320.33 336.472 319.523 336.074C318.716 335.665 317.801 335.46 316.778 335.46C315.71 335.46 314.778 335.676 313.983 336.108C313.188 336.54 312.574 337.159 312.142 337.966C311.71 338.773 311.494 339.733 311.494 340.847H304.489C304.489 338.562 305.006 336.58 306.04 334.898C307.074 333.216 308.523 331.915 310.386 330.994C312.25 330.074 314.398 329.614 316.83 329.614C319.33 329.614 321.506 330.057 323.358 330.943C325.222 331.818 326.67 333.034 327.705 334.591C328.739 336.148 329.256 337.932 329.256 339.943C329.256 341.261 328.994 342.562 328.472 343.847C327.96 345.131 327.045 346.557 325.727 348.125C324.409 349.682 322.551 351.551 320.153 353.733L315.057 358.727V358.966H329.716V365H304.83Z" fill="#FFC727"/>
<path d="M304.83 365H300.83V369H304.83V365ZM304.83 359.682L302.112 356.747L300.83 357.934V359.682H304.83ZM317.256 348.176L319.973 351.111L320.006 351.081L320.037 351.051L317.256 348.176ZM319.915 345.415L316.925 342.757L316.915 342.769L316.904 342.781L319.915 345.415ZM321.568 343.011L325.177 344.737L325.182 344.727L325.186 344.717L321.568 343.011ZM321.432 337.795L318.034 339.906L318.041 339.918L318.049 339.929L321.432 337.795ZM319.523 336.074L317.714 339.641L317.734 339.652L317.754 339.662L319.523 336.074ZM312.142 337.966L315.669 339.853L315.669 339.853L312.142 337.966ZM311.494 340.847V344.847H315.494V340.847H311.494ZM304.489 340.847H300.489V344.847H304.489V340.847ZM306.04 334.898L309.447 336.993L306.04 334.898ZM310.386 330.994L308.615 327.408L308.615 327.408L310.386 330.994ZM323.358 330.943L321.631 334.551L321.645 334.558L321.658 334.564L323.358 330.943ZM327.705 334.591L324.373 336.804L324.373 336.804L327.705 334.591ZM328.472 343.847L324.767 342.338L324.761 342.353L324.755 342.367L328.472 343.847ZM325.727 348.125L328.78 350.71L328.785 350.704L328.789 350.699L325.727 348.125ZM320.153 353.733L317.461 350.774L317.407 350.824L317.354 350.876L320.153 353.733ZM315.057 358.727L312.257 355.87L311.057 357.047V358.727H315.057ZM315.057 358.966H311.057V362.966H315.057V358.966ZM329.716 358.966H333.716V354.966H329.716V358.966ZM329.716 365V369H333.716V365H329.716ZM308.83 365V359.682H300.83V365H308.83ZM307.547 362.617L319.973 351.111L314.538 345.241L302.112 356.747L307.547 362.617ZM320.037 351.051C321.148 349.976 322.116 348.973 322.925 348.049L316.904 342.781C316.282 343.493 315.477 344.331 314.474 345.302L320.037 351.051ZM322.904 348.072C323.819 347.043 324.605 345.934 325.177 344.737L317.96 341.286C317.782 341.657 317.465 342.15 316.925 342.757L322.904 348.072ZM325.186 344.717C325.825 343.363 326.131 341.919 326.131 340.438H318.131C318.131 340.796 318.062 341.069 317.95 341.306L325.186 344.717ZM326.131 340.438C326.131 338.791 325.749 337.142 324.815 335.661L318.049 339.929C318.056 339.941 318.072 339.968 318.089 340.033C318.107 340.101 318.131 340.23 318.131 340.438H326.131ZM324.83 335.685C323.962 334.287 322.755 333.208 321.291 332.486L317.754 339.662C317.904 339.735 317.97 339.804 318.034 339.906L324.83 335.685ZM321.332 332.506C319.895 331.778 318.347 331.46 316.778 331.46V339.46C317.255 339.46 317.537 339.552 317.714 339.641L321.332 332.506ZM316.778 331.46C315.164 331.46 313.553 331.79 312.075 332.593L315.891 339.623C316.004 339.562 316.257 339.46 316.778 339.46V331.46ZM312.075 332.593C310.584 333.402 309.412 334.591 308.615 336.078L315.669 339.853C315.736 339.728 315.791 339.678 315.891 339.623L312.075 332.593ZM308.615 336.078C307.812 337.579 307.494 339.216 307.494 340.847H315.494C315.494 340.25 315.608 339.967 315.669 339.853L308.615 336.078ZM311.494 336.847H304.489V344.847H311.494V336.847ZM308.489 340.847C308.489 339.184 308.858 337.951 309.447 336.993L302.632 332.803C301.153 335.208 300.489 337.941 300.489 340.847H308.489ZM309.447 336.993C310.066 335.987 310.932 335.186 312.158 334.581L308.615 327.408C306.114 328.643 304.082 330.445 302.632 332.803L309.447 336.993ZM312.158 334.581C313.384 333.975 314.908 333.614 316.83 333.614V325.614C313.887 325.614 311.116 326.173 308.615 327.408L312.158 334.581ZM316.83 333.614C318.86 333.614 320.423 333.973 321.631 334.551L325.085 327.335C322.589 326.141 319.799 325.614 316.83 325.614V333.614ZM321.658 334.564C322.928 335.16 323.784 335.918 324.373 336.804L331.036 332.378C329.557 330.15 327.515 328.476 325.058 327.322L321.658 334.564ZM324.373 336.804C324.938 337.655 325.256 338.656 325.256 339.943H333.256C333.256 337.207 332.54 334.641 331.036 332.378L324.373 336.804ZM325.256 339.943C325.256 340.718 325.105 341.508 324.767 342.338L332.176 345.355C332.884 343.617 333.256 341.805 333.256 339.943H325.256ZM324.755 342.367C324.459 343.112 323.828 344.168 322.665 345.551L328.789 350.699C330.263 348.945 331.462 347.15 332.188 345.326L324.755 342.367ZM322.675 345.54C321.514 346.911 319.796 348.65 317.461 350.774L322.845 356.691C325.306 354.452 327.305 352.452 328.78 350.71L322.675 345.54ZM317.354 350.876L312.257 355.87L317.856 361.584L322.953 356.59L317.354 350.876ZM311.057 358.727V358.966H319.057V358.727H311.057ZM315.057 362.966H329.716V354.966H315.057V362.966ZM325.716 358.966V365H333.716V358.966H325.716ZM329.716 361H304.83V369H329.716V361Z" fill="white"/>
<path d="M25.733 674.477C23.1875 674.477 20.9205 674.04 18.9318 673.165C16.9545 672.278 15.392 671.062 14.2443 669.517C13.108 667.96 12.5227 666.165 12.4886 664.131H19.9205C19.9659 664.983 20.2443 665.733 20.7557 666.381C21.2784 667.017 21.9716 667.511 22.8352 667.864C23.6989 668.216 24.6705 668.392 25.75 668.392C26.875 668.392 27.8693 668.193 28.733 667.795C29.5966 667.398 30.2727 666.847 30.7614 666.142C31.25 665.437 31.4943 664.625 31.4943 663.705C31.4943 662.773 31.233 661.949 30.7102 661.233C30.1989 660.506 29.4602 659.937 28.4943 659.528C27.5398 659.119 26.4034 658.915 25.0852 658.915H21.8295V653.494H25.0852C26.1989 653.494 27.1818 653.301 28.0341 652.915C28.8977 652.528 29.5682 651.994 30.0455 651.312C30.5227 650.619 30.7614 649.812 30.7614 648.892C30.7614 648.017 30.5511 647.25 30.1307 646.591C29.7216 645.92 29.142 645.398 28.392 645.023C27.6534 644.648 26.7898 644.46 25.8011 644.46C24.8011 644.46 23.8864 644.642 23.0568 645.006C22.2273 645.358 21.5625 645.864 21.0625 646.523C20.5625 647.182 20.2955 647.955 20.2614 648.841H13.1875C13.2216 646.83 13.7955 645.057 14.9091 643.523C16.0227 641.989 17.5227 640.79 19.4091 639.926C21.3068 639.051 23.4489 638.614 25.8352 638.614C28.2443 638.614 30.3523 639.051 32.1591 639.926C33.9659 640.801 35.3693 641.983 36.3693 643.472C37.3807 644.949 37.8807 646.608 37.8693 648.449C37.8807 650.403 37.2727 652.034 36.0455 653.341C34.8295 654.648 33.2443 655.477 31.2898 655.83V656.102C33.858 656.432 35.8125 657.324 37.1534 658.778C38.5057 660.222 39.1761 662.028 39.1648 664.199C39.1761 666.188 38.6023 667.955 37.4432 669.5C36.2955 671.045 34.7102 672.261 32.6875 673.148C30.6648 674.034 28.3466 674.477 25.733 674.477Z" fill="#FFC727"/>
<path d="M18.9318 673.165L17.2956 676.815L17.3082 676.82L17.3209 676.826L18.9318 673.165ZM14.2443 669.517L11.0135 671.875L11.0232 671.889L11.033 671.902L14.2443 669.517ZM12.4886 664.131V660.131H8.42104L8.4892 664.198L12.4886 664.131ZM19.9205 664.131L23.9148 663.918L23.7128 660.131H19.9205V664.131ZM20.7557 666.381L17.6162 668.859L17.6402 668.89L17.6648 668.92L20.7557 666.381ZM22.8352 667.864L21.3245 671.567H21.3245L22.8352 667.864ZM28.733 667.795L27.0598 664.162L28.733 667.795ZM30.7614 666.142L34.0482 668.422L34.0482 668.422L30.7614 666.142ZM30.7102 661.233L27.4381 663.534L27.4587 663.563L27.4797 663.592L30.7102 661.233ZM28.4943 659.528L26.9186 663.205L26.9265 663.208L26.9343 663.212L28.4943 659.528ZM21.8295 658.915H17.8295V662.915H21.8295V658.915ZM21.8295 653.494V649.494H17.8295V653.494H21.8295ZM28.0341 652.915L26.4006 649.263L26.3916 649.268L26.3825 649.272L28.0341 652.915ZM30.0455 651.312L33.3224 653.606L33.3313 653.594L33.34 653.581L30.0455 651.312ZM30.1307 646.591L26.7161 648.674L26.7369 648.708L26.7584 648.742L30.1307 646.591ZM28.392 645.023L26.5813 648.589L26.5922 648.595L26.6032 648.6L28.392 645.023ZM23.0568 645.006L24.6203 648.687L24.6416 648.678L24.6627 648.669L23.0568 645.006ZM21.0625 646.523L24.2493 648.94L24.2493 648.94L21.0625 646.523ZM20.2614 648.841V652.841H24.1105L24.2584 648.995L20.2614 648.841ZM13.1875 648.841L9.18807 648.773L9.11913 652.841H13.1875V648.841ZM14.9091 643.523L18.1461 645.873L18.1461 645.873L14.9091 643.523ZM19.4091 639.926L21.0742 643.563L21.0839 643.559L19.4091 639.926ZM32.1591 639.926L33.9025 636.326L32.1591 639.926ZM36.3693 643.472L33.0489 645.702L33.0588 645.717L33.0687 645.731L36.3693 643.472ZM37.8693 648.449L33.8694 648.424L33.8692 648.448L33.8694 648.472L37.8693 648.449ZM36.0455 653.341L33.1297 650.603L33.1233 650.609L33.117 650.616L36.0455 653.341ZM31.2898 655.83L30.5803 651.893L27.2898 652.486V655.83H31.2898ZM31.2898 656.102H27.2898V659.622L30.7807 660.07L31.2898 656.102ZM37.1534 658.778L34.2124 661.49L34.2234 661.502L34.2345 661.513L37.1534 658.778ZM39.1648 664.199L35.1648 664.178L35.1647 664.2L35.1648 664.222L39.1648 664.199ZM37.4432 669.5L34.2432 667.1L34.2375 667.108L34.2319 667.115L37.4432 669.5ZM32.6875 673.148L31.0821 669.484L32.6875 673.148ZM25.733 670.477C23.648 670.477 21.9441 670.12 20.5428 669.504L17.3209 676.826C19.8968 677.959 22.727 678.477 25.733 678.477V670.477ZM20.568 669.515C19.1355 668.873 18.146 668.062 17.4556 667.132L11.033 671.902C12.6381 674.063 14.7736 675.684 17.2956 676.815L20.568 669.515ZM17.4752 667.159C16.853 666.306 16.5092 665.322 16.4881 664.064L8.4892 664.198C8.5363 667.008 9.36295 669.614 11.0135 671.875L17.4752 667.159ZM12.4886 668.131H19.9205V660.131H12.4886V668.131ZM15.9261 664.344C16.014 665.991 16.5743 667.54 17.6162 668.859L23.8952 663.902C23.8911 663.897 23.8932 663.899 23.8984 663.908C23.9008 663.912 23.9034 663.917 23.9061 663.923C23.9088 663.929 23.9112 663.935 23.9133 663.94C23.9177 663.952 23.9191 663.959 23.9189 663.958C23.9187 663.957 23.9162 663.945 23.9148 663.918L15.9261 664.344ZM17.6648 668.92C18.6625 670.134 19.9282 670.998 21.3245 671.567L24.346 664.16C24.015 664.025 23.8943 663.9 23.8466 663.842L17.6648 668.92ZM21.3245 671.567C22.7371 672.144 24.233 672.392 25.75 672.392V664.392C25.1079 664.392 24.6606 664.288 24.346 664.16L21.3245 671.567ZM25.75 672.392C27.3481 672.392 28.9304 672.108 30.4062 671.429L27.0598 664.162C26.8082 664.278 26.4019 664.392 25.75 664.392V672.392ZM30.4062 671.429C31.8463 670.765 33.109 669.776 34.0482 668.422L27.4745 663.862C27.4364 663.917 27.3468 664.03 27.0598 664.162L30.4062 671.429ZM34.0482 668.422C35.0359 666.998 35.4943 665.377 35.4943 663.705H27.4943C27.4943 663.808 27.4812 663.85 27.4805 663.852C27.4797 663.855 27.4797 663.855 27.4804 663.853C27.4811 663.852 27.4799 663.855 27.4745 663.862L34.0482 668.422ZM35.4943 663.705C35.4943 661.971 34.9901 660.311 33.9407 658.874L27.4797 663.592C27.4881 663.603 27.4899 663.607 27.4888 663.605C27.4876 663.603 27.4863 663.6 27.4856 663.597C27.4849 663.595 27.4867 663.6 27.4889 663.615C27.4912 663.63 27.4943 663.659 27.4943 663.705H35.4943ZM33.9823 658.932C32.9686 657.49 31.5834 656.493 30.0543 655.845L26.9343 663.212C27.337 663.382 27.4292 663.521 27.4381 663.534L33.9823 658.932ZM30.07 655.852C28.5029 655.18 26.8047 654.915 25.0852 654.915V662.915C26.0021 662.915 26.5766 663.058 26.9186 663.205L30.07 655.852ZM25.0852 654.915H21.8295V662.915H25.0852V654.915ZM25.8295 658.915V653.494H17.8295V658.915H25.8295ZM21.8295 657.494H25.0852V649.494H21.8295V657.494ZM25.0852 657.494C26.6618 657.494 28.2254 657.22 29.6856 656.558L26.3825 649.272C26.1382 649.382 25.736 649.494 25.0852 649.494V657.494ZM29.6676 656.566C31.0995 655.925 32.3758 654.959 33.3224 653.606L26.7685 649.019C26.7606 649.03 26.696 649.131 26.4006 649.263L29.6676 656.566ZM33.34 653.581C34.3198 652.158 34.7614 650.543 34.7614 648.892H26.7614C26.7614 649.004 26.7473 649.051 26.7467 649.053C26.7459 649.055 26.7465 649.053 26.7487 649.048C26.751 649.044 26.7524 649.042 26.7509 649.044L33.34 653.581ZM34.7614 648.892C34.7614 647.349 34.381 645.816 33.5029 644.44L26.7584 648.742C26.7552 648.737 26.7515 648.73 26.7484 648.723C26.7453 648.716 26.7448 648.714 26.746 648.718C26.7477 648.724 26.7614 648.776 26.7614 648.892H34.7614ZM33.5452 644.507C32.7185 643.152 31.5549 642.132 30.1809 641.445L26.6032 648.6C26.6793 648.638 26.7075 648.664 26.7101 648.666C26.7125 648.668 26.7125 648.669 26.7118 648.668C26.7111 648.667 26.7126 648.669 26.7161 648.674L33.5452 644.507ZM30.2028 641.456C28.8044 640.746 27.2982 640.46 25.8011 640.46V648.46C26.2813 648.46 26.5024 648.549 26.5813 648.589L30.2028 641.456ZM25.8011 640.46C24.3062 640.46 22.8372 640.735 21.4509 641.342L24.6627 648.669C24.9355 648.55 25.2961 648.46 25.8011 648.46V640.46ZM21.4933 641.324C20.0808 641.924 18.8345 642.841 17.8757 644.105L24.2493 648.94C24.2905 648.886 24.3738 648.792 24.6203 648.687L21.4933 641.324ZM17.8757 644.105C16.8434 645.466 16.3275 647.043 16.2643 648.687L24.2584 648.995C24.2601 648.951 24.264 648.925 24.2663 648.912C24.2686 648.899 24.2699 648.897 24.2678 648.903C24.2657 648.909 24.2621 648.918 24.2571 648.927C24.2521 648.937 24.2486 648.941 24.2493 648.94L17.8757 644.105ZM20.2614 644.841H13.1875V652.841H20.2614V644.841ZM17.1869 648.909C17.208 647.665 17.5451 646.701 18.1461 645.873L11.6721 641.173C10.0458 643.413 9.23518 645.994 9.18807 648.773L17.1869 648.909ZM18.1461 645.873C18.8178 644.947 19.7532 644.168 21.0742 643.563L17.744 636.289C15.2923 637.412 13.2276 639.03 11.6721 641.173L18.1461 645.873ZM21.0839 643.559C22.3868 642.958 23.9451 642.614 25.8352 642.614V634.614C22.9526 634.614 20.2268 635.144 17.7342 636.294L21.0839 643.559ZM25.8352 642.614C27.7597 642.614 29.2504 642.962 30.4157 643.526L33.9025 636.326C31.4542 635.14 28.7289 634.614 25.8352 634.614V642.614ZM30.4157 643.526C31.6627 644.13 32.4896 644.869 33.0489 645.702L39.6897 641.241C38.249 639.096 36.2691 637.472 33.9025 636.326L30.4157 643.526ZM33.0687 645.731C33.606 646.516 33.8759 647.374 33.8694 648.424L41.8692 648.474C41.8855 645.842 41.1553 643.382 39.6699 641.212L33.0687 645.731ZM33.8694 648.472C33.8754 649.502 33.5886 650.114 33.1297 650.603L38.9612 656.079C40.9568 653.954 41.886 651.304 41.8693 648.426L33.8694 648.472ZM33.117 650.616C32.5564 651.219 31.7845 651.676 30.5803 651.893L31.9993 659.766C34.7042 659.279 37.1026 658.077 38.9739 656.066L33.117 650.616ZM27.2898 655.83V656.102H35.2898V655.83H27.2898ZM30.7807 660.07C32.7079 660.317 33.6838 660.916 34.2124 661.49L40.0944 656.067C37.9412 653.732 35.008 652.547 31.7989 652.135L30.7807 660.07ZM34.2345 661.513C34.8163 662.134 35.1714 662.922 35.1648 664.178L43.1647 664.22C43.1809 661.135 42.1951 658.309 40.0723 656.043L34.2345 661.513ZM35.1648 664.222C35.1714 665.365 34.8619 666.275 34.2432 667.1L40.6432 671.9C42.3426 669.634 43.1809 667.01 43.1647 664.176L35.1648 664.222ZM34.2319 667.115C33.5569 668.024 32.5625 668.835 31.0821 669.484L34.2929 676.811C36.8579 675.687 39.034 674.067 40.6545 671.885L34.2319 667.115ZM31.0821 669.484C29.6497 670.112 27.8939 670.477 25.733 670.477V678.477C28.7993 678.477 31.6799 677.956 34.2929 676.811L31.0821 669.484Z" fill="white"/>
<path d="M28.017 21.0909V56H20.6364V28.0966H20.4318L12.4375 33.108V26.5625L21.0795 21.0909H28.017Z" fill="#FFC727"/>
<path d="M28.017 21.0909H32.017V17.0909H28.017V21.0909ZM28.017 56V60H32.017V56H28.017ZM20.6364 56H16.6364V60H20.6364V56ZM20.6364 28.0966H24.6364V24.0966H20.6364V28.0966ZM20.4318 28.0966V24.0966H19.2817L18.3073 24.7074L20.4318 28.0966ZM12.4375 33.108H8.4375V40.3364L14.562 36.4971L12.4375 33.108ZM12.4375 26.5625L10.2978 23.1829L8.4375 24.3607V26.5625H12.4375ZM21.0795 21.0909V17.0909H19.9197L18.9398 17.7113L21.0795 21.0909ZM24.017 21.0909V56H32.017V21.0909H24.017ZM28.017 52H20.6364V60H28.017V52ZM24.6364 56V28.0966H16.6364V56H24.6364ZM20.6364 24.0966H20.4318V32.0966H20.6364V24.0966ZM18.3073 24.7074L10.313 29.7188L14.562 36.4971L22.5564 31.4857L18.3073 24.7074ZM16.4375 33.108V26.5625H8.4375V33.108H16.4375ZM14.5772 29.9421L23.2193 24.4705L18.9398 17.7113L10.2978 23.1829L14.5772 29.9421ZM21.0795 25.0909H28.017V17.0909H21.0795V25.0909Z" fill="white"/>
<path d="M133.92 606.371C133.572 606.968 133.774 607.733 134.371 608.08L144.093 613.741C144.689 614.089 145.455 613.887 145.802 613.29C146.149 612.694 145.947 611.928 145.351 611.581L136.709 606.549L141.741 597.907C142.089 597.311 141.887 596.545 141.29 596.198C140.694 595.851 139.928 596.053 139.581 596.649L133.92 606.371ZM228.605 503.081C230.129 526.541 219.542 548.804 202.069 566.947C184.596 585.09 160.312 599.026 134.681 605.791L135.319 608.209C161.363 601.334 186.058 587.175 203.869 568.681C221.68 550.188 232.682 527.271 231.099 502.919L228.605 503.081Z" fill="black"/>
<path d="M280.939 339.595C281.395 339.076 281.343 338.286 280.825 337.831L272.371 330.408C271.852 329.953 271.062 330.004 270.607 330.523C270.151 331.042 270.203 331.832 270.721 332.287L278.236 338.885L271.638 346.4C271.183 346.918 271.234 347.708 271.753 348.164C272.272 348.619 273.061 348.568 273.517 348.049L280.939 339.595ZM279.919 337.523C218.115 341.538 157.927 291.784 140.209 224.681L137.791 225.319C155.748 293.323 216.839 344.126 280.081 340.018L279.919 337.523Z" fill="black"/>
</svg>
