<svg width="424" height="458" viewBox="0 0 424 458" fill="none" xmlns="http://www.w3.org/2000/svg">
<path d="M185.41 325.724H79.0236C66.1735 325.67 55.3261 314.688 55.3644 301.807L56.4957 33.3819C56.5077 30.3183 57.1222 27.2871 58.3041 24.4615C59.4859 21.6359 61.212 19.0713 63.3836 16.9142C65.5552 14.7572 68.1298 13.05 70.9603 11.8902C73.7908 10.7303 76.8217 10.1406 79.8797 10.1547L186.755 10.6525C189.812 10.6656 192.835 11.2817 195.654 12.4658C198.473 13.6498 201.031 15.3786 203.183 17.5533C205.334 19.728 207.037 22.3061 208.194 25.1403C209.351 27.9744 209.939 31.0092 209.925 34.0711L208.794 302.497C208.782 305.56 208.167 308.591 206.985 311.417C205.803 314.243 204.077 316.807 201.906 318.964C199.734 321.121 197.16 322.829 194.329 323.988C191.499 325.148 188.468 325.738 185.41 325.724Z" fill="#263238"/>
<path d="M186.609 20.8456L165.885 20.7843C165.21 20.7963 164.543 20.9415 163.924 21.2116C163.304 21.4817 162.743 21.8715 162.274 22.3586C161.805 22.8457 161.436 23.4207 161.189 24.0507C160.941 24.6807 160.82 25.3533 160.833 26.0301V29.7979C160.855 31.1643 160.336 32.4839 159.389 33.4673C158.441 34.4507 157.143 35.0176 155.78 35.0438L115.387 34.8523C114.711 34.8345 114.046 34.6834 113.428 34.4077C112.811 34.1321 112.254 33.7372 111.789 33.2458C111.324 32.7544 110.96 32.176 110.718 31.5436C110.477 30.9113 110.362 30.2374 110.38 29.5605V25.8004C110.413 24.4324 109.904 23.1071 108.964 22.114C108.024 21.121 106.731 20.541 105.365 20.501H98.0802L79.9403 20.4167C77.799 20.4076 75.6769 20.8212 73.6952 21.6337C71.7135 22.4462 69.9109 23.6419 68.3904 25.1523C66.8699 26.6627 65.6613 28.4584 64.8336 30.4368C64.0058 32.4151 63.5751 34.5375 63.5661 36.6826L62.4577 298.629C62.4394 302.96 64.1387 307.121 67.182 310.197C70.2253 313.273 74.3635 315.013 78.6866 315.033L185.348 315.523C187.49 315.534 189.613 315.122 191.596 314.311C193.58 313.499 195.383 312.303 196.905 310.793C198.426 309.282 199.636 307.486 200.464 305.506C201.291 303.527 201.722 301.403 201.73 299.257L202.808 37.2493C202.824 32.9242 201.128 28.7691 198.092 25.6943C195.056 22.6195 190.926 20.8759 186.609 20.8456V20.8456Z" fill="#F5F5F5"/>
<path d="M141.34 266.013C141.218 269.176 141.103 272.14 141.004 274.613H156.293L154.42 265.179L141.34 266.013Z" fill="#F5F5F5"/>
<path d="M79.0684 269.957L79.1983 274.614H139.474C139.573 271.994 139.688 269.1 139.803 266.113L79.0684 269.957Z" fill="#F5F5F5"/>
<path d="M155.222 265.133L157.103 274.606H185.356L185.012 263.249L155.222 265.133Z" fill="#F5F5F5"/>
<path d="M142.869 132.654L148.213 101.631L134.224 100.59V132.654H142.869Z" fill="#F5F5F5"/>
<path d="M77.8081 252.734L62.6264 258.692L62.5806 269.467L78.2591 268.472L77.8081 252.734Z" fill="#F5F5F5"/>
<path d="M77.74 250.314L76.9144 221.42H76.8991V211.227L62.8182 212.72L62.6348 256.226L77.7323 250.299L77.74 250.314Z" fill="#F5F5F5"/>
<path d="M76.8981 188.482L62.9319 186.629L62.8325 210.415L76.8981 208.922V188.482Z" fill="#F5F5F5"/>
<path d="M181.006 211.656L180.417 219.942L163.921 221.719L165.197 228.274L183.918 226.857L183.643 217.461L185.134 211.242L181.006 211.656Z" fill="#F5F5F5"/>
<path d="M151.27 229.323L164.426 228.328L161.559 213.624L150.078 214.788L151.27 229.323Z" fill="#F5F5F5"/>
<path d="M151.399 230.855L152.401 243.116L154.182 259.933L154.916 263.616L184.966 261.717L183.964 228.389L151.399 230.855Z" fill="#F5F5F5"/>
<path d="M99.6775 172.952L100.832 174.935L77.6618 188.498V220.624L102.124 218.885L149.297 214.099L147.569 193.047L102.536 187.15L102.835 184.852L147.378 190.68L144.458 155.047L100.365 159.289L100.22 157.758L144.328 153.515L142.799 134.921H100.373L63.1376 141.706L62.9541 184.286L77.0426 186.2L99.6775 172.952ZM80.0315 217.53C80.0315 217.53 80.2073 191.048 80.0315 190.06L98.9436 179.982L101.397 216.182L80.0315 217.53Z" fill="#F5F5F5"/>
<path d="M179.455 211.817L162.324 213.547L163.623 220.21L178.981 218.556L179.455 211.817Z" fill="#F5F5F5"/>
<path d="M141.554 260.339C141.501 261.733 141.447 263.111 141.401 264.474L154.152 263.662L153.495 260.369L141.554 260.339Z" fill="#F5F5F5"/>
<path d="M114.088 132.654L116.336 122.446H133.459V100.536L79.9259 96.5616V117.139L63.2078 120.93L63.1313 139.401L100.153 132.654H114.088Z" fill="#F5F5F5"/>
<path d="M149.81 71.6727L149.351 69.7964L169.792 61.6941L156.499 34.9519C156.246 34.9929 155.991 35.0134 155.735 35.0131L133.146 34.9059L133.757 72.3313L149.81 71.6727Z" fill="#F5F5F5"/>
<path d="M180.785 57.329V20.8226L165.887 20.7843C165.211 20.7963 164.544 20.9415 163.925 21.2116C163.305 21.4817 162.745 21.8715 162.275 22.3586C161.806 22.8458 161.437 23.4207 161.19 24.0507C160.943 24.6807 160.822 25.3533 160.834 26.0302V29.798C160.833 30.6393 160.635 31.4686 160.255 32.219C159.875 32.9693 159.325 33.6196 158.647 34.1172L171.949 60.8747L180.785 57.329Z" fill="#F5F5F5"/>
<path d="M103.945 58.8989L102.217 20.455H98.0818L81.9141 20.3784L75.0342 54.7558L103.945 58.8989ZM100.26 24.353L100.811 55.6595L79.3226 52.512L84.0239 24.353H100.26Z" fill="#F5F5F5"/>
<path d="M104.725 59.0137V59.3354C104.725 62.3374 104.817 67.7594 104.863 73.5106L133.017 72.3619L132.405 34.9059L115.366 34.8217C114.69 34.8038 114.025 34.6527 113.407 34.3771C112.79 34.1014 112.233 33.7066 111.768 33.2152C111.303 32.7237 110.939 32.1453 110.697 31.513C110.456 30.8806 110.341 30.2068 110.359 29.5299V25.7697C110.392 24.4018 109.883 23.0764 108.943 22.0834C108.003 21.0904 106.709 20.5104 105.344 20.4703H102.967L104.694 59.0137H104.725Z" fill="#F5F5F5"/>
<path d="M72.7561 54.4112L79.5749 20.3708C75.3162 20.4468 71.2564 22.19 68.2647 25.2272C65.2729 28.2644 63.587 32.3543 63.5677 36.6213L63.4912 53.5918L63.5677 53.094L72.7561 54.4112Z" fill="#F5F5F5"/>
<path d="M77.6316 96.3932L63.3137 95.3287L63.2144 118.571L77.6316 115.301V96.3932Z" fill="#F5F5F5"/>
<path d="M72.6022 55.1617L63.4901 53.8521L63.3296 91.4919L65.2942 91.6374L72.6022 55.1617Z" fill="#F5F5F5"/>
<path d="M101.521 249.87L101.758 219.659L77.6709 221.366L78.5271 250.965L101.521 249.87Z" fill="#F5F5F5"/>
<path d="M105.955 242.87L140.064 259.244C140.477 248.522 140.828 238.567 140.828 237.9L141.593 237.862L141.96 237.142C142.441 237.379 142.441 237.379 142.189 244.678C142.044 248.744 141.845 254.159 141.639 259.573H153.434L151.698 243.154L149.405 214.819L104.831 219.322L105.955 242.87Z" fill="#F5F5F5"/>
<path d="M189.576 192.756L189.186 188.766L148.296 193.031L150.016 214.022L185.326 210.454L189.576 192.756Z" fill="#F5F5F5"/>
<path d="M133.46 124.744H118.179L116.436 132.655H133.46V124.744Z" fill="#F5F5F5"/>
<path d="M183.262 127.416L145.002 124.767L143.473 133.818L145.086 153.469L185.433 149.579L183.262 127.416ZM146.409 133.803L148.465 128.09L181.695 130.196L183.614 146.539L147.532 150.827L146.409 133.803Z" fill="#F5F5F5"/>
<path d="M187.23 168.487L185.548 151.111L145.178 154.993L146.699 173.488L187.23 168.487Z" fill="#F5F5F5"/>
<path d="M78.3059 270.011L62.6427 270.999L62.5815 269.98L62.5586 274.606H78.4359L78.3059 270.011Z" fill="#F5F5F5"/>
<path d="M202.555 48.6982L202.785 49.2879L202.808 37.2493C202.824 32.919 201.124 28.7592 198.081 25.6835C195.038 22.6079 190.901 20.8678 186.579 20.8456H181.495V57.0533L202.555 48.6982Z" fill="#F5F5F5"/>
<path d="M140.033 260.109L105.214 243.391L103.983 219.444L102.53 219.59L102.278 250.605L78.5425 251.731V252.42L79.0011 268.41L139.842 264.581C139.919 263.088 139.98 261.595 140.033 260.109ZM80.0331 253.707L113.255 251.409L134.866 261.449L80.0331 264.42V253.707Z" fill="#F5F5F5"/>
<path d="M192.657 88.9418L194.086 80.4795C181.596 76.0148 180.732 62.9653 180.77 59.0367L172.621 62.2685L184.89 86.9506L192.657 88.9418Z" fill="#F5F5F5"/>
<path d="M148.105 190.742L165.083 188.972L161.742 173.947L146.882 175.785L148.105 190.742Z" fill="#F5F5F5"/>
<path d="M183.315 101.884H151.606L148.977 101.685L145.392 122.492L183.032 125.096L182.161 116.052L185.868 102.696L183.315 101.884Z" fill="#F5F5F5"/>
<path d="M182.543 98.055L182.941 88.0994L170.481 63.0343L151.156 70.6924L157.799 98.0167L182.543 98.055ZM169.724 66.1128L181.144 87.8773L179.493 94.6624L159.954 93.8966L155.07 73.3115L169.724 66.1128Z" fill="#F5F5F5"/>
<path d="M187.474 217.859L188.063 237.364L201.8 236.591L201.845 237.357L188.086 238.13L188.781 261.472L201.777 260.645L201.868 262.177L188.827 263.004L189.179 274.606H201.838L202.113 209.527L189.164 210.836L187.474 217.859Z" fill="#F5F5F5"/>
<path d="M103.966 59.6723L74.8721 55.491L67.5947 91.8059L104.096 94.5169C104.242 88.9418 104.112 71.7722 103.966 59.6723Z" fill="#F5F5F5"/>
<path d="M151.82 98.055H156.224L149.993 72.4308L133.803 73.0971L134.193 96.7454L151.82 98.055Z" fill="#F5F5F5"/>
<path d="M104.838 94.5705L133.42 96.6918L133.038 73.1277L104.876 74.2764C104.96 82.2486 104.96 90.7491 104.838 94.5705Z" fill="#F5F5F5"/>
<path d="M187.451 170.777L162.5 173.855L165.855 188.888L188.964 186.484L187.451 170.777Z" fill="#F5F5F5"/>
<path d="M194.215 79.6755L195.813 70.1794L202.693 70.7154L202.785 50.2605L181.541 58.6845C181.105 73.0741 190.133 78.1362 194.215 79.6755Z" fill="#F5F5F5"/>
<path d="M186.036 116.389L186.9 125.364L202.464 126.444L202.54 107.965L189.514 103.845L186.036 116.389Z" fill="#F5F5F5"/>
<path d="M193.436 193.024L189.354 210.048L202.112 208.753L202.189 190.902C198.275 189.869 194.858 189.026 193.016 188.674L193.436 193.024Z" fill="#F5F5F5"/>
<path d="M184.83 98.3459L202.557 103.959L202.603 93.8582L185.189 89.3476L184.83 98.3459Z" fill="#F5F5F5"/>
<path d="M192.794 186.338C194.223 186.552 196.929 187.104 202.196 188.521L202.365 149.464L189.369 150.72L192.794 186.338Z" fill="#F5F5F5"/>
<path d="M189.209 149.219L202.373 147.948L202.449 128.749L187.123 127.684L189.209 149.219Z" fill="#F5F5F5"/>
<path d="M195.685 80.1579C197.975 80.8693 200.299 81.4648 202.649 81.9423V72.2471L197.045 71.8105L195.685 80.1579Z" fill="#F5F5F5"/>
<path d="M194.146 89.294L202.609 91.4842L202.647 82.731C200.453 82.2868 198.06 81.6895 195.553 80.9236L194.146 89.294Z" fill="#F5F5F5"/>
<path d="M78.3055 270.003L78.4354 274.598H79.1999L79.0699 269.942L139.804 266.113C139.689 269.1 139.575 271.994 139.475 274.614H141.004C141.104 272.14 141.218 269.176 141.341 266.013L154.451 265.179L156.323 274.614H157.088L155.207 265.133L185.02 263.249L185.364 274.614H189.186L188.835 263.004L201.876 262.177L201.784 260.645L188.789 261.472L188.093 238.13L201.853 237.364L201.807 236.598L188.047 237.364L187.459 217.859L189.148 210.836L202.098 209.527V208.761L189.339 210.055L193.421 193.031L193.001 188.681C194.843 189.034 198.26 189.876 202.174 190.91V188.498C196.907 187.104 194.201 186.53 192.772 186.315L189.332 150.72L202.327 149.464V147.932L189.164 149.204L187.077 127.669L202.365 128.734V126.436L186.801 125.356L185.938 116.381L189.416 103.837L202.411 107.957V103.952L184.684 98.3383L185.043 89.34L202.457 93.8507V91.4766L193.995 89.2864L195.401 80.9161C197.939 81.6819 200.301 82.2792 202.495 82.7234V81.9576C200.146 81.4801 197.821 80.8846 195.531 80.1732L196.93 71.8258L202.533 72.2623V70.7307L195.654 70.1947L194.056 79.6907C189.974 78.1591 180.946 73.0894 181.382 58.6921L202.625 50.2682V49.2956L202.396 48.7059L181.389 57.038V20.8302H180.625V57.3366L171.773 60.8517L158.472 34.0942C157.84 34.55 157.109 34.8468 156.339 34.9595L169.632 61.7018L149.352 69.7964L149.811 71.6727L133.757 72.3313L133.146 34.9059H132.381L132.993 72.3619L104.839 73.5106C104.793 67.7364 104.732 62.3374 104.701 59.3354V59.0138L102.974 20.4703H102.209L103.937 58.9142L75.0184 54.7558L81.8983 20.3784H79.9261H79.5591L72.7404 54.4189L63.5672 53.1017L63.4907 53.5994V53.8598L72.6028 55.1694L65.2948 91.6451L63.3302 91.4996V95.3287L77.6481 96.3932V115.301L63.2308 118.571V120.93L79.949 117.101V96.5999L133.459 100.575V122.492H116.336L114.089 132.693H100.153L63.1315 139.44V141.775L100.375 134.952H142.785L144.314 153.546L100.206 157.789L100.352 159.32L144.444 155.078L147.364 190.711L102.821 184.883L102.523 187.18L147.555 193.077L149.298 214.099L102.156 218.862L77.6939 220.601V188.498L100.864 174.958L99.7096 172.975L77.0441 186.2L62.9174 184.316V186.614L76.8989 188.498V208.937L62.8333 210.431V212.728L76.9142 211.235V221.428L77.7474 250.322L62.6499 256.249V258.715L77.8315 252.757L78.2825 268.495L62.604 269.49V270.003L62.6652 271.022L78.3055 270.003ZM141.402 264.474C141.448 263.111 141.501 261.733 141.555 260.339H153.495L154.153 263.632L141.402 264.474ZM154.917 263.616L154.153 259.933L152.371 243.085L151.37 230.832L183.935 228.366L184.936 261.687L154.917 263.616ZM162.294 213.547L179.432 211.817L178.951 218.556L163.593 220.21L162.294 213.547ZM161.529 213.624L164.396 228.328L151.24 229.323L150.048 214.773L161.529 213.624ZM183.889 226.857L165.168 228.274L163.891 221.719L180.388 219.942L180.976 211.656L185.104 211.242L183.614 217.461L183.889 226.857ZM161.72 173.947L165.061 188.972L148.083 190.742L146.86 175.785L161.72 173.947ZM165.833 188.888L162.477 173.855L187.428 170.792L188.957 186.499L165.833 188.888ZM183.01 125.096L145.369 122.484L148.954 101.685L151.584 101.884H183.3L185.846 102.696L182.169 116.052L183.01 125.096ZM180.717 58.9831C180.678 62.9347 181.542 75.9842 194.033 80.4259L192.657 88.9418L184.89 86.9277L172.621 62.2149L180.717 58.9831ZM170.427 63.0649L182.933 88.13L182.536 98.0856H157.799L151.156 70.7613L170.427 63.0649ZM149.94 72.4308L156.171 98.055H151.821L134.193 96.7531L133.803 73.0971L149.94 72.4308ZM132.985 73.1277L133.368 96.6918L104.785 94.5705C104.908 90.7415 104.885 82.2486 104.785 74.2764L132.985 73.1277ZM74.8197 55.514L103.914 59.6953C104.059 71.7952 104.189 88.9494 104.044 94.5399L67.5422 91.8289L74.8197 55.514ZM148.159 101.654L142.808 132.677H134.224V100.59L148.159 101.654ZM118.125 124.774H133.413V132.677H116.428L118.125 124.774ZM143.351 133.841L144.88 124.79L183.14 127.439L185.28 149.602L144.933 153.492L143.351 133.841ZM185.456 151.134L187.138 168.51L146.623 173.518L145.094 155.016L185.456 151.134ZM148.205 193.054L189.095 188.789L189.485 192.779L185.234 210.477L149.925 214.045L148.205 193.054ZM151.553 243.207L153.289 259.627H141.585C141.792 254.212 141.99 248.798 142.136 244.731C142.388 237.433 142.388 237.433 141.906 237.196L141.539 237.916L140.775 237.954C140.775 238.59 140.446 248.599 140.01 259.297L105.955 242.87L104.747 219.337L149.298 214.865L151.553 243.207ZM101.667 219.682L101.43 249.893L78.4354 250.988L77.5792 221.389L101.667 219.682ZM78.4736 252.458V251.769L102.209 250.644L102.462 219.628L103.914 219.483L105.145 243.43L139.965 260.147C139.911 261.633 139.85 263.126 139.796 264.612L78.9552 268.441L78.4736 252.458Z" fill="white"/>
<path d="M113.255 251.371L80.0332 253.699V264.39L134.874 261.411L113.255 251.371Z" fill="#EBEBEB"/>
<path d="M181.695 130.196L148.465 128.09L146.409 133.803L147.532 150.827L183.614 146.539L181.695 130.196Z" fill="#EBEBEB"/>
<path d="M78.6884 315.033L185.35 315.523C187.492 315.534 189.615 315.122 191.598 314.31C193.581 313.499 195.385 312.303 196.907 310.793C198.428 309.282 199.638 307.485 200.465 305.506C201.293 303.527 201.724 301.403 201.732 299.257L201.839 274.613H62.5589L62.4824 293.253V299.119C62.5897 303.362 64.3414 307.396 67.3666 310.366C70.3917 313.337 74.4525 315.011 78.6884 315.033V315.033Z" fill="#EBEBEB"/>
<path d="M100.81 55.6595L100.26 24.353H84.0307L79.3218 52.512L100.81 55.6595Z" fill="#EBEBEB"/>
<path d="M179.492 94.6624L181.143 87.8773L169.723 66.1129L155.068 73.3421L159.953 93.9272L179.492 94.6624Z" fill="#EBEBEB"/>
<path d="M80.0332 190.029C80.209 191.017 80.0332 217.499 80.0332 217.499L101.437 216.151L98.9835 179.951L80.0332 190.029Z" fill="#EBEBEB"/>
<path d="M151.278 211.564L150.147 195.153L186.786 190.435V193.269L182.353 208.363L151.278 211.564Z" fill="#EBEBEB"/>
<path d="M124.179 75.4558C124.179 76.3403 123.917 77.205 123.426 77.9405C122.936 78.6759 122.238 79.2492 121.423 79.5877C120.607 79.9262 119.709 80.0147 118.843 79.8422C117.977 79.6696 117.182 79.2437 116.558 78.6182C115.933 77.9927 115.508 77.1958 115.336 76.3283C115.164 75.4607 115.252 74.5615 115.59 73.7443C115.928 72.927 116.5 72.2285 117.234 71.7371C117.968 71.2457 118.831 70.9834 119.714 70.9834C120.898 70.9834 122.034 71.4546 122.871 72.2933C123.708 73.132 124.179 74.2696 124.179 75.4558V75.4558Z" fill="#F9B300"/>
<g opacity="0.6">
<path d="M124.172 75.2644C124.21 76.1484 123.986 77.024 123.528 77.7803C123.07 78.5367 122.398 79.1399 121.597 79.5136C120.796 79.8872 119.903 80.0145 119.03 79.8794C118.157 79.7443 117.344 79.3528 116.693 78.7545C116.043 78.1562 115.584 77.378 115.374 76.5183C115.165 75.6586 115.216 74.7561 115.519 73.9249C115.822 73.0938 116.364 72.3714 117.077 71.8492C117.79 71.3269 118.642 71.0283 119.524 70.9911C120.706 70.9413 121.859 71.3633 122.73 72.1645C123.602 72.9657 124.12 74.0806 124.172 75.2644V75.2644Z" fill="white"/>
</g>
<path d="M119.715 78.274C121.353 78.274 122.681 76.9436 122.681 75.3026C122.681 73.6616 121.353 72.3312 119.715 72.3312C118.077 72.3312 116.749 73.6616 116.749 75.3026C116.749 76.9436 118.077 78.274 119.715 78.274Z" fill="#F9B300"/>
<path d="M188.689 254.005C188.683 254.382 188.566 254.748 188.353 255.058C188.141 255.368 187.842 255.609 187.493 255.75C187.145 255.891 186.763 255.926 186.395 255.85C186.027 255.775 185.689 255.592 185.424 255.326C185.159 255.059 184.978 254.72 184.904 254.351C184.83 253.982 184.866 253.599 185.008 253.251C185.15 252.902 185.392 252.604 185.702 252.392C186.013 252.18 186.379 252.065 186.755 252.06C187.01 252.057 187.264 252.105 187.5 252.202C187.737 252.299 187.951 252.442 188.132 252.623C188.312 252.805 188.454 253.021 188.55 253.258C188.646 253.495 188.693 253.749 188.689 254.005V254.005Z" fill="#F9B300"/>
<path d="M185.639 253.385L185.172 242.664L152.975 244.234C152.131 244.273 151.291 244.094 150.536 243.713L104.861 220.601C104.341 220.336 103.9 219.94 103.582 219.45C103.264 218.961 103.08 218.396 103.049 217.813L96.827 97.0134C96.812 96.7273 96.8581 96.4412 96.9623 96.1744C97.0664 95.9075 97.2262 95.666 97.431 95.4659C97.6357 95.2659 97.8808 95.1119 98.1497 95.0142C98.4186 94.9166 98.7052 94.8776 98.9903 94.8998L118.567 96.3472V74.9044H120.861V96.6382C120.866 96.9158 120.815 97.1915 120.71 97.4484C120.604 97.7052 120.448 97.9377 120.249 98.1315C120.043 98.3185 119.802 98.4618 119.539 98.5526C119.276 98.6434 118.998 98.6799 118.72 98.6599L99.1585 97.2125L105.358 217.698C105.369 217.876 105.427 218.048 105.525 218.197C105.622 218.346 105.757 218.467 105.916 218.548L151.591 241.676C151.991 241.878 152.436 241.973 152.883 241.951L185.356 240.366C185.893 240.343 186.418 240.533 186.816 240.895C187.016 241.074 187.177 241.292 187.292 241.536C187.406 241.779 187.47 242.043 187.481 242.311L187.947 253.286L185.639 253.385Z" fill="#F9B300"/>
<path d="M100.573 155.269C103.765 155.269 106.352 152.677 106.352 149.479C106.352 146.282 103.765 143.69 100.573 143.69C97.3813 143.69 94.7939 146.282 94.7939 149.479C94.7939 152.677 97.3813 155.269 100.573 155.269Z" fill="#F9B300"/>
<path d="M100.573 153.5C102.79 153.5 104.587 151.7 104.587 149.479C104.587 147.259 102.79 145.459 100.573 145.459C98.3569 145.459 96.5601 147.259 96.5601 149.479C96.5601 151.7 98.3569 153.5 100.573 153.5Z" fill="#FAFAFA"/>
<path d="M100.573 153.791C99.7211 153.792 98.8883 153.541 98.1795 153.068C97.4708 152.595 96.918 151.922 96.591 151.135C96.2641 150.347 96.1778 149.48 96.343 148.643C96.5082 147.806 96.9175 147.037 97.5191 146.433C98.1207 145.83 98.8875 145.418 99.7226 145.251C100.558 145.084 101.423 145.169 102.21 145.495C102.997 145.821 103.67 146.374 104.143 147.083C104.616 147.792 104.869 148.626 104.869 149.479C104.867 150.621 104.414 151.715 103.609 152.523C102.804 153.331 101.712 153.787 100.573 153.791V153.791ZM100.573 145.742C99.8345 145.741 99.1125 145.959 98.498 146.368C97.8836 146.778 97.4042 147.361 97.1207 148.044C96.8372 148.727 96.7622 149.478 96.9053 150.204C97.0484 150.929 97.4031 151.596 97.9245 152.119C98.4459 152.643 99.1106 152.999 99.8344 153.144C100.558 153.289 101.309 153.215 101.991 152.933C102.673 152.65 103.256 152.171 103.666 151.556C104.076 150.942 104.295 150.219 104.295 149.479C104.293 148.49 103.901 147.542 103.203 146.842C102.506 146.142 101.56 145.746 100.573 145.742V145.742Z" fill="#F9B300"/>
<path d="M134.613 125.195H107.094C106.451 125.195 105.835 125.451 105.38 125.906C104.926 126.362 104.67 126.979 104.67 127.623V137.579C104.67 138.223 104.926 138.84 105.38 139.295C105.835 139.751 106.451 140.006 107.094 140.006H107.415V142.388L110.174 140.006H134.636C135.279 140.006 135.895 139.751 136.35 139.295C136.804 138.84 137.059 138.223 137.059 137.579V127.623C137.059 127.302 136.996 126.985 136.873 126.689C136.75 126.393 136.569 126.124 136.342 125.898C136.114 125.673 135.844 125.494 135.548 125.374C135.251 125.253 134.933 125.192 134.613 125.195V125.195Z" fill="#F9B300"/>
<g opacity="0.4">
<path d="M134.613 125.195H107.094C106.451 125.195 105.835 125.451 105.38 125.906C104.926 126.362 104.67 126.979 104.67 127.623V137.579C104.67 138.223 104.926 138.84 105.38 139.295C105.835 139.751 106.451 140.006 107.094 140.006H107.415V142.388L110.174 140.006H134.636C135.279 140.006 135.895 139.751 136.35 139.295C136.804 138.84 137.059 138.223 137.059 137.579V127.623C137.059 127.302 136.996 126.985 136.873 126.689C136.75 126.393 136.569 126.124 136.342 125.898C136.114 125.673 135.844 125.494 135.548 125.374C135.251 125.253 134.933 125.192 134.613 125.195V125.195Z" fill="white"/>
</g>
<path d="M110.862 132.455C110.85 132.126 110.936 131.801 111.11 131.521C111.284 131.241 111.537 131.02 111.837 130.885C112.136 130.75 112.47 130.708 112.794 130.764C113.118 130.82 113.418 130.972 113.655 131.2C113.892 131.428 114.056 131.722 114.126 132.044C114.196 132.365 114.168 132.701 114.046 133.007C113.924 133.313 113.714 133.575 113.443 133.761C113.171 133.946 112.85 134.046 112.521 134.048C112.306 134.059 112.092 134.025 111.89 133.95C111.689 133.874 111.505 133.758 111.35 133.609C111.195 133.46 111.071 133.281 110.988 133.083C110.904 132.884 110.861 132.671 110.862 132.455ZM113.721 132.455C113.723 132.215 113.653 131.98 113.521 131.78C113.389 131.58 113.2 131.424 112.979 131.331C112.758 131.239 112.515 131.214 112.28 131.261C112.045 131.307 111.829 131.422 111.66 131.592C111.49 131.762 111.375 131.978 111.329 132.214C111.282 132.449 111.307 132.693 111.399 132.914C111.492 133.136 111.648 133.325 111.847 133.457C112.047 133.589 112.282 133.659 112.521 133.658C112.68 133.663 112.839 133.636 112.987 133.577C113.135 133.518 113.269 133.43 113.382 133.317C113.494 133.205 113.583 133.07 113.641 132.922C113.699 132.773 113.727 132.615 113.721 132.455V132.455Z" fill="white"/>
<path d="M117.191 132.838C117.2 132.997 117.176 133.156 117.119 133.305C117.063 133.454 116.976 133.589 116.865 133.702C116.753 133.815 116.619 133.904 116.471 133.962C116.324 134.021 116.165 134.047 116.007 134.041C115.845 134.049 115.683 134.016 115.536 133.947C115.39 133.878 115.262 133.773 115.166 133.642V134.018H114.753V130.709H115.181V132.011C115.28 131.888 115.406 131.791 115.549 131.725C115.693 131.66 115.849 131.63 116.007 131.636C116.165 131.629 116.324 131.656 116.471 131.714C116.619 131.772 116.753 131.861 116.865 131.974C116.976 132.088 117.063 132.223 117.119 132.372C117.176 132.52 117.2 132.679 117.191 132.838V132.838ZM116.763 132.838C116.752 132.69 116.697 132.548 116.606 132.431C116.515 132.313 116.392 132.225 116.252 132.176C116.111 132.127 115.96 132.12 115.816 132.157C115.672 132.193 115.541 132.27 115.44 132.379C115.34 132.488 115.273 132.625 115.248 132.771C115.223 132.918 115.241 133.069 115.3 133.205C115.36 133.341 115.457 133.458 115.581 133.539C115.705 133.621 115.85 133.665 115.999 133.665C116.107 133.67 116.215 133.652 116.316 133.611C116.417 133.571 116.507 133.51 116.583 133.431C116.658 133.353 116.716 133.26 116.752 133.158C116.788 133.055 116.803 132.946 116.794 132.838H116.763Z" fill="white"/>
<path d="M117.001 134.76L117.139 134.431C117.238 134.511 117.363 134.551 117.49 134.546C117.712 134.546 117.842 134.4 117.842 134.132V131.659H118.262V134.125C118.272 134.228 118.258 134.331 118.223 134.429C118.188 134.526 118.132 134.614 118.059 134.687C117.986 134.76 117.898 134.816 117.801 134.852C117.704 134.887 117.601 134.9 117.498 134.891C117.323 134.9 117.149 134.854 117.001 134.76V134.76ZM117.765 130.931C117.765 130.894 117.773 130.858 117.787 130.824C117.801 130.79 117.822 130.759 117.849 130.734C117.875 130.708 117.906 130.688 117.941 130.674C117.975 130.661 118.011 130.655 118.048 130.656C118.085 130.654 118.122 130.659 118.156 130.671C118.191 130.684 118.223 130.703 118.25 130.728C118.277 130.753 118.299 130.783 118.314 130.817C118.329 130.85 118.338 130.887 118.339 130.924C118.34 130.962 118.333 131 118.319 131.035C118.304 131.071 118.283 131.103 118.256 131.129C118.228 131.156 118.196 131.177 118.16 131.19C118.124 131.203 118.086 131.209 118.048 131.207C118.011 131.209 117.973 131.203 117.937 131.19C117.902 131.177 117.87 131.156 117.843 131.129C117.817 131.102 117.796 131.07 117.782 131.035C117.769 130.999 117.763 130.961 117.765 130.924V130.931Z" fill="white"/>
<path d="M121.197 132.976H119.286C119.295 133.078 119.325 133.178 119.374 133.268C119.422 133.358 119.488 133.438 119.568 133.502C119.648 133.567 119.74 133.614 119.839 133.642C119.937 133.67 120.04 133.678 120.142 133.665C120.269 133.67 120.396 133.647 120.513 133.598C120.63 133.549 120.736 133.475 120.822 133.382L121.059 133.658C120.884 133.833 120.663 133.954 120.421 134.007C120.18 134.059 119.928 134.042 119.696 133.955C119.464 133.869 119.262 133.718 119.114 133.52C118.965 133.322 118.876 133.085 118.858 132.838C118.852 132.68 118.878 132.522 118.935 132.374C118.992 132.227 119.079 132.092 119.19 131.979C119.301 131.867 119.434 131.778 119.581 131.719C119.727 131.66 119.885 131.632 120.043 131.636C120.201 131.631 120.358 131.66 120.504 131.719C120.65 131.779 120.782 131.869 120.891 131.983C121.001 132.097 121.085 132.233 121.139 132.381C121.193 132.53 121.215 132.688 121.205 132.846C121.206 132.889 121.203 132.933 121.197 132.976ZM119.286 132.67H120.815C120.815 132.467 120.734 132.272 120.591 132.128C120.448 131.985 120.253 131.904 120.05 131.904C119.848 131.904 119.653 131.985 119.51 132.128C119.366 132.272 119.286 132.467 119.286 132.67Z" fill="white"/>
<path d="M121.579 132.838C121.576 132.675 121.606 132.514 121.668 132.363C121.73 132.213 121.823 132.077 121.94 131.964C122.057 131.851 122.196 131.763 122.348 131.707C122.501 131.651 122.663 131.626 122.825 131.636C123.015 131.624 123.204 131.663 123.373 131.751C123.541 131.839 123.682 131.971 123.781 132.134L123.46 132.348C123.39 132.242 123.295 132.154 123.182 132.094C123.07 132.034 122.945 132.003 122.818 132.004C122.612 132.023 122.42 132.119 122.281 132.273C122.141 132.427 122.064 132.627 122.064 132.834C122.064 133.042 122.141 133.242 122.281 133.396C122.42 133.549 122.612 133.645 122.818 133.665C122.944 133.667 123.069 133.637 123.181 133.578C123.293 133.519 123.389 133.433 123.46 133.328L123.781 133.535C123.683 133.698 123.542 133.832 123.373 133.921C123.205 134.01 123.015 134.051 122.825 134.041C122.663 134.049 122.501 134.024 122.35 133.967C122.198 133.91 122.059 133.823 121.942 133.71C121.825 133.597 121.733 133.462 121.67 133.312C121.608 133.162 121.577 133.001 121.579 132.838V132.838Z" fill="white"/>
<path d="M125.692 133.88C125.541 133.99 125.358 134.046 125.172 134.041C125.068 134.058 124.961 134.05 124.86 134.017C124.76 133.985 124.668 133.929 124.594 133.854C124.519 133.779 124.463 133.688 124.431 133.587C124.398 133.486 124.39 133.379 124.408 133.275V131.973H124.002V131.628H124.408V131.107H124.836V131.628H125.508V131.973H124.836V133.252C124.827 133.303 124.831 133.356 124.846 133.406C124.861 133.456 124.887 133.502 124.923 133.54C124.958 133.579 125.001 133.608 125.05 133.627C125.098 133.646 125.151 133.654 125.203 133.65C125.321 133.652 125.437 133.614 125.531 133.543L125.692 133.88Z" fill="white"/>
<path d="M126.128 130.924C126.129 130.886 126.138 130.85 126.153 130.816C126.168 130.782 126.19 130.751 126.217 130.726C126.244 130.7 126.275 130.68 126.31 130.667C126.345 130.653 126.382 130.647 126.419 130.648C126.456 130.646 126.492 130.651 126.527 130.664C126.562 130.676 126.594 130.695 126.621 130.72C126.648 130.745 126.67 130.776 126.685 130.809C126.7 130.843 126.708 130.879 126.709 130.916C126.709 130.993 126.679 131.067 126.624 131.122C126.57 131.176 126.496 131.207 126.419 131.207C126.342 131.207 126.268 131.176 126.213 131.122C126.159 131.067 126.128 130.993 126.128 130.916V130.924ZM126.205 131.69H126.633V134.048H126.205V131.69Z" fill="white"/>
<path d="M129.529 131.659L128.497 134.018H128.061L127.029 131.659H127.48L128.245 133.55L129.07 131.659H129.529Z" fill="white"/>
<path d="M131.984 132.976H130.073C130.083 133.078 130.112 133.178 130.161 133.268C130.209 133.358 130.276 133.438 130.355 133.502C130.435 133.567 130.527 133.614 130.626 133.642C130.724 133.67 130.828 133.678 130.929 133.665C131.056 133.67 131.183 133.647 131.3 133.598C131.418 133.549 131.523 133.475 131.61 133.382L131.839 133.658C131.723 133.787 131.58 133.888 131.42 133.955C131.26 134.021 131.087 134.05 130.914 134.041C130.75 134.052 130.586 134.03 130.431 133.974C130.276 133.919 130.135 133.832 130.016 133.719C129.896 133.606 129.802 133.469 129.738 133.318C129.674 133.166 129.642 133.003 129.645 132.838C129.639 132.68 129.665 132.522 129.722 132.374C129.779 132.227 129.866 132.092 129.977 131.979C130.088 131.867 130.221 131.778 130.368 131.719C130.514 131.66 130.672 131.632 130.83 131.636C130.988 131.631 131.145 131.66 131.291 131.719C131.437 131.779 131.569 131.869 131.678 131.983C131.788 132.097 131.872 132.233 131.926 132.381C131.98 132.53 132.003 132.688 131.992 132.846C131.993 132.889 131.99 132.933 131.984 132.976ZM130.073 132.67H131.602C131.602 132.467 131.521 132.272 131.378 132.128C131.235 131.985 131.04 131.904 130.837 131.904C130.635 131.904 130.44 131.985 130.297 132.128C130.154 132.272 130.073 132.467 130.073 132.67Z" fill="white"/>
<path d="M125.525 60.4381C125.531 59.554 125.334 58.6802 124.947 57.8853C124.561 57.0903 123.996 56.3958 123.297 55.8561C122.598 55.3165 121.783 54.9462 120.918 54.7745C120.052 54.6027 119.158 54.6341 118.306 54.8661C117.455 55.0981 116.668 55.5245 116.008 56.1119C115.349 56.6993 114.834 57.4316 114.504 58.2517C114.174 59.0718 114.038 59.9573 114.106 60.8388C114.175 61.7203 114.446 62.574 114.899 63.3329V63.3329C115.121 63.7005 115.396 63.9685 115.663 64.3591L118.989 68.7625C119.085 68.8909 119.209 68.9952 119.353 69.0669C119.496 69.1387 119.654 69.1761 119.814 69.1761C119.975 69.1761 120.133 69.1387 120.276 69.0669C120.419 68.9952 120.544 68.8909 120.64 68.7625L123.904 64.428C124.202 64.0765 124.481 63.7083 124.737 63.3253V63.3253C125.251 62.4501 125.523 61.4535 125.525 60.4381V60.4381ZM119.807 62.9041C119.307 62.9056 118.819 62.7586 118.403 62.4819C117.987 62.2051 117.663 61.811 117.471 61.3493C117.279 60.8877 117.227 60.3793 117.324 59.8886C117.42 59.3978 117.66 58.9468 118.013 58.5926C118.365 58.2384 118.814 57.997 119.304 57.8988C119.794 57.8007 120.301 57.8503 120.763 58.0413C121.224 58.2324 121.618 58.5563 121.896 58.9721C122.173 59.3878 122.322 59.8767 122.322 60.3769C122.322 61.0458 122.057 61.6874 121.585 62.1612C121.114 62.6349 120.474 62.902 119.807 62.9041V62.9041Z" fill="#F9B300"/>
<path d="M88.4796 286.254H87.417V285.863H89.9855V286.254H88.9076V288.98H88.4643L88.4796 286.254Z" fill="#263238"/>
<path d="M89.9479 287.801C89.9449 287.558 90.0139 287.32 90.1461 287.117C90.2783 286.914 90.4678 286.754 90.6906 286.659C90.9133 286.563 91.1593 286.537 91.3973 286.581C91.6354 286.626 91.8547 286.741 92.0276 286.911C92.2005 287.081 92.3191 287.299 92.3684 287.536C92.4177 287.774 92.3955 288.021 92.3046 288.246C92.2137 288.471 92.0581 288.663 91.8577 288.8C91.6572 288.936 91.4209 289.009 91.1787 289.011C91.0168 289.019 90.8548 288.994 90.7031 288.937C90.5515 288.879 90.4134 288.791 90.2976 288.677C90.1819 288.563 90.0911 288.427 90.0309 288.276C89.9707 288.125 89.9424 287.963 89.9479 287.801V287.801ZM91.9661 287.801C91.9661 287.591 91.8827 287.389 91.7343 287.24C91.5859 287.092 91.3847 287.008 91.1749 287.008C90.965 287.008 90.7638 287.092 90.6154 287.24C90.467 287.389 90.3837 287.591 90.3837 287.801C90.3837 288.011 90.467 288.213 90.6154 288.361C90.7638 288.51 90.965 288.594 91.1749 288.594C91.3847 288.594 91.5859 288.51 91.7343 288.361C91.8827 288.213 91.9661 288.011 91.9661 287.801Z" fill="#263238"/>
<path d="M94.3118 288.819C94.1672 288.936 93.9851 288.996 93.7996 288.988C93.6957 289.003 93.5895 288.994 93.4897 288.961C93.3899 288.928 93.2992 288.872 93.2249 288.798C93.1506 288.723 93.0947 288.632 93.0618 288.532C93.0288 288.432 93.0197 288.326 93.0352 288.222V286.928H92.6377V286.575H93.0352V286.062H93.4939V286.575H94.1666V286.928H93.4939V288.207C93.4856 288.258 93.4891 288.311 93.5042 288.361C93.5192 288.411 93.5454 288.457 93.5807 288.495C93.6161 288.533 93.6596 288.563 93.7081 288.582C93.7567 288.601 93.8088 288.609 93.8608 288.605C93.9822 288.603 94.1 288.563 94.1971 288.49L94.3118 288.819Z" fill="#263238"/>
<path d="M96.6978 287.556V288.98H96.2926V288.674C96.2022 288.788 96.0853 288.878 95.9521 288.937C95.8189 288.996 95.6734 289.021 95.5282 289.011C94.9931 289.011 94.6567 288.727 94.6567 288.314C94.6567 287.9 94.9014 287.625 95.597 287.625H96.2773V287.54C96.2773 287.18 96.0709 286.966 95.6428 286.966C95.365 286.957 95.0933 287.05 94.8784 287.226L94.695 286.905C94.9762 286.693 95.3218 286.585 95.6734 286.598C95.8071 286.575 95.9443 286.583 96.0744 286.622C96.2044 286.661 96.3237 286.73 96.4229 286.822C96.5221 286.915 96.5985 287.029 96.6462 287.157C96.6939 287.284 96.7116 287.42 96.6978 287.556V287.556ZM96.2697 288.26V287.931H95.6123C95.1918 287.931 95.0695 288.099 95.0695 288.298C95.0695 288.498 95.2606 288.681 95.5893 288.681C95.7326 288.692 95.8756 288.657 95.9978 288.582C96.12 288.506 96.2152 288.393 96.2697 288.26V288.26Z" fill="#263238"/>
<path d="M97.4844 285.679H97.9125V288.98H97.4844V285.679Z" fill="#263238"/>
<path d="M102.14 285.679V288.98H101.735V288.605C101.638 288.736 101.511 288.841 101.365 288.912C101.218 288.983 101.057 289.017 100.894 289.011C100.591 288.987 100.309 288.849 100.103 288.625C99.8966 288.402 99.7822 288.109 99.7822 287.805C99.7822 287.5 99.8966 287.207 100.103 286.984C100.309 286.76 100.591 286.623 100.894 286.598C101.052 286.592 101.21 286.623 101.353 286.69C101.497 286.756 101.622 286.856 101.72 286.981V285.679H102.14ZM101.72 287.801C101.706 287.653 101.65 287.512 101.559 287.396C101.467 287.279 101.343 287.192 101.203 287.144C101.063 287.097 100.912 287.091 100.768 287.128C100.625 287.165 100.495 287.243 100.395 287.352C100.295 287.461 100.229 287.597 100.204 287.744C100.18 287.89 100.199 288.041 100.258 288.176C100.317 288.312 100.415 288.428 100.538 288.51C100.662 288.591 100.807 288.635 100.955 288.635C101.062 288.636 101.167 288.614 101.265 288.571C101.362 288.529 101.45 288.466 101.522 288.387C101.594 288.309 101.648 288.216 101.682 288.115C101.717 288.014 101.729 287.907 101.72 287.801V287.801Z" fill="#263238"/>
<path d="M102.874 285.894C102.874 285.856 102.882 285.819 102.896 285.784C102.911 285.749 102.932 285.717 102.96 285.691C102.987 285.664 103.019 285.644 103.054 285.63C103.089 285.616 103.127 285.61 103.165 285.611C103.205 285.604 103.247 285.606 103.286 285.617C103.326 285.628 103.362 285.647 103.394 285.674C103.425 285.701 103.45 285.734 103.467 285.771C103.485 285.808 103.494 285.849 103.494 285.89C103.494 285.931 103.485 285.972 103.467 286.009C103.45 286.047 103.425 286.08 103.394 286.106C103.362 286.133 103.326 286.152 103.286 286.163C103.247 286.174 103.205 286.176 103.165 286.17C103.127 286.171 103.09 286.164 103.056 286.151C103.021 286.138 102.989 286.118 102.962 286.092C102.935 286.067 102.914 286.036 102.898 286.002C102.883 285.968 102.875 285.931 102.874 285.894V285.894ZM102.95 286.622H103.379V288.98H102.95V286.622Z" fill="#263238"/>
<path d="M103.891 288.735L104.075 288.39C104.32 288.552 104.607 288.637 104.9 288.636C105.298 288.636 105.458 288.521 105.458 288.322C105.458 287.785 103.929 288.245 103.929 287.311C103.929 286.882 104.312 286.598 104.915 286.598C105.214 286.596 105.509 286.669 105.772 286.813L105.588 287.15C105.384 287.024 105.148 286.96 104.908 286.966C104.533 286.966 104.357 287.104 104.357 287.288C104.357 287.847 105.886 287.395 105.886 288.306C105.886 288.735 105.496 289.011 104.87 289.011C104.523 289.018 104.183 288.922 103.891 288.735V288.735Z" fill="#263238"/>
<path d="M107.744 288.819C107.597 288.938 107.412 288.998 107.224 288.988C107.12 289.003 107.014 288.994 106.914 288.961C106.815 288.928 106.724 288.872 106.65 288.798C106.575 288.723 106.519 288.632 106.486 288.532C106.453 288.432 106.444 288.326 106.46 288.222V286.928H106.055V286.575H106.49V286.062H106.918V286.575H107.591V286.928H106.918V288.207C106.91 288.258 106.914 288.311 106.929 288.361C106.944 288.411 106.97 288.457 107.005 288.495C107.041 288.533 107.084 288.563 107.133 288.582C107.181 288.601 107.233 288.609 107.285 288.605C107.405 288.604 107.52 288.564 107.614 288.49L107.744 288.819Z" fill="#263238"/>
<path d="M110.128 287.556V288.98H109.723V288.674C109.632 288.788 109.515 288.878 109.382 288.936C109.249 288.995 109.104 289.02 108.959 289.011C108.431 289.011 108.087 288.727 108.087 288.314C108.087 287.9 108.332 287.625 109.035 287.625H109.716V287.54C109.716 287.18 109.502 286.966 109.081 286.966C108.804 286.96 108.533 287.053 108.317 287.226L108.141 286.905C108.422 286.693 108.768 286.585 109.119 286.598C109.252 286.578 109.387 286.588 109.515 286.628C109.644 286.668 109.761 286.737 109.858 286.829C109.955 286.922 110.03 287.035 110.077 287.161C110.124 287.287 110.142 287.422 110.128 287.556V287.556ZM109.7 288.26V287.931H109.043C108.615 287.931 108.5 288.099 108.5 288.299C108.5 288.498 108.691 288.681 109.02 288.681C109.163 288.692 109.306 288.657 109.428 288.582C109.551 288.506 109.646 288.393 109.7 288.26V288.26Z" fill="#263238"/>
<path d="M113.148 287.625V288.98H112.728V287.671C112.728 287.211 112.491 286.981 112.086 286.981C111.983 286.972 111.879 286.985 111.782 287.021C111.685 287.056 111.597 287.112 111.524 287.185C111.451 287.258 111.395 287.346 111.36 287.443C111.325 287.541 111.312 287.644 111.321 287.747V288.957H110.893V286.599H111.298V286.958C111.4 286.831 111.531 286.729 111.68 286.662C111.829 286.596 111.991 286.566 112.154 286.576C112.293 286.561 112.434 286.578 112.564 286.627C112.695 286.675 112.814 286.753 112.91 286.855C113.006 286.956 113.077 287.078 113.119 287.212C113.16 287.345 113.17 287.487 113.148 287.625V287.625Z" fill="#263238"/>
<path d="M113.736 287.801C113.733 287.638 113.763 287.476 113.825 287.326C113.887 287.175 113.979 287.039 114.096 286.926C114.213 286.813 114.353 286.726 114.505 286.669C114.657 286.613 114.82 286.589 114.982 286.598C115.173 286.588 115.364 286.629 115.533 286.718C115.703 286.807 115.845 286.94 115.945 287.104L115.617 287.311C115.546 287.206 115.45 287.12 115.338 287.061C115.226 287.002 115.101 286.972 114.974 286.974C114.768 286.993 114.577 287.09 114.437 287.243C114.298 287.397 114.221 287.597 114.221 287.804C114.221 288.012 114.298 288.212 114.437 288.366C114.577 288.519 114.768 288.616 114.974 288.635C115.101 288.637 115.226 288.607 115.338 288.548C115.45 288.489 115.546 288.403 115.617 288.298L115.945 288.498C115.845 288.662 115.703 288.796 115.534 288.886C115.364 288.977 115.174 289.02 114.982 289.011C114.82 289.019 114.657 288.994 114.504 288.937C114.352 288.879 114.213 288.791 114.096 288.678C113.979 288.564 113.887 288.428 113.825 288.277C113.763 288.126 113.733 287.964 113.736 287.801V287.801Z" fill="#263238"/>
<path d="M118.575 287.946H116.664C116.674 288.049 116.704 288.148 116.752 288.238C116.801 288.329 116.867 288.408 116.947 288.473C117.027 288.537 117.119 288.585 117.217 288.613C117.316 288.64 117.419 288.648 117.521 288.636C117.648 288.64 117.774 288.617 117.891 288.568C118.009 288.519 118.114 288.446 118.201 288.352L118.438 288.628C118.319 288.755 118.174 288.855 118.013 288.921C117.852 288.988 117.679 289.018 117.505 289.011C117.341 289.023 117.176 289 117.02 288.944C116.865 288.888 116.723 288.801 116.604 288.687C116.485 288.573 116.39 288.435 116.327 288.283C116.264 288.13 116.233 287.966 116.236 287.801C116.23 287.643 116.256 287.485 116.313 287.337C116.37 287.189 116.457 287.055 116.568 286.942C116.679 286.829 116.812 286.741 116.959 286.682C117.106 286.622 117.263 286.594 117.421 286.599C117.58 286.594 117.737 286.622 117.884 286.683C118.031 286.743 118.163 286.833 118.273 286.948C118.382 287.063 118.466 287.2 118.52 287.349C118.573 287.499 118.595 287.658 118.583 287.816C118.584 287.86 118.582 287.903 118.575 287.946V287.946ZM116.664 287.64H118.193C118.193 287.437 118.113 287.242 117.969 287.099C117.826 286.955 117.632 286.874 117.429 286.874C117.226 286.874 117.032 286.955 116.888 287.099C116.745 287.242 116.664 287.437 116.664 287.64Z" fill="#263238"/>
<path d="M91.2777 292.48V299.908H89.5577V293.858H88.0747V292.48H91.2777Z" fill="#263238"/>
<path d="M94.5728 298.959C94.5564 299.327 94.4599 299.688 94.2899 300.016L93.6784 301.547H92.6311L93.0974 299.862C92.9203 299.79 92.77 299.664 92.6673 299.502C92.5646 299.34 92.5146 299.15 92.5241 298.959C92.5241 298.687 92.632 298.426 92.8241 298.233C93.0162 298.041 93.2768 297.932 93.5484 297.932C93.8201 297.932 94.0806 298.041 94.2727 298.233C94.4648 298.426 94.5728 298.687 94.5728 298.959Z" fill="#263238"/>
<path d="M98.081 292.48V299.908H96.3228V293.858H94.8398V292.48H98.081Z" fill="#263238"/>
<path d="M99.335 296.194C99.335 293.743 100.688 292.365 102.515 292.365C104.342 292.365 105.695 293.759 105.695 296.194C105.695 298.629 104.35 300.023 102.515 300.023C100.68 300.023 99.335 298.645 99.335 296.194ZM103.967 296.194C103.967 294.509 103.371 293.805 102.515 293.805C101.659 293.805 101.07 294.509 101.07 296.194C101.07 297.879 101.666 298.583 102.515 298.583C103.364 298.583 103.967 297.887 103.967 296.194Z" fill="#263238"/>
<path d="M106.528 296.194C106.528 293.743 107.889 292.365 109.716 292.365C111.543 292.365 112.896 293.759 112.896 296.194C112.896 298.629 111.55 300.023 109.716 300.023C107.881 300.023 106.528 298.645 106.528 296.194ZM111.168 296.194C111.168 294.509 110.572 293.805 109.716 293.805C108.859 293.805 108.271 294.509 108.271 296.194C108.271 297.879 108.867 298.583 109.716 298.583C110.564 298.583 111.168 297.887 111.168 296.194Z" fill="#263238"/>
<path d="M126.717 296.638V299.908H125.066V296.899C125.066 295.972 124.653 295.543 123.98 295.543C123.307 295.543 122.719 296.026 122.719 297.075V299.939H121.068V296.929C121.068 296.003 120.678 295.574 119.99 295.574C119.302 295.574 118.736 296.056 118.736 297.105V299.969H117.085V294.18H118.66V294.839C118.884 294.586 119.162 294.387 119.472 294.255C119.783 294.122 120.119 294.06 120.456 294.073C120.822 294.053 121.187 294.129 121.515 294.293C121.843 294.457 122.124 294.703 122.329 295.007C122.578 294.705 122.893 294.464 123.25 294.302C123.606 294.14 123.994 294.062 124.385 294.073C125.746 294.111 126.717 294.9 126.717 296.638Z" fill="#263238"/>
<path d="M83.5146 293.347C84.3233 289.901 82.1903 286.45 78.7504 285.64C75.3105 284.83 71.8663 286.967 71.0576 290.413C70.2489 293.859 72.3818 297.309 75.8217 298.119C79.2616 298.93 82.7058 296.793 83.5146 293.347Z" fill="#F9B300"/>
<path d="M74.7043 293.062C75.2485 292.984 75.7982 292.95 76.3478 292.962C77.3951 292.962 78.8934 292.909 80.6821 292.893L80.5522 293.177C80.04 292.595 79.4973 291.952 78.9163 291.285L78.8169 291.17L78.9163 291.04L80.5292 289.026L80.6821 289.348H79.9177H74.6661L74.8495 289.172C74.8495 291.117 74.8036 292.756 74.7731 293.904C74.7858 294.511 74.75 295.118 74.6661 295.719C74.5869 295.118 74.5512 294.511 74.559 293.904C74.559 292.756 74.5055 291.117 74.4902 289.172V288.995H74.6661H79.9177H81.0567L80.7968 289.317L79.1686 291.331V291.086L80.7739 293.001L81.0185 293.284H80.6439C78.8551 293.284 77.3569 293.238 76.3096 293.215C75.7711 293.21 75.234 293.159 74.7043 293.062V293.062Z" fill="#FAFAFA"/>
<path d="M180.808 280.954H161.468C160.485 280.954 159.542 281.346 158.847 282.042C158.151 282.739 157.761 283.683 157.761 284.669V299.924C157.763 300.907 158.154 301.85 158.849 302.545C159.544 303.24 160.486 303.63 161.468 303.63H161.957V307.268L166.17 303.63H180.808C181.79 303.63 182.732 303.24 183.427 302.545C184.122 301.85 184.514 300.907 184.516 299.924V284.669C184.516 283.683 184.125 282.739 183.43 282.042C182.735 281.346 181.792 280.954 180.808 280.954V280.954Z" fill="#F9B300"/>
<path d="M163.311 287.954V295.781C163.311 295.862 163.343 295.94 163.4 295.997C163.457 296.055 163.535 296.087 163.616 296.087H179.99C180.031 296.086 180.07 296.077 180.107 296.061C180.144 296.044 180.177 296.021 180.204 295.992C180.232 295.963 180.254 295.928 180.268 295.891C180.283 295.853 180.29 295.813 180.289 295.773L180.25 292.909C180.252 292.846 180.233 292.784 180.197 292.733L177.842 289.585C177.816 289.547 177.78 289.516 177.739 289.495C177.698 289.474 177.652 289.463 177.605 289.463H174.899C174.82 289.463 174.743 289.431 174.686 289.376C174.629 289.32 174.596 289.244 174.594 289.164V287.977C174.595 287.937 174.588 287.897 174.573 287.86C174.559 287.823 174.537 287.789 174.509 287.761C174.481 287.732 174.448 287.71 174.411 287.694C174.375 287.679 174.335 287.671 174.295 287.671H163.593C163.52 287.676 163.451 287.707 163.399 287.76C163.347 287.812 163.316 287.881 163.311 287.954V287.954Z" fill="#FAFAFA"/>
<path d="M175.357 290.129V292.648C175.357 292.695 175.376 292.74 175.409 292.773C175.442 292.806 175.486 292.825 175.533 292.825L179.149 292.763C179.18 292.762 179.211 292.752 179.237 292.735C179.263 292.718 179.285 292.694 179.299 292.666C179.313 292.638 179.319 292.607 179.317 292.575C179.315 292.544 179.304 292.514 179.286 292.488L177.582 289.976C177.567 289.951 177.545 289.931 177.52 289.917C177.494 289.904 177.465 289.898 177.436 289.899L175.51 289.953C175.467 289.957 175.427 289.977 175.398 290.01C175.37 290.043 175.355 290.085 175.357 290.129V290.129Z" fill="#F9B300"/>
<path d="M180.616 296.324H162.981V296.868H180.616V296.324Z" fill="#FAFAFA"/>
<path d="M168.814 296.531C168.816 296.879 168.714 297.219 168.522 297.508C168.33 297.798 168.057 298.024 167.737 298.158C167.417 298.291 167.064 298.327 166.724 298.259C166.384 298.192 166.071 298.025 165.826 297.779C165.58 297.533 165.414 297.22 165.346 296.879C165.279 296.538 165.314 296.185 165.448 295.864C165.581 295.543 165.807 295.27 166.096 295.077C166.385 294.885 166.724 294.784 167.071 294.785C167.533 294.785 167.977 294.969 168.304 295.296C168.63 295.624 168.814 296.068 168.814 296.531Z" fill="#F9B300"/>
<path d="M168.095 296.531C168.097 296.736 168.037 296.937 167.924 297.108C167.812 297.28 167.651 297.413 167.462 297.492C167.273 297.572 167.065 297.593 166.864 297.553C166.663 297.513 166.478 297.415 166.333 297.27C166.189 297.125 166.09 296.94 166.051 296.739C166.011 296.537 166.032 296.329 166.111 296.14C166.19 295.95 166.324 295.789 166.495 295.676C166.666 295.563 166.866 295.503 167.071 295.505C167.343 295.505 167.603 295.613 167.795 295.806C167.987 295.998 168.095 296.259 168.095 296.531Z" fill="#FAFAFA"/>
<path d="M174.586 296.087C174.54 296.087 174.502 294.195 174.502 291.867C174.502 289.539 174.502 287.648 174.586 287.648C174.671 287.648 174.663 289.539 174.663 291.867C174.663 294.195 174.625 296.087 174.586 296.087Z" fill="#F9B300"/>
<path d="M178.346 296.531C178.346 296.876 178.244 297.214 178.052 297.501C177.861 297.788 177.589 298.012 177.27 298.144C176.952 298.276 176.601 298.311 176.263 298.244C175.925 298.176 175.615 298.01 175.371 297.766C175.127 297.522 174.961 297.21 174.894 296.872C174.827 296.533 174.861 296.182 174.993 295.863C175.125 295.544 175.348 295.271 175.635 295.079C175.922 294.887 176.259 294.785 176.603 294.785C177.066 294.785 177.509 294.969 177.836 295.296C178.163 295.624 178.346 296.068 178.346 296.531Z" fill="#F9B300"/>
<path d="M177.583 296.531C177.584 296.736 177.525 296.937 177.413 297.108C177.3 297.279 177.14 297.412 176.951 297.492C176.763 297.571 176.555 297.593 176.354 297.554C176.154 297.515 175.969 297.417 175.824 297.273C175.679 297.128 175.58 296.944 175.539 296.743C175.499 296.543 175.519 296.334 175.597 296.145C175.675 295.956 175.807 295.794 175.977 295.68C176.147 295.566 176.347 295.505 176.551 295.505C176.823 295.505 177.085 295.613 177.278 295.805C177.471 295.997 177.581 296.258 177.583 296.531V296.531Z" fill="#FAFAFA"/>
<path d="M176.581 293.307C176.581 293.353 176.329 293.384 176.023 293.384C175.717 293.384 175.465 293.384 175.465 293.307C175.465 293.23 175.717 293.223 176.023 293.223C176.329 293.223 176.581 293.261 176.581 293.307Z" fill="#F9B300"/>
<path d="M319.56 303.136C313.249 279.219 299.229 261.365 279.537 252.906C259.846 244.447 231.675 252.817 218.05 269.341C208.082 281.424 205.012 298.378 193.863 309.375C183.672 319.43 168.434 322.648 154.117 322.316C139.799 321.983 125.732 318.588 111.456 317.47C97.181 316.352 81.9534 317.787 70.2479 326.033C54.885 336.858 45.7339 363.275 47.4975 381.977C49.9323 407.776 67.142 433.881 90.7923 439.449L245.825 441.623C266.177 441.103 288.486 421.741 299.249 403.034C304.972 393.031 310.055 390.722 315.413 372.468C324.128 342.769 325.028 323.849 319.56 303.136Z" fill="#EBEBEB"/>
<path d="M364.203 456.883C364.203 456.961 282.665 457.018 182.117 457.018C81.5693 457.018 0 456.961 0 456.883C0 456.805 81.5225 456.748 182.117 456.748C282.712 456.748 364.203 456.81 364.203 456.883Z" fill="#263238"/>
<path d="M275.344 347.667C275.344 347.667 283.736 349.081 284.412 349.263C285.088 349.445 287.747 350.703 287.882 351.514C287.952 352.579 287.952 353.647 287.882 354.712C287.882 354.712 287.398 355.102 287.102 354.322C286.903 353.564 286.817 352.781 286.847 351.998L285.359 351.426L286.17 352.866L286.306 356.241C286.306 356.241 285.265 356.147 285.062 355.341C284.935 354.78 284.868 354.206 284.864 353.631L283.782 352.715L284.594 353.813L284.864 356.241C284.864 356.241 284.074 356.5 283.824 355.96C283.641 355.259 283.55 354.537 283.553 353.813L280.494 352.741L278.471 353.87L274.688 351.759L275.344 347.667Z" fill="#FFBE9D"/>
<path d="M245.961 326.938C246.003 327.104 256.075 340.976 256.075 340.976L276.312 347.267L275.391 354.863L250.591 349.871L241.789 339.774L245.961 326.938Z" fill="#F9B300"/>
<g opacity="0.2">
<path d="M245.961 326.938C246.003 327.104 256.075 340.976 256.075 340.976L276.312 347.267L275.391 354.863L250.591 349.871L241.789 339.774L245.961 326.938Z" fill="black"/>
</g>
<path d="M210.709 346.014H169.36C168.483 346.014 167.773 346.724 167.773 347.599V352.481C167.773 353.357 168.483 354.067 169.36 354.067H210.709C211.585 354.067 212.296 353.357 212.296 352.481V347.599C212.296 346.724 211.585 346.014 210.709 346.014Z" fill="#F5F5F5"/>
<path d="M210.714 354.067C210.714 354.067 210.803 354.067 210.974 354.031C211.305 353.97 211.607 353.804 211.836 353.558C212.065 353.311 212.208 352.998 212.244 352.663C212.244 352.175 212.244 351.592 212.244 350.948C212.244 350.303 212.244 349.58 212.244 348.795C212.244 348.4 212.244 347.989 212.244 347.563C212.237 347.352 212.187 347.145 212.098 346.953C212.008 346.762 211.881 346.591 211.724 346.45C211.553 346.306 211.352 346.201 211.136 346.144C210.905 346.093 210.669 346.078 210.433 346.097H208.914H205.611L169.396 346.138C169.194 346.138 168.993 346.18 168.808 346.261C168.623 346.343 168.456 346.462 168.32 346.612C168.184 346.763 168.081 346.94 168.017 347.132C167.953 347.324 167.928 347.527 167.945 347.729C167.945 348.603 167.945 349.471 167.945 350.329V352.279C167.935 352.478 167.953 352.677 167.997 352.871C168.075 353.153 168.234 353.404 168.456 353.594C168.677 353.784 168.951 353.903 169.24 353.937C169.422 353.937 169.646 353.937 169.854 353.937H179.468L195.747 353.968L206.724 354.01L209.71 354.036H210.485H210.751H210.485H209.71L206.724 354.062L195.747 354.104L179.468 354.135H169.818C169.605 354.135 169.407 354.135 169.173 354.135C168.946 354.108 168.727 354.037 168.528 353.927C168.329 353.816 168.154 353.668 168.012 353.489C167.871 353.311 167.767 353.106 167.706 352.887C167.65 352.67 167.629 352.445 167.643 352.222V350.293C167.643 349.435 167.643 348.566 167.643 347.693C167.629 347.457 167.662 347.221 167.74 346.998C167.817 346.775 167.938 346.569 168.096 346.393C168.257 346.215 168.454 346.073 168.673 345.976C168.893 345.88 169.13 345.83 169.37 345.832L205.585 345.873H210.407C210.657 345.863 210.907 345.884 211.151 345.936C211.389 346 211.61 346.117 211.796 346.279C211.972 346.431 212.115 346.618 212.214 346.829C212.313 347.039 212.368 347.268 212.374 347.501C212.374 347.927 212.374 348.343 212.374 348.738C212.374 349.523 212.374 350.241 212.374 350.89C212.374 351.54 212.374 352.107 212.348 352.617C212.29 353.048 212.064 353.439 211.718 353.703C211.508 353.861 211.261 353.963 211 354C210.909 354.037 210.813 354.06 210.714 354.067Z" fill="#263238"/>
<path d="M322.985 456.978C334.72 456.415 343.776 446.451 343.213 434.723C342.649 422.995 332.679 413.944 320.944 414.507C309.209 415.071 300.152 425.035 300.716 436.763C301.28 448.491 311.25 457.541 322.985 456.978Z" fill="#263238"/>
<path d="M300.701 435.383C300.701 435.383 300.701 435.42 300.701 435.441C300.654 441.057 302.832 446.463 306.76 450.48C310.688 454.496 316.047 456.796 321.666 456.877C327.285 456.958 332.708 454.813 336.751 450.912C340.793 447.011 343.126 441.669 343.241 436.054C343.241 436.054 343.241 436.018 343.241 435.997L300.701 435.383Z" fill="#263238"/>
<path d="M307.032 435.529C306.989 438.481 307.823 441.38 309.429 443.858C311.034 446.336 313.339 448.283 316.052 449.452C318.764 450.622 321.763 450.961 324.669 450.427C327.574 449.893 330.256 448.51 332.375 446.452C334.494 444.395 335.955 441.756 336.573 438.869C337.191 435.982 336.938 432.977 335.847 430.233C334.756 427.489 332.876 425.131 330.443 423.455C328.011 421.78 325.136 420.863 322.182 420.82C318.221 420.763 314.4 422.281 311.559 425.039C308.718 427.798 307.09 431.571 307.032 435.529V435.529Z" fill="#FAFAFA"/>
<path d="M322.182 420.82C318.221 420.763 314.4 422.281 311.559 425.039C308.718 427.798 307.09 431.571 307.032 435.529L336.899 435.961C336.956 432.002 335.438 428.184 332.678 425.344C329.918 422.505 326.142 420.878 322.182 420.82Z" fill="#E0E0E0"/>
<path d="M312.87 435.612C312.843 437.411 313.351 439.177 314.329 440.687C315.306 442.197 316.71 443.383 318.363 444.096C320.015 444.808 321.842 445.015 323.612 444.69C325.382 444.365 327.016 443.523 328.307 442.27C329.598 441.016 330.489 439.409 330.865 437.65C331.242 435.891 331.088 434.06 330.424 432.389C329.759 430.717 328.614 429.28 327.132 428.259C325.65 427.238 323.898 426.68 322.099 426.654C319.686 426.619 317.359 427.543 315.628 429.223C313.898 430.903 312.905 433.201 312.87 435.612V435.612Z" fill="#263238"/>
<path d="M311.871 404.573C311.871 404.573 333.648 397.99 342.654 421.637L297.08 435.747L311.871 404.573Z" fill="#F9B300"/>
<path d="M191.738 456.98C203.473 456.417 212.529 446.453 211.966 434.725C211.402 422.997 201.432 413.946 189.697 414.51C177.961 415.073 168.905 425.037 169.469 436.765C170.033 448.493 180.003 457.543 191.738 456.98Z" fill="#263238"/>
<path d="M169.448 435.383C169.448 435.383 169.448 435.42 169.448 435.441C169.401 441.057 171.579 446.463 175.507 450.48C179.435 454.496 184.794 456.796 190.413 456.877C196.032 456.958 201.455 454.813 205.498 450.912C209.54 447.011 211.874 441.669 211.988 436.054V435.987L169.448 435.383Z" fill="#263238"/>
<path d="M175.8 435.529C175.757 438.481 176.591 441.38 178.197 443.858C179.802 446.336 182.107 448.283 184.82 449.452C187.533 450.622 190.531 450.961 193.437 450.427C196.342 449.893 199.024 448.51 201.143 446.452C203.262 444.395 204.723 441.756 205.341 438.869C205.959 435.982 205.706 432.977 204.615 430.233C203.524 427.489 201.644 425.131 199.211 423.455C196.779 421.78 193.904 420.863 190.95 420.82C186.989 420.763 183.168 422.281 180.327 425.039C177.486 427.798 175.858 431.571 175.8 435.529V435.529Z" fill="#FAFAFA"/>
<path d="M190.929 420.82C186.972 420.769 183.156 422.289 180.32 425.047C177.483 427.805 175.858 431.575 175.8 435.529L205.668 435.961C205.696 433.999 205.337 432.051 204.611 430.228C203.886 428.405 202.807 426.743 201.439 425.337C200.07 423.931 198.437 422.808 196.634 422.033C194.83 421.258 192.892 420.846 190.929 420.82Z" fill="#E0E0E0"/>
<path d="M181.617 435.612C181.59 437.411 182.098 439.177 183.076 440.687C184.053 442.197 185.457 443.383 187.11 444.096C188.762 444.808 190.589 445.015 192.359 444.69C194.129 444.365 195.763 443.523 197.054 442.27C198.345 441.016 199.236 439.409 199.612 437.65C199.989 435.891 199.835 434.06 199.171 432.389C198.506 430.717 197.361 429.28 195.879 428.259C194.397 427.238 192.645 426.68 190.846 426.654C188.433 426.619 186.106 427.543 184.375 429.223C182.645 430.903 181.652 433.201 181.617 435.612V435.612Z" fill="#263238"/>
<path d="M220.973 427.21C220.854 427.273 209.778 425.5 209.778 425.5C209.179 426.281 208.416 426.922 207.544 427.378C206.671 427.834 205.71 428.095 204.726 428.141C199.94 428.37 195.263 428.583 191.2 428.765C189.384 428.846 187.675 429.643 186.446 430.981C185.218 432.319 184.57 434.089 184.644 435.903V435.903C184.718 437.626 185.436 439.257 186.657 440.475C187.878 441.692 189.513 442.406 191.236 442.475L214.819 443.406C218.695 443.557 223.845 441.207 226.264 438.175L220.973 427.21Z" fill="#455A64"/>
<path d="M163.096 417.789C163.096 417.789 162.087 397.07 181.57 392.755V390.098H249.816V396.472C249.816 396.472 239.801 408.529 243.052 418.538C246.304 428.546 247.344 429.571 247.344 429.571H286.186C289.251 425.266 290.959 420.144 291.092 414.862C291.3 406.075 287.648 391.055 284.916 381.452C282.451 372.691 280.89 365.391 280.89 365.391L292.543 361.507C292.543 361.507 314.107 389.713 314.987 391.273C315.866 392.833 318.862 396.555 318.16 404.656C317.458 412.756 298.058 437.744 292.97 440.562C287.882 443.38 283.283 443.557 278.7 444.259C274.725 444.872 245.321 444.467 237.626 444.347C234.952 444.33 232.331 443.603 230.031 442.241C227.731 440.848 226.004 438.539 224.095 434.754L220.021 426.831L163.096 417.789Z" fill="#F9B300"/>
<path d="M168.319 416.365L159.725 429.82C159.47 430.193 159.343 430.639 159.364 431.09C159.385 431.542 159.552 431.974 159.841 432.322C160.13 432.669 160.524 432.914 160.964 433.018C161.404 433.122 161.865 433.08 162.279 432.898C163.349 432.42 164.326 431.759 165.167 430.943C169.094 427.205 176.092 417.358 176.092 417.358L168.319 416.365Z" fill="#455A64"/>
<path d="M229.963 418.787C229.963 418.787 229.963 418.72 230.015 418.59L230.187 418.023C230.394 417.296 230.545 416.553 230.639 415.803C230.927 413.026 230.468 410.222 229.308 407.682C228.527 405.929 227.456 404.32 226.139 402.925C224.627 401.33 222.871 399.986 220.937 398.942C218.793 397.785 216.5 396.931 214.122 396.405C211.558 395.852 208.941 395.582 206.318 395.599C203.707 395.618 201.1 395.811 198.514 396.176C195.996 396.514 193.582 396.93 191.304 397.45C187.258 398.308 183.359 399.75 179.728 401.729C177.29 403.081 175.062 404.782 173.116 406.777C172.429 407.484 171.935 408.072 171.607 408.472L171.238 408.935C171.198 408.99 171.153 409.04 171.103 409.086C171.677 408.237 172.324 407.44 173.038 406.704C174.968 404.671 177.191 402.938 179.635 401.562C183.272 399.548 187.186 398.079 191.252 397.205C193.53 396.685 195.934 396.254 198.478 395.911C201.084 395.542 203.712 395.348 206.344 395.328C208.981 395.311 211.612 395.585 214.189 396.145C216.591 396.69 218.906 397.564 221.067 398.744C223.028 399.803 224.807 401.169 226.337 402.789C227.663 404.209 228.738 405.844 229.516 407.625C230.671 410.199 231.106 413.038 230.775 415.839C230.665 416.593 230.491 417.336 230.254 418.06C230.171 418.299 230.109 418.481 230.057 418.621C230.03 418.679 229.999 418.735 229.963 418.787V418.787Z" fill="#263238"/>
<path d="M226.035 414.15C226.004 414.15 226.144 413.822 226.29 413.229C226.485 412.376 226.512 411.493 226.368 410.63C226.166 409.361 225.736 408.138 225.099 407.022C224.738 406.353 224.317 405.72 223.84 405.129C223.34 404.486 222.773 403.899 222.149 403.377C220.932 402.375 219.562 401.575 218.091 401.006C216.888 400.534 215.64 400.186 214.366 399.966C213.505 399.821 212.637 399.722 211.765 399.67C211.445 399.666 211.125 399.641 210.808 399.597C210.89 399.585 210.975 399.585 211.057 399.597C211.219 399.597 211.458 399.597 211.77 399.597C212.641 399.61 213.51 399.681 214.371 399.81C215.665 399.996 216.935 400.322 218.159 400.782C219.667 401.35 221.073 402.16 222.321 403.179C222.957 403.715 223.536 404.317 224.048 404.973C224.526 405.581 224.949 406.23 225.312 406.912C225.956 408.057 226.376 409.313 226.55 410.614C226.68 411.493 226.625 412.389 226.389 413.245C226.327 413.476 226.244 413.701 226.139 413.916C226.116 413.998 226.081 414.077 226.035 414.15Z" fill="#F5F5F5"/>
<g opacity="0.4">
<path d="M212.67 395.984C216.344 396.654 219.841 398.07 222.945 400.143C226.067 402.214 228.471 405.2 229.828 408.691C231.191 412.195 230.988 416.838 229.552 419.739L234.375 420.139C235.998 414.727 234.235 408.087 230.333 403.85C228.1 401.379 225.376 399.401 222.335 398.043C219.293 396.685 216.002 395.977 212.67 395.963" fill="black"/>
</g>
<path d="M211.13 353.662H168.944C166.478 353.662 164.48 355.659 164.48 358.123V385.653C164.48 388.116 166.478 390.114 168.944 390.114H211.13C213.596 390.114 215.594 388.116 215.594 385.653V358.123C215.594 355.659 213.596 353.662 211.13 353.662Z" fill="#455A64"/>
<path d="M215.594 361.793C215.594 361.871 204.102 361.928 189.93 361.928C175.759 361.928 164.261 361.871 164.261 361.793C164.261 361.715 175.748 361.658 189.93 361.658C204.112 361.658 215.594 361.721 215.594 361.793Z" fill="#263238"/>
<path d="M249.784 392.526C249.784 392.599 234.442 392.661 215.526 392.661C196.61 392.661 181.268 392.599 181.268 392.526C181.268 392.453 196.605 392.391 215.526 392.391C234.448 392.391 249.784 392.453 249.784 392.526Z" fill="#263238"/>
<path d="M249.816 390.114C250.511 389.233 250.941 388.172 251.054 387.056C251.158 385.346 250.378 383.204 248.531 383.204H224.964C223.13 383.204 221.372 383.932 220.075 385.228C218.778 386.523 218.05 388.281 218.05 390.114H249.816Z" fill="#455A64"/>
<path d="M280.89 365.391L276.791 356.849C276.243 355.676 276.154 354.342 276.538 353.106C276.923 351.871 277.755 350.823 278.872 350.168L291.129 342.863C291.768 342.479 292.5 342.275 293.246 342.275H295.894L296.935 359.542L292.856 361.117L295.457 365.318L280.89 365.391Z" fill="#F9B300"/>
<path d="M295.93 342.92C295.93 342.92 300.123 343.882 300.649 350.339C301.174 356.797 296.95 358.814 296.95 358.814L295.93 342.92Z" fill="#EBEBEB"/>
<path d="M282.32 353.501C282.32 353.501 273.846 357.514 272.81 358.18C272.092 358.637 271.479 359.438 272.04 360.847C272.998 363.244 276.962 360.987 276.962 360.987L284.854 357.046C284.854 357.046 287.887 355.617 286.763 353.823C285.51 351.816 282.32 353.501 282.32 353.501Z" fill="#263238"/>
<path d="M270.324 352.04C270.324 352.04 278.289 353.402 278.965 353.599C279.641 353.797 282.295 355.04 282.43 355.851C282.5 356.915 282.5 357.983 282.43 359.048C282.43 359.048 281.951 359.438 281.649 358.658C281.453 357.898 281.367 357.114 281.394 356.329L279.907 355.757L280.718 357.197L280.853 360.577C280.853 360.577 279.813 360.483 279.615 359.672C279.487 359.112 279.421 358.541 279.418 357.967L278.33 357.046L279.142 358.143L279.418 360.577C279.418 360.577 278.627 360.831 278.377 360.291C278.194 359.59 278.103 358.868 278.107 358.143L275.048 357.078L273.024 358.206L269.84 356.438L270.324 352.04Z" fill="#FFBE9D"/>
<path d="M282.726 340.955C282.726 344.178 281.244 346.788 279.418 346.788C277.592 346.788 276.109 344.189 276.109 340.955C276.109 337.721 277.586 335.121 279.418 335.121C281.249 335.121 282.726 337.721 282.726 340.955Z" fill="#263238"/>
<path d="M279.959 344.963L281.78 351.265C282.112 351.098 282.377 350.822 282.532 350.483C282.686 350.145 282.72 349.764 282.628 349.404C282.17 347.246 281.91 345.712 281.41 343.82C281.348 343.632 279.959 344.963 279.959 344.963" fill="#263238"/>
<g opacity="0.4">
<path d="M243.952 421.205C243.776 420.685 243.588 420.165 243.432 419.609C243.276 419.053 243.078 418.569 242.943 418.049C242.733 417.269 242.58 416.475 242.485 415.673C239.416 428.151 244.103 436.954 252.146 437.572C263.904 438.477 278.237 439.132 284.032 437.614C294.598 434.843 298.474 426.035 299.4 424.585C300.326 423.134 308.728 407.781 303.562 392.999C298.396 378.218 289.438 362.521 289.438 362.521L280.89 365.391C280.89 365.391 282.451 372.67 284.932 381.426C287.664 391.029 291.316 406.049 291.108 414.836C290.975 420.118 289.267 425.24 286.202 429.545H247.365C247.365 429.545 246.533 428.713 243.968 421.226" fill="black"/>
</g>
<path d="M161.546 414.555L161.822 411.592L232.721 419.754C233.668 419.866 234.583 420.17 235.409 420.647C236.235 421.125 236.954 421.766 237.523 422.531C238.092 423.296 238.499 424.17 238.718 425.098C238.937 426.026 238.964 426.989 238.797 427.928L238.48 429.721L165.125 419.068C164.061 418.923 163.095 418.372 162.428 417.531C161.761 416.69 161.445 415.624 161.546 414.555V414.555Z" fill="#F9B300"/>
<g opacity="0.6">
<path d="M161.546 414.555L161.822 411.592L232.721 419.754C233.668 419.866 234.583 420.17 235.409 420.647C236.235 421.125 236.954 421.766 237.523 422.531C238.092 423.296 238.499 424.17 238.718 425.098C238.937 426.026 238.964 426.989 238.797 427.928L238.48 429.721L165.125 419.068C164.061 418.923 163.095 418.372 162.428 417.531C161.761 416.69 161.445 415.624 161.546 414.555V414.555Z" fill="black"/>
</g>
<g opacity="0.3">
<path d="M299.4 434.375C299.4 434.375 315.008 417.217 318.228 403.73C319.846 403.721 321.462 403.841 323.061 404.089C323.061 404.089 313.832 429.165 299.4 434.375Z" fill="black"/>
</g>
<path d="M317.999 397.689C318.039 397.83 318.067 397.974 318.082 398.12C318.124 398.406 318.207 398.828 318.259 399.373C318.411 400.932 318.371 402.504 318.139 404.053C317.773 406.34 317.072 408.562 316.058 410.645C314.822 413.182 313.443 415.647 311.928 418.028C309.208 422.374 306.154 426.501 302.792 430.371C301.523 431.874 300.472 433.07 299.743 433.891L298.901 434.832C298.805 434.944 298.702 435.05 298.594 435.149C298.671 435.025 298.76 434.909 298.859 434.801L299.665 433.824L302.646 430.252C305.955 426.352 308.98 422.22 311.699 417.888C313.216 415.515 314.605 413.062 315.861 410.541C316.861 408.478 317.561 406.283 317.942 404.022C318.181 402.495 318.249 400.946 318.145 399.405C318.108 398.859 318.041 398.438 318.02 398.146C317.998 397.995 317.991 397.842 317.999 397.689V397.689Z" fill="#263238"/>
<path d="M291.019 434.25C290.126 433.567 289.289 432.812 288.517 431.994C287.684 431.239 286.911 430.42 286.207 429.545C287.935 430.981 289.545 432.555 291.019 434.25V434.25Z" fill="#263238"/>
<path d="M244.696 433.725C244.947 432.924 245.337 432.172 245.846 431.505C246.28 430.786 246.834 430.148 247.485 429.617C247.542 429.675 246.829 430.527 246.07 431.656C245.31 432.784 244.769 433.756 244.696 433.725Z" fill="#263238"/>
<path d="M214.709 443.629C215.563 442.852 216.282 441.938 216.837 440.926C217.42 439.82 217.774 438.609 217.878 437.364C218.035 435.847 217.77 434.315 217.111 432.938C216.451 431.562 215.424 430.395 214.142 429.565C213.109 428.864 211.945 428.378 210.719 428.136C209.583 427.931 208.421 427.915 207.28 428.089C207.354 428.057 207.43 428.035 207.509 428.021C207.735 427.962 207.964 427.917 208.196 427.886C209.047 427.772 209.911 427.793 210.756 427.949C212.016 428.171 213.216 428.65 214.283 429.357C215.616 430.204 216.683 431.408 217.363 432.832C218.043 434.256 218.308 435.843 218.127 437.411C218.008 438.689 217.625 439.928 217.004 441.051C216.595 441.805 216.068 442.49 215.443 443.078C215.279 443.24 215.106 443.391 214.923 443.531C214.856 443.572 214.784 443.605 214.709 443.629V443.629Z" fill="#263238"/>
<path d="M188.807 438.196C188.628 437.377 188.543 436.539 188.552 435.701C188.462 434.864 188.462 434.021 188.552 433.184C188.811 434.841 188.892 436.522 188.791 438.196H188.807Z" fill="#263238"/>
<path d="M190.7 438.201C190.311 436.554 190.097 434.871 190.061 433.179C190.298 433.993 190.449 434.829 190.513 435.675C190.664 436.508 190.727 437.355 190.7 438.201V438.201Z" fill="#263238"/>
<path d="M219.943 390.114C219.943 390.186 211.323 390.249 200.694 390.249C190.066 390.249 181.445 390.186 181.445 390.114C181.445 390.041 190.066 389.978 200.694 389.978C211.323 389.978 219.943 390.036 219.943 390.114Z" fill="#263238"/>
<path d="M192.027 390.088C191.949 390.088 191.892 380.209 191.892 368.053C191.892 355.897 191.928 346.04 192.027 346.04C192.126 346.04 192.162 355.918 192.162 368.079C192.162 380.24 192.1 390.088 192.027 390.088Z" fill="#263238"/>
<path d="M186.725 390.051C186.653 390.051 187.022 380.173 187.553 368.027C188.083 355.882 188.593 346.008 188.645 346.014C188.697 346.019 188.354 355.892 187.823 368.038C187.293 380.183 186.824 390.056 186.725 390.051Z" fill="#263238"/>
<path d="M174.807 450.18C174.723 450.11 174.647 450.032 174.578 449.947C174.443 449.791 174.219 449.567 173.974 449.25C173.255 448.367 172.613 447.424 172.055 446.432C170.172 443.146 169.188 439.423 169.204 435.637C169.219 431.851 170.233 428.135 172.143 424.865C172.707 423.877 173.357 422.939 174.084 422.063C174.333 421.746 174.557 421.543 174.698 421.366C174.838 421.19 174.921 421.132 174.927 421.143C174.875 421.237 174.812 421.324 174.739 421.403C174.614 421.574 174.401 421.803 174.167 422.131C171.498 425.528 169.89 429.636 169.544 433.941C169.198 438.247 170.129 442.559 172.221 446.338C172.76 447.332 173.374 448.282 174.058 449.182C174.287 449.51 174.495 449.744 174.62 449.915C174.744 450.087 174.817 450.17 174.807 450.18Z" fill="#455A64"/>
<path d="M249.337 410.567L249.176 410.869L246.033 416.749L241.643 420.971L250.419 432.649L257.729 431.437C257.729 431.437 256.912 429.768 253.239 429.446L251.85 422.469L257.005 414.482" fill="#455A64"/>
<path d="M241.653 420.987L250.43 432.664L257.739 431.453L256.735 430.491L250.737 431.146L242.59 420.087L241.653 420.987Z" fill="#E0E0E0"/>
<path d="M252.667 426.254C252.625 426.337 252.147 426.165 251.626 426.28C251.106 426.394 250.685 426.69 250.617 426.628C250.549 426.565 250.877 426.077 251.564 425.957C252.251 425.838 252.724 426.186 252.667 426.254Z" fill="#263238"/>
<path d="M252.276 424.548C252.214 424.611 251.813 424.236 251.236 424.215C250.658 424.195 250.195 424.543 250.149 424.475C250.102 424.408 250.185 424.314 250.372 424.163C250.625 423.979 250.933 423.884 251.246 423.893C251.56 423.901 251.861 424.017 252.099 424.221C252.24 424.366 252.276 424.507 252.276 424.548Z" fill="#263238"/>
<path d="M251.938 422.287C251.865 422.344 251.543 421.964 251.007 421.871C250.471 421.777 250.039 422.021 249.966 421.943C249.894 421.865 250.013 421.793 250.206 421.683C250.46 421.549 250.752 421.504 251.035 421.554C251.318 421.605 251.575 421.75 251.766 421.964C251.943 422.131 251.975 422.266 251.938 422.287Z" fill="#263238"/>
<path d="M253.603 420.233C253.525 420.274 253.249 419.895 252.745 419.677C252.24 419.458 251.782 419.489 251.761 419.401C251.741 419.313 252.282 419.099 252.88 419.401C253.478 419.703 253.691 420.207 253.603 420.233Z" fill="#263238"/>
<path d="M254.311 418.574C254.274 418.6 253.988 418.351 253.546 417.914L252.797 417.139C252.627 416.988 252.48 416.813 252.36 416.619C252.325 416.55 252.304 416.474 252.299 416.396C252.293 416.319 252.304 416.241 252.329 416.167C252.358 416.083 252.412 416.009 252.483 415.956C252.555 415.902 252.64 415.871 252.729 415.865C252.995 415.869 253.255 415.952 253.473 416.105C253.664 416.226 253.838 416.371 253.993 416.536C254.252 416.821 254.442 417.16 254.55 417.529C254.687 417.862 254.687 418.236 254.55 418.569C254.497 418.248 254.424 417.93 254.332 417.618C254.205 417.298 254.015 417.006 253.775 416.76C253.633 416.619 253.474 416.497 253.301 416.396C253.136 416.288 252.947 416.222 252.75 416.203C252.723 416.204 252.696 416.213 252.674 416.228C252.652 416.244 252.635 416.266 252.625 416.292C252.597 416.36 252.597 416.437 252.625 416.505C252.727 416.672 252.849 416.826 252.989 416.963L253.702 417.789C253.946 418.017 254.151 418.282 254.311 418.574V418.574Z" fill="#263238"/>
<path d="M254.607 418.746C254.571 418.746 254.534 418.361 254.857 417.857C255.076 417.524 255.397 417.271 255.772 417.135C256.147 416.999 256.556 416.988 256.938 417.103C256.98 417.13 257.015 417.166 257.042 417.208C257.069 417.25 257.087 417.298 257.094 417.347C257.101 417.432 257.083 417.517 257.042 417.592C256.984 417.696 256.908 417.789 256.818 417.867C256.673 418.007 256.517 418.134 256.35 418.247C256.069 418.436 255.76 418.58 255.434 418.673C255.144 418.791 254.823 418.814 254.519 418.741C254.519 418.689 254.857 418.657 255.361 418.455C255.652 418.34 255.926 418.188 256.178 418.002C256.327 417.893 256.466 417.771 256.594 417.638C256.658 417.583 256.712 417.518 256.756 417.446C256.782 417.373 256.756 417.394 256.756 417.378C256.685 417.348 256.609 417.332 256.532 417.332C256.44 417.324 256.348 417.324 256.256 417.332C256.078 417.347 255.902 417.389 255.736 417.456C255.455 417.566 255.206 417.745 255.013 417.976C254.86 418.223 254.725 418.481 254.607 418.746V418.746Z" fill="#263238"/>
<path d="M247.449 419.796C247.477 419.968 247.454 420.144 247.383 420.302C247.311 420.461 247.194 420.594 247.046 420.686C246.899 420.778 246.727 420.824 246.553 420.819C246.379 420.813 246.211 420.756 246.069 420.655C245.928 420.554 245.82 420.413 245.758 420.25C245.697 420.087 245.686 419.91 245.725 419.74C245.765 419.571 245.854 419.417 245.981 419.299C246.108 419.18 246.268 419.102 246.439 419.073C246.669 419.037 246.903 419.093 247.092 419.228C247.281 419.363 247.409 419.567 247.449 419.796V419.796Z" fill="#E0E0E0"/>
<path d="M275.974 416.183L278.32 431.406L297.293 428.588C296.908 426.794 286.555 424.616 286.555 424.616L285.453 414.8L275.974 416.183Z" fill="#455A64"/>
<path d="M280.568 424.668C280.393 424.75 280.255 424.893 280.18 425.071C280.105 425.248 280.099 425.448 280.162 425.63C280.239 425.806 280.38 425.946 280.557 426.023C280.734 426.099 280.933 426.105 281.114 426.04C281.302 425.952 281.45 425.796 281.528 425.603C281.606 425.41 281.609 425.195 281.535 425.001C281.437 424.823 281.274 424.69 281.079 424.631C280.885 424.572 280.675 424.591 280.495 424.683" fill="#E0E0E0"/>
<path d="M278.32 431.406L278.143 429.846L296.398 427.72C296.398 427.72 297.299 427.964 297.293 428.572L278.32 431.406Z" fill="#E0E0E0"/>
<path d="M286.847 424.475C286.847 424.569 286.405 424.678 285.988 425.042C285.572 425.406 285.395 425.832 285.302 425.812C285.208 425.791 285.27 425.229 285.775 424.798C286.28 424.366 286.857 424.387 286.847 424.475Z" fill="#263238"/>
<path d="M288.959 425.001C288.995 425.089 288.616 425.302 288.361 425.744C288.106 426.186 288.075 426.607 287.981 426.618C287.887 426.628 287.752 426.098 288.08 425.578C288.408 425.058 288.943 424.912 288.959 425.001Z" fill="#263238"/>
<path d="M290.447 427.21C290.363 427.247 290.166 426.799 290.327 426.259C290.488 425.718 290.894 425.448 290.946 425.52C290.998 425.593 290.769 425.905 290.639 426.352C290.509 426.799 290.535 427.189 290.447 427.21Z" fill="#263238"/>
<path d="M286.347 422.266C286.347 422.354 285.879 422.292 285.359 422.401C284.839 422.51 284.459 422.744 284.396 422.671C284.334 422.598 284.682 422.209 285.291 422.084C285.9 421.959 286.384 422.183 286.347 422.266Z" fill="#263238"/>
<path d="M285.572 420.082C285.273 420.212 284.944 420.259 284.62 420.217C284.268 420.207 283.919 420.155 283.579 420.061C283.372 420.012 283.169 419.947 282.971 419.869C282.855 419.827 282.748 419.766 282.653 419.687C282.582 419.632 282.531 419.553 282.511 419.465C282.49 419.377 282.5 419.285 282.539 419.203C282.576 419.132 282.629 419.069 282.694 419.021C282.759 418.974 282.834 418.942 282.914 418.928C283.032 418.91 283.154 418.91 283.273 418.928C283.484 418.943 283.693 418.982 283.897 419.042C284.238 419.139 284.563 419.288 284.859 419.484C285.379 419.827 285.562 420.15 285.53 420.176C285.499 420.202 285.234 419.952 284.74 419.682C284.45 419.525 284.14 419.408 283.819 419.333C283.632 419.284 283.44 419.255 283.247 419.245C283.038 419.245 282.867 419.245 282.83 419.344C282.794 419.443 282.83 419.391 282.867 419.448C282.938 419.502 283.017 419.546 283.101 419.578C283.279 419.658 283.461 419.729 283.647 419.791C283.964 419.892 284.29 419.963 284.62 420.004C284.939 420.007 285.257 420.033 285.572 420.082V420.082Z" fill="#263238"/>
<path d="M285.463 420.233C285.432 420.233 285.198 419.947 285.073 419.354C285.016 419.01 285.016 418.659 285.073 418.314C285.106 418.106 285.159 417.9 285.229 417.701C285.26 417.57 285.324 417.449 285.415 417.35C285.506 417.251 285.621 417.176 285.749 417.134C285.834 417.123 285.919 417.137 285.997 417.172C286.074 417.208 286.14 417.265 286.186 417.337C286.251 417.442 286.302 417.556 286.337 417.675C286.401 417.882 286.432 418.098 286.431 418.314C286.431 418.677 286.341 419.034 286.17 419.354C285.874 419.874 285.504 420.066 285.494 420.035C285.484 420.004 285.749 419.77 285.962 419.255C286.086 418.96 286.143 418.64 286.129 418.319C286.124 418.134 286.09 417.949 286.03 417.774C285.973 417.576 285.874 417.425 285.801 417.456C285.728 417.488 285.567 417.644 285.515 417.815C285.444 417.994 285.39 418.178 285.354 418.366C285.295 418.687 285.281 419.014 285.312 419.339C285.359 419.869 285.51 420.212 285.463 420.233Z" fill="#263238"/>
<path d="M261.048 380.422L244.78 415.85L255.523 422.297L278.018 379.668" fill="#263238"/>
<path d="M287.877 423.103L276.208 424.975L269.221 383.308L234.703 385.809C233.789 385.872 232.872 385.786 231.987 385.554C222.295 382.897 223.606 370.544 224.542 368.563L272.306 367.195C274.808 367.123 277.249 367.975 279.162 369.59C281.074 371.205 282.323 373.468 282.669 375.946L287.877 423.103Z" fill="#263238"/>
<path d="M224.058 370.518L224.23 352.903C224.23 352.903 221.956 341.464 221.28 336.946C220.24 329.958 218.804 326.636 230.259 321.671L232.767 320.704L236.643 320.756C241.263 321.104 246.132 325.279 246.247 328.035L250.716 367.741L224.058 370.518Z" fill="#F9B300"/>
<path d="M224.776 325.763C224.776 325.763 221.541 332.719 222.175 339.057L234.229 350.62C236.929 353.625 240.311 354.904 244.634 355.164L269.575 357.889L270.267 351.369L246.554 344.651C245.607 344.475 245.134 343.492 244.411 342.858L224.776 325.763Z" fill="#F9B300"/>
<path d="M222.825 327.769C222.965 327.636 223.127 327.527 223.304 327.447C223.817 327.221 224.36 327.069 224.917 326.995C225.809 326.848 226.719 326.848 227.611 326.995C227.887 327.045 228.154 327.136 228.402 327.265C228.656 327.424 228.901 327.598 229.136 327.785C229.614 328.159 230.098 328.591 230.592 329.059C231.591 329.99 232.538 331.17 233.646 332.366C234.754 333.561 235.967 334.846 237.288 336.192C238.609 337.539 240.03 338.948 241.549 340.404C242.314 341.132 243.11 341.87 243.937 342.593C244.358 342.936 244.774 343.341 245.175 343.721C245.552 344.111 246.029 344.391 246.554 344.532V344.532L270.313 351.239L270.422 351.27V351.384C270.376 351.847 270.318 352.341 270.266 352.845C270.084 354.577 269.902 356.293 269.746 357.904V358.039H269.611L259.039 356.864L254.045 356.319L249.264 355.835C247.703 355.663 246.2 355.487 244.738 355.273C243.31 355.098 241.904 354.772 240.545 354.301C239.292 353.824 238.106 353.186 237.017 352.403C235.977 351.67 234.999 350.906 234.099 350.152C230.535 347.116 227.918 344.397 226.103 342.546C225.203 341.615 224.511 340.882 224.048 340.383L223.528 339.811L223.356 339.608C223.356 339.608 223.423 339.665 223.548 339.79C223.673 339.915 223.855 340.107 224.069 340.346L226.15 342.478C227.986 344.303 230.624 347.001 234.193 350.012C235.093 350.755 236.055 351.514 237.101 352.237C238.182 353.004 239.357 353.629 240.597 354.098C241.947 354.559 243.342 354.876 244.759 355.045C246.221 355.253 247.729 355.429 249.28 355.596L254.061 356.064L259.055 356.61L269.616 357.759L269.465 357.878C269.637 356.267 269.819 354.551 269.985 352.814C270.043 352.294 270.095 351.816 270.142 351.353L270.24 351.499L246.517 344.766C245.938 344.622 245.411 344.317 244.998 343.887C244.577 343.487 244.197 343.112 243.765 342.754C242.927 342.026 242.142 341.282 241.377 340.554C239.858 339.093 238.443 337.674 237.127 336.322C235.811 334.97 234.604 333.681 233.485 332.47C232.366 331.258 231.451 330.083 230.462 329.152C230.008 328.702 229.528 328.276 229.027 327.879C228.8 327.688 228.56 327.515 228.309 327.359C228.073 327.231 227.818 327.141 227.554 327.094C226.676 326.933 225.778 326.919 224.896 327.052C224.343 327.114 223.802 327.252 223.288 327.463C223.126 327.553 222.971 327.656 222.825 327.769Z" fill="#263238"/>
<path d="M229.053 305.423L230.26 322.581C230.356 323.93 230.96 325.192 231.951 326.113C232.941 327.035 234.244 327.547 235.597 327.546V327.546C236.329 327.546 237.053 327.396 237.725 327.105C238.396 326.815 239.001 326.389 239.501 325.856C240.001 325.322 240.387 324.691 240.633 324.003C240.88 323.314 240.983 322.582 240.935 321.853C240.826 320.22 240.732 318.884 240.732 318.884C240.732 318.884 244.894 318.239 244.936 314.085C244.967 311.688 244.551 306.25 244.197 302.08C244.081 300.718 243.456 299.449 242.447 298.527C241.438 297.604 240.118 297.094 238.75 297.099H236.237C235.214 297.161 234.214 297.427 233.295 297.882C232.376 298.337 231.558 298.971 230.888 299.747C230.219 300.522 229.711 301.424 229.396 302.399C229.081 303.374 228.964 304.402 229.053 305.423V305.423Z" fill="#FFBE9D"/>
<path d="M240.738 318.816C238.82 318.852 236.935 318.319 235.322 317.283C235.322 317.283 236.602 320.267 240.748 319.882L240.738 318.816Z" fill="#EB996E"/>
<path d="M243.266 307.409C243.267 307.564 243.208 307.713 243.101 307.824C242.994 307.936 242.848 308.002 242.694 308.007C242.619 308.014 242.544 308.006 242.472 307.984C242.4 307.962 242.334 307.925 242.277 307.877C242.22 307.828 242.173 307.769 242.139 307.702C242.105 307.635 242.085 307.562 242.08 307.487C242.078 307.332 242.137 307.183 242.244 307.07C242.351 306.957 242.497 306.891 242.652 306.884C242.803 306.873 242.952 306.921 243.067 307.02C243.182 307.118 243.254 307.258 243.266 307.409V307.409Z" fill="#263238"/>
<path d="M243.484 306.239C243.406 306.317 242.964 305.985 242.319 305.985C241.674 305.985 241.216 306.307 241.143 306.229C241.07 306.151 241.185 306.052 241.393 305.907C241.667 305.714 241.994 305.612 242.329 305.615C242.662 305.615 242.987 305.72 243.255 305.917C243.432 306.063 243.515 306.203 243.484 306.239Z" fill="#263238"/>
<path d="M237.273 307.409C237.275 307.564 237.217 307.714 237.11 307.826C237.002 307.938 236.855 308.003 236.7 308.007C236.626 308.014 236.55 308.006 236.479 307.984C236.407 307.962 236.341 307.925 236.284 307.877C236.226 307.828 236.18 307.769 236.146 307.702C236.112 307.635 236.092 307.562 236.086 307.487C236.085 307.332 236.144 307.183 236.251 307.07C236.357 306.957 236.504 306.891 236.659 306.884C236.81 306.873 236.959 306.921 237.074 307.02C237.189 307.118 237.261 307.258 237.273 307.409V307.409Z" fill="#263238"/>
<path d="M237.189 306.359C237.117 306.437 236.669 306.104 236.024 306.104C235.379 306.104 234.921 306.427 234.854 306.349C234.786 306.271 234.89 306.172 235.098 306.026C235.372 305.834 235.7 305.732 236.034 305.735C236.367 305.733 236.691 305.837 236.961 306.031C237.189 306.182 237.247 306.323 237.189 306.359Z" fill="#263238"/>
<path d="M239.526 311.09C239.863 310.985 240.213 310.922 240.566 310.903C240.727 310.903 240.883 310.851 240.909 310.742C240.927 310.573 240.888 310.403 240.8 310.258L240.311 309.021C239.863 307.971 239.501 306.886 239.229 305.777C239.757 306.789 240.206 307.841 240.571 308.922L241.029 310.17C241.133 310.366 241.164 310.593 241.117 310.81C241.094 310.867 241.057 310.919 241.01 310.96C240.963 311.002 240.907 311.032 240.847 311.049C240.757 311.072 240.664 311.084 240.571 311.085C240.224 311.131 239.873 311.133 239.526 311.09Z" fill="#263238"/>
<path d="M237.647 311.532C237.751 311.532 237.751 312.219 238.344 312.707C238.937 313.196 239.676 313.123 239.681 313.227C239.687 313.331 239.515 313.357 239.203 313.368C238.797 313.372 238.403 313.234 238.089 312.978C237.795 312.728 237.609 312.374 237.569 311.99C237.522 311.725 237.6 311.527 237.647 311.532Z" fill="#263238"/>
<path d="M237.371 303.858C237.309 304.03 236.674 303.952 235.925 304.04C235.176 304.128 234.567 304.336 234.468 304.18C234.37 304.024 234.531 303.941 234.775 303.775C235.101 303.568 235.469 303.438 235.852 303.395C236.236 303.353 236.624 303.399 236.986 303.531C237.262 303.64 237.403 303.775 237.371 303.858Z" fill="#263238"/>
<path d="M243.245 304.394C243.136 304.539 242.694 304.394 242.168 304.394C241.643 304.394 241.19 304.487 241.086 304.336C240.982 304.186 241.112 304.118 241.31 303.983C241.57 303.812 241.878 303.729 242.189 303.744C242.498 303.75 242.798 303.852 243.047 304.035C243.235 304.175 243.297 304.321 243.245 304.394Z" fill="#263238"/>
<path d="M230.452 308.543C230.379 308.511 227.596 307.695 227.69 310.534C227.783 313.373 230.608 312.697 230.614 312.614C230.619 312.53 230.452 308.543 230.452 308.543Z" fill="#FFBE9D"/>
<path d="M229.708 311.569C229.708 311.569 229.661 311.605 229.578 311.647C229.459 311.692 229.328 311.692 229.209 311.647C229.023 311.536 228.869 311.378 228.764 311.189C228.659 311 228.606 310.787 228.61 310.57C228.595 310.327 228.634 310.084 228.725 309.858C228.748 309.768 228.793 309.685 228.856 309.617C228.918 309.548 228.997 309.495 229.084 309.463C229.141 309.447 229.201 309.451 229.255 309.475C229.309 309.498 229.354 309.54 229.38 309.593C229.422 309.671 229.406 309.728 229.422 309.733C229.438 309.738 229.479 309.681 229.453 309.567C229.436 309.496 229.393 309.433 229.334 309.39C229.294 309.362 229.249 309.342 229.202 309.332C229.155 309.321 229.106 309.32 229.058 309.328C228.938 309.351 228.827 309.406 228.736 309.486C228.644 309.566 228.576 309.67 228.538 309.785C228.424 310.034 228.374 310.308 228.392 310.581C228.385 310.834 228.453 311.083 228.589 311.297C228.724 311.511 228.92 311.68 229.151 311.782C229.228 311.802 229.308 311.804 229.385 311.789C229.463 311.774 229.536 311.741 229.599 311.693C229.708 311.636 229.718 311.574 229.708 311.569Z" fill="#EB996E"/>
<path d="M228.866 308.444C229.136 308.426 229.406 308.482 229.647 308.606C229.888 308.73 230.09 308.916 230.234 309.146C230.416 309.551 230.457 310.009 230.64 310.414C230.718 310.623 230.862 310.801 231.049 310.921C231.236 311.042 231.458 311.099 231.68 311.085C231.828 311.039 231.96 310.954 232.064 310.84C232.169 310.726 232.241 310.586 232.273 310.435C232.333 310.133 232.333 309.822 232.273 309.52C232.107 308.194 231.831 306.884 231.779 305.548C231.668 304.207 231.959 302.864 232.616 301.69C232.95 301.109 233.434 300.628 234.018 300.299C234.603 299.971 235.265 299.806 235.936 299.824C236.82 299.896 237.626 300.343 238.506 300.479C239.028 300.547 239.558 300.496 240.058 300.329C240.557 300.163 241.012 299.885 241.388 299.517C241.554 299.377 241.727 299.247 241.908 299.127C241.897 298.813 241.794 298.509 241.612 298.253C239.869 296.642 236.737 296.174 234.437 296.772C233.269 297.059 232.178 297.597 231.239 298.349C230.301 299.1 229.537 300.047 229.001 301.123C228.012 303.276 228.304 306.265 228.85 308.444" fill="#263238"/>
<path d="M244.244 301.435C244.244 301.435 233.35 297.931 228.637 307.352C228.273 306.167 228.036 304.947 227.929 303.713C227.929 302.87 228.449 297.843 233.61 296.262C233.61 296.283 241.409 293.309 244.244 301.435Z" fill="#F9B300"/>
<path d="M234.879 301.669C235.073 301.982 235.336 302.245 235.649 302.439C235.962 302.632 236.316 302.75 236.682 302.783C237.048 302.816 237.417 302.764 237.76 302.63C238.103 302.497 238.41 302.285 238.656 302.012C238.764 302.283 238.954 302.513 239.199 302.671C239.444 302.828 239.733 302.905 240.024 302.89C240.315 302.875 240.594 302.769 240.822 302.588C241.05 302.406 241.215 302.158 241.294 301.877C241.585 302.203 241.939 302.467 242.334 302.652C242.538 302.739 242.764 302.761 242.981 302.715C243.197 302.669 243.395 302.558 243.547 302.397C243.671 302.209 243.73 301.985 243.716 301.76C243.702 301.535 243.615 301.321 243.469 301.149C243.174 300.808 242.793 300.551 242.366 300.406C241.075 299.839 239.657 299.624 238.256 299.782C236.847 299.951 235.557 300.652 234.65 301.742" fill="#263238"/>
<g opacity="0.4">
<path d="M244.244 301.435C243.336 300.485 242.093 299.926 240.779 299.876C237.564 299.735 231.55 301.539 228.637 307.362C228.273 306.178 228.036 304.958 227.929 303.723C227.929 302.881 228.449 297.853 233.61 296.272C233.61 296.283 241.409 293.309 244.244 301.435Z" fill="black"/>
</g>
<path d="M229.089 306.25C230.741 303.791 232.907 301.719 235.436 300.177C237.944 298.617 242.085 297.058 244.936 296.309C245.782 296.029 246.678 295.936 247.563 296.033C248.004 296.089 248.421 296.268 248.765 296.549C249.109 296.831 249.367 297.203 249.509 297.624C249.78 298.701 247.87 300.359 246.97 301.009C246.092 301.596 245.182 302.134 244.244 302.621C244.244 302.621 244.27 300.624 241.076 300.213C236.732 299.657 229.089 306.25 229.089 306.25Z" fill="#F9B300"/>
<g opacity="0.3">
<path d="M225.255 341.631C226.379 344.339 227.513 347.683 229.141 350.121C230.769 352.559 232.944 354.728 235.649 355.84C239.052 357.265 243.073 357.494 246.455 356.038C246.731 355.918 247.272 355.767 247.22 355.471C247.22 355.471 246.101 355.341 245.753 355.284C238.922 354.15 238.178 353.319 234.905 350.719C232.866 349.112 228.345 344.241 225.255 341.631Z" fill="black"/>
</g>
<path d="M246.981 361.357C246.912 361.579 246.815 361.792 246.695 361.991C246.391 362.553 246.021 363.077 245.592 363.551C244.144 365.067 242.323 366.177 240.311 366.769C238.306 367.34 236.236 367.649 234.151 367.689C233.355 367.72 232.71 367.726 232.268 367.726C232.037 367.735 231.805 367.725 231.576 367.694C231.801 367.643 232.032 367.616 232.263 367.616L234.141 367.497C236.203 367.402 238.247 367.07 240.233 366.509C242.21 365.921 244.009 364.849 245.467 363.389C246.035 362.761 246.542 362.081 246.981 361.357Z" fill="#263238"/>
<path d="M276.41 426.217C276.388 426.166 276.374 426.112 276.369 426.056C276.369 425.936 276.317 425.775 276.275 425.578C276.197 425.141 276.083 424.538 275.942 423.737C275.656 422.115 275.256 419.801 274.756 416.947C273.783 411.197 272.441 403.278 270.958 394.533C270.298 390.571 269.668 386.786 269.091 383.329L269.226 383.438L254.29 384.514L250.003 384.805L248.858 384.873H248.567H248.463H248.562L248.858 384.836L249.998 384.732L254.279 384.368L269.205 383.178H269.32V383.292C269.902 386.75 270.542 390.535 271.208 394.491C272.66 403.242 273.971 411.165 274.928 416.921C275.386 419.78 275.76 422.12 276.025 423.722L276.306 425.578C276.338 425.775 276.358 425.936 276.374 426.056C276.393 426.108 276.405 426.162 276.41 426.217V426.217Z" fill="#455A64"/>
<path d="M272.722 379.596C272.769 379.658 271.858 380.438 270.828 381.488C269.798 382.538 269.028 383.459 268.966 383.407C269.925 381.878 271.207 380.577 272.722 379.596V379.596Z" fill="#455A64"/>
<path d="M240.831 322.211C240.831 322.211 240.862 322.269 240.893 322.383C240.945 322.552 240.978 322.727 240.992 322.903C241.053 323.545 240.968 324.192 240.742 324.795C240.406 325.698 239.809 326.48 239.026 327.042C238.048 327.71 236.872 328.026 235.691 327.936C234.515 327.856 233.388 327.433 232.45 326.719C231.694 326.139 231.067 325.407 230.608 324.572C230.297 324.015 230.059 323.421 229.901 322.804C229.849 322.586 229.812 322.414 229.796 322.284C229.781 322.154 229.796 322.102 229.796 322.102C230.038 322.922 230.367 323.714 230.78 324.463C231.251 325.255 231.871 325.949 232.606 326.506C233.515 327.179 234.599 327.576 235.727 327.65C236.849 327.736 237.968 327.445 238.906 326.823C239.655 326.294 240.236 325.562 240.581 324.712C240.817 324.137 240.929 323.519 240.909 322.898C240.873 322.461 240.831 322.222 240.831 322.211Z" fill="#263238"/>
<path d="M248.172 344.917C248.113 344.749 248.074 344.574 248.058 344.397C248 343.986 247.933 343.487 247.849 342.91C247.678 341.584 247.454 339.879 247.21 337.991C246.965 336.104 246.788 334.352 246.689 333.062C246.632 332.433 246.596 331.918 246.575 331.565C246.55 331.382 246.55 331.197 246.575 331.014C246.629 331.183 246.666 331.357 246.684 331.534C246.741 331.944 246.809 332.438 246.887 333.021C247.053 334.347 247.267 336.052 247.501 337.939C247.735 339.827 247.938 341.579 248.063 342.863C248.12 343.497 248.162 344.007 248.188 344.365C248.204 344.549 248.199 344.734 248.172 344.917V344.917Z" fill="#263238"/>
</svg>
