<svg width="348" height="304" viewBox="0 0 348 304" fill="none" xmlns="http://www.w3.org/2000/svg">
<path d="M343.62 128.65C335.656 98.4487 317.962 75.9025 293.111 65.2203C268.26 54.5381 232.707 65.1087 215.512 85.9741C202.933 101.232 199.059 122.643 184.989 136.529C172.127 149.227 152.896 153.291 134.828 152.871C116.759 152.451 99.0061 148.163 80.9901 146.752C62.9742 145.34 43.7568 147.152 28.9842 157.565C9.59606 171.235 -1.95279 204.594 0.272944 228.211C3.34563 260.789 25.0646 293.755 54.9117 300.787L250.566 303.531C276.25 302.874 304.404 278.424 317.988 254.801C325.21 242.169 331.624 239.254 338.387 216.202C349.384 178.7 350.52 154.808 343.62 128.65Z" fill="#EBEBEB" fill-opacity="0.2"/>
<path d="M134.329 209.306H63.7059C55.1755 209.27 47.9746 201.986 48 193.443L48.751 15.4058C48.759 13.3739 49.1669 11.3634 49.9515 9.48925C50.7361 7.61514 51.8819 5.91414 53.3235 4.48345C54.7651 3.05275 56.4742 1.92042 58.3532 1.15115C60.2322 0.381872 62.2442 -0.00926228 64.2742 9.59125e-05L135.222 0.330256C137.251 0.338908 139.258 0.747576 141.13 1.53292C143.001 2.31826 144.699 3.46489 146.127 4.9073C147.556 6.34972 148.686 8.05967 149.454 9.93947C150.222 11.8193 150.612 13.8321 150.603 15.863L149.852 193.9C149.844 195.932 149.436 197.943 148.652 199.817C147.867 201.691 146.721 203.392 145.28 204.822C143.838 206.253 142.129 207.386 140.25 208.155C138.371 208.924 136.359 209.315 134.329 209.306Z" fill="#263238"/>
<path d="M134.991 7.932L121.234 7.89137C120.785 7.8993 120.342 7.9956 119.931 8.17476C119.52 8.35392 119.148 8.61244 118.836 8.93554C118.525 9.25865 118.28 9.64001 118.116 10.0578C117.952 10.4757 117.871 10.9218 117.879 11.3707V13.8698C117.894 14.7761 117.549 15.6513 116.921 16.3035C116.292 16.9558 115.43 17.3318 114.525 17.3492L87.7108 17.2222C87.2622 17.2103 86.8204 17.1101 86.4106 16.9273C86.0008 16.7445 85.6309 16.4826 85.3222 16.1566C85.0136 15.8307 84.7721 15.447 84.6116 15.0276C84.4511 14.6082 84.3748 14.1613 84.3869 13.7123V11.2184C84.4088 10.3111 84.0709 9.43199 83.4471 8.77334C82.8233 8.11468 81.9643 7.73002 81.058 7.70343H76.2219L64.1799 7.64756C62.7585 7.64154 61.3497 7.91582 60.0342 8.45475C58.7187 8.99367 57.5221 9.78668 56.5127 10.7885C55.5034 11.7903 54.701 12.9813 54.1515 14.2935C53.602 15.6057 53.3161 17.0134 53.3101 18.4361L52.5743 192.176C52.5622 195.049 53.6903 197.809 55.7105 199.849C57.7308 201.889 60.4778 203.043 63.3477 203.056L134.153 203.381C135.575 203.389 136.985 203.115 138.301 202.577C139.618 202.038 140.815 201.246 141.825 200.244C142.835 199.242 143.638 198.05 144.188 196.737C144.737 195.424 145.023 194.016 145.028 192.593L145.744 18.812C145.755 15.9434 144.629 13.1874 142.613 11.148C140.598 9.10862 137.857 7.95215 134.991 7.932V7.932Z" fill="#F5F5F5"/>
<path d="M104.934 170.545C104.853 172.643 104.777 174.608 104.711 176.249H114.86L113.617 169.991L104.934 170.545Z" fill="#F5F5F5"/>
<path d="M63.5977 173.161L63.6839 176.249H103.697C103.763 174.512 103.839 172.592 103.915 170.611L63.5977 173.161Z" fill="#F5F5F5"/>
<path d="M114.156 169.959L115.405 176.243H134.16L133.932 168.71L114.156 169.959Z" fill="#F5F5F5"/>
<path d="M105.95 82.0925L109.497 61.516L100.211 60.8252V82.0925H105.95Z" fill="#F5F5F5"/>
<path d="M62.7648 161.738L52.6867 165.69L52.6562 172.836L63.0642 172.176L62.7648 161.738Z" fill="#F5F5F5"/>
<path d="M62.7149 160.133L62.1668 140.968H62.1567V134.208L52.8093 135.198L52.6875 164.054L62.7098 160.122L62.7149 160.133Z" fill="#F5F5F5"/>
<path d="M62.1576 119.122L52.8863 117.893L52.8203 133.669L62.1576 132.679V119.122Z" fill="#F5F5F5"/>
<path d="M131.271 134.492L130.881 139.988L119.93 141.166L120.777 145.514L133.205 144.575L133.022 138.342L134.012 134.218L131.271 134.492Z" fill="#F5F5F5"/>
<path d="M111.526 146.211L120.259 145.551L118.356 135.798L110.734 136.57L111.526 146.211Z" fill="#F5F5F5"/>
<path d="M111.621 147.226L112.286 155.358L113.468 166.512L113.955 168.955L133.904 167.696L133.239 145.59L111.621 147.226Z" fill="#F5F5F5"/>
<path d="M130.235 134.598L118.863 135.746L119.726 140.165L129.921 139.067L130.235 134.598Z" fill="#F5F5F5"/>
<path d="M105.074 166.781C105.039 167.706 105.003 168.62 104.973 169.524L113.437 168.986L113.001 166.802L105.074 166.781Z" fill="#F5F5F5"/>
<path d="M86.8467 82.0929L88.3387 75.3221H99.7058V60.79L64.1684 58.1538V71.8021L53.0703 74.3164L53.0195 86.5678L77.5958 82.0929H86.8467Z" fill="#F5F5F5"/>
<path d="M110.563 41.6458L110.258 40.4014L123.828 35.0274L115.003 17.2902C114.835 17.3174 114.665 17.331 114.495 17.3309L99.5 17.2598L99.906 42.0827L110.563 41.6458Z" fill="#F5F5F5"/>
<path d="M131.118 32.1328V7.91944L121.228 7.89404C120.779 7.90198 120.336 7.99827 119.925 8.17744C119.514 8.3566 119.142 8.61511 118.83 8.93822C118.519 9.26132 118.274 9.64268 118.11 10.0605C117.946 10.4784 117.865 10.9245 117.873 11.3734V13.8725C117.873 14.4305 117.741 14.9806 117.489 15.4782C117.237 15.9759 116.871 16.4072 116.422 16.7372L125.252 34.4846L131.118 32.1328Z" fill="#F5F5F5"/>
<path d="M80.114 33.1733L78.9671 7.67482H76.2218L65.489 7.62402L60.9219 30.4253L80.114 33.1733ZM77.668 10.2602L78.0334 31.0247L63.7687 28.9371L66.8896 10.2602H77.668Z" fill="#F5F5F5"/>
<path d="M80.632 33.25V33.4634C80.632 35.4545 80.6929 39.0507 80.7233 42.8653L99.4131 42.1034L99.0071 17.2602L87.6958 17.2043C87.2473 17.1924 86.8055 17.0922 86.3956 16.9094C85.9858 16.7266 85.616 16.4647 85.3073 16.1388C84.9986 15.8128 84.7571 15.4292 84.5966 15.0098C84.4362 14.5904 84.3598 14.1434 84.372 13.6944V11.2005C84.3938 10.2932 84.0559 9.4141 83.4321 8.75545C82.8083 8.0968 81.9494 7.71213 81.043 7.68555H79.4648L80.6117 33.25H80.632Z" fill="#F5F5F5"/>
<path d="M59.4043 30.197L63.9308 7.61914C61.1038 7.66956 58.4088 8.82576 56.4227 10.8403C54.4367 12.8547 53.3175 15.5674 53.3047 18.3976L53.2539 29.6535L53.3047 29.3233L59.4043 30.197Z" fill="#F5F5F5"/>
<path d="M62.6449 58.0425L53.1402 57.3364L53.0742 72.7523L62.6449 70.5834V58.0425Z" fill="#F5F5F5"/>
<path d="M59.3039 30.6943L53.255 29.8257L53.1484 54.7908L54.4526 54.8873L59.3039 30.6943Z" fill="#F5F5F5"/>
<path d="M78.5046 159.838L78.6619 139.8L62.6719 140.933L63.2402 160.564L78.5046 159.838Z" fill="#F5F5F5"/>
<path d="M81.4491 155.196L104.092 166.055C104.366 158.944 104.599 152.341 104.599 151.899L105.107 151.874L105.35 151.396C105.67 151.554 105.67 151.554 105.503 156.394C105.406 159.091 105.274 162.683 105.137 166.274H112.967L111.815 155.384L110.293 136.59L80.7031 139.577L81.4491 155.196Z" fill="#F5F5F5"/>
<path d="M136.957 121.956L136.699 119.31L109.555 122.139L110.696 136.061L134.136 133.694L136.957 121.956Z" fill="#F5F5F5"/>
<path d="M99.7074 76.8457H89.5633L88.4062 82.0927H99.7074V76.8457Z" fill="#F5F5F5"/>
<path d="M132.773 78.6188L107.374 76.8613L106.359 82.8652L107.43 95.8988L134.214 93.3185L132.773 78.6188ZM108.308 82.855L109.673 79.0658L131.732 80.4626L133.006 91.302L109.054 94.1464L108.308 82.855Z" fill="#F5F5F5"/>
<path d="M135.392 105.859L134.275 94.3335L107.477 96.9087L108.486 109.175L135.392 105.859Z" fill="#F5F5F5"/>
<path d="M63.0865 173.197L52.6886 173.852L52.648 173.177L52.6328 176.245H63.1727L63.0865 173.197Z" fill="#F5F5F5"/>
<path d="M145.574 26.4073L145.726 26.7984L145.742 18.8136C145.753 15.9415 144.624 13.1824 142.604 11.1425C140.584 9.10249 137.838 7.94838 134.968 7.93359H131.594V31.9489L145.574 26.4073Z" fill="#F5F5F5"/>
<path d="M104.066 166.629L80.9513 155.541L80.1343 139.658L79.1702 139.754L79.0027 160.326L63.2461 161.072V161.529L63.5506 172.135L103.939 169.596C103.99 168.605 104.031 167.615 104.066 166.629ZM64.2356 162.383L86.2898 160.859L100.636 167.518L64.2356 169.489V162.383Z" fill="#F5F5F5"/>
<path d="M139.004 53.0991L139.953 47.4864C131.661 44.5251 131.087 35.8699 131.113 33.2642L125.703 35.4077L133.848 51.7785L139.004 53.0991Z" fill="#F5F5F5"/>
<path d="M109.433 120.62L120.704 119.447L118.486 109.481L108.621 110.7L109.433 120.62Z" fill="#F5F5F5"/>
<path d="M132.8 61.6833H111.751L110.005 61.5513L107.625 75.3519L132.612 77.0789L132.034 71.0802L134.495 62.2218L132.8 61.6833Z" fill="#F5F5F5"/>
<path d="M132.285 59.1445L132.549 52.5413L124.278 35.9165L111.449 40.9959L115.859 59.1191L132.285 59.1445ZM123.775 37.9584L131.357 52.394L130.261 56.8943L117.29 56.3864L114.047 42.733L123.775 37.9584Z" fill="#F5F5F5"/>
<path d="M135.559 138.605L135.949 151.542L145.068 151.029L145.099 151.537L135.965 152.05L136.426 167.532L145.053 166.983L145.114 167.999L136.457 168.548L136.69 176.243H145.094L145.276 133.079L136.68 133.947L135.559 138.605Z" fill="#F5F5F5"/>
<path d="M80.1254 33.6869L60.8115 30.9136L55.9805 55L80.2116 56.7981C80.308 53.1003 80.2218 41.7123 80.1254 33.6869Z" fill="#F5F5F5"/>
<path d="M111.89 59.145H114.813L110.678 42.1494L99.9297 42.5913L100.188 58.2764L111.89 59.145Z" fill="#F5F5F5"/>
<path d="M80.7031 56.8331L99.677 58.2401L99.4233 42.6108L80.7285 43.3727C80.7843 48.6604 80.7843 54.2985 80.7031 56.8331Z" fill="#F5F5F5"/>
<path d="M135.548 107.378L118.984 109.42L121.212 119.391L136.553 117.796L135.548 107.378Z" fill="#F5F5F5"/>
<path d="M140.041 46.9542L141.102 40.6558L145.669 41.0113L145.73 27.4443L131.627 33.0316C131.338 42.5758 137.331 45.9333 140.041 46.9542Z" fill="#F5F5F5"/>
<path d="M134.609 71.3039L135.183 77.2569L145.515 77.9731L145.565 65.7166L136.918 62.9839L134.609 71.3039Z" fill="#F5F5F5"/>
<path d="M139.518 122.135L136.809 133.426L145.278 132.568L145.329 120.728C142.731 120.042 140.462 119.483 139.239 119.25L139.518 122.135Z" fill="#F5F5F5"/>
<path d="M133.805 59.3364L145.573 63.0596L145.603 56.3599L134.043 53.3682L133.805 59.3364Z" fill="#F5F5F5"/>
<path d="M139.094 117.7C140.043 117.842 141.839 118.208 145.335 119.147L145.447 93.2427L136.82 94.0757L139.094 117.7Z" fill="#F5F5F5"/>
<path d="M136.713 93.0791L145.452 92.2359L145.503 79.5019L135.328 78.7959L136.713 93.0791Z" fill="#F5F5F5"/>
<path d="M141.012 47.2728C142.532 47.7447 144.075 48.1397 145.635 48.4563V42.0258L141.915 41.7363L141.012 47.2728Z" fill="#F5F5F5"/>
<path d="M139.992 53.333L145.61 54.7857L145.635 48.98C144.179 48.6854 142.59 48.2892 140.926 47.7812L139.992 53.333Z" fill="#F5F5F5"/>
<path d="M63.348 203.058L134.154 203.384C135.576 203.391 136.985 203.118 138.302 202.579C139.618 202.041 140.816 201.248 141.826 200.246C142.836 199.244 143.638 198.052 144.188 196.74C144.738 195.427 145.023 194.018 145.029 192.595L145.1 176.25H52.6406L52.5898 188.613V192.504C52.661 195.317 53.8239 197.993 55.8321 199.963C57.8403 201.933 60.536 203.044 63.348 203.058V203.058Z" fill="#EBEBEB"/>
<path d="M105.924 69.4136H97.2383V74.3355H105.924V69.4136Z" fill="#263238"/>
<path d="M107.143 67.7588H96.0039V70.9791H107.143V67.7588Z" fill="#455A64"/>
<path d="M86.4997 74.2796L84.1328 76.6465L87.8717 80.3854L90.2386 78.0185L86.4997 74.2796Z" fill="#263238"/>
<path d="M85.9402 72.3225L82.1797 76.083L84.622 78.5253L88.3825 74.7649L85.9402 72.3225Z" fill="#455A64"/>
<path d="M112.91 78.0139L115.277 80.3809L119.016 76.6419L116.649 74.275L112.91 78.0139Z" fill="#263238"/>
<path d="M114.759 74.7679L118.52 78.5283L120.962 76.086L117.201 72.3255L114.759 74.7679Z" fill="#455A64"/>
<path d="M122.123 99.6467C124.786 88.2934 117.741 76.9309 106.388 74.268C95.0345 71.6051 83.672 78.6501 81.0091 90.0035C78.3462 101.357 85.3912 112.719 96.7446 115.382C108.098 118.045 119.46 111 122.123 99.6467Z" fill="#455A64"/>
<path d="M101.317 114.627C112.442 114.627 121.461 105.607 121.461 94.4817C121.461 83.356 112.442 74.3369 101.317 74.3369C90.191 74.3369 81.1719 83.356 81.1719 94.4817C81.1719 105.607 90.191 114.627 101.317 114.627Z" fill="#263238"/>
<path d="M119.177 97.3087C120.599 87.5853 113.869 78.5502 104.146 77.1283C94.4224 75.7063 85.3873 82.436 83.9653 92.1594C82.5433 101.883 89.273 110.918 98.9964 112.34C108.72 113.762 117.755 107.032 119.177 97.3087Z" fill="white"/>
<path opacity="0.5" d="M119.375 94.7402H101.598V76.9624C106.313 76.9624 110.834 78.8354 114.168 82.1694C117.502 85.5034 119.375 90.0252 119.375 94.7402V94.7402Z" fill="#FFC727"/>
<path d="M101.752 78.2373H101.406V80.9345H101.752V78.2373Z" fill="#C7C7C7"/>
<path d="M93.4749 80.3498L93.1758 80.5225L94.5244 82.8583L94.8235 82.6856L93.4749 80.3498Z" fill="#C7C7C7"/>
<path d="M87.3641 86.3317L87.1914 86.6309L89.5272 87.9794L89.6999 87.6803L87.3641 86.3317Z" fill="#C7C7C7"/>
<path d="M87.7714 94.5674H85.0742V94.9128H87.7714V94.5674Z" fill="#C7C7C7"/>
<path d="M90.1356 101.665L87.7891 103.013L87.9618 103.314L90.3083 101.965L90.1356 101.665Z" fill="#C7C7C7"/>
<path d="M94.5231 106.612L93.1758 108.949L93.475 109.121L94.8223 106.785L94.5231 106.612Z" fill="#C7C7C7"/>
<path d="M101.752 108.546H101.406V111.244H101.752V108.546Z" fill="#C7C7C7"/>
<path d="M108.631 106.601L108.332 106.774L109.681 109.11L109.98 108.937L108.631 106.601Z" fill="#C7C7C7"/>
<path d="M113.622 101.482L113.449 101.781L115.785 103.13L115.958 102.831L113.622 101.482Z" fill="#C7C7C7"/>
<path d="M118.084 94.5674H115.387V94.9128H118.084V94.5674Z" fill="#C7C7C7"/>
<path d="M115.785 86.3306L113.449 87.6792L113.622 87.9783L115.958 86.6297L115.785 86.3306Z" fill="#C7C7C7"/>
<path d="M109.68 80.3586L108.332 82.6948L108.631 82.8674L109.979 80.5312L109.68 80.3586Z" fill="#C7C7C7"/>
<path d="M101.699 81.864L102.491 95.7967L100.703 95.7713L101.216 81.8589L101.699 81.864Z" fill="#FFC727"/>
<path d="M102.19 94.7411C102.19 94.8629 102.154 94.9819 102.086 95.0831C102.018 95.1842 101.922 95.263 101.81 95.3094C101.697 95.3557 101.573 95.3676 101.454 95.3435C101.334 95.3194 101.225 95.2603 101.139 95.1739C101.053 95.0874 100.995 94.9774 100.972 94.8579C100.949 94.7383 100.962 94.6146 101.009 94.5024C101.056 94.3901 101.136 94.2945 101.238 94.2276C101.34 94.1607 101.459 94.1255 101.581 94.1265C101.661 94.1265 101.741 94.1424 101.815 94.1734C101.889 94.2043 101.957 94.2497 102.013 94.3068C102.07 94.3639 102.115 94.4317 102.145 94.5063C102.176 94.5808 102.191 94.6606 102.19 94.7411V94.7411Z" fill="#FFC727"/>
<path d="M114.476 94.9484L100.543 95.7357L100.568 93.9478L114.481 94.4608L114.476 94.9484Z" fill="#263238"/>
<path d="M102.19 94.7411C102.19 94.8629 102.154 94.9819 102.086 95.0831C102.018 95.1842 101.922 95.263 101.81 95.3094C101.697 95.3557 101.573 95.3676 101.454 95.3435C101.334 95.3194 101.225 95.2603 101.139 95.1739C101.053 95.0874 100.995 94.9774 100.972 94.8579C100.949 94.7383 100.962 94.6146 101.009 94.5024C101.056 94.3901 101.136 94.2945 101.238 94.2276C101.34 94.1607 101.459 94.1255 101.581 94.1265C101.661 94.1265 101.741 94.1424 101.815 94.1734C101.889 94.2043 101.957 94.2497 102.013 94.3068C102.07 94.3639 102.115 94.4317 102.145 94.5063C102.176 94.5808 102.191 94.6606 102.19 94.7411V94.7411Z" fill="#FFC727"/>
<path d="M151.858 279.715C153.706 280.207 150.315 281.515 149.984 283.322C146.451 283.742 142.841 283.391 139.539 282.306C139.776 280.424 139.355 278.946 139.355 278.946C139.355 277.892 152.236 278.812 151.858 279.715Z" fill="#22272E"/>
<path d="M149.394 284.618C149.131 286.365 148.868 287.903 148.868 287.903C148.868 287.903 147.685 290.523 144.704 290.523C141.723 290.523 139.312 288.153 139.356 287.155C139.4 286.697 139.531 285.117 139.707 283.496C142.768 284.7 146.118 285.088 149.394 284.618Z" fill="#F4C2C9"/>
<path d="M139.83 285.503C140.27 285.994 140.736 286.461 141.225 286.903C141.72 287.354 143.25 285.955 145.41 286.225C147.57 286.496 148.245 287.354 148.245 287.354C148.744 287.253 149.218 287.054 149.64 286.767C149.681 287.896 149.909 289.01 150.315 290.064C150.99 291.825 154.41 296.973 154.41 297.967C154.41 298.96 154.185 299.728 153.465 300.044C152.745 300.36 147.975 300.405 143.97 300.496C139.965 300.586 136.86 300.812 136.41 299.231C135.96 297.651 137.805 292.728 138.57 289.703C139.335 286.677 139.2 285.548 139.83 285.503Z" fill="#22272E"/>
<path d="M140.355 293.534C140.355 293.534 144.981 293.534 149.39 293.534" stroke="white" stroke-width="1.8" stroke-linecap="round" stroke-linejoin="round"/>
<path d="M141.359 291.526C143.984 290.187 146.765 290.187 149.39 291.526" stroke="white" stroke-width="1.8" stroke-linecap="round" stroke-linejoin="round"/>
<path d="M196.57 282.392C191.802 284.314 186.866 283.131 186.908 283.181C186.74 280.422 186.531 277.515 186.531 277.515C187.159 275.791 196.152 275.003 196.235 275.742C196.235 276.136 196.403 279.387 196.57 282.392Z" fill="#22272E"/>
<path d="M196.57 287.162C196.57 287.162 195.935 289.233 193.181 290.291C190.428 291.348 186.912 288.484 186.87 287.647C186.828 287.294 186.701 285.267 186.531 283.196C186.531 283.152 191.487 284.21 196.316 282.491C196.443 284.915 196.57 287.162 196.57 287.162Z" fill="#F4C2C9"/>
<path d="M186.74 286.567C186.433 286.567 186.214 287.017 186.039 289.852C185.864 292.687 184.989 298.942 186.039 299.887C187.09 300.832 208.05 300.562 210.456 300.382C212.863 300.202 214.176 298.582 213.432 297.502C212.688 296.422 207.524 294.442 202.974 291.292C198.423 288.142 197.329 287.467 196.804 286.702C196.804 286.702 197.066 284.137 195.71 284.542C194.353 284.947 193.434 288.277 191.684 288.727C189.934 289.177 189.715 286.387 186.74 286.567Z" fill="#22272E"/>
<path d="M203.601 291.537C203.601 291.537 202.369 291.257 199.586 293.534" stroke="white" stroke-width="1.8" stroke-linecap="round" stroke-linejoin="round"/>
<path d="M201.594 289.519C201.594 289.519 199.254 289.402 196.574 293.534" stroke="white" stroke-width="1.8" stroke-linecap="round" stroke-linejoin="round"/>
<path d="M138.593 179.756C137.831 183.269 137.414 186.849 137.347 190.444C137.213 196.544 141.977 215.649 143.713 222.106C145.45 228.563 145.094 229.587 144.827 230.834C144.559 232.081 141.888 241.967 140.997 252.21C140.107 262.452 139.973 271.359 140.33 274.52C140.819 278.795 139.573 279.374 140.33 279.864C141.087 280.354 146.718 282.183 150.948 281.203C150.948 281.203 153.532 275.891 154.378 271.883C155.224 267.875 157.249 265.658 160.143 252.566C163.037 239.473 164.373 234.085 164.773 228.875C164.996 225.758 165.04 216.851 165.085 210.038C165.129 205.406 165.129 201.71 165.174 201.354C165.308 200.463 167.489 201.488 168.647 198.637C169.137 197.346 169.404 194.897 169.448 192.269C169.537 188.929 169.315 185.278 168.869 183.274C168.157 179.578 139.306 175.837 138.593 179.756Z" fill="#22272E"/>
<path d="M195.974 274.474C195.226 276.33 197.205 277.966 195.974 278.452C194.742 278.938 189.201 279.689 186.386 279.424C186.386 279.424 184.371 275.398 183.887 271.818C183.403 268.238 181.548 266.916 179.965 258.872C178.381 250.829 177.018 236.597 176.622 232.398C176.226 228.2 167.606 215.692 163.56 208.134C159.514 200.576 155.159 186.743 158.766 183.516C162.372 180.29 175.259 178.831 179.085 181.439C179.085 181.439 183.527 192.311 187.969 205.305C192.059 217.239 192.895 221.261 193.467 224.708C193.504 225.021 193.563 225.331 193.643 225.636C193.819 226.697 194.039 229.437 194.346 232.973C195.05 241.945 195.886 255.867 196.238 259.049C196.721 263.469 196.721 272.618 195.974 274.474Z" fill="#22272E"/>
<path d="M163.445 202.181C166.058 200.873 168.744 199.866 171.476 199.169" stroke="#63737A" stroke-width="1.8" stroke-linecap="round" stroke-linejoin="round"/>
<path d="M139.355 201.177C140.941 199.723 142.206 197.957 143.07 195.991C143.934 194.025 144.379 191.901 144.375 189.755C142.689 189.661 141.012 189.452 139.355 189.13" stroke="#63737A" stroke-width="1.8" stroke-linecap="round" stroke-linejoin="round"/>
<path d="M164.449 210.213C164.5 205.503 164.5 201.744 164.552 201.382C164.705 200.476 167.215 201.518 168.547 198.619C169.11 197.306 169.417 194.815 169.469 192.143" stroke="#63737A" stroke-width="1.8" stroke-linecap="round" stroke-linejoin="round"/>
<path d="M177.752 129.903C177.752 129.903 181.352 130.076 187.148 141.487C192.943 152.898 195.006 157.004 195.006 157.004C195.006 157.004 198.826 156.096 205.06 155.102C211.294 154.108 220.075 152.855 220.075 152.855C220.075 152.855 222.446 152.898 223.456 156.226C223.713 157.068 223.751 157.961 223.567 158.822C223.383 159.683 222.982 160.485 222.402 161.153C222.184 161.425 221.896 161.634 221.568 161.759C218.89 162.882 203.26 169.366 197.948 170.49C192.109 171.7 189.255 171.527 184.074 164.525C178.894 157.523 174.811 152.077 172.923 149.267C171.035 146.328 169.674 130.335 177.752 129.903Z" fill="#FFC727"/>
<path d="M188.547 168.729C188.547 168.729 188.246 166.042 192.679 166.042C197.113 166.042 199.394 169.946 198.318 171.061" stroke="#22272E" stroke-width="1.8" stroke-linecap="round" stroke-linejoin="round"/>
<path d="M195.57 157.007C195.57 157.007 193.91 157.81 193.562 159.015" stroke="#22272E" stroke-width="1.8" stroke-linecap="round" stroke-linejoin="round"/>
<path d="M221.256 152.983C221.256 152.983 223.108 152.279 223.571 152.015C224.034 151.752 225.043 149.905 225.885 148.761C226.727 147.618 229.125 146.959 229.798 147.09C229.981 147.116 230.158 147.18 230.317 147.278C230.476 147.376 230.614 147.507 230.724 147.662C230.724 147.662 232.828 146.871 234.259 146.255C235.69 145.639 238.341 144.276 238.719 145.376C238.93 146.035 237.289 147.003 236.152 147.662C234.764 148.498 233.838 149.113 233.838 149.113C234.058 149.249 234.248 149.434 234.393 149.654C234.539 149.874 234.636 150.125 234.68 150.388C234.848 151.312 235.311 152.323 234.469 153.73C234.217 154.126 235.185 155.225 234.427 156.237C233.123 157.864 229.967 158.699 228.284 159.227C226.6 159.755 222.645 160.018 222.645 160.018C222.645 160.018 221.383 159.711 220.835 156.852C220.288 153.994 221.256 152.983 221.256 152.983Z" fill="#F4C2C9"/>
<path d="M230.627 147.973C230.627 147.973 230.964 148.742 231.351 149.895C231.737 151.048 232.027 151.945 231.013 151.988C229.999 152.03 229.082 150.664 228.695 149.98" stroke="#E26E85" stroke-width="1.8" stroke-linecap="round" stroke-linejoin="round"/>
<path d="M229.557 150.983C229.557 150.983 230.217 152.594 228.695 153.995" stroke="#E26E85" stroke-width="1.8" stroke-linecap="round" stroke-linejoin="round"/>
<path d="M233.715 148.976L231.707 149.98" stroke="#E26E85" stroke-width="1.8" stroke-linecap="round" stroke-linejoin="round"/>
<path d="M230.866 151.483C230.866 151.483 230.499 152.37 230.866 152.869C231.233 153.368 233.251 152.259 234.719 150.983" stroke="#E26E85" stroke-width="1.8" stroke-linecap="round" stroke-linejoin="round"/>
<path d="M231.144 152.991C230.956 153.057 230.813 153.169 230.746 153.303C230.678 153.436 230.691 153.582 230.782 153.71C231.104 154.189 232.831 154.003 234.719 153.603" stroke="#E26E85" stroke-width="1.8" stroke-linecap="round" stroke-linejoin="round"/>
<path d="M231.383 153.995C231.383 153.995 230.304 154.139 230.865 155.334C231.21 156.051 233.283 155.812 233.715 156.003" stroke="#E26E85" stroke-width="1.8" stroke-linecap="round" stroke-linejoin="round"/>
<path d="M218.282 153.995C217.907 154.581 217.439 155.71 217.767 157.718C217.859 158.584 218.167 159.421 218.669 160.167C219.171 160.913 219.854 161.548 220.668 162.026" stroke="#22272E" stroke-width="1.8" stroke-linecap="round" stroke-linejoin="round"/>
<path d="M163.728 113.093C163.728 113.093 162.323 119.988 161.532 121.872C160.742 123.756 165.045 126.711 169.349 126.882C173.653 127.054 173.214 124.613 173.214 124.613L174.488 117.761C174.488 117.804 165.265 111.508 163.728 113.093Z" fill="#F4C2C9"/>
<path d="M165.523 114.845C164.856 120.24 169.052 122.849 173.725 124.883V124.618L174.488 120.859C171.007 119.798 167.955 117.498 165.523 114.845Z" fill="#E26E85"/>
<path d="M144.656 128.181C145.638 125.345 149.387 123.644 152.422 123.906C155.546 124.168 161.526 124.255 167.283 126C177.102 128.966 179.467 130.711 180.047 131.234C183.305 134.287 182.993 138.824 181.118 151.343C179.913 159.587 178.887 161.681 179.154 165.738C179.422 169.794 180.181 176.992 180.672 178.475C181.163 179.958 179.913 182.531 178.842 183.447C177.771 184.363 169.113 186.283 161.08 186.108C153.046 185.934 140.416 183.796 138.408 182.488C136.4 181.179 134.972 178.911 135.418 176.948C135.973 173.947 136.688 170.977 137.56 168.049C138.81 163.906 138.899 158.497 140.863 149.816C142.38 143.404 142.603 134.113 144.656 128.181Z" fill="#FFC727"/>
<path d="M145.404 135.832C146.474 135.297 147.129 134.438 146.867 133.913C146.605 133.389 145.524 133.398 144.454 133.934C143.383 134.469 142.728 135.328 142.991 135.853C143.253 136.377 144.333 136.368 145.404 135.832Z" fill="#F8AB5D"/>
<path d="M136.509 140.294C137.58 139.758 138.235 138.899 137.972 138.375C137.71 137.85 136.63 137.86 135.559 138.395C134.489 138.931 133.834 139.79 134.096 140.314C134.358 140.838 135.439 140.829 136.509 140.294Z" fill="#F8AB5D"/>
<path d="M143.818 145.259C144.888 144.724 145.543 143.865 145.281 143.34C145.019 142.816 143.938 142.825 142.868 143.361C141.797 143.896 141.142 144.756 141.405 145.28C141.667 145.804 142.747 145.795 143.818 145.259Z" fill="#F8AB5D"/>
<path d="M134.923 149.711C135.994 149.175 136.649 148.316 136.386 147.792C136.124 147.267 135.044 147.277 133.973 147.812C132.903 148.348 132.248 149.207 132.51 149.731C132.772 150.255 133.853 150.246 134.923 149.711Z" fill="#F8AB5D"/>
<path d="M125.997 154.192C127.068 153.657 127.723 152.797 127.461 152.273C127.198 151.749 126.118 151.758 125.047 152.293C123.977 152.829 123.322 153.688 123.584 154.212C123.847 154.737 124.927 154.728 125.997 154.192Z" fill="#F8AB5D"/>
<path d="M134.314 158.216C135.384 157.681 136.039 156.822 135.777 156.297C135.515 155.773 134.434 155.782 133.364 156.318C132.294 156.853 131.638 157.713 131.901 158.237C132.163 158.761 133.243 158.752 134.314 158.216Z" fill="#F8AB5D"/>
<path d="M125.404 162.633C126.474 162.097 127.129 161.238 126.867 160.714C126.604 160.19 125.524 160.199 124.454 160.734C123.383 161.27 122.728 162.129 122.991 162.653C123.253 163.178 124.333 163.169 125.404 162.633Z" fill="#F8AB5D"/>
<path d="M183.519 104.522C183.562 106.398 183.258 108.267 182.621 110.037C181.724 112.313 180.243 118.66 177.326 120.717C174.41 122.774 168.038 122.38 165.256 117.084C162.474 111.788 163.371 106.229 164.807 101.765C166.243 97.3005 172.166 95.6811 177.326 97.5193C182.487 99.3576 183.519 102.553 183.519 104.522Z" fill="#F4C2C9"/>
<path d="M164.501 107.984C164.796 108.384 165.043 108.82 165.237 109.282C165.627 110.222 166.45 109.685 166.753 107.984C167.057 106.283 167.75 105.074 168.269 105.164C168.937 105.329 169.639 105.255 170.261 104.954C170.882 104.653 171.387 104.143 171.692 103.508C172.774 101.449 173.251 101.762 173.251 101.762C173.251 101.762 174.117 99.6134 176.37 102.702C178.622 105.79 180.052 108.207 182.738 107.715C185.423 107.223 187.806 102.702 185.77 98.3601C183.734 94.0184 177.323 92.9889 172.558 94.2869C167.793 95.585 165.324 94.5108 162.465 97.0173C159.606 99.5239 160.299 102.165 160.126 105.119C159.952 108.073 158.48 109.64 160.429 112.281C162.378 114.921 161.858 117.383 162.941 118.86C162.941 118.86 164.111 114.966 163.981 112.146C163.851 109.326 164.501 107.984 164.501 107.984Z" fill="#22272E"/>
<path d="M177.491 110.466C177.461 111.625 177.021 112.727 176.262 113.542C175.503 114.358 174.485 114.825 173.418 114.845C172.886 114.841 172.361 114.721 171.873 114.492C171.385 114.263 170.944 113.931 170.576 113.514C170.208 113.097 169.921 112.605 169.731 112.065C169.541 111.526 169.453 110.951 169.471 110.374C169.468 109.778 169.573 109.186 169.78 108.634C169.987 108.082 170.293 107.579 170.679 107.155C171.065 106.731 171.525 106.395 172.031 106.164C172.537 105.933 173.081 105.813 173.63 105.811C174.167 105.834 174.694 105.974 175.181 106.222C175.668 106.47 176.104 106.821 176.463 107.255C176.823 107.689 177.099 108.196 177.276 108.748C177.453 109.299 177.526 109.884 177.491 110.466V110.466Z" stroke="#22272E" stroke-width="1.8" stroke-linecap="round" stroke-linejoin="round"/>
<path d="M184.296 112.906C184.91 110.796 184.211 108.736 182.734 108.305C181.256 107.875 179.56 109.237 178.945 111.348C178.33 113.458 179.03 115.518 180.507 115.949C181.985 116.379 183.681 115.017 184.296 112.906Z" stroke="#22272E" stroke-width="1.8" stroke-linecap="round" stroke-linejoin="round"/>
<path d="M179.508 110.829C179.508 110.829 179.452 110.829 177.5 110.829" stroke="#22272E" stroke-width="1.8" stroke-linecap="round" stroke-linejoin="round"/>
<path d="M169.469 108.822L164.449 107.818" stroke="#22272E" stroke-width="1.8" stroke-linecap="round" stroke-linejoin="round"/>
<path d="M164.449 108.357C164.449 108.357 164.045 105.858 162.112 105.811C160.179 105.764 159.011 111.989 163.82 112.838" fill="#F4C2C9"/>
<path d="M162.445 107.86C162.65 107.792 162.865 107.807 163.062 107.902C163.26 107.998 163.431 108.171 163.552 108.397C163.668 108.677 163.725 108.992 163.716 109.31C163.716 109.471 163.675 109.579 163.675 109.74C163.675 109.901 163.634 109.955 163.634 110.062C163.602 110.238 163.588 110.418 163.593 110.599C163.584 110.666 163.587 110.734 163.601 110.799C163.615 110.864 163.64 110.924 163.675 110.975C163.895 111.288 164.159 111.544 164.453 111.727C164.258 111.818 164.051 111.852 163.845 111.824C163.639 111.796 163.441 111.708 163.265 111.566C163.068 111.368 162.936 111.08 162.896 110.76C162.867 110.473 162.881 110.181 162.937 109.901C162.978 109.793 162.978 109.632 163.019 109.525C163.06 109.418 163.06 109.364 163.06 109.256C163.101 109.118 163.101 108.965 163.06 108.827C163.016 108.618 162.938 108.424 162.832 108.257C162.726 108.09 162.594 107.955 162.445 107.86V107.86Z" fill="#22272E"/>
<path d="M178.327 109.825C178.36 110.391 178.474 110.95 178.667 111.481C178.751 111.713 178.865 111.933 179.007 112.133C179.211 112.381 179.361 112.672 179.445 112.986C179.523 113.322 179.528 113.671 179.461 114.009C179.394 114.347 179.256 114.666 179.056 114.943C178.879 115.21 178.646 115.432 178.375 115.595C178.118 115.776 177.811 115.864 177.5 115.846C177.93 115.519 178.253 115.064 178.424 114.542C178.613 114.118 178.664 113.643 178.57 113.187C178.484 112.955 178.37 112.736 178.229 112.535C178.081 112.236 177.983 111.914 177.938 111.581C177.916 110.971 178.05 110.365 178.327 109.825V109.825Z" fill="#22272E"/>
<path d="M174.488 117.856C173.637 117.821 172.811 117.521 172.102 116.99C171.393 116.458 170.829 115.715 170.473 114.845" stroke="#22272E" stroke-width="1.8" stroke-linecap="round" stroke-linejoin="round"/>
<path d="M172.158 110.82C172.045 110.809 171.938 110.791 171.844 110.765C171.75 110.739 171.671 110.707 171.61 110.669C171.55 110.632 171.509 110.59 171.491 110.547C171.473 110.504 171.478 110.459 171.505 110.417L171.743 110.081C171.77 110.038 171.819 109.998 171.887 109.963C171.956 109.927 172.042 109.897 172.141 109.874C172.241 109.851 172.351 109.836 172.466 109.829C172.58 109.822 172.698 109.824 172.811 109.835C172.924 109.845 173.03 109.863 173.124 109.889C173.218 109.915 173.298 109.948 173.359 109.985C173.419 110.022 173.46 110.064 173.478 110.107C173.496 110.151 173.491 110.195 173.463 110.238L173.226 110.573C173.199 110.616 173.15 110.656 173.081 110.692C173.013 110.727 172.927 110.757 172.827 110.78C172.728 110.803 172.618 110.818 172.503 110.825C172.388 110.832 172.271 110.83 172.158 110.82V110.82Z" fill="#22272E"/>
<path d="M179.181 112.818C179.068 112.797 178.962 112.76 178.868 112.708C178.774 112.657 178.694 112.592 178.634 112.517C178.573 112.442 178.533 112.359 178.515 112.272C178.497 112.185 178.501 112.097 178.529 112.012L178.766 111.34C178.793 111.255 178.842 111.174 178.911 111.103C178.979 111.032 179.066 110.972 179.165 110.927C179.264 110.881 179.374 110.85 179.489 110.837C179.604 110.823 179.721 110.827 179.834 110.847V110.847C179.947 110.868 180.054 110.905 180.148 110.957C180.242 111.008 180.321 111.073 180.382 111.148C180.443 111.223 180.483 111.306 180.501 111.393C180.519 111.48 180.514 111.568 180.487 111.653L180.249 112.325C180.222 112.41 180.173 112.491 180.105 112.562C180.036 112.633 179.95 112.693 179.851 112.738C179.752 112.784 179.641 112.815 179.527 112.828C179.412 112.842 179.294 112.838 179.181 112.818V112.818Z" fill="#22272E"/>
<path d="M174.059 107.809C173.519 107.907 173.273 107.176 172.488 107.224C171.26 107.273 170.573 107.517 170.475 106.981C170.425 106.591 171.358 105.859 172.537 105.811C174.255 105.811 175.041 107.663 174.059 107.809Z" fill="#22272E"/>
<path d="M179.648 109.464C179.89 109.612 180.237 109.341 180.583 109.513C181.103 109.735 181.277 109.932 181.45 109.759C181.623 109.587 181.45 109.168 180.965 108.946C180.168 108.552 179.128 109.193 179.648 109.464Z" fill="#22272E"/>
<path d="M124.297 183.557C123.97 184.185 123.757 184.858 123.666 185.549C123.666 186.302 124.345 193.254 124.151 194.626C123.957 195.999 123.472 198.7 123.181 199.098C122.89 199.497 121.145 198.257 121.096 194.095C121.048 189.933 119.496 184.221 120.805 183.557C122.114 182.892 123.909 183.025 124.297 183.557Z" fill="#F4C2C9"/>
<path d="M95.435 203.7L105.837 186.886C105.952 186.7 106.103 186.54 106.279 186.415C106.455 186.289 106.654 186.201 106.864 186.155C107.074 186.11 107.291 186.108 107.501 186.149C107.712 186.191 107.912 186.275 108.091 186.397L132.58 202.366C132.761 202.484 132.917 202.638 133.039 202.819C133.162 203 133.247 203.204 133.292 203.419C133.336 203.635 133.338 203.857 133.298 204.073C133.258 204.289 133.175 204.495 133.057 204.679L122.654 221.492C122.539 221.678 122.389 221.839 122.213 221.964C122.036 222.089 121.837 222.178 121.628 222.223C121.418 222.269 121.201 222.271 120.99 222.229C120.78 222.188 120.579 222.104 120.4 221.982L95.9117 206.013C95.5543 205.767 95.3045 205.388 95.2154 204.956C95.1264 204.524 95.2052 204.073 95.435 203.7V203.7Z" fill="#22272E"/>
<path d="M124.376 216.921L129.393 208.512C129.445 208.422 129.517 208.347 129.603 208.293C129.688 208.24 129.785 208.21 129.884 208.205C129.983 208.201 130.082 208.222 130.171 208.268C130.26 208.314 130.338 208.382 130.397 208.468L131.191 209.586C131.27 209.693 131.315 209.823 131.323 209.959C131.33 210.095 131.299 210.23 131.233 210.346L126.717 217.95C126.657 218.064 126.562 218.153 126.448 218.202C126.334 218.251 126.208 218.257 126.09 218.218L124.794 217.95C124.696 217.922 124.606 217.871 124.53 217.801C124.453 217.73 124.393 217.643 124.352 217.544C124.312 217.445 124.293 217.337 124.297 217.229C124.301 217.122 124.328 217.016 124.376 216.921V216.921Z" fill="#6DAFA7"/>
<path d="M150.091 123.886C150.091 123.886 144.935 123.404 138.739 130.937C132.544 138.471 126.438 144.778 124.72 147.757C123.001 150.735 119.202 161.904 117.303 170.708C115.403 179.511 115.222 181.088 115.267 182.052C115.313 182.928 119.88 184.154 122.865 184.11C123.128 184.116 123.385 184.043 123.604 183.902C123.822 183.761 123.99 183.559 124.086 183.322C125.262 180.65 129.378 171.54 131.006 168.211C132.905 164.313 135.121 158.531 135.393 158.137C135.664 157.743 148.011 145.567 150.317 142.369C152.624 139.172 154.84 134.003 154.342 129.448C153.799 124.499 151.176 123.842 150.091 123.886Z" fill="#FFC727"/>
<path d="M125.374 145.853C125.374 145.853 126.697 143.968 128.361 145.677C130.111 147.475 129.342 151.377 126.91 153.832C124.904 155.848 122.045 155.015 122.301 153.13" stroke="#22272E" stroke-width="1.8" stroke-linecap="round" stroke-linejoin="round"/>
<path d="M116.262 179.092C117.566 180.053 121.48 182.715 125.297 181.975" stroke="#22272E" stroke-width="1.8" stroke-linecap="round" stroke-linejoin="round"/>
<path d="M237.783 135.771L245.229 110.953C245.337 110.623 245.546 110.335 245.825 110.133C246.103 109.93 246.438 109.823 246.78 109.825L290.834 111.089C291.006 111.091 291.174 111.133 291.327 111.211C291.48 111.29 291.613 111.404 291.716 111.543C291.819 111.683 291.889 111.845 291.92 112.016C291.952 112.188 291.944 112.365 291.898 112.533L283.256 142.811C283.151 143.18 282.918 143.499 282.6 143.706C282.282 143.914 281.901 143.997 281.527 143.939L238.758 137.215C238.592 137.206 238.43 137.159 238.285 137.076C238.14 136.993 238.016 136.877 237.922 136.738C237.827 136.598 237.766 136.439 237.742 136.271C237.718 136.103 237.732 135.933 237.783 135.771Z" fill="#22272E"/>
<path d="M237.349 136.93L211.633 139.259L255.724 149.785C256.79 150.045 257.905 150.045 258.971 149.785L282.908 143.789L237.349 136.93Z" fill="#63737A"/>
<path d="M255.696 149.721L211.633 138.937C211.636 139.341 211.772 139.733 212.021 140.053C212.27 140.372 212.618 140.601 213.011 140.705L254.54 151.666C256.293 152.123 258.139 152.092 259.875 151.577L281.662 145.213C282.027 145.109 282.347 144.887 282.572 144.584C282.797 144.28 282.915 143.911 282.907 143.533L258.986 149.677C257.912 149.978 256.777 149.993 255.696 149.721V149.721Z" fill="#22272E"/>
<path d="M266.83 115.18L263.674 125.456C263.628 125.581 263.542 125.69 263.429 125.767C263.316 125.844 263.181 125.886 263.043 125.888L245.324 124.42C245.235 124.413 245.148 124.388 245.07 124.345C244.992 124.303 244.925 124.245 244.873 124.175C244.821 124.105 244.787 124.024 244.771 123.94C244.755 123.855 244.76 123.769 244.783 123.686L247.759 114.273C247.795 114.151 247.872 114.042 247.977 113.965C248.083 113.887 248.212 113.844 248.345 113.841L266.244 114.446C266.336 114.449 266.427 114.471 266.509 114.511C266.591 114.552 266.663 114.609 266.719 114.679C266.775 114.75 266.814 114.831 266.833 114.918C266.852 115.004 266.851 115.094 266.83 115.18V115.18Z" fill="white"/>
<path d="M253.753 130.535L252.449 134.516C252.403 134.65 252.309 134.764 252.186 134.837C252.062 134.91 251.916 134.937 251.774 134.914L243.276 133.808C243.188 133.8 243.104 133.772 243.029 133.728C242.954 133.683 242.891 133.622 242.843 133.55C242.795 133.477 242.765 133.395 242.754 133.31C242.744 133.224 242.753 133.138 242.781 133.056L243.905 129.341C243.951 129.212 244.036 129.101 244.149 129.022C244.262 128.943 244.396 128.9 244.535 128.898L253.213 129.783C253.306 129.779 253.398 129.799 253.482 129.839C253.565 129.88 253.637 129.94 253.691 130.015C253.744 130.089 253.778 130.176 253.789 130.267C253.8 130.358 253.787 130.45 253.753 130.535V130.535Z" fill="white"/>
<path d="M265.807 131.41L264.466 135.543C264.423 135.669 264.336 135.777 264.221 135.846C264.106 135.915 263.97 135.94 263.838 135.918L256.296 134.917C256.211 134.906 256.131 134.877 256.059 134.831C255.988 134.785 255.928 134.723 255.884 134.651C255.84 134.579 255.812 134.498 255.804 134.414C255.795 134.33 255.806 134.245 255.835 134.165L257.092 130.283C257.13 130.162 257.21 130.058 257.317 129.989C257.424 129.92 257.552 129.891 257.678 129.907L265.304 130.658C265.392 130.663 265.478 130.688 265.554 130.732C265.63 130.775 265.696 130.836 265.744 130.909C265.793 130.982 265.824 131.065 265.835 131.152C265.846 131.239 265.836 131.327 265.807 131.41V131.41Z" fill="white"/>
<path d="M281.877 132.928L280.283 138.474C280.235 138.627 280.138 138.757 280.009 138.84C279.88 138.923 279.728 138.954 279.58 138.928L269.409 137.466C269.315 137.453 269.224 137.418 269.145 137.362C269.065 137.307 268.998 137.233 268.948 137.145C268.899 137.058 268.868 136.96 268.859 136.859C268.849 136.757 268.861 136.654 268.893 136.558L270.44 131.365C270.483 131.219 270.572 131.093 270.692 131.01C270.812 130.927 270.955 130.892 271.096 130.911L281.267 132.02C281.368 132.023 281.467 132.05 281.557 132.1C281.646 132.151 281.723 132.223 281.782 132.311C281.842 132.399 281.881 132.5 281.897 132.607C281.914 132.715 281.907 132.824 281.877 132.928Z" fill="white"/>
<path d="M275.825 117.355C275.678 118.088 275.347 118.735 274.886 119.19C274.425 119.646 273.861 119.883 273.284 119.863C272.201 119.765 271.64 118.535 271.939 117.158C272.104 116.502 272.419 115.928 272.84 115.514C273.261 115.101 273.768 114.868 274.293 114.846C274.531 114.834 274.767 114.895 274.984 115.024C275.2 115.154 275.39 115.348 275.539 115.592C275.688 115.836 275.792 116.123 275.841 116.429C275.891 116.735 275.885 117.052 275.825 117.355V117.355Z" fill="white"/>
<path d="M278.891 118.859H284.914" stroke="#63737A" stroke-width="1.8" stroke-linecap="round" stroke-linejoin="round"/>
<path d="M117.788 222.973C108.837 220.799 101.152 216.527 95.1444 209.474C94.6864 209.201 94.3584 208.761 94.2324 208.251C94.1064 207.742 94.1926 207.205 94.4721 206.757L104.922 190.075C105.203 189.629 105.654 189.309 106.176 189.186C106.698 189.063 107.249 189.147 107.707 189.419L130.35 202.918C130.808 203.192 131.136 203.632 131.262 204.141C131.388 204.65 131.302 205.187 131.023 205.635L120.572 222.317C120.292 222.764 119.841 223.084 119.319 223.207C118.797 223.33 118.246 223.246 117.788 222.973V222.973Z" fill="#E6E6E6"/>
<path d="M111.748 218.021C107.006 217.511 102.077 213.775 97.1003 209.199C96.6687 208.939 96.3596 208.52 96.2409 208.035C96.1221 207.55 96.2034 207.039 96.4668 206.613L105.504 192.038C105.768 191.613 106.193 191.308 106.685 191.191C107.177 191.074 107.696 191.154 108.128 191.414L128.402 203.625C128.834 203.885 129.143 204.304 129.262 204.789C129.381 205.274 129.299 205.785 129.036 206.211L123.438 215.24C122.26 217.134 120.368 218.491 118.176 219.013C115.985 219.534 113.673 219.177 111.748 218.021V218.021Z" fill="white"/>
<path d="M116.138 200.484L108.8 212.807C108.742 212.905 108.666 212.989 108.576 213.056C108.486 213.123 108.384 213.172 108.276 213.199C108.168 213.226 108.056 213.231 107.946 213.214C107.835 213.196 107.73 213.157 107.634 213.098C107.539 213.039 107.456 212.961 107.391 212.87C107.325 212.778 107.277 212.674 107.251 212.564C107.224 212.453 107.22 212.339 107.237 212.226C107.254 212.114 107.292 212.006 107.35 211.909L114.688 199.586C114.746 199.489 114.822 199.404 114.912 199.337C115.002 199.27 115.104 199.221 115.212 199.194C115.32 199.167 115.432 199.162 115.542 199.18C115.653 199.197 115.758 199.236 115.853 199.295C115.949 199.354 116.032 199.432 116.097 199.523C116.163 199.615 116.211 199.719 116.237 199.829C116.264 199.94 116.268 200.054 116.251 200.167C116.234 200.279 116.196 200.387 116.138 200.484V200.484Z" fill="#F9A826"/>
<path d="M119.151 202.396L111.811 213.842C111.694 214.023 111.506 214.154 111.287 214.204C111.069 214.255 110.838 214.221 110.646 214.11C110.454 214 110.316 213.822 110.263 213.615C110.209 213.408 110.244 213.19 110.361 213.008L117.7 201.562C117.817 201.38 118.006 201.25 118.224 201.2C118.442 201.149 118.673 201.183 118.865 201.293C119.057 201.404 119.195 201.582 119.249 201.789C119.302 201.996 119.267 202.214 119.151 202.396V202.396Z" fill="#F9A826"/>
<path d="M122.285 182.91C122.285 182.91 122.028 190.54 121.986 192.163C121.943 193.786 122.028 196.987 121.644 198.522C121.26 200.056 120.619 203.915 119.466 204.179C118.313 204.442 119.552 199.443 119.552 198.478C119.458 197.37 119.287 196.271 119.039 195.189C119.039 195.189 118.612 197.601 118.313 198.653C118.014 199.706 116.05 202.995 115.281 202.863C114.513 202.731 115.452 200.276 116.05 198.785C116.605 197.425 116.819 194.575 116.819 194.575C116.486 195.446 116.101 196.296 115.666 197.118C115.153 197.995 113.402 200.714 112.676 200.583C111.95 200.451 113.146 197.688 113.872 196.417C114.283 195.753 114.546 195.004 114.641 194.224C114.641 194.224 113.488 195.408 112.762 195.978C112.036 196.548 109.474 197.82 109.26 197.162C109.047 196.504 110.2 195.803 111.267 194.794C112.335 193.786 113.488 191.768 113.744 191.418C114 191.067 113.274 187.997 114.427 185.936C115.58 183.875 116.263 183.042 116.562 181.638C116.861 180.235 122.157 181.902 122.285 182.91Z" fill="#F4C2C9"/>
<path d="M280.865 138.585C276.322 132.539 273.696 125.779 273.61 118.072C273.464 117.657 273.488 117.2 273.678 116.803C273.867 116.405 274.207 116.099 274.622 115.952L290.106 110.471C290.521 110.324 290.977 110.348 291.374 110.538C291.771 110.728 292.077 111.067 292.225 111.482L299.479 131.995C299.625 132.41 299.601 132.867 299.411 133.264C299.222 133.662 298.882 133.968 298.468 134.115L282.984 139.596C282.568 139.743 282.112 139.719 281.715 139.529C281.318 139.339 281.012 139 280.865 138.585Z" fill="#E6E6E6"/>
<path d="M279.778 131.881C277.011 129.156 275.826 124.294 275.055 118.876C274.916 118.493 274.939 118.071 275.119 117.704C275.298 117.337 275.62 117.054 276.014 116.918L289.49 112.272C289.884 112.137 290.317 112.16 290.694 112.335C291.07 112.51 291.36 112.824 291.5 113.207L298.038 131.208C298.176 131.592 298.153 132.013 297.974 132.38C297.794 132.747 297.472 133.03 297.078 133.166L288.73 136.044C286.976 136.646 285.049 136.547 283.37 135.766C281.692 134.986 280.4 133.589 279.778 131.881V131.881Z" fill="white"/>
<path d="M291.55 122.89L281.277 126.624C281.113 126.684 280.933 126.674 280.777 126.599C280.62 126.523 280.499 126.387 280.44 126.221C280.382 126.054 280.391 125.871 280.465 125.711C280.54 125.551 280.673 125.428 280.837 125.369L291.11 121.635C291.273 121.576 291.453 121.585 291.61 121.661C291.766 121.736 291.887 121.872 291.946 122.039C292.004 122.205 291.995 122.388 291.921 122.548C291.846 122.707 291.713 122.831 291.55 122.89V122.89Z" fill="#F9A826"/>
<path d="M281.761 122.683L279.469 123.373C279.387 123.398 279.3 123.409 279.213 123.405C279.126 123.401 279.041 123.383 278.962 123.352C278.883 123.32 278.812 123.276 278.754 123.222C278.695 123.167 278.65 123.103 278.621 123.034C278.591 122.965 278.578 122.891 278.583 122.818C278.587 122.744 278.609 122.672 278.646 122.606C278.684 122.54 278.736 122.48 278.801 122.431C278.865 122.381 278.941 122.343 279.023 122.319L281.315 121.629C281.481 121.579 281.663 121.587 281.822 121.65C281.981 121.714 282.103 121.828 282.163 121.968C282.222 122.108 282.213 122.261 282.137 122.395C282.062 122.53 281.927 122.633 281.761 122.683V122.683Z" fill="#F9A826"/>
<path d="M293.703 128.411L283.108 132.412C282.94 132.476 282.754 132.466 282.593 132.385C282.431 132.304 282.306 132.158 282.246 131.98C282.186 131.801 282.195 131.605 282.272 131.434C282.348 131.263 282.486 131.131 282.654 131.067L293.249 127.066C293.418 127.003 293.603 127.013 293.765 127.094C293.926 127.175 294.051 127.321 294.111 127.499C294.171 127.677 294.162 127.873 294.085 128.044C294.009 128.216 293.871 128.347 293.703 128.411V128.411Z" fill="#F9A826"/>
<path d="M292.267 125.783L281.995 129.517C281.832 129.577 281.652 129.568 281.495 129.492C281.338 129.416 281.218 129.28 281.159 129.114C281.101 128.947 281.11 128.764 281.184 128.604C281.258 128.445 281.392 128.321 281.555 128.262L291.827 124.528C291.908 124.499 291.994 124.486 292.08 124.49C292.166 124.494 292.25 124.516 292.328 124.553C292.406 124.591 292.475 124.643 292.533 124.708C292.591 124.773 292.635 124.849 292.664 124.932C292.693 125.014 292.706 125.102 292.702 125.189C292.697 125.276 292.676 125.362 292.639 125.441C292.602 125.52 292.55 125.591 292.487 125.65C292.423 125.709 292.348 125.754 292.267 125.783V125.783Z" fill="#F9A826"/>
<path d="M274.062 120.509C275.561 120.509 276.776 119.294 276.776 117.795C276.776 116.296 275.561 115.081 274.062 115.081C272.563 115.081 271.348 116.296 271.348 117.795C271.348 119.294 272.563 120.509 274.062 120.509Z" fill="#F9A826"/>
<path d="M247.931 186.357C243.388 180.312 240.763 173.552 240.677 165.845C240.53 165.43 240.555 164.973 240.744 164.576C240.934 164.178 241.273 163.872 241.688 163.725L257.172 158.244C257.587 158.097 258.043 158.121 258.441 158.311C258.838 158.501 259.144 158.84 259.291 159.255L266.545 179.768C266.692 180.183 266.667 180.64 266.478 181.037C266.288 181.435 265.949 181.741 265.534 181.888L250.05 187.369C249.635 187.516 249.179 187.491 248.781 187.302C248.384 187.112 248.078 186.772 247.931 186.357V186.357Z" fill="#E6E6E6"/>
<path d="M246.773 179.881C244.049 177.074 242.883 172.067 242.123 166.487C241.987 166.092 242.009 165.658 242.187 165.28C242.364 164.902 242.68 164.611 243.068 164.471L256.334 159.687C256.721 159.547 257.147 159.571 257.518 159.751C257.889 159.931 258.175 160.254 258.312 160.649L264.747 179.188C264.884 179.583 264.861 180.017 264.684 180.395C264.507 180.773 264.19 181.064 263.803 181.204L255.585 184.168C253.859 184.788 251.961 184.685 250.309 183.882C248.657 183.078 247.385 181.639 246.773 179.881V179.881Z" fill="white"/>
<path d="M258.597 170.57L248.003 174.037C247.835 174.092 247.649 174.084 247.487 174.013C247.326 173.943 247.201 173.817 247.141 173.662C247.081 173.508 247.09 173.338 247.167 173.189C247.243 173.041 247.381 172.927 247.55 172.871L258.144 169.404C258.312 169.349 258.498 169.358 258.659 169.428C258.821 169.498 258.945 169.625 259.005 169.779C259.066 169.933 259.056 170.104 258.98 170.252C258.903 170.4 258.766 170.514 258.597 170.57V170.57Z" fill="#F9A826"/>
<path d="M249.194 170.094L246.902 170.784C246.736 170.834 246.554 170.826 246.395 170.762C246.236 170.699 246.113 170.585 246.054 170.445C245.995 170.305 246.004 170.151 246.079 170.017C246.155 169.883 246.29 169.78 246.456 169.73L248.747 169.04C248.829 169.015 248.917 169.004 249.004 169.008C249.091 169.011 249.176 169.029 249.255 169.061C249.334 169.092 249.405 169.136 249.463 169.191C249.522 169.245 249.567 169.309 249.596 169.378C249.625 169.448 249.638 169.521 249.634 169.595C249.63 169.668 249.608 169.74 249.571 169.807C249.533 169.873 249.481 169.933 249.416 169.982C249.351 170.031 249.276 170.069 249.194 170.094V170.094Z" fill="#F9A826"/>
<path d="M259.326 173.196L249.054 176.93C248.891 176.989 248.711 176.98 248.554 176.904C248.397 176.829 248.276 176.693 248.218 176.526C248.159 176.36 248.168 176.177 248.243 176.017C248.317 175.857 248.451 175.734 248.614 175.675L258.886 171.941C258.967 171.911 259.053 171.898 259.139 171.903C259.225 171.907 259.309 171.928 259.386 171.966C259.464 172.003 259.534 172.056 259.592 172.121C259.649 172.186 259.694 172.262 259.723 172.344C259.752 172.427 259.764 172.514 259.76 172.602C259.756 172.689 259.735 172.775 259.698 172.854C259.661 172.933 259.609 173.004 259.545 173.063C259.481 173.121 259.407 173.167 259.326 173.196Z" fill="#F9A826"/>
<path d="M241.851 167.559C243.35 167.559 244.565 166.344 244.565 164.845C244.565 163.346 243.35 162.13 241.851 162.13C240.352 162.13 239.137 163.346 239.137 164.845C239.137 166.344 240.352 167.559 241.851 167.559Z" fill="#F9A826"/>
<path d="M316.049 213.04C309.765 212.694 304.054 210.745 299.1 206.671C298.757 206.542 298.479 206.282 298.328 205.948C298.176 205.615 298.163 205.235 298.292 204.892L303.096 192.095C303.225 191.752 303.485 191.475 303.818 191.323C304.152 191.172 304.532 191.159 304.875 191.288L321.824 197.656C322.167 197.785 322.444 198.045 322.596 198.379C322.747 198.713 322.76 199.093 322.632 199.436L317.828 212.232C317.699 212.575 317.439 212.853 317.105 213.004C316.772 213.155 316.392 213.168 316.049 213.04V213.04Z" fill="#E6E6E6"/>
<path d="M311.299 210.313C308.052 210.544 304.239 208.604 300.279 206.099C299.954 205.974 299.69 205.727 299.544 205.412C299.398 205.097 299.383 204.739 299.501 204.417L303.561 193.407C303.679 193.085 303.922 192.826 304.236 192.687C304.549 192.547 304.908 192.538 305.233 192.662L320.486 198.495C320.811 198.62 321.075 198.867 321.221 199.182C321.367 199.497 321.382 199.855 321.264 200.177L318.749 206.997C318.22 208.429 317.138 209.582 315.741 210.204C314.344 210.825 312.747 210.865 311.299 210.313V210.313Z" fill="white"/>
<path d="M311.708 197.796L308.241 206.399C308.186 206.536 308.081 206.65 307.95 206.715C307.819 206.781 307.671 206.792 307.541 206.748C307.41 206.703 307.307 206.606 307.253 206.478C307.2 206.35 307.201 206.201 307.256 206.064L310.723 197.46C310.778 197.323 310.883 197.21 311.014 197.145C311.146 197.079 311.293 197.068 311.423 197.112C311.554 197.157 311.657 197.254 311.711 197.382C311.764 197.51 311.763 197.659 311.708 197.796V197.796Z" fill="#F9A826"/>
<path d="M306.371 203.528L305.583 205.357C305.526 205.489 305.423 205.601 305.298 205.668C305.172 205.735 305.034 205.752 304.913 205.715C304.792 205.678 304.699 205.59 304.654 205.47C304.609 205.35 304.616 205.209 304.672 205.076L305.461 203.247C305.489 203.182 305.529 203.12 305.578 203.067C305.627 203.013 305.684 202.969 305.746 202.935C305.808 202.902 305.874 202.881 305.941 202.872C306.007 202.864 306.071 202.87 306.131 202.888C306.191 202.907 306.245 202.938 306.289 202.98C306.334 203.022 306.368 203.074 306.39 203.134C306.413 203.193 306.422 203.259 306.419 203.326C306.416 203.394 306.4 203.462 306.371 203.528V203.528Z" fill="#F9A826"/>
<path d="M313.775 198.732L310.651 207.273C310.601 207.409 310.499 207.519 310.367 207.578C310.234 207.638 310.083 207.642 309.946 207.59C309.808 207.538 309.697 207.434 309.635 207.301C309.573 207.168 309.566 207.017 309.616 206.881L312.74 198.34C312.765 198.272 312.803 198.211 312.851 198.158C312.9 198.106 312.959 198.064 313.025 198.034C313.09 198.005 313.161 197.989 313.233 197.987C313.305 197.985 313.378 197.997 313.446 198.023C313.514 198.049 313.576 198.087 313.629 198.137C313.683 198.187 313.726 198.246 313.757 198.312C313.787 198.378 313.805 198.449 313.808 198.521C313.811 198.593 313.8 198.665 313.775 198.732Z" fill="#F9A826"/>
<path d="M300.821 206.843C301.624 205.888 301.501 204.464 300.547 203.661C299.592 202.858 298.167 202.98 297.364 203.935C296.561 204.89 296.684 206.315 297.639 207.118C298.593 207.921 300.018 207.798 300.821 206.843Z" fill="#F9A826"/>
<path d="M264.7 113.41C262.595 116.877 258.379 118.873 255.688 117.829C253.34 116.911 253.206 114.005 255.05 111.311C256.837 108.744 260.062 106.865 262.662 107.098C265.53 107.316 266.655 110.105 264.7 113.41Z" fill="#F8AB5D"/>
<path d="M263.943 112.573C261.837 116.04 257.621 118.036 254.93 116.992C252.582 116.074 252.448 113.168 254.292 110.474C256.079 107.907 259.304 106.028 261.904 106.261C264.772 106.479 265.897 109.268 263.943 112.573Z" fill="#FFE779"/>
<path d="M262.56 112.247C260.993 114.837 257.805 116.365 255.746 115.656C253.902 115.014 253.697 112.768 255.124 110.652C256.498 108.619 259.1 107.162 261.079 107.374C263.317 107.658 264.068 109.784 262.56 112.247Z" fill="#F8AB5D"/>
<path d="M252.892 107.348C250.787 110.815 246.57 112.811 243.88 111.767C241.531 110.849 241.397 107.943 243.242 105.249C245.028 102.682 248.254 100.803 250.853 101.036C253.721 101.254 254.846 104.043 252.892 107.348Z" fill="#F8AB5D"/>
<path d="M252.142 106.509C250.037 109.976 245.82 111.972 243.13 110.928C240.781 110.01 240.647 107.104 242.492 104.41C244.278 101.843 247.504 99.9641 250.103 100.197C252.971 100.415 254.096 103.204 252.142 106.509Z" fill="#FFE779"/>
<path d="M250.751 106.184C249.184 108.774 245.997 110.302 243.937 109.593C242.093 108.951 241.888 106.705 243.315 104.589C244.689 102.556 247.291 101.099 249.27 101.311C251.508 101.595 252.26 103.721 250.751 106.184Z" fill="#F8AB5D"/>
<path d="M264.7 113.41C262.595 116.877 258.379 118.873 255.688 117.829C253.34 116.911 253.206 114.005 255.05 111.311C256.837 108.744 260.062 106.865 262.662 107.098C265.53 107.316 266.655 110.105 264.7 113.41Z" fill="#F8AB5D"/>
<path d="M263.943 112.573C261.837 116.04 257.621 118.036 254.93 116.992C252.582 116.074 252.448 113.168 254.292 110.474C256.079 107.907 259.304 106.028 261.904 106.261C264.772 106.479 265.897 109.268 263.943 112.573Z" fill="#FFE779"/>
<path d="M262.56 112.247C260.993 114.837 257.805 116.365 255.746 115.656C253.902 115.014 253.697 112.768 255.124 110.652C256.498 108.619 259.1 107.162 261.079 107.374C263.317 107.658 264.068 109.784 262.56 112.247Z" fill="#F8AB5D"/>
<path d="M269.435 105.112C267.33 108.578 263.113 110.574 260.423 109.531C258.074 108.612 257.94 105.707 259.785 103.013C261.571 100.446 264.797 98.5667 267.396 98.8C270.264 99.0174 271.389 101.806 269.435 105.112Z" fill="#F8AB5D"/>
<path d="M268.685 104.273C266.58 107.74 262.363 109.735 259.673 108.692C257.324 107.774 257.19 104.868 259.035 102.174C260.821 99.6071 264.047 97.7278 266.646 97.9611C269.514 98.1786 270.639 100.968 268.685 104.273Z" fill="#FFE779"/>
<path d="M267.29 103.948C265.723 106.538 262.536 108.066 260.476 107.356C258.632 106.714 258.427 104.468 259.855 102.353C261.228 100.32 263.83 98.8631 265.809 99.0746C268.047 99.3582 268.799 101.485 267.29 103.948Z" fill="#F8AB5D"/>
<path d="M251.85 57.4858C249.484 56.8941 246.874 57.2732 244.113 58.5171C242.25 59.2917 240.643 60.5775 239.479 62.226C238.136 64.1146 237.613 66.337 237.817 68.9993L236.543 70.7439L238.143 71.1763L243.059 69.3105C242.788 68.167 242.799 66.9751 243.089 65.8366C243.393 64.623 244.234 63.7052 245.638 63.1212C247.041 62.5372 248.209 62.5069 249.028 63.0986C249.853 63.6999 250.434 64.5774 250.667 65.5714C250.904 66.4883 250.875 67.4539 250.583 68.3551C250.404 68.9283 250.138 69.4707 249.794 69.9631L248.732 71.6317C247.685 73.2397 247.109 74.514 247.025 75.4924C246.991 76.5442 247.085 77.5961 247.306 78.6251L246.085 80.0282L247.685 80.4607L252.987 78.9818C252.723 78.1444 252.583 77.2731 252.57 76.3952C252.6 75.4108 252.928 74.4587 253.511 73.6647L254.633 72.0112C255.543 70.7708 256.293 69.42 256.863 67.9912C257.434 66.2994 257.44 64.4678 256.879 62.7727C256.022 59.8828 254.338 58.1078 251.85 57.4858Z" fill="#F8AB5D"/>
<path d="M250.916 82.235L250.742 82.2881C250.362 82.4009 250.009 82.5886 249.703 82.8401C249.397 83.0917 249.145 83.402 248.961 83.7527C248.777 84.1034 248.666 84.4874 248.633 84.882C248.6 85.2766 248.646 85.6738 248.77 86.0502C248.958 86.848 249.443 87.5442 250.126 87.9966C250.81 88.4491 251.64 88.6238 252.448 88.4851L252.645 88.4699C254.284 88.1059 255.224 86.4069 254.731 84.6396C254.238 82.8722 252.509 81.7951 250.916 82.235Z" fill="#F8AB5D"/>
<path d="M237.916 61.7712C239.113 60.1532 240.71 58.8749 242.551 58.0623C245.312 56.8185 247.883 56.4621 250.288 57.031C252.692 57.6 254.459 59.428 255.324 62.4166C255.873 64.1136 255.867 65.9413 255.309 67.635C255.005 68.5907 254.254 69.9181 253.078 71.655L251.956 73.3085C251.373 74.1025 251.045 75.0547 251.015 76.0391C251.058 76.9141 251.198 77.7816 251.432 78.6256L246.13 80.1045C245.592 77.7455 245.349 76.1375 245.471 75.1363C245.592 74.1351 246.13 72.8836 247.177 71.2756L248.239 69.6069C248.577 69.1112 248.843 68.5697 249.028 67.9989C249.35 67.1033 249.38 66.1285 249.112 65.2152C248.84 64.239 248.266 63.3736 247.473 62.7424C246.692 62.128 245.524 62.1583 244.083 62.7651C242.642 63.3718 241.838 64.2668 241.534 65.4804C241.221 66.6159 241.211 67.8136 241.504 68.9544L236.589 70.8201C235.807 67.111 236.217 64.1832 237.916 61.7712ZM249.528 82.2436L249.703 82.1905C250.518 82.0149 251.37 82.1637 252.078 82.6055C252.786 83.0473 253.294 83.7472 253.495 84.5572V84.5572C253.988 86.3245 253.01 88.0463 251.409 88.3875L251.212 88.4027C250.404 88.5413 249.574 88.3667 248.89 87.9142C248.207 87.4618 247.721 86.7656 247.533 85.9678V85.9678C247.305 85.2094 247.386 84.3912 247.76 83.693C248.134 82.9947 248.77 82.4734 249.528 82.2436V82.2436Z" fill="#FFE779"/>
<path d="M225.537 126.544L242.425 128.348L244.022 129.631C244.139 129.725 244.28 129.787 244.428 129.808C244.577 129.829 244.729 129.809 244.867 129.751C245.006 129.693 245.126 129.598 245.215 129.477C245.304 129.356 245.359 129.213 245.373 129.064L246.646 117.146C246.709 116.563 246.537 115.979 246.169 115.522C245.8 115.066 245.266 114.774 244.683 114.712L227.004 112.823C226.42 112.761 225.836 112.932 225.38 113.301C224.923 113.669 224.632 114.204 224.57 114.787L223.574 124.11C223.511 124.693 223.683 125.277 224.051 125.734C224.42 126.19 224.954 126.482 225.537 126.544V126.544Z" fill="#F4C2C9"/>
<path d="M241.004 118.278L229.746 117.075" stroke="#22272E" stroke-width="1.8" stroke-linecap="round" stroke-linejoin="round"/>
<path d="M240.684 121.356L229.426 120.153" stroke="#22272E" stroke-width="1.8" stroke-linecap="round" stroke-linejoin="round"/>
<path d="M240.348 124.434L233.883 123.744" stroke="#22272E" stroke-width="1.8" stroke-linecap="round" stroke-linejoin="round"/>
<path d="M291.265 106.844L276.901 105.976C276.637 105.959 276.38 105.882 276.15 105.752C275.919 105.622 275.721 105.442 275.569 105.225C275.417 105.009 275.316 104.76 275.272 104.499C275.229 104.238 275.245 103.971 275.319 103.716L280.232 80.2223C280.36 79.6268 280.678 79.0889 281.138 78.6891C281.597 78.2892 282.174 78.0489 282.782 78.0039L297.54 77.6683C298.834 77.6287 299.615 78.6462 299.347 79.9074L293.981 104.732C293.839 105.342 293.491 105.884 292.997 106.269C292.502 106.653 291.891 106.856 291.265 106.844V106.844Z" fill="#22272E"/>
<path d="M290.261 106.247L275.898 105.38C275.633 105.362 275.377 105.286 275.146 105.156C274.915 105.026 274.717 104.846 274.565 104.629C274.413 104.412 274.312 104.164 274.269 103.903C274.225 103.642 274.241 103.374 274.315 103.12L279.228 79.6261C279.356 79.0306 279.674 78.4927 280.134 78.0929C280.593 77.693 281.17 77.4527 281.778 77.4077L296.536 77.0721C297.83 77.0325 298.611 78.05 298.343 79.3112L292.977 104.136C292.843 104.75 292.497 105.297 292.001 105.683C291.505 106.069 290.889 106.268 290.261 106.247V106.247Z" fill="#22272E"/>
<path d="M293.22 84.8125L281.967 84.811C281.883 84.8111 281.8 84.7925 281.724 84.7563C281.649 84.7201 281.582 84.6674 281.529 84.602C281.476 84.5366 281.439 84.4602 281.419 84.3784C281.4 84.2967 281.399 84.2116 281.417 84.1295L281.973 81.4311C281.994 81.3064 282.061 81.1938 282.159 81.1143C282.258 81.0349 282.382 80.9939 282.508 80.999L293.819 80.8733C293.903 80.8731 293.986 80.8918 294.062 80.928C294.138 80.9641 294.205 81.0169 294.258 81.0823C294.31 81.1476 294.348 81.224 294.367 81.3058C294.386 81.3876 294.387 81.4727 294.369 81.5548L293.756 84.3804C293.741 84.5082 293.677 84.6251 293.577 84.7059C293.476 84.7867 293.349 84.825 293.22 84.8125Z" fill="#F4C2C9"/>
<path d="M282.08 91.2719L280.615 91.2487C280.531 91.2489 280.448 91.2302 280.372 91.194C280.296 91.1579 280.229 91.1052 280.176 91.0398C280.124 90.9744 280.086 90.898 280.067 90.8162C280.048 90.7344 280.047 90.6493 280.065 90.5673L280.41 89.0029C280.432 88.8782 280.498 88.7656 280.596 88.6861C280.695 88.6066 280.819 88.5656 280.945 88.5708L282.411 88.5939C282.495 88.5938 282.578 88.6125 282.654 88.6486C282.729 88.6848 282.796 88.7375 282.849 88.8029C282.902 88.8683 282.939 88.9447 282.958 89.0265C282.978 89.1083 282.979 89.1933 282.961 89.2754L282.616 90.8398C282.594 90.9645 282.528 91.0771 282.429 91.1566C282.331 91.2361 282.207 91.277 282.08 91.2719V91.2719Z" fill="#B0D7C0"/>
<path d="M291.792 91.4658L290.194 91.4285C290.11 91.4287 290.027 91.41 289.952 91.3738C289.876 91.3377 289.809 91.2849 289.756 91.2196C289.703 91.1542 289.666 91.0778 289.647 90.996C289.627 90.9142 289.627 90.8291 289.645 90.747L289.999 89.0947C290.021 88.97 290.087 88.8574 290.185 88.7779C290.284 88.6984 290.408 88.6575 290.534 88.6626L292.136 88.6559C292.22 88.6557 292.303 88.6744 292.379 88.7106C292.455 88.7467 292.522 88.7995 292.575 88.8648C292.627 88.9302 292.665 89.0066 292.684 89.0884C292.703 89.1702 292.704 89.2553 292.686 89.3374L292.332 90.9897C292.311 91.1194 292.246 91.2378 292.147 91.3247C292.049 91.4115 291.923 91.4614 291.792 91.4658V91.4658Z" fill="#B0D7C0"/>
<path d="M286.865 91.3411L285.356 91.3132C285.272 91.3134 285.189 91.2947 285.113 91.2585C285.037 91.2224 284.971 91.1696 284.918 91.1042C284.865 91.0389 284.828 90.9625 284.808 90.8807C284.789 90.7989 284.788 90.7138 284.806 90.6317L285.156 89.0234C285.178 88.8987 285.244 88.7861 285.342 88.7066C285.441 88.6271 285.565 88.5861 285.691 88.5913L287.201 88.6191C287.285 88.619 287.368 88.6377 287.444 88.6738C287.52 88.71 287.586 88.7627 287.639 88.8281C287.692 88.8935 287.729 88.9699 287.749 89.0517C287.768 89.1335 287.769 89.2185 287.751 89.3006L287.401 90.909C287.386 91.0368 287.322 91.1537 287.222 91.2345C287.121 91.3153 286.994 91.3536 286.865 91.3411Z" fill="#B0D7C0"/>
<path d="M280.929 96.6198L279.468 96.5527C279.385 96.5498 279.304 96.5291 279.23 96.492C279.155 96.4548 279.09 96.4022 279.038 96.3375C278.986 96.2729 278.948 96.1978 278.927 96.1174C278.907 96.0369 278.904 95.953 278.918 95.8713L279.264 94.3069C279.296 94.1795 279.371 94.0672 279.477 93.9892C279.582 93.9112 279.712 93.8725 279.843 93.8795L281.308 93.9026C281.392 93.9025 281.475 93.9212 281.551 93.9573C281.627 93.9935 281.694 94.0462 281.747 94.1116C281.799 94.177 281.837 94.2534 281.856 94.3352C281.875 94.4169 281.876 94.502 281.858 94.5841L281.513 96.1485C281.489 96.2844 281.417 96.4071 281.31 96.4938C281.202 96.5804 281.067 96.6252 280.929 96.6198V96.6198Z" fill="#B0D7C0"/>
<path d="M290.627 96.9894L289.03 96.9522C288.947 96.9493 288.866 96.9285 288.791 96.8914C288.717 96.8543 288.652 96.8016 288.6 96.737C288.547 96.6724 288.51 96.5973 288.489 96.5168C288.469 96.4364 288.466 96.3524 288.48 96.2707L288.83 94.6623C288.862 94.5349 288.937 94.4226 289.043 94.3447C289.149 94.2667 289.278 94.2279 289.409 94.235L291.007 94.2722C291.091 94.272 291.174 94.2907 291.25 94.3269C291.325 94.3631 291.392 94.4158 291.445 94.4812C291.498 94.5466 291.535 94.623 291.554 94.7047C291.574 94.7865 291.575 94.8716 291.557 94.9537L291.202 96.606C291.148 96.7145 291.067 96.807 290.966 96.8743C290.865 96.9415 290.748 96.9812 290.627 96.9894V96.9894Z" fill="#B0D7C0"/>
<path d="M285.703 96.8194L284.198 96.7476C284.115 96.7447 284.034 96.7239 283.959 96.6868C283.885 96.6497 283.82 96.597 283.768 96.5324C283.715 96.4678 283.678 96.3927 283.657 96.3122C283.637 96.2318 283.633 96.1478 283.648 96.0661L283.998 94.4577C284.03 94.3303 284.105 94.2181 284.211 94.1401C284.317 94.0621 284.446 94.0233 284.577 94.0304L286.087 94.0582C286.171 94.0581 286.254 94.0767 286.33 94.1129C286.405 94.1491 286.472 94.2018 286.525 94.2672C286.578 94.3326 286.615 94.409 286.634 94.4908C286.654 94.5725 286.655 94.6576 286.637 94.7397L286.287 96.3481C286.249 96.4767 286.173 96.5908 286.068 96.675C285.964 96.7592 285.836 96.8096 285.703 96.8194V96.8194Z" fill="#B0D7C0"/>
<path d="M279.775 101.969L278.358 101.906C278.278 101.902 278.199 101.88 278.128 101.842C278.056 101.805 277.994 101.751 277.946 101.687C277.898 101.622 277.864 101.548 277.848 101.469C277.832 101.389 277.833 101.308 277.852 101.229L278.197 99.6649C278.229 99.5375 278.305 99.4252 278.41 99.3473C278.516 99.2693 278.646 99.2305 278.777 99.2376L280.193 99.3C280.275 99.2997 280.357 99.3187 280.43 99.3554C280.503 99.3921 280.567 99.4454 280.617 99.5112C280.666 99.5769 280.699 99.6533 280.713 99.7341C280.728 99.815 280.723 99.8981 280.699 99.9768L280.354 101.541C280.329 101.672 280.255 101.789 280.148 101.868C280.041 101.947 279.907 101.983 279.775 101.969V101.969Z" fill="#B0D7C0"/>
<path d="M289.419 102.465L287.826 102.384C287.745 102.38 287.667 102.358 287.595 102.32C287.524 102.282 287.462 102.229 287.414 102.164C287.366 102.1 287.332 102.025 287.316 101.946C287.3 101.867 287.301 101.785 287.32 101.707L287.67 100.099C287.702 99.9711 287.777 99.8588 287.883 99.7809C287.989 99.7029 288.118 99.6641 288.249 99.6712L289.842 99.7524C289.924 99.7521 290.005 99.7711 290.079 99.8078C290.152 99.8444 290.216 99.8978 290.265 99.9636C290.314 100.029 290.347 100.106 290.362 100.187C290.376 100.267 290.371 100.35 290.348 100.429L289.993 102.082C289.953 102.199 289.874 102.301 289.771 102.37C289.667 102.439 289.543 102.473 289.419 102.465Z" fill="#FFE779"/>
<path d="M284.554 102.211L283.05 102.139C282.969 102.135 282.89 102.113 282.819 102.075C282.748 102.037 282.686 101.984 282.637 101.92C282.589 101.855 282.556 101.78 282.539 101.701C282.523 101.622 282.525 101.541 282.544 101.462L282.889 99.8978C282.921 99.7705 282.996 99.6582 283.102 99.5802C283.207 99.5022 283.337 99.4634 283.468 99.4705L284.973 99.5423C285.055 99.5421 285.136 99.561 285.209 99.5977C285.283 99.6344 285.347 99.6877 285.396 99.7535C285.445 99.8193 285.478 99.8956 285.493 99.9765C285.507 100.057 285.502 100.14 285.479 100.219L285.129 101.827C285.088 101.945 285.01 102.047 284.906 102.116C284.802 102.185 284.679 102.219 284.554 102.211Z" fill="#FFE779"/>
<path d="M157.921 126.527L160.364 128.66L164.716 132.48L166.13 129.926L167.534 127.406L161.789 121.285L158.132 126.245L157.921 126.527Z" fill="#263238"/>
<path d="M167.459 127.532L167.743 129.76L168.166 133.017L174.558 128.147L173.456 124.468L167.459 127.532Z" fill="#263238"/>
</svg>
