<svg width="400" height="400" viewBox="0 0 400 400" fill="none" xmlns="http://www.w3.org/2000/svg">
<path d="M400 60C400 26.8629 373.137 0 340 0H60C26.8629 0 0 26.8629 0 60V340C0 373.137 26.8629 400 60 400H340C373.137 400 400 373.137 400 340V60Z" fill="#A05B4B"/>
<path d="M354.664 183.123L323.038 122.559C320.838 118.39 317.097 115.246 312.612 113.794C308.128 112.343 303.254 112.7 299.028 114.788L268.547 130.029H246.313L203.375 110.6C199.46 108.83 195.041 108.517 190.915 109.719L127.357 128.248L97.6807 113.411C93.4553 111.322 88.5815 110.966 84.097 112.417C79.6125 113.868 75.8715 117.012 73.6705 121.18L42.0449 181.746C40.9382 183.865 40.2647 186.183 40.0637 188.566C39.8627 190.948 40.1383 193.347 40.8744 195.621C41.6104 197.896 42.7921 200.002 44.3506 201.815C45.9092 203.628 47.8132 205.112 49.9516 206.181L81.046 221.729L150.728 276.217C152.713 277.773 155.004 278.892 157.452 279.501L231.983 298.134C233.398 298.487 234.851 298.665 236.309 298.664C241.095 298.665 245.687 296.772 249.081 293.398L296.401 246.078C296.439 246.04 296.473 245.999 296.509 245.961C296.559 245.909 296.607 245.856 296.655 245.802C296.706 245.746 296.76 245.693 296.809 245.635L316.367 222.755L346.757 207.56C348.896 206.49 350.8 205.006 352.358 203.193C353.917 201.38 355.099 199.274 355.835 196.999C356.571 194.725 356.846 192.326 356.645 189.944C356.444 187.561 355.771 185.243 354.664 183.123ZM289.714 230.187L238.9 193.231C237.566 192.26 235.955 191.743 234.305 191.755C232.655 191.767 231.053 192.308 229.733 193.299L213.272 205.644C207.474 209.958 200.438 212.288 193.21 212.288C185.983 212.288 178.947 209.958 173.149 205.643L166.178 200.416C165.883 200.195 165.64 199.913 165.463 199.589C165.287 199.266 165.183 198.908 165.157 198.541C165.13 198.173 165.184 197.804 165.312 197.459C165.441 197.114 165.642 196.801 165.903 196.54L216.229 146.214C216.712 145.733 217.365 145.462 218.047 145.46H244.609L244.644 145.462L244.671 145.46H265.693L302.268 215.501L289.714 230.187ZM55.5564 190.87C55.4503 190.546 55.4105 190.203 55.4392 189.862C55.4678 189.522 55.5645 189.191 55.7234 188.888L87.349 128.322C87.5691 127.906 87.8987 127.557 88.3024 127.314C88.7061 127.071 89.1685 126.943 89.6397 126.944C90.0351 126.944 90.4252 127.036 90.7787 127.213L115.865 139.756L81.8585 204.882L56.8537 192.379C56.5477 192.227 56.2752 192.015 56.0524 191.756C55.8296 191.497 55.6609 191.196 55.5564 190.87ZM238.171 282.485C237.856 282.799 237.465 283.026 237.037 283.144C236.608 283.263 236.157 283.269 235.725 283.162L161.193 264.529C160.844 264.442 160.518 264.283 160.235 264.061L95.0014 213.051L131.524 143.107L195.234 124.534C195.823 124.363 196.455 124.407 197.014 124.659L211.565 131.243C209.222 132.144 207.093 133.527 205.318 135.302L154.992 185.628C153.168 187.452 151.757 189.646 150.855 192.063C149.953 194.479 149.581 197.062 149.764 199.635C149.947 202.208 150.68 204.711 151.915 206.976C153.149 209.241 154.856 211.214 156.92 212.761L163.891 217.989C172.365 224.295 182.647 227.7 193.211 227.7C203.774 227.7 214.056 224.295 222.53 217.989L234.432 209.063L279.104 241.552L238.171 282.485ZM341.153 192.249C341.048 192.574 340.879 192.875 340.657 193.134C340.434 193.393 340.161 193.605 339.855 193.757L314.85 206.26L280.844 141.134L305.93 128.591C306.534 128.292 307.23 128.241 307.871 128.449C308.512 128.656 309.046 129.106 309.36 129.701L340.985 190.266C341.144 190.568 341.241 190.9 341.27 191.24C341.298 191.581 341.259 191.924 341.153 192.249ZM185.265 319.651C185.02 320.635 184.583 321.56 183.98 322.375C183.377 323.189 182.619 323.877 181.75 324.398C180.881 324.92 179.918 325.265 178.915 325.414C177.913 325.563 176.891 325.513 175.908 325.266L137.149 315.578C134.398 314.885 131.847 313.556 129.703 311.697L100.702 286.489C99.9348 285.825 99.3058 285.016 98.8514 284.109C98.397 283.201 98.126 282.213 98.054 281.201C97.982 280.188 98.1104 279.172 98.4319 278.209C98.7533 277.247 99.2615 276.357 99.9273 275.591C100.593 274.825 101.403 274.198 102.312 273.746C103.22 273.294 104.209 273.025 105.222 272.955C106.234 272.886 107.25 273.017 108.212 273.341C109.174 273.664 110.062 274.175 110.827 274.842L139.829 300.052C140.137 300.319 140.503 300.509 140.898 300.608L179.65 310.294C181.635 310.791 183.342 312.056 184.395 313.81C185.448 315.565 185.761 317.666 185.265 319.651Z" fill="black"/>
</svg>
