<svg width="1688" height="984" viewBox="0 0 1688 984" fill="none" xmlns="http://www.w3.org/2000/svg">
<path d="M1688 516L0 541L1.4424e-05 376.009L4.72957e-05 -0.00014757L1688 0L1688 516Z" fill="#46392D"/>
<path d="M1688 818.509L0 983.5L1.4424e-05 818.509L4.19193e-05 504L403.678 402.124C415.785 399.068 428.358 398.307 440.746 399.88L656.397 427.268C666.554 428.558 676.862 426.699 685.928 421.941L814.721 354.363C833.734 344.386 855.454 340.794 876.667 344.119L1112 381L1266 345.5L1541 297.999L1688 154.5L1688 818.509Z" fill="#F7B91B"/>
<path d="M612.357 879.866C624.057 878.761 632.646 868.38 631.541 856.678C630.437 844.977 620.057 836.386 608.357 837.49C596.657 838.595 588.067 848.976 589.172 860.678C590.277 872.379 600.657 880.97 612.357 879.866Z" fill="#3B963E"/>
<path d="M618.422 922.303L614.083 922.713L609.735 855.516L618.422 922.303Z" fill="#3F3D56"/>
<path d="M611.315 868.181L615.365 861.295L611.402 869.783L610.808 868.938L611.315 868.181Z" fill="#3F3D56"/>
<path d="M611.424 874.738L606.156 868.732L611.638 876.327L612.063 875.386L611.424 874.738Z" fill="#3F3D56"/>
<path d="M806.693 861.52C818.393 860.415 826.982 850.034 825.877 838.333C824.773 826.631 814.392 818.04 802.692 819.145C790.992 820.249 782.403 830.631 783.508 842.332C784.613 854.034 794.993 862.624 806.693 861.52Z" fill="#3B963E"/>
<path d="M812.751 903.96L808.412 904.369L804.065 837.173L812.751 903.96Z" fill="#3F3D56"/>
<path d="M805.652 849.835L809.702 842.949L805.739 851.437L805.144 850.592L805.652 849.835Z" fill="#3F3D56"/>
<path d="M805.752 856.393L800.484 850.388L805.966 857.983L806.391 857.041L805.752 856.393Z" fill="#3F3D56"/>
<path d="M671.805 853.74C689.085 852.109 701.771 836.777 700.139 819.495C698.508 802.212 683.177 789.525 665.897 791.156C648.617 792.787 635.932 808.119 637.563 825.402C639.195 842.684 654.525 855.372 671.805 853.74Z" fill="#3B963E"/>
<path d="M680.762 916.419L674.354 917.024L667.933 817.781L680.762 916.419Z" fill="#3F3D56"/>
<path d="M670.275 836.483L676.255 826.315L670.403 838.85L669.524 837.601L670.275 836.483Z" fill="#3F3D56"/>
<path d="M670.426 846.169L662.648 837.3L670.743 848.516L671.373 847.126L670.426 846.169Z" fill="#3F3D56"/>
<path d="M748.11 846.538C765.39 844.907 778.076 829.575 776.444 812.292C774.813 795.01 759.482 782.322 742.202 783.954C724.922 785.585 712.237 800.917 713.868 818.2C715.499 835.482 730.83 848.17 748.11 846.538Z" fill="#3B963E"/>
<path d="M757.063 909.216L750.655 909.821L744.233 810.578L757.063 909.216Z" fill="#3F3D56"/>
<path d="M746.574 829.28L752.556 819.112L746.703 831.647L745.825 830.398L746.574 829.28Z" fill="#3F3D56"/>
<path d="M746.724 838.966L738.945 830.097L747.041 841.313L747.67 839.923L746.724 838.966Z" fill="#3F3D56"/>
<path d="M550.196 865.221C567.476 863.59 580.161 848.257 578.53 830.975C576.899 813.693 561.568 801.005 544.288 802.636C527.008 804.267 514.323 819.6 515.954 836.882C517.585 854.164 532.916 866.852 550.196 865.221Z" fill="#3B963E"/>
<path d="M559.165 927.898L552.757 928.503L546.336 829.259L559.165 927.898Z" fill="#3F3D56"/>
<path d="M548.668 847.962L554.649 837.794L548.796 850.328L547.918 849.079L548.668 847.962Z" fill="#3F3D56"/>
<path d="M548.818 857.648L541.039 848.779L549.135 859.996L549.763 858.606L548.818 857.648Z" fill="#3F3D56"/>
</svg>
