<svg width="400" height="400" viewBox="0 0 400 400" fill="none" xmlns="http://www.w3.org/2000/svg">
<path d="M400 60C400 26.8629 373.137 0 340 0H60C26.8629 0 0 26.8629 0 60V340C0 373.137 26.8629 400 60 400H340C373.137 400 400 373.137 400 340V60Z" fill="#F9B300"/>
<path d="M301.074 175.537C301.074 121.205 256.873 77 202.537 77C148.201 77 104 121.205 104 175.537C104 213.311 125.372 246.17 156.651 262.7C156.675 262.909 156.667 263.114 156.711 263.324L168.375 321.798C169.119 325.571 172.425 327.304 176.266 327.304H189.872C191.268 331.326 193.83 331.326 196.802 331.326H204.846C207.814 331.326 210.38 331.326 211.775 327.304H225.333C229.186 327.304 232.5 325.442 233.232 321.658L244.381 264.651C277.848 248.885 301.074 214.916 301.074 175.537ZM218.693 311.217H182.878L174.561 269.867C183.437 272.498 192.82 274.002 202.541 274.002C210.842 274.002 218.906 272.856 226.616 270.913L218.693 311.217ZM190.942 256.716L179.785 202.987C179.966 202.999 180.143 203.035 180.328 203.035C183.823 203.035 186.848 200.586 188.762 196.266C188.875 196.133 188.979 195.997 189.072 195.848C189.257 195.562 189.422 195.353 189.554 195.212C189.683 195.357 189.848 195.558 190.029 195.844C190.146 196.025 190.282 196.198 190.435 196.355C192.358 200.594 195.358 202.991 198.813 202.991C200.739 202.991 204.339 202.194 206.941 196.885C206.969 196.837 206.997 196.785 207.022 196.733C207.11 196.544 207.199 196.347 207.283 196.149C207.363 196.053 207.432 195.948 207.504 195.844C207.689 195.558 207.854 195.349 207.987 195.208C208.12 195.349 208.284 195.558 208.469 195.844C208.554 195.981 208.654 196.105 208.759 196.23C210.669 200.574 213.702 203.031 217.213 203.031C220.712 203.031 223.741 200.582 225.651 196.258C225.76 196.125 225.868 195.989 225.961 195.84C226.142 195.558 226.307 195.349 226.435 195.208C226.54 195.317 226.677 195.506 226.809 195.699L214.14 256.712C214.116 256.832 214.152 256.953 214.14 257.074C210.344 257.608 206.491 257.982 202.545 257.982C198.6 257.982 194.751 257.608 190.954 257.074C190.93 256.957 190.97 256.84 190.942 256.716ZM222.619 255.421L235.183 194.919C235.569 193.077 234.58 191.327 232.951 190.547C229.347 185.994 223.475 185.918 219.896 190.495C219.309 190.949 218.842 191.568 218.577 192.296C218.074 193.66 217.543 194.428 217.205 194.798C216.863 194.432 216.332 193.664 215.83 192.296C215.596 191.657 215.178 191.106 214.651 190.672C212.238 187.474 209.479 186.967 207.979 186.967C206.495 186.967 203.764 187.466 201.363 190.595C200.84 191.03 200.43 191.601 200.176 192.268C200.048 192.614 199.907 192.948 199.79 193.189C199.774 193.221 199.754 193.258 199.738 193.29C199.38 194.034 199.042 194.492 198.809 194.746C198.471 194.38 197.944 193.62 197.445 192.276C197.196 191.609 196.738 191.034 196.166 190.599C194.365 188.246 192.044 186.963 189.546 186.963C188.078 186.963 185.392 187.45 183.015 190.491C182.427 190.945 181.961 191.56 181.696 192.288C181.193 193.656 180.658 194.424 180.32 194.794C179.982 194.428 179.447 193.66 178.945 192.288C178.361 190.708 176.652 189.654 174.967 189.654C174.287 189.654 173.688 189.863 173.141 190.161C173.097 190.169 173.056 190.153 173.012 190.161C170.836 190.611 169.437 192.743 169.891 194.915L182.456 255.417C146.644 246.444 120.088 214.135 120.088 175.537C120.088 129.997 157.001 93.0877 202.537 93.0877C248.073 93.0877 284.987 129.997 284.987 175.537C284.987 214.135 258.43 246.444 222.619 255.421Z" fill="black"/>
<path d="M193.851 110.76C192.283 110.76 190.726 110.825 189.186 110.949C186.97 111.13 185.325 113.073 185.506 115.289C185.683 117.388 187.436 118.981 189.512 118.981C189.62 118.981 189.737 118.977 189.845 118.969C191.165 118.86 192.504 118.804 193.851 118.804C196.075 118.804 197.873 117.002 197.873 114.782C197.873 112.562 196.075 110.76 193.851 110.76Z" fill="black"/>
<path d="M170.484 115.848C150.608 124.974 137.762 144.995 137.762 166.858C137.762 169.078 139.56 170.88 141.784 170.88C144.008 170.88 145.806 169.078 145.806 166.858C145.806 148.128 156.81 130.974 173.838 123.156C175.857 122.231 176.746 119.842 175.817 117.823C174.888 115.808 172.495 114.923 170.484 115.848Z" fill="black"/>
<path d="M180.715 284.098C180.441 286.302 182.002 288.313 184.206 288.586L213.534 292.254C213.702 292.274 213.871 292.286 214.036 292.286C216.035 292.286 217.769 290.798 218.022 288.763C218.296 286.559 216.735 284.548 214.531 284.275L185.203 280.607C182.999 280.349 180.996 281.898 180.715 284.098Z" fill="black"/>
<path d="M212.45 300.092L187.969 297.035C185.765 296.782 183.758 298.322 183.48 300.526C183.207 302.73 184.767 304.741 186.971 305.015L211.453 308.071C211.622 308.091 211.791 308.103 211.956 308.103C213.954 308.103 215.688 306.615 215.941 304.58C216.215 302.38 214.654 300.369 212.45 300.092Z" fill="black"/>
</svg>
