<svg width="750" height="500" viewBox="0 0 750 500" fill="none" xmlns="http://www.w3.org/2000/svg">
<path d="M192.471 317.97H61.1406V419.26H192.471V317.97Z" fill="#EBEBEB"/>
<path d="M159.571 418.54C159.421 418.54 159.301 395.97 159.301 368.12C159.301 340.27 159.421 317.69 159.571 317.69C159.721 317.69 159.831 340.27 159.831 368.12C159.831 395.97 159.711 418.54 159.571 418.54Z" fill="#E0E0E0"/>
<path d="M181.34 396.2H171.27V407.58H181.34V396.2Z" fill="#FAFAFA"/>
<path d="M116.131 318.23H101.211V339.84H116.131V318.23Z" fill="#E0E0E0"/>
<path d="M116.131 397.34H101.211V418.95H116.131V397.34Z" fill="#E0E0E0"/>
<path d="M213.01 216.91H81.6797V318.2H213.01V216.91Z" fill="#EBEBEB"/>
<path d="M180.1 317.48C179.96 317.48 179.84 294.91 179.84 267.06C179.84 239.21 179.96 216.64 180.1 216.64C180.24 216.64 180.36 239.21 180.36 267.06C180.36 294.91 180.25 317.48 180.1 317.48Z" fill="#E0E0E0"/>
<path d="M201.871 295.14H191.801V306.52H201.871V295.14Z" fill="#FAFAFA"/>
<path d="M136.662 217.17H121.742V238.78H136.662V217.17Z" fill="#E0E0E0"/>
<path d="M136.662 296.29H121.742V317.9H136.662V296.29Z" fill="#E0E0E0"/>
<path d="M203.979 135.73H98.3789V217.17H203.979V135.73Z" fill="#F5F5F5"/>
<path d="M177.519 216.6C177.409 216.6 177.309 198.44 177.309 176.05C177.309 153.66 177.409 135.51 177.519 135.51C177.629 135.51 177.729 153.66 177.729 176.05C177.729 198.44 177.639 216.6 177.519 216.6Z" fill="#E0E0E0"/>
<path d="M195.03 198.63H186.93V207.78H195.03V198.63Z" fill="#FAFAFA"/>
<path d="M142.592 135.94H130.602V153.32H142.592V135.94Z" fill="#E0E0E0"/>
<path d="M142.592 199.55H130.602V216.93H142.592V199.55Z" fill="#E0E0E0"/>
<path d="M675.362 192.27H576.172V268.77H675.362V192.27Z" fill="#F5F5F5"/>
<path d="M650.509 268.24C650.399 268.24 650.309 251.18 650.309 230.15C650.309 209.12 650.399 192.07 650.509 192.07C650.619 192.07 650.699 209.12 650.699 230.15C650.699 251.18 650.619 268.24 650.509 268.24Z" fill="#E0E0E0"/>
<path d="M666.94 251.36H659.34V259.96H666.94V251.36Z" fill="#FAFAFA"/>
<path d="M617.7 192.47H606.43V208.79H617.7V192.47Z" fill="#E0E0E0"/>
<path d="M617.7 252.23H606.43V268.55H617.7V252.23Z" fill="#E0E0E0"/>
<path d="M708.601 356.73H594.281V444.91H708.601V356.73Z" fill="#EBEBEB"/>
<path d="M680.001 444.28C679.881 444.28 679.781 424.63 679.781 400.39C679.781 376.15 679.881 356.49 680.001 356.49C680.121 356.49 680.231 376.14 680.231 400.39C680.231 424.64 680.091 444.28 680.001 444.28Z" fill="#E0E0E0"/>
<path d="M698.912 424.83H690.152V434.74H698.912V424.83Z" fill="#FAFAFA"/>
<path d="M642.15 356.95H629.16V375.76H642.15V356.95Z" fill="#E0E0E0"/>
<path d="M642.15 425.83H629.16V444.64H642.15V425.83Z" fill="#E0E0E0"/>
<path d="M692.812 268.78H578.492V356.96H692.812V268.78Z" fill="#EBEBEB"/>
<path d="M664.171 356.33C664.041 356.33 663.941 336.68 663.941 312.44C663.941 288.2 664.041 268.54 664.171 268.54C664.301 268.54 664.401 288.19 664.401 312.44C664.401 336.69 664.301 356.33 664.171 356.33Z" fill="#E0E0E0"/>
<path d="M683.119 336.88H674.359V346.79H683.119V336.88Z" fill="#FAFAFA"/>
<path d="M626.361 269H613.371V287.81H626.361V269Z" fill="#E0E0E0"/>
<path d="M626.361 337.88H613.371V356.69H626.361V337.88Z" fill="#E0E0E0"/>
<path d="M481.971 193.5H382.781V270H481.971V193.5Z" fill="#F5F5F5"/>
<path d="M457.12 269.47C457.01 269.47 456.93 252.41 456.93 231.38C456.93 210.35 457.01 193.3 457.12 193.3C457.23 193.3 457.32 210.3 457.32 231.38C457.32 252.46 457.23 269.47 457.12 269.47Z" fill="#E0E0E0"/>
<path d="M473.561 252.59H465.961V261.19H473.561V252.59Z" fill="#FAFAFA"/>
<path d="M424.309 193.7H413.039V210.02H424.309V193.7Z" fill="#E0E0E0"/>
<path d="M424.309 253.46H413.039V269.78H424.309V253.46Z" fill="#E0E0E0"/>
<path d="M490.772 117.2H391.582V193.7H490.772V117.2Z" fill="#EBEBEB"/>
<path d="M465.919 193.16C465.809 193.16 465.719 176.16 465.719 155.08C465.719 134 465.809 116.99 465.919 116.99C466.029 116.99 466.119 133.99 466.119 155.08C466.119 176.17 465.999 193.16 465.919 193.16Z" fill="#E0E0E0"/>
<path d="M482.362 176.29H474.762V184.89H482.362V176.29Z" fill="#FAFAFA"/>
<path d="M433.11 117.39H421.84V133.71H433.11V117.39Z" fill="#E0E0E0"/>
<path d="M433.11 177.15H421.84V193.47H433.11V177.15Z" fill="#E0E0E0"/>
<path d="M487.052 64.1H416.082V118.84H487.052V64.1Z" fill="#EBEBEB"/>
<path d="M469.281 118.46C469.201 118.46 469.141 106.26 469.141 91.21C469.141 76.16 469.201 64 469.281 64C469.361 64 469.421 76.2 469.421 91.25C469.421 106.3 469.351 118.46 469.281 118.46Z" fill="#E0E0E0"/>
<path d="M481.042 106.39H475.602V112.54H481.042V106.39Z" fill="#FAFAFA"/>
<path d="M445.802 64.25H437.742V75.93H445.802V64.25Z" fill="#E0E0E0"/>
<path d="M445.802 107H437.742V118.68H445.802V107Z" fill="#E0E0E0"/>
<path d="M515.222 357.96H400.902V446.14H515.222V357.96Z" fill="#EBEBEB"/>
<path d="M486.582 445.51C486.452 445.51 486.352 425.86 486.352 401.62C486.352 377.38 486.452 357.72 486.582 357.72C486.712 357.72 486.802 377.37 486.802 401.62C486.802 425.87 486.702 445.51 486.582 445.51Z" fill="#E0E0E0"/>
<path d="M505.522 426.06H496.762V435.97H505.522V426.06Z" fill="#FAFAFA"/>
<path d="M448.76 358.18H435.77V376.99H448.76V358.18Z" fill="#E0E0E0"/>
<path d="M448.76 427.06H435.77V445.87H448.76V427.06Z" fill="#E0E0E0"/>
<path d="M499.422 270.01H385.102V358.19H499.422V270.01Z" fill="#EBEBEB"/>
<path d="M470.789 357.56C470.659 357.56 470.559 337.91 470.559 313.67C470.559 289.43 470.659 269.77 470.789 269.77C470.919 269.77 471.009 289.42 471.009 313.67C471.009 337.92 470.909 357.56 470.789 357.56Z" fill="#E0E0E0"/>
<path d="M489.729 338.11H480.969V348.02H489.729V338.11Z" fill="#FAFAFA"/>
<path d="M432.97 270.23H419.98V289.04H432.97V270.23Z" fill="#E0E0E0"/>
<path d="M432.97 339.11H419.98V357.92H432.97V339.11Z" fill="#E0E0E0"/>
<path d="M250.8 428.67V419.26H58.3005C57.6189 419.26 56.9652 419.531 56.4832 420.013C56.0012 420.495 55.7305 421.148 55.7305 421.83V426.1C55.7305 426.782 56.0012 427.435 56.4832 427.917C56.9652 428.399 57.6189 428.67 58.3005 428.67H63.6605V433C63.6605 433.332 63.595 433.661 63.4679 433.968C63.3407 434.275 63.1544 434.554 62.9194 434.789C62.6845 435.024 62.4056 435.21 62.0987 435.337C61.7917 435.465 61.4627 435.53 61.1305 435.53H58.2605C57.5997 435.53 56.9651 435.788 56.4924 436.25C56.0196 436.711 55.7461 437.339 55.7305 438V442.35C55.7305 443.021 55.997 443.665 56.4715 444.139C56.946 444.613 57.5895 444.88 58.2605 444.88H250.8V435.47H205.93V428.65L250.8 428.67ZM109.8 428.67H121.34V435.49H109.8V428.67ZM102.11 435.49H90.5805V428.67H102.11V435.49ZM129 428.67H140.53V435.49H129V428.67ZM148.22 428.67H159.76V435.49H148.25L148.22 428.67ZM167.45 428.67H179V435.49H167.48L167.45 428.67ZM71.3205 428.67H82.8905V435.49H71.3505L71.3205 428.67ZM198.21 435.49H186.7V428.67H198.24L198.21 435.49Z" fill="#E0E0E0"/>
<path d="M244.309 232.5H140.129V312.86H244.309V232.5Z" fill="#F9B300"/>
<path opacity="0.3" d="M244.309 232.5H140.129V312.86H244.309V232.5Z" fill="black"/>
<path d="M218.209 312.29C218.119 312.29 218.039 294.38 218.039 272.29C218.039 250.2 218.119 232.29 218.209 232.29C218.299 232.29 218.379 250.2 218.379 272.29C218.379 294.38 218.299 312.29 218.209 312.29Z" fill="#263238"/>
<path d="M235.482 294.57H227.492V303.6H235.482V294.57Z" fill="#F5F5F5"/>
<path d="M183.74 232.71H171.91V249.86H183.74V232.71Z" fill="#263238"/>
<path d="M183.74 295.47H171.91V312.62H183.74V295.47Z" fill="#263238"/>
<path d="M243.412 232.5H243.142H242.362H239.362L228.292 232.55H191.782H155.262L144.202 232.49L155.262 232.44H191.782H228.292L239.362 232.49H242.362H243.142L243.412 232.5Z" fill="#263238"/>
<path d="M331.039 232.4H226.859V312.76H331.039V232.4Z" fill="#F9B300"/>
<path d="M304.94 312.19C304.85 312.19 304.77 294.28 304.77 272.19C304.77 250.1 304.85 232.19 304.94 232.19C305.03 232.19 305.11 250.09 305.11 272.19C305.11 294.29 305 312.19 304.94 312.19Z" fill="#263238"/>
<path d="M322.213 294.47H314.223V303.5H322.213V294.47Z" fill="#F5F5F5"/>
<path opacity="0.5" d="M270.471 232.61H258.641V249.76H270.471V232.61Z" fill="white"/>
<path opacity="0.5" d="M270.471 295.37H258.641V312.52H270.471V295.37Z" fill="white"/>
<path d="M329.871 232.4H329.081H326.081L315.021 232.45H278.511H241.991L230.921 232.4L241.991 232.34L278.511 232.29L315.021 232.34L326.081 232.4H329.081H329.871Z" fill="#263238"/>
<path d="M336.891 152.04H232.711V232.4H336.891V152.04Z" fill="#F9B300"/>
<path d="M310.791 231.83C310.691 231.83 310.621 213.92 310.621 191.83C310.621 169.74 310.691 151.83 310.791 151.83C310.891 151.83 310.961 169.73 310.961 191.83C310.961 213.93 310.881 231.83 310.791 231.83Z" fill="#263238"/>
<path d="M328.06 214.11H320.07V223.14H328.06V214.11Z" fill="#F5F5F5"/>
<path d="M276.322 152.25H264.492V169.4H276.322V152.25Z" fill="#263238"/>
<path d="M276.322 215.01H264.492V232.16H276.322V215.01Z" fill="#263238"/>
<path d="M336.002 152C335.916 152.015 335.828 152.015 335.742 152H334.952H331.952H320.892L284.382 152.05L247.862 152H236.792H233.792H233.002C232.916 152.015 232.828 152.015 232.742 152H233.002H233.792H236.792L247.862 151.94H284.382H320.892L331.952 152H334.952H335.742H336.002Z" fill="#263238"/>
<path d="M325.75 402.33V392.92H133.26C132.577 392.92 131.922 393.19 131.439 393.672C130.955 394.154 130.682 394.807 130.68 395.49V399.76C130.682 400.443 130.955 401.096 131.439 401.578C131.922 402.06 132.577 402.33 133.26 402.33H138.62V406.61C138.62 407.284 138.352 407.93 137.876 408.406C137.399 408.882 136.753 409.15 136.08 409.15H133.22C132.548 409.15 131.903 409.416 131.427 409.89C130.951 410.365 130.682 411.008 130.68 411.68V416C130.682 416.672 130.951 417.315 131.427 417.79C131.903 418.264 132.548 418.53 133.22 418.53H325.75V409.12H280.88V402.3L325.75 402.33ZM184.75 402.33H196.28V409.15H184.76L184.75 402.33ZM177.06 409.15H165.53V402.33H177.07L177.06 409.15ZM204 402.33H215.54V409.15H204V402.33ZM223.23 402.33H234.76V409.15H223.21L223.23 402.33ZM242.45 402.33H254V409.15H242.43L242.45 402.33ZM146.33 402.33H157.86V409.15H146.31L146.33 402.33ZM273.21 409.15H261.65V402.33H273.19L273.21 409.15Z" fill="#455A64"/>
<path d="M480.912 240.21C481.227 239.888 481.475 239.506 481.641 239.087C481.807 238.668 481.887 238.22 481.878 237.769C481.869 237.318 481.77 236.874 481.587 236.462C481.403 236.05 481.14 235.679 480.812 235.37L448.342 204.68C447.693 204.071 446.836 203.732 445.947 203.732C445.057 203.732 444.201 204.071 443.552 204.68C443.21 204.997 442.936 205.379 442.744 205.804C442.553 206.228 442.448 206.687 442.436 207.153C442.424 207.618 442.505 208.082 442.674 208.516C442.843 208.95 443.097 209.346 443.422 209.68L456.372 223.3L449.632 229.79L446.122 227L421.632 255.05L408.542 242.46L392.762 288.87L395.892 351.87H432.192L429.652 277L454.002 242.32L454.192 234.07L461.192 226.9L476.282 240.38C476.936 240.963 477.79 241.27 478.666 241.239C479.542 241.207 480.371 240.839 480.982 240.21H480.912Z" fill="#263238"/>
<path d="M383.002 363.54C382.862 363.54 382.742 306.06 382.742 235.17C382.742 164.28 382.862 106.78 383.002 106.78C383.142 106.78 383.262 164.25 383.262 235.17C383.262 306.09 383.112 363.54 383.002 363.54Z" fill="#263238"/>
<path d="M464.25 347.35L486.33 286L478.03 282.64V270.79L538.4 269.86C539.823 269.833 541.188 269.289 542.24 268.331C543.292 267.372 543.96 266.064 544.12 264.65L553 185.83C553.199 184.067 554.04 182.44 555.362 181.257C556.685 180.075 558.396 179.421 560.17 179.42C561.143 179.419 562.105 179.615 563 179.996C563.895 180.377 564.704 180.935 565.377 181.637C566.051 182.338 566.576 183.169 566.92 184.079C567.264 184.988 567.42 185.958 567.38 186.93L564 268.15L595.52 268.32L596.59 283.13L503.37 286.78L479.06 346.47L464.25 347.35Z" fill="#455A64"/>
<path d="M478.14 345.85L399.66 346.47V351.7L432.17 351.28L483.95 350.88L609.49 333.16L595.26 279H510.26C508.791 278.978 507.338 279.315 506.028 279.98C504.718 280.646 503.589 281.621 502.74 282.82L478.14 345.85Z" fill="#263238"/>
<path d="M440.531 119.36L383.531 301.29L383.931 351.9H402.001V301.61L448.741 119.85L575.381 119.14L599.601 308.47H613.891L584.421 120.47C583.958 118.011 582.65 115.791 580.724 114.193C578.797 112.596 576.374 111.721 573.871 111.72H450.811C448.504 111.719 446.258 112.462 444.406 113.838C442.555 115.214 441.196 117.151 440.531 119.36Z" fill="#455A64"/>
<path d="M373.242 410.35V361.75L383.882 351.9L483.882 350.61L501.882 335.97C505.235 333.248 509.36 331.652 513.672 331.41L532.932 330.32C532.932 330.32 541.572 324.37 549.932 318.47C560.52 310.967 573.176 306.935 586.152 306.93H641.582C643.595 306.93 645.526 307.73 646.949 309.153C648.373 310.577 649.172 312.507 649.172 314.52V410.35H373.242Z" fill="#F9B300"/>
<path d="M649.152 394.69H372.262V410.67H649.152V394.69Z" fill="#263238"/>
<path d="M386.59 410.17C386.49 416.942 388.4 423.591 392.079 429.277C395.758 434.963 401.041 439.431 407.259 442.114C413.478 444.798 420.352 445.577 427.013 444.353C433.674 443.129 439.823 439.957 444.681 435.239C449.539 430.52 452.889 424.467 454.307 417.845C455.725 411.222 455.147 404.328 452.646 398.034C450.146 391.74 445.835 386.329 440.259 382.485C434.682 378.641 428.092 376.538 421.32 376.44C412.242 376.309 403.484 379.789 396.971 386.114C390.458 392.439 386.724 401.092 386.59 410.17Z" fill="#263238"/>
<path d="M386.602 410.09C386.602 410.09 386.602 410.14 386.602 410.17C386.55 419.198 390.067 427.882 396.385 434.33C402.704 440.779 411.314 444.471 420.342 444.603C429.369 444.734 438.083 441.295 444.588 435.034C451.092 428.773 454.86 420.196 455.072 411.17C455.072 411.17 455.072 411.11 455.072 411.08L386.602 410.09Z" fill="#263238"/>
<path d="M396.791 410.32C396.73 415.063 398.077 419.718 400.66 423.696C403.243 427.675 406.947 430.799 411.305 432.673C415.662 434.548 420.477 435.089 425.142 434.229C429.807 433.368 434.112 431.145 437.514 427.839C440.916 424.534 443.262 420.294 444.256 415.656C445.25 411.017 444.847 406.189 443.099 401.779C441.35 397.37 438.334 393.577 434.431 390.881C430.528 388.185 425.914 386.705 421.171 386.63C418.013 386.58 414.877 387.153 411.941 388.317C409.006 389.482 406.329 391.214 404.064 393.415C401.799 395.615 399.991 398.241 398.743 401.142C397.495 404.043 396.831 407.162 396.791 410.32Z" fill="#FAFAFA"/>
<path d="M421.169 386.63C418.011 386.58 414.875 387.153 411.939 388.317C409.004 389.482 406.327 391.214 404.062 393.415C401.797 395.615 399.989 398.241 398.741 401.142C397.493 404.043 396.829 407.162 396.789 410.32L444.859 411.01C444.909 407.852 444.336 404.716 443.172 401.78C442.007 398.845 440.275 396.168 438.074 393.903C435.874 391.638 433.248 389.83 430.347 388.582C427.446 387.334 424.327 386.67 421.169 386.63Z" fill="#E0E0E0"/>
<path d="M406.181 410.46C406.145 413.355 406.969 416.196 408.548 418.623C410.127 421.05 412.391 422.954 415.052 424.095C417.713 425.236 420.653 425.562 423.499 425.032C426.346 424.502 428.971 423.139 431.044 421.117C433.116 419.095 434.542 416.504 435.142 413.672C435.742 410.839 435.488 407.892 434.413 405.204C433.338 402.515 431.49 400.206 429.103 398.568C426.716 396.929 423.896 396.036 421.001 396C417.119 395.955 413.377 397.452 410.599 400.163C407.82 402.875 406.231 406.578 406.181 410.46Z" fill="#263238"/>
<path d="M554.133 410.17C554.032 416.942 555.943 423.591 559.622 429.277C563.301 434.963 568.584 439.431 574.802 442.114C581.021 444.798 587.895 445.577 594.556 444.353C601.217 443.129 607.366 439.957 612.224 435.239C617.082 430.52 620.432 424.467 621.85 417.845C623.268 411.222 622.69 404.328 620.189 398.034C617.689 391.74 613.378 386.329 607.801 382.485C602.225 378.641 595.635 376.538 588.863 376.44C579.785 376.309 571.027 379.789 564.514 386.114C558.001 392.439 554.267 401.092 554.133 410.17Z" fill="#263238"/>
<path d="M554.141 410.09C554.141 410.09 554.141 410.14 554.141 410.17C554.089 419.198 557.606 427.882 563.924 434.33C570.243 440.779 578.853 444.471 587.881 444.603C596.908 444.734 605.622 441.295 612.127 435.034C618.631 428.773 622.399 420.196 622.611 411.17C622.611 411.17 622.611 411.11 622.611 411.08L554.141 410.09Z" fill="#263238"/>
<path d="M564.33 410.32C564.269 415.063 565.616 419.718 568.199 423.696C570.782 427.675 574.486 430.799 578.844 432.673C583.201 434.548 588.016 435.089 592.681 434.229C597.346 433.368 601.651 431.145 605.053 427.839C608.455 424.534 610.801 420.294 611.795 415.656C612.789 411.017 612.386 406.189 610.638 401.779C608.889 397.37 605.873 393.577 601.97 390.881C598.067 388.185 593.453 386.705 588.71 386.63C585.552 386.58 582.416 387.153 579.48 388.317C576.545 389.482 573.868 391.214 571.603 393.415C569.338 395.615 567.53 398.241 566.282 401.142C565.034 404.043 564.37 407.162 564.33 410.32Z" fill="#FAFAFA"/>
<path d="M588.712 386.63C585.554 386.58 582.418 387.153 579.482 388.317C576.547 389.482 573.87 391.214 571.605 393.415C569.34 395.615 567.532 398.241 566.284 401.142C565.036 404.043 564.372 407.162 564.332 410.32L612.402 411.01C612.452 407.852 611.879 404.716 610.715 401.78C609.55 398.845 607.818 396.168 605.617 393.903C603.417 391.638 600.791 389.83 597.89 388.582C594.989 387.334 591.87 386.67 588.712 386.63Z" fill="#E0E0E0"/>
<path d="M573.732 410.46C573.696 413.354 574.52 416.193 576.097 418.62C577.675 421.046 579.937 422.95 582.596 424.092C585.256 425.233 588.194 425.561 591.039 425.033C593.885 424.506 596.51 423.146 598.584 421.127C600.657 419.108 602.086 416.52 602.689 413.689C603.292 410.859 603.043 407.913 601.972 405.224C600.902 402.535 599.059 400.224 596.675 398.582C594.292 396.94 591.475 396.042 588.582 396C586.656 395.972 584.745 396.325 582.956 397.037C581.167 397.749 579.536 398.807 578.157 400.15C576.778 401.493 575.677 403.095 574.917 404.864C574.158 406.633 573.755 408.535 573.732 410.46Z" fill="#263238"/>
<path d="M632.919 386.3C632.857 386.224 632.8 386.144 632.75 386.06L632.31 385.34L631.609 384.16C631.304 383.62 630.97 383.096 630.609 382.59C628.413 379.286 625.821 376.264 622.89 373.59C622.01 372.7 620.94 371.93 619.89 371.04C618.84 370.15 617.64 369.39 616.44 368.54C615.24 367.69 613.92 366.91 612.5 366.22C611.81 365.86 611.11 365.47 610.39 365.12L608.14 364.12C604.947 362.774 601.622 361.769 598.219 361.12C594.567 360.418 590.846 360.136 587.13 360.28C579.926 360.682 572.903 362.684 566.57 366.14L564.43 367.34C563.74 367.76 563.09 368.22 562.43 368.64C561.08 369.46 559.919 370.46 558.729 371.33C557.539 372.2 556.51 373.19 555.53 374.14C554.55 375.09 553.589 376 552.789 376.97C550.125 379.912 547.831 383.17 545.96 386.67C545.646 387.206 545.366 387.76 545.12 388.33C544.89 388.81 544.69 389.22 544.53 389.57L544.159 390.33C544.121 390.417 544.074 390.501 544.02 390.58C544.037 390.486 544.067 390.395 544.109 390.31L544.43 389.53L544.969 388.27C545.206 387.691 545.476 387.127 545.78 386.58C547.594 383.021 549.859 379.71 552.52 376.73C553.31 375.73 554.3 374.85 555.25 373.85C556.2 372.85 557.34 371.97 558.46 370.99C559.58 370.01 560.819 369.1 562.169 368.26C562.829 367.83 563.489 367.37 564.169 366.94L566.32 365.71C569.394 364.043 572.635 362.702 575.99 361.71C579.601 360.649 583.322 360.004 587.08 359.79C594.362 359.506 601.616 360.856 608.31 363.74L610.57 364.74C611.3 365.09 612 365.49 612.7 365.86C614.13 366.56 615.38 367.46 616.7 368.22C618.02 368.98 619.089 369.9 620.159 370.77C621.229 371.64 622.279 372.46 623.159 373.36C626.087 376.078 628.655 379.16 630.799 382.53C631.162 383.045 631.496 383.579 631.799 384.13L632.45 385.34C632.62 385.65 632.749 385.89 632.849 386.09C632.949 386.29 632.929 386.29 632.919 386.3Z" fill="#263238"/>
<path d="M465.532 392.6C465.474 392.517 465.426 392.426 465.392 392.33C465.312 392.12 465.202 391.85 465.062 391.51L464.522 390.18C464.282 389.66 464.012 389.06 463.712 388.39C461.969 384.611 459.798 381.044 457.242 377.76C453.513 372.837 448.756 368.787 443.302 365.89C440.036 364.295 436.572 363.142 433.002 362.46C429.177 361.672 425.276 361.317 421.372 361.4C417.468 361.455 413.583 361.955 409.792 362.89C406.265 363.774 402.865 365.101 399.672 366.84C394.218 369.74 389.341 373.614 385.282 378.27C382.583 381.426 380.236 384.866 378.282 388.53C377.582 389.83 377.052 390.85 376.722 391.53C376.562 391.86 376.422 392.12 376.322 392.32C376.284 392.413 376.233 392.501 376.172 392.58C376.19 392.482 376.224 392.387 376.272 392.3L376.632 391.49C376.932 390.77 377.432 389.74 378.102 388.42C379.995 384.694 382.31 381.198 385.002 378C389.056 373.27 393.952 369.333 399.442 366.39C402.666 364.63 406.1 363.286 409.662 362.39C413.492 361.444 417.417 360.937 421.362 360.88C425.308 360.811 429.25 361.187 433.112 362C436.722 362.698 440.223 363.875 443.522 365.5C449.02 368.448 453.801 372.572 457.522 377.58C460.067 380.903 462.206 384.519 463.892 388.35L464.652 390.16C464.842 390.69 465.012 391.16 465.142 391.51C465.272 391.86 465.362 392.13 465.432 392.35C465.475 392.429 465.509 392.513 465.532 392.6Z" fill="#263238"/>
<path d="M373.171 392.92H221.391V410.67H373.171V392.92Z" fill="#263238"/>
<path d="M369.063 400.45C369.063 401.324 368.803 402.179 368.318 402.906C367.832 403.633 367.142 404.199 366.334 404.534C365.526 404.868 364.638 404.956 363.78 404.785C362.923 404.615 362.135 404.194 361.517 403.575C360.899 402.957 360.478 402.17 360.308 401.312C360.137 400.455 360.225 399.566 360.559 398.759C360.894 397.951 361.46 397.261 362.187 396.775C362.914 396.289 363.768 396.03 364.643 396.03C365.815 396.03 366.939 396.496 367.768 397.325C368.597 398.154 369.063 399.278 369.063 400.45Z" fill="#455A64"/>
<path d="M371.182 110.32H358.512V362H371.182V110.32Z" fill="#455A64"/>
<path d="M551.361 376.34C551.361 376.48 530.001 376.6 503.661 376.6C477.321 376.6 455.961 376.48 455.961 376.34C455.961 376.2 477.311 376.08 503.661 376.08C530.011 376.08 551.361 376.2 551.361 376.34Z" fill="#263238"/>
<path d="M531.92 372.57C531.77 372.57 531.66 363.28 531.66 351.82C531.66 340.36 531.77 331.08 531.92 331.08C532.07 331.08 532.18 340.36 532.18 351.82C532.18 363.28 532.06 372.57 531.92 372.57Z" fill="#263238"/>
<path d="M383.012 104.55H357.152V116.09H383.012V104.55Z" fill="#263238"/>
<path d="M373.17 359.92H356.52V393.14H373.17V359.92Z" fill="#263238"/>
<path d="M334.512 312.79H230.332V393.15H334.512V312.79Z" fill="#F9B300"/>
<path opacity="0.3" d="M334.512 312.79H230.332V393.15H334.512V312.79Z" fill="black"/>
<path d="M308.412 392.58C308.322 392.58 308.242 374.67 308.242 352.58C308.242 330.49 308.322 312.58 308.412 312.58C308.502 312.58 308.582 330.49 308.582 352.58C308.582 374.67 308.502 392.58 308.412 392.58Z" fill="#263238"/>
<path d="M325.681 374.86H317.691V383.89H325.681V374.86Z" fill="#F5F5F5"/>
<path d="M273.939 313H262.109V330.15H273.939V313Z" fill="#263238"/>
<path d="M273.939 375.76H262.109V392.91H273.939V375.76Z" fill="#263238"/>
<path d="M333.601 312.79H333.341H332.551H329.551L318.481 312.84L282.001 313H245.481L234.421 312.95H231.421H230.631H230.371C230.458 312.942 230.545 312.942 230.631 312.95H231.421H234.421L245.481 312.9L282.001 312.85L318.511 312.9L329.581 312.95H332.581H333.371C333.442 312.889 333.519 312.835 333.601 312.79Z" fill="#263238"/>
<path d="M225.231 312.79H121.051V393.15H225.231V312.79Z" fill="#F9B300"/>
<path d="M199.143 392.58C199.043 392.58 198.973 374.67 198.973 352.58C198.973 330.49 199.043 312.58 199.143 312.58C199.243 312.58 199.303 330.49 199.303 352.58C199.303 374.67 199.233 392.58 199.143 392.58Z" fill="#263238"/>
<path d="M216.412 374.86H208.422V383.89H216.412V374.86Z" fill="#F5F5F5"/>
<path opacity="0.5" d="M164.67 313H152.84V330.15H164.67V313Z" fill="white"/>
<path opacity="0.5" d="M164.67 375.76H152.84V392.91H164.67V375.76Z" fill="white"/>
<path d="M224.33 312.79H224.06H223.28H220.28L209.22 312.84H172.71H136.19L125.12 312.79H122.12H121.34H121.07C121.16 312.782 121.25 312.782 121.34 312.79H122.12H125.12L136.19 312.74L172.71 312.69L209.22 312.74L220.28 312.79H223.28H224.06C224.15 312.781 224.241 312.781 224.33 312.79Z" fill="#263238"/>
<path d="M653.52 334.63C658.89 335.93 663.4 341.38 663.31 346.91C663.196 349.68 662.176 352.336 660.408 354.471C658.64 356.606 656.22 358.102 653.52 358.73" fill="#F9B300"/>
<g opacity="0.6">
<path d="M653.52 334.63C658.89 335.93 663.4 341.38 663.31 346.91C663.196 349.68 662.176 352.336 660.408 354.471C658.64 356.606 656.22 358.102 653.52 358.73" fill="white"/>
</g>
<path d="M653.742 331.53H649.152V361.94H653.742V331.53Z" fill="#F9B300"/>
<path opacity="0.3" d="M653.742 331.53H649.152V361.94H653.742V331.53Z" fill="black"/>
<path d="M435.349 209.67C434.797 209.242 434.417 208.629 434.28 207.945C434.142 207.26 434.255 206.548 434.599 205.94C435.369 204.6 436.269 203.02 436.679 202.36C437.18 201.579 437.637 200.771 438.049 199.94C438.176 199.443 438.44 198.992 438.811 198.638C439.183 198.284 439.646 198.042 440.149 197.94C441.37 197.783 442.609 197.82 443.819 198.05L456.329 200.75L462.159 203.63L456.489 208.63L453.339 207.63C452.389 208.45 448.679 208.88 447.419 208.73C445.809 208.53 442.589 207.48 440.759 207.83L438.989 208.08L439.829 208.78C441.367 208.669 442.907 208.984 444.279 209.69C444.498 209.838 444.666 210.05 444.758 210.298C444.851 210.545 444.864 210.816 444.796 211.071C444.728 211.326 444.581 211.554 444.378 211.722C444.174 211.891 443.922 211.991 443.659 212.01L439.549 212.28C438.436 211.758 437.366 211.149 436.349 210.46C436.03 210.179 435.696 209.915 435.349 209.67Z" fill="#FFBE9D"/>
<path d="M438.997 208.12C438.795 208.258 438.567 208.353 438.327 208.4C437.674 208.591 436.98 208.591 436.327 208.4C435.857 208.246 435.444 207.957 435.137 207.57C434.962 207.335 434.837 207.066 434.772 206.78C434.707 206.494 434.701 206.198 434.757 205.91C434.832 205.58 435.015 205.284 435.277 205.07C435.538 204.88 435.828 204.734 436.137 204.64C436.735 204.441 437.347 204.284 437.967 204.17C439.146 203.943 440.338 203.789 441.537 203.71C442.087 203.71 442.607 203.65 443.107 203.65H443.487H443.787C443.995 203.621 444.202 203.581 444.407 203.53C445.258 203.256 446.122 203.026 446.997 202.84C446.22 203.3 445.377 203.637 444.497 203.84C444.285 203.911 444.068 203.964 443.847 204C443.714 204.016 443.58 204.016 443.447 204H443.107C442.637 204 442.107 204.06 441.577 204.11C440.399 204.214 439.228 204.378 438.067 204.6C437.472 204.71 436.884 204.857 436.307 205.04C435.727 205.21 435.307 205.47 435.227 205.94C435.183 206.163 435.183 206.393 435.227 206.616C435.272 206.839 435.36 207.051 435.487 207.24C435.746 207.574 436.092 207.83 436.487 207.98C437.083 208.189 437.722 208.247 438.347 208.15C438.727 208.14 438.997 208.07 438.997 208.12Z" fill="#EB996E"/>
<path d="M440.548 201.6C440.688 201.6 440.928 202.22 440.678 203.01C440.428 203.8 439.868 204.22 439.778 204.11C439.688 204 439.988 203.52 440.188 202.86C440.388 202.2 440.398 201.62 440.548 201.6Z" fill="#EB996E"/>
<path d="M442.507 202.39C442.647 202.39 442.687 202.89 442.337 203.39C441.987 203.89 441.517 203.93 441.467 203.79C441.417 203.65 441.677 203.41 441.927 203.07C442.177 202.73 442.357 202.37 442.507 202.39Z" fill="#EB996E"/>
<path d="M491.757 199.6C493.477 198.88 481.877 210.81 481.877 210.81L460.437 202.81L452.867 207.46L475.917 223.69C478.286 225.361 481.174 226.128 484.06 225.853C486.945 225.578 489.637 224.278 491.647 222.19L505.257 206.46L491.757 199.6Z" fill="#FFBE9D"/>
<path d="M504.329 151.8C501.329 151.22 499.469 150.3 499.389 149.15C499.229 146.77 506.779 144.33 516.259 143.68C525.739 143.03 533.539 144.45 533.709 146.82C533.779 147.97 532.069 149.13 529.209 150.1" fill="#F9B300"/>
<g opacity="0.4">
<path d="M505.997 151.6C503.347 151.1 501.617 150.28 501.617 149.26C501.617 146.41 508.167 144.98 516.567 144.41C524.967 143.84 531.897 145.09 532.037 147.2C532.107 148.2 530.587 149.2 528.037 150.1" fill="black"/>
</g>
<path d="M501.668 147.87C501.668 147.87 503.438 137.62 503.618 137.11C503.798 136.6 506.368 132 513.158 130.27L518.838 129.88C518.838 129.88 527.078 131.93 528.678 133.8C530.278 135.67 531.558 145.15 531.558 145.15L515.398 142.77L504.748 146.14L501.668 147.87Z" fill="#F9B300"/>
<path d="M514.938 129L512.498 129.16C511.929 129.915 511.645 130.846 511.698 131.79C511.698 133.56 512.128 145.7 512.128 145.7L519.228 144.9L517.998 129.94L520.448 130.32L520.318 129.47L519.628 128.76L514.938 129Z" fill="#F9B300"/>
<path d="M529.778 184.87L512.378 185.25C512.158 183.42 512.318 171.97 512.318 171.97C512.318 171.97 505.698 171.39 505.168 164.84C504.638 158.29 504.758 145.13 504.758 145.13L504.828 144.55C512.198 140.78 520.968 139.89 527.828 144.49L528.828 145.17L529.778 184.87Z" fill="#FFBE9D"/>
<path d="M512.317 172C515.347 171.785 518.251 170.705 520.687 168.89C520.687 168.89 518.877 173.89 512.297 173.7L512.317 172Z" fill="#EB996E"/>
<path d="M528.527 152C528.637 152 532.937 150.37 533.097 154.86C533.257 159.35 528.717 158.58 528.707 158.46C528.697 158.34 528.527 152 528.527 152Z" fill="#FFBE9D"/>
<path d="M530 156.71C530 156.71 530.08 156.77 530.21 156.82C530.303 156.86 530.404 156.88 530.505 156.88C530.606 156.88 530.707 156.86 530.8 156.82C531.083 156.626 531.31 156.359 531.456 156.048C531.602 155.737 531.662 155.392 531.63 155.05C531.629 154.665 531.54 154.285 531.37 153.94C531.323 153.801 531.242 153.676 531.136 153.575C531.03 153.474 530.901 153.4 530.76 153.36C530.67 153.341 530.576 153.353 530.494 153.395C530.412 153.437 530.347 153.506 530.31 153.59C530.25 153.72 530.31 153.81 530.26 153.82C530.21 153.83 530.16 153.75 530.19 153.56C530.215 153.448 530.274 153.347 530.36 153.27C530.481 153.173 530.635 153.126 530.79 153.14C530.976 153.17 531.151 153.247 531.298 153.364C531.445 153.482 531.56 153.635 531.63 153.81C531.843 154.173 531.97 154.58 532 155C532.044 155.404 531.965 155.811 531.772 156.168C531.579 156.526 531.282 156.816 530.92 157C530.801 157.041 530.674 157.055 530.549 157.039C530.425 157.023 530.305 156.979 530.2 156.91C530 156.82 530 156.72 530 156.71Z" fill="#EB996E"/>
<path d="M506.93 153.22C506.957 153.466 507.074 153.693 507.259 153.857C507.443 154.021 507.682 154.112 507.93 154.11C508.171 154.11 508.402 154.014 508.573 153.844C508.744 153.673 508.84 153.441 508.84 153.2C508.813 152.954 508.695 152.727 508.511 152.563C508.326 152.399 508.087 152.309 507.84 152.31C507.598 152.31 507.367 152.406 507.196 152.577C507.026 152.747 506.93 152.979 506.93 153.22Z" fill="#263238"/>
<path d="M506.627 152.3C506.747 152.41 507.427 151.84 508.437 151.77C509.447 151.7 510.217 152.16 510.317 152.03C510.417 151.9 510.227 151.76 509.897 151.55C509.438 151.28 508.908 151.155 508.377 151.19C507.852 151.224 507.351 151.424 506.947 151.76C506.657 152 506.567 152.25 506.627 152.3Z" fill="#263238"/>
<path d="M516.859 152.85C516.866 152.974 516.897 153.096 516.951 153.209C517.005 153.321 517.08 153.421 517.173 153.504C517.266 153.587 517.375 153.65 517.493 153.691C517.61 153.731 517.735 153.748 517.859 153.74C517.978 153.74 518.096 153.716 518.206 153.671C518.316 153.625 518.416 153.557 518.499 153.473C518.583 153.388 518.649 153.288 518.694 153.177C518.738 153.067 518.761 152.949 518.759 152.83C518.753 152.706 518.722 152.584 518.668 152.471C518.614 152.359 518.539 152.259 518.446 152.176C518.353 152.093 518.244 152.03 518.126 151.989C518.008 151.949 517.884 151.932 517.759 151.94C517.64 151.94 517.523 151.964 517.413 152.009C517.303 152.055 517.203 152.122 517.12 152.207C517.036 152.292 516.97 152.392 516.925 152.502C516.88 152.613 516.858 152.731 516.859 152.85Z" fill="#263238"/>
<path d="M516.549 151.81C516.669 151.93 517.339 151.36 518.349 151.29C519.359 151.22 520.129 151.68 520.229 151.55C520.329 151.42 520.149 151.28 519.809 151.06C519.354 150.789 518.826 150.667 518.299 150.71C517.773 150.739 517.271 150.939 516.869 151.28C516.579 151.54 516.489 151.76 516.549 151.81Z" fill="#263238"/>
<path d="M513.4 159.53C512.855 159.407 512.298 159.347 511.74 159.35C511.48 159.35 511.23 159.35 511.18 159.13C511.139 158.867 511.181 158.598 511.3 158.36L511.93 156.36C512.516 154.65 512.97 152.899 513.29 151.12C512.559 152.776 511.963 154.488 511.51 156.24C511.3 156.94 511.1 157.61 510.91 158.24C510.778 158.557 510.757 158.909 510.85 159.24C510.894 159.327 510.957 159.403 511.035 159.462C511.113 159.521 511.204 159.561 511.3 159.58C511.446 159.599 511.594 159.599 511.74 159.58C512.293 159.637 512.851 159.62 513.4 159.53Z" fill="#263238"/>
<path d="M516.41 160C516.24 160 516.32 161.09 515.41 161.93C514.5 162.77 513.41 162.73 513.41 162.93C513.41 163.13 513.68 163.12 514.18 163.1C514.818 163.063 515.422 162.804 515.89 162.37C516.338 161.946 516.607 161.366 516.64 160.75C516.62 160.28 516.48 160 516.41 160Z" fill="#263238"/>
<path d="M516 147.88C516.12 148.15 517.11 147.95 518.3 148.02C519.49 148.09 520.47 148.34 520.61 148.08C520.75 147.82 520.49 147.71 520.09 147.47C519.557 147.174 518.96 147.009 518.35 146.99C517.739 146.959 517.129 147.072 516.57 147.32C516.17 147.53 516 147.76 516 147.88Z" fill="#263238"/>
<path d="M506.799 149.36C506.999 149.57 507.669 149.29 508.509 149.22C509.349 149.15 510.059 149.27 510.209 149.02C510.359 148.77 510.139 148.68 509.819 148.48C509.387 148.249 508.896 148.152 508.408 148.2C507.92 148.248 507.458 148.439 507.079 148.75C506.799 149 506.719 149.25 506.799 149.36Z" fill="#263238"/>
<path d="M529 147.75C528.95 149.58 529.13 151.41 529.08 153.24C529.021 153.931 528.845 154.607 528.56 155.24C528.466 155.606 528.258 155.934 527.968 156.176C527.677 156.419 527.318 156.564 526.94 156.592C526.563 156.619 526.186 156.528 525.863 156.33C525.54 156.133 525.287 155.839 525.14 155.49C524.784 154.768 524.593 153.975 524.58 153.17C524.574 152.364 524.439 151.564 524.18 150.8C523.754 150.008 523.244 149.264 522.66 148.58C522.373 148.232 522.171 147.823 522.068 147.384C521.966 146.945 521.967 146.489 522.07 146.05C524.491 145.976 526.886 146.56 529 147.74" fill="#263238"/>
<path d="M504.758 148.56L504.648 144.89L515.148 140.97L528.798 143.97L529.058 147.91C521.171 145.027 512.481 145.259 504.758 148.56Z" fill="#455A64"/>
<path d="M505.271 144.07L504.831 144.55L501.141 147.24C505.973 145.621 510.988 144.613 516.071 144.24C521.652 144.113 527.23 144.636 532.691 145.8L527.411 143.09C526.554 142.29 525.545 141.669 524.444 141.266C523.343 140.862 522.172 140.683 521.001 140.74L511.361 141.2C510.207 141.255 509.075 141.536 508.03 142.029C506.985 142.521 506.047 143.215 505.271 144.07Z" fill="#F9B300"/>
<path d="M512 140.87C512.177 139.166 512.224 137.451 512.14 135.74C512.182 134.026 512.095 132.311 511.88 130.61C511.691 132.313 511.644 134.029 511.74 135.74C511.692 137.454 511.779 139.169 512 140.87Z" fill="#263238"/>
<path d="M520.439 130.32C519.847 130.102 519.228 129.968 518.599 129.92C518.404 129.935 518.222 130.022 518.089 130.165C517.956 130.308 517.881 130.495 517.879 130.69L517.939 131.77C518.009 132.54 518.069 133.36 518.139 134.21C518.279 135.95 518.439 137.52 518.569 138.65C518.598 139.27 518.698 139.884 518.869 140.48C518.941 139.865 518.941 139.245 518.869 138.63C518.809 137.49 518.699 135.92 518.549 134.19C518.469 133.33 518.399 132.51 518.329 131.74C518.329 131.38 518.249 131.03 518.219 130.69C518.218 130.571 518.26 130.456 518.337 130.366C518.414 130.276 518.521 130.217 518.639 130.2C519.235 130.289 519.837 130.329 520.439 130.32Z" fill="#263238"/>
<path d="M500.891 147.21C500.891 147.21 501.331 146.99 502.141 146.64C502.541 146.46 503.031 146.26 503.591 145.95C504.241 145.614 504.795 145.119 505.201 144.51C505.671 143.81 505.701 142.88 506.201 142.18C506.701 141.48 507.741 141.37 508.761 141.27C510.821 141.04 513.091 140.87 515.481 140.77C517.871 140.67 520.161 140.65 522.231 140.67C523.181 140.591 524.13 140.837 524.921 141.37C525.24 141.676 525.532 142.011 525.791 142.37L526.201 142.86L526.411 143.09C526.497 143.168 526.595 143.232 526.701 143.28C528.181 143.87 529.391 144.28 530.221 144.55C530.641 144.724 531.072 144.871 531.511 144.99C531.414 144.919 531.31 144.859 531.201 144.81C530.991 144.71 530.681 144.57 530.271 144.4C529.471 144.05 528.271 143.63 526.831 143.02C526.756 142.986 526.685 142.942 526.621 142.89L526.431 142.66L526.041 142.17C525.768 141.813 525.467 141.479 525.141 141.17C524.3 140.565 523.273 140.275 522.241 140.35C520.161 140.35 517.871 140.35 515.471 140.42C513.071 140.49 510.781 140.7 508.711 140.95C508.198 140.99 507.69 141.07 507.191 141.19C506.711 141.312 506.29 141.599 506.001 142C505.421 142.82 505.421 143.75 505.001 144.37C504.633 144.952 504.124 145.43 503.521 145.76C502.991 146.08 502.521 146.31 502.111 146.51C501.701 146.71 501.421 146.88 501.221 147C501.101 147.054 500.99 147.125 500.891 147.21Z" fill="#263238"/>
<path d="M502.368 147.68C502.465 147.639 502.556 147.585 502.638 147.52C502.808 147.4 503.068 147.24 503.408 147.05C504.397 146.558 505.432 146.166 506.498 145.88C510.034 144.951 513.684 144.527 517.338 144.62C519.488 144.62 521.528 144.62 523.338 144.7C525.148 144.78 526.848 145.07 528.228 145.3C528.848 145.405 529.462 145.542 530.068 145.71C530.526 145.793 530.96 145.978 531.338 146.25C531.488 146.37 531.608 146.522 531.69 146.695C531.771 146.869 531.812 147.058 531.808 147.25C531.864 147.153 531.885 147.04 531.868 146.93C531.833 146.612 531.683 146.317 531.448 146.1C531.068 145.784 530.62 145.561 530.138 145.45C529.527 145.26 528.906 145.103 528.278 144.98C526.655 144.663 525.016 144.432 523.368 144.29C521.498 144.15 519.438 144.19 517.298 144.18C513.608 144.081 509.925 144.55 506.378 145.57C505.298 145.876 504.259 146.316 503.288 146.88C503.026 147.034 502.778 147.211 502.548 147.41C502.428 147.59 502.358 147.67 502.368 147.68Z" fill="#263238"/>
<path d="M513.547 129.4C513.88 129.425 514.214 129.425 514.547 129.4L516.967 129.31C517.907 129.31 518.777 129.16 519.377 129.22C519.54 129.226 519.699 129.268 519.844 129.342C519.989 129.416 520.117 129.521 520.217 129.65C520.217 129.65 520.217 129.55 520.077 129.42C519.886 129.245 519.644 129.136 519.387 129.11C518.578 129.047 517.766 129.047 516.957 129.11L514.537 129.25C514.202 129.263 513.87 129.313 513.547 129.4Z" fill="#FAFAFA"/>
<path d="M513.129 141.27C513.298 141.287 513.469 141.287 513.639 141.27H515.019C516.189 141.27 517.799 141.27 519.579 141.27L522.089 141.33C522.759 141.326 523.428 141.38 524.089 141.49C524.537 141.583 524.939 141.826 525.229 142.18C525.326 142.313 525.406 142.458 525.469 142.61C525.45 142.439 525.384 142.276 525.279 142.14C524.995 141.756 524.584 141.487 524.119 141.38C523.46 141.252 522.79 141.185 522.119 141.18C521.349 141.18 520.499 141.12 519.609 141.11C517.819 141.11 516.209 141.11 515.039 141.16L513.659 141.23C513.481 141.228 513.304 141.241 513.129 141.27Z" fill="#FAFAFA"/>
<path d="M518.4 139.49C518.413 139.37 518.413 139.25 518.4 139.13C518.4 138.8 518.31 138.48 518.26 138.13C518.15 137.3 518.01 136.13 517.88 134.88C517.75 133.63 517.68 132.46 517.63 131.63C517.63 131.29 517.61 130.957 517.57 130.63C517.587 130.511 517.587 130.389 517.57 130.27C517.555 130.39 517.555 130.51 517.57 130.63C517.57 130.86 517.57 131.2 517.57 131.63C517.57 132.47 517.65 133.63 517.77 134.9C517.89 136.17 518.06 137.32 518.2 138.14C518.27 138.56 518.34 138.89 518.39 139.14C518.376 139.257 518.379 139.374 518.4 139.49Z" fill="#FAFAFA"/>
<path d="M526.719 143.47C526.82 143.528 526.927 143.575 527.039 143.61L527.919 143.94L530.839 144.94C531.377 145.112 531.905 145.315 532.419 145.55C532.83 145.739 533.159 146.069 533.349 146.48C533.472 146.76 533.503 147.071 533.439 147.37C533.369 147.57 533.289 147.67 533.309 147.68C533.393 147.599 533.458 147.5 533.499 147.39C533.612 147.083 533.612 146.747 533.499 146.44C533.298 145.996 532.943 145.64 532.499 145.44C531.983 145.187 531.448 144.977 530.899 144.81L527.959 143.81L527.069 143.53C526.955 143.496 526.837 143.476 526.719 143.47Z" fill="#FAFAFA"/>
<path d="M452.808 322.18L453.718 338.42C453.718 338.42 437.518 344.79 437.398 347.8L468.938 347.18L468.558 321.83L452.808 322.18Z" fill="#F9B300"/>
<g opacity="0.4">
<path d="M452.808 322.18L453.718 338.42C453.718 338.42 437.518 344.79 437.398 347.8L468.938 347.18L468.558 321.83L452.808 322.18Z" fill="black"/>
</g>
<path d="M463.44 336.86C463.746 336.945 464.009 337.14 464.179 337.408C464.349 337.676 464.414 337.997 464.36 338.31C464.286 338.618 464.096 338.886 463.83 339.057C463.563 339.228 463.241 339.29 462.93 339.23C462.6 339.147 462.313 338.942 462.128 338.656C461.942 338.371 461.872 338.026 461.93 337.69C462.042 337.378 462.269 337.121 462.565 336.972C462.861 336.823 463.203 336.794 463.52 336.89" fill="#E0E0E0"/>
<path d="M468.939 347.18L468.799 344.63L438.609 346.18C438.609 346.18 437.219 346.82 437.399 347.8L468.939 347.18Z" fill="#E0E0E0"/>
<path d="M453.208 338.27C453.208 338.42 453.978 338.47 454.748 338.95C455.518 339.43 455.938 340.07 456.078 340.01C456.218 339.95 455.968 339.06 455.028 338.5C454.088 337.94 453.168 338.13 453.208 338.27Z" fill="#263238"/>
<path d="M449.918 339.7C449.918 339.85 450.558 340.1 451.098 340.7C451.638 341.3 451.798 342.03 451.948 342.02C452.098 342.01 452.188 341.13 451.508 340.35C450.828 339.57 449.918 339.55 449.918 339.7Z" fill="#263238"/>
<path d="M448.119 343.7C448.259 343.7 448.459 342.95 448.049 342.12C447.639 341.29 446.909 340.96 446.849 341.12C446.789 341.28 447.239 341.69 447.569 342.38C447.899 343.07 447.999 343.68 448.119 343.7Z" fill="#263238"/>
<path d="M453.408 334.54C453.478 334.68 454.178 334.46 455.048 334.54C455.918 334.62 456.608 334.84 456.678 334.71C456.748 334.58 456.098 334.04 455.068 334C454.038 333.96 453.328 334.42 453.408 334.54Z" fill="#263238"/>
<g opacity="0.3">
<path d="M453 325.4L453.15 328.29L468.65 327.84L468.62 325.23L453 325.4Z" fill="black"/>
</g>
<path d="M453.289 331.27C453.807 331.406 454.351 331.406 454.869 331.27C455.434 331.151 455.984 330.97 456.509 330.73C456.818 330.58 457.119 330.413 457.409 330.23C457.581 330.123 457.739 329.996 457.879 329.85C457.974 329.737 458.03 329.596 458.039 329.448C458.048 329.301 458.01 329.154 457.929 329.03C457.85 328.924 457.748 328.838 457.63 328.779C457.512 328.72 457.381 328.689 457.249 328.69C457.049 328.686 456.849 328.716 456.659 328.78C456.314 328.864 455.979 328.985 455.659 329.14C455.13 329.396 454.644 329.734 454.219 330.14C453.509 330.83 453.269 331.41 453.319 331.44C453.369 331.47 453.739 331 454.469 330.44C454.898 330.108 455.369 329.832 455.869 329.62C456.161 329.496 456.462 329.396 456.769 329.32C457.099 329.22 457.379 329.22 457.469 329.32C457.559 329.42 457.469 329.4 457.469 329.5C457.368 329.607 457.254 329.701 457.129 329.78C456.862 329.959 456.585 330.123 456.299 330.27C455.816 330.523 455.311 330.731 454.789 330.89C454.279 330.975 453.778 331.102 453.289 331.27Z" fill="#263238"/>
<path d="M453.489 331.48C453.549 331.48 453.839 330.95 453.879 329.95C453.89 329.364 453.806 328.779 453.629 328.22C453.524 327.873 453.383 327.538 453.209 327.22C453.122 327.017 452.985 326.839 452.809 326.704C452.634 326.57 452.428 326.482 452.209 326.45C452.069 326.456 451.934 326.501 451.819 326.581C451.704 326.661 451.614 326.771 451.559 326.9C451.484 327.086 451.434 327.281 451.409 327.48C451.359 327.832 451.359 328.189 451.409 328.54C451.51 329.13 451.754 329.686 452.119 330.16C452.749 330.97 453.399 331.16 453.409 331.09C453.419 331.02 452.919 330.72 452.409 329.95C452.127 329.501 451.946 328.996 451.879 328.47C451.834 328.168 451.834 327.862 451.879 327.56C451.879 327.22 452.039 326.95 452.169 326.98C452.299 327.01 452.599 327.22 452.729 327.49C452.895 327.758 453.033 328.043 453.139 328.34C453.327 328.844 453.442 329.373 453.479 329.91C453.559 330.88 453.409 331.46 453.489 331.48Z" fill="#263238"/>
<path d="M538 253.21C538 253.21 534.55 270.89 528.83 271.14C521.83 271.44 470.98 272.14 470.98 272.14L474 328.75L451.82 328.22L443 272.43C442.015 267.425 442.852 262.232 445.36 257.79L445.54 257.48C447.435 254.363 450.1 251.785 453.278 249.993C456.457 248.202 460.042 247.257 463.69 247.25L505.92 246.61L538 253.21Z" fill="#263238"/>
<path d="M461.44 322.18L462.34 338.42C462.34 338.42 446.14 344.79 446.02 347.8L477.56 347.18L477.18 321.83L461.44 322.18Z" fill="#F9B300"/>
<path d="M472.057 336.86C472.363 336.945 472.626 337.14 472.796 337.408C472.966 337.676 473.031 337.997 472.977 338.31C472.905 338.619 472.716 338.888 472.449 339.06C472.182 339.232 471.858 339.293 471.547 339.23C471.217 339.147 470.931 338.942 470.745 338.656C470.56 338.371 470.489 338.026 470.547 337.69C470.659 337.378 470.886 337.121 471.182 336.972C471.478 336.823 471.82 336.794 472.137 336.89" fill="#E0E0E0"/>
<path d="M477.56 347.18L477.42 344.63L447.23 346.18C447.23 346.18 445.84 346.82 446.02 347.8L477.56 347.18Z" fill="#E0E0E0"/>
<path d="M461.829 338.27C461.829 338.42 462.609 338.47 463.369 338.95C464.129 339.43 464.559 340.07 464.699 340.01C464.839 339.95 464.589 339.06 463.649 338.5C462.709 337.94 461.789 338.13 461.829 338.27Z" fill="#263238"/>
<path d="M458.547 339.7C458.547 339.85 459.187 340.1 459.717 340.7C460.247 341.3 460.417 342.03 460.567 342.02C460.717 342.01 460.807 341.13 460.127 340.35C459.447 339.57 458.547 339.55 458.547 339.7Z" fill="#263238"/>
<path d="M456.74 343.7C456.89 343.7 457.08 342.95 456.67 342.12C456.26 341.29 455.53 340.96 455.47 341.12C455.41 341.28 455.86 341.69 456.19 342.38C456.52 343.07 456.59 343.68 456.74 343.7Z" fill="#263238"/>
<path d="M462 334.54C462.07 334.68 462.77 334.46 463.64 334.54C464.51 334.62 465.2 334.84 465.27 334.71C465.34 334.58 464.69 334.04 463.66 334C462.63 333.96 462 334.42 462 334.54Z" fill="#263238"/>
<g opacity="0.3">
<path d="M461.617 325.4L461.777 328.29L477.267 327.84L477.237 325.23L461.617 325.4Z" fill="black"/>
</g>
<path d="M461.91 331.27C462.428 331.406 462.972 331.406 463.49 331.27C464.055 331.151 464.605 330.97 465.13 330.73C465.44 330.583 465.741 330.416 466.03 330.23C466.202 330.123 466.36 329.996 466.5 329.85C466.595 329.737 466.651 329.596 466.66 329.448C466.669 329.301 466.631 329.154 466.55 329.03C466.472 328.924 466.369 328.838 466.251 328.779C466.133 328.72 466.002 328.689 465.87 328.69C465.67 328.686 465.47 328.716 465.28 328.78C464.935 328.864 464.6 328.985 464.28 329.14C463.753 329.394 463.27 329.732 462.85 330.14C462.13 330.83 461.85 331.41 461.94 331.44C462.03 331.47 462.36 331 463.09 330.44C463.52 330.108 463.99 329.832 464.49 329.62C464.782 329.496 465.083 329.396 465.39 329.32C465.72 329.22 466 329.22 466.09 329.32C466.18 329.42 466.09 329.4 466.09 329.5C465.989 329.607 465.875 329.701 465.75 329.78C465.483 329.959 465.206 330.123 464.92 330.27C464.437 330.523 463.932 330.731 463.41 330.89C462.901 330.975 462.399 331.102 461.91 331.27Z" fill="#263238"/>
<path d="M462.11 331.48C462.17 331.48 462.46 330.95 462.5 329.95C462.516 329.363 462.432 328.778 462.25 328.22C462.145 327.873 462.004 327.538 461.83 327.22C461.743 327.017 461.606 326.839 461.431 326.704C461.255 326.57 461.049 326.482 460.83 326.45C460.69 326.456 460.555 326.501 460.44 326.581C460.325 326.661 460.235 326.771 460.18 326.9C460.106 327.086 460.055 327.281 460.03 327.48C459.98 327.832 459.98 328.189 460.03 328.54C460.131 329.13 460.375 329.686 460.74 330.16C461.37 330.97 462.02 331.16 462.03 331.09C462.04 331.02 461.54 330.72 461.03 329.95C460.748 329.501 460.567 328.996 460.5 328.47C460.455 328.168 460.455 327.862 460.5 327.56C460.55 327.22 460.67 326.95 460.79 326.98C460.91 327.01 461.22 327.22 461.35 327.49C461.517 327.758 461.654 328.043 461.76 328.34C461.949 328.844 462.063 329.373 462.1 329.91C462.18 330.88 462 331.46 462.11 331.48Z" fill="#263238"/>
<path d="M543.558 253.21C543.558 253.21 540.118 270.89 534.388 271.14C527.388 271.44 476.538 272.14 476.538 272.14L479.628 328.75L457.448 328.22L448.578 272.43C447.593 267.425 448.43 262.232 450.938 257.79L451.118 257.48C453.014 254.361 455.681 251.782 458.861 249.991C462.041 248.199 465.628 247.255 469.278 247.25L511.498 246.61L543.558 253.21Z" fill="#263238"/>
<path d="M500.297 182.23L506.997 226.71L502.467 246.71L543.607 258.82C547.327 253.5 547.467 236.61 547.337 224.66C547.107 203.6 548.037 202.58 547.127 195.19C546.217 187.8 544.667 183.06 540.767 180.73L529.547 175C529.547 175 523.227 179 519.377 178.81C519.377 178.81 514.807 179 512.277 176.57C512.277 176.54 502.997 179.34 500.297 182.23Z" fill="#F9B300"/>
<path d="M500.3 182.23L486.59 201.13L505.26 212.09L503.83 205.22L500.3 182.23Z" fill="#F9B300"/>
<path d="M467.631 247.52C467.552 247.537 467.47 247.537 467.391 247.52L466.701 247.57C466.322 247.595 465.944 247.642 465.571 247.71C465.062 247.771 464.558 247.865 464.061 247.99C460.876 248.772 457.935 250.332 455.501 252.53C453.827 254.038 452.388 255.787 451.231 257.72C449.906 259.934 449.083 262.413 448.821 264.98C448.582 267.832 448.689 270.703 449.141 273.53C449.551 276.53 450.141 279.53 450.451 282.72C451.161 289.02 452.111 295 453.001 300.43C453.891 305.86 454.751 310.73 455.441 314.85C456.131 318.97 456.671 322.28 457.001 324.59C457.151 325.71 457.271 326.59 457.361 327.25C457.361 327.53 457.421 327.75 457.441 327.94C457.45 328.02 457.45 328.1 457.441 328.18C457.409 328.107 457.389 328.029 457.381 327.95C457.381 327.76 457.301 327.54 457.241 327.26L456.791 324.62C456.371 322.28 455.791 318.98 455.071 314.91C454.351 310.84 453.481 305.91 452.521 300.51C451.561 295.11 450.631 289.1 449.921 282.77C449.601 279.62 449.031 276.58 448.631 273.6C448.173 270.733 448.076 267.821 448.341 264.93C448.616 262.298 449.474 259.76 450.851 257.5C452.041 255.536 453.525 253.765 455.251 252.25C457.744 250.043 460.759 248.508 464.011 247.79C465.2 247.536 466.417 247.446 467.631 247.52Z" fill="#455A64"/>
<path d="M483.388 233.79C483.388 233.79 499.258 238.91 511.598 243.38C513.693 244.141 515.944 244.371 518.15 244.049C520.355 243.728 522.447 242.866 524.238 241.54C526.531 239.85 528.229 237.476 529.088 234.76L537.538 208.14L523.428 203.2L513.998 227.13L478.898 222.52" fill="#FFBE9D"/>
<path d="M462.4 228.3L462.27 227.04C462.356 226.11 462.742 225.232 463.37 224.54C463.71 224.162 464.116 223.85 464.57 223.62L468.72 221.45C469.336 221.136 470.036 221.024 470.72 221.13L479.23 222.58L489 223.86L487 235L482.48 233.5C482.48 233.5 479.21 235.31 477.19 234.88C477.19 234.88 475.32 236.13 474.55 235.21C474.55 235.21 472.88 236.65 472.25 236.56C471.62 236.47 470.38 235.74 470.43 235.31L470.48 234.73C470.159 234.905 469.797 234.99 469.432 234.974C469.067 234.958 468.713 234.843 468.41 234.64C467.977 234.304 467.648 233.854 467.46 233.34C466.68 233.259 465.944 232.941 465.35 232.43C464.956 231.854 464.694 231.198 464.58 230.51C464.58 230.51 462.71 229.6 462.4 228.3Z" fill="#FFBE9D"/>
<path d="M468.68 224.27C468.74 224.27 468.84 224.73 468.63 225.43C468.32 226.317 467.806 227.118 467.13 227.77C466.38 228.54 465.68 229.17 465.25 229.69C464.82 230.21 464.59 230.57 464.52 230.54C464.45 230.51 464.52 230.07 464.96 229.47C465.489 228.728 466.089 228.038 466.75 227.41C467.374 226.795 467.895 226.083 468.29 225.3C468.56 224.7 468.59 224.27 468.68 224.27Z" fill="#EB996E"/>
<path d="M470.298 228.72C469.822 230.508 468.788 232.098 467.348 233.26C467.716 232.431 468.186 231.652 468.748 230.94C469.558 229.7 470.158 228.65 470.298 228.72Z" fill="#EB996E"/>
<path d="M472.471 231.66C472.591 231.74 472.241 232.46 471.681 233.28C471.121 234.1 470.581 234.7 470.461 234.61C470.341 234.52 470.701 233.8 471.251 232.99C471.801 232.18 472.351 231.58 472.471 231.66Z" fill="#EB996E"/>
<path d="M472.068 230.49C472.068 230.55 471.848 230.56 471.588 230.4C471.419 230.287 471.276 230.139 471.167 229.967C471.058 229.795 470.987 229.602 470.958 229.4C470.924 229.203 470.932 229 470.984 228.807C471.036 228.613 471.13 228.433 471.258 228.28C471.448 228.05 471.638 227.99 471.688 228.04C471.738 228.09 471.358 228.65 471.468 229.32C471.578 229.99 472.128 230.36 472.068 230.49Z" fill="#EB996E"/>
<path d="M474.438 233.48C474.438 233.54 474.258 233.55 474.038 233.48C473.898 233.396 473.776 233.285 473.679 233.152C473.583 233.02 473.515 232.87 473.478 232.71C473.416 232.536 473.409 232.347 473.457 232.168C473.505 231.989 473.607 231.83 473.748 231.71C474.008 231.53 474.208 231.65 474.188 231.71C474.078 231.814 474 231.948 473.965 232.095C473.929 232.243 473.937 232.397 473.988 232.54C474.098 233.05 474.498 233.35 474.438 233.48Z" fill="#EB996E"/>
<path d="M470.688 227.31C470.688 227.37 470.468 227.42 470.168 227.31C469.968 227.213 469.796 227.066 469.67 226.883C469.544 226.7 469.467 226.488 469.447 226.267C469.427 226.045 469.464 225.822 469.555 225.62C469.647 225.417 469.789 225.242 469.968 225.11C470.238 224.92 470.458 224.94 470.468 225C470.478 225.06 469.908 225.51 469.968 226.22C470.028 226.93 470.728 227.19 470.688 227.31Z" fill="#EB996E"/>
<path d="M537.61 184.34C534.39 182.94 530.42 184.34 528.09 186.78C525.76 189.22 524.69 192.41 523.69 195.51C522.69 198.61 520.31 204.58 519.34 207.57L537.63 215.4C539.19 211.18 540.643 206.923 541.99 202.63C543.13 199.03 544.19 195.15 542.87 191.57" fill="#F9B300"/>
<path d="M542.868 191.57C542.95 191.708 543.014 191.856 543.058 192.01C543.217 192.441 543.334 192.887 543.408 193.34C543.694 195.039 543.65 196.778 543.278 198.46C542.718 201.022 541.98 203.542 541.068 206C540.068 208.86 539.068 212.05 537.878 215.48L537.788 215.73L537.528 215.62L524.648 210.12L519.228 207.8L519.008 207.7L519.078 207.5C520.558 203.14 522.208 199.15 523.448 195.5C523.991 193.731 524.659 192.004 525.448 190.33C526.154 188.836 527.123 187.481 528.308 186.33C530.119 184.622 532.518 183.677 535.008 183.69C535.689 183.711 536.362 183.833 537.008 184.05C537.225 184.126 537.436 184.22 537.638 184.33C536.795 184.051 535.916 183.896 535.028 183.87C532.616 183.923 530.312 184.883 528.578 186.56C527.448 187.686 526.527 189.003 525.858 190.45C525.099 192.117 524.458 193.834 523.938 195.59C522.728 199.3 521.078 203.31 519.628 207.64L519.478 207.34L524.908 209.66L537.768 215.18L537.418 215.32C538.598 211.89 539.698 208.72 540.688 205.87C541.619 203.433 542.391 200.938 542.998 198.4C543.385 196.763 543.479 195.07 543.278 193.4C543.068 192.19 542.828 191.58 542.868 191.57Z" fill="#263238"/>
<path d="M519.43 236.26C519.37 236.26 519.23 235.26 518.61 233.43C518.229 232.351 517.722 231.321 517.1 230.36C516.307 229.097 515.215 228.05 513.92 227.31H513.97L494.16 224.73L482.16 223.12L476.95 222.4L472.42 221.67L470.42 221.36C469.859 221.26 469.282 221.363 468.79 221.65L466.22 222.89L464.59 223.66C464.404 223.762 464.206 223.84 464 223.89C464.171 223.766 464.352 223.656 464.54 223.56L466.13 222.71L468.66 221.39C469.204 221.064 469.843 220.937 470.47 221.03L472.47 221.31L477 221.97L482.22 222.65L494.22 224.22L514 226.93H514.06C515.414 227.713 516.547 228.828 517.35 230.17C517.965 231.161 518.452 232.226 518.8 233.34C519.02 234.038 519.194 234.749 519.32 235.47C519.386 235.728 519.422 235.993 519.43 236.26Z" fill="#EB996E"/>
<path d="M506.997 226C506.86 225.53 506.769 225.048 506.727 224.56C506.557 223.56 506.347 222.22 506.097 220.63C505.527 217.22 504.777 212.68 503.947 207.63C503.117 202.58 502.357 198.07 501.797 194.63C501.547 193.04 501.347 191.71 501.187 190.69C501.084 190.21 501.03 189.721 501.027 189.23C501.192 189.691 501.312 190.166 501.387 190.65L502.157 194.57C502.787 197.88 503.617 202.45 504.467 207.57C505.317 212.69 506.017 217.24 506.467 220.57C506.697 222.24 506.847 223.57 506.937 224.57C507.004 225.044 507.024 225.523 506.997 226Z" fill="#263238"/>
<path d="M696.5 444.9C696.5 445.05 551.76 445.16 373.26 445.16C194.76 445.16 50 445.05 50 444.9C50 444.75 194.71 444.64 373.28 444.64C551.85 444.64 696.5 444.76 696.5 444.9Z" fill="#263238"/>
<path d="M69.3803 411.56C67.7703 413.73 64.7803 412.91 63.4303 411.56C62.0803 410.21 61.5303 408.2 61.0403 406.32C59.9303 402.03 58.8203 397.53 59.8503 393.22C60.0999 391.909 60.7093 390.694 61.6103 389.71C62.0644 389.226 62.6379 388.869 63.2732 388.676C63.9085 388.483 64.5834 388.46 65.2303 388.61C66.7403 389.05 67.6403 390.56 68.2903 391.99C70.1728 396.208 71.0983 400.791 71.0003 405.41C71.0794 407.576 70.512 409.717 69.3703 411.56" fill="#F9B300"/>
<g opacity="0.2">
<path d="M69.3803 411.56C67.7703 413.73 64.7803 412.91 63.4303 411.56C62.0803 410.21 61.5303 408.2 61.0403 406.32C59.9303 402.03 58.8203 397.53 59.8503 393.22C60.0999 391.909 60.7093 390.694 61.6103 389.71C62.0644 389.226 62.6379 388.869 63.2732 388.676C63.9085 388.483 64.5834 388.46 65.2303 388.61C66.7403 389.05 67.6403 390.56 68.2903 391.99C70.1728 396.208 71.0983 400.791 71.0003 405.41C71.0794 407.576 70.512 409.717 69.3703 411.56" fill="black"/>
</g>
<path d="M63.2798 422.59C60.7216 421.308 57.8204 420.877 54.9998 421.36C53.4616 421.46 51.9993 422.064 50.8398 423.08C49.7798 424.19 49.5398 426.18 50.6898 427.19C51.4388 427.717 52.346 427.971 53.2598 427.91C55.4598 427.91 57.9098 427.62 59.6298 428.99C60.6298 429.78 61.2498 431.05 62.4398 431.45C63.0348 431.607 63.6647 431.564 64.2334 431.33C64.8021 431.095 65.2785 430.681 65.5898 430.15C66.1921 429.062 66.3532 427.784 66.0398 426.58C65.917 425.748 65.6041 424.955 65.1254 424.263C64.6468 423.571 64.0153 422.998 63.2798 422.59Z" fill="#F9B300"/>
<path d="M73.5406 414.84C72.7714 413.782 72.2735 412.551 72.0904 411.256C71.9074 409.96 72.0448 408.64 72.4906 407.41C73.3915 404.955 74.9521 402.796 77.0006 401.17C79.3558 399.192 82.0728 397.691 85.0006 396.75C86.1336 396.328 87.345 396.157 88.5506 396.25C89.1515 396.3 89.731 396.497 90.2383 396.823C90.7456 397.149 91.1653 397.594 91.4606 398.12C92.2506 399.71 91.4006 401.6 90.4606 403.12C88.8761 405.827 87.0805 408.405 85.0906 410.83C83.4906 412.78 81.6706 414.7 79.2906 415.54C76.9106 416.38 74.4706 416.2 73.2906 414.54" fill="#F9B300"/>
<path d="M68.5903 444.9C68.5156 444.572 68.4787 444.236 68.4803 443.9C68.4203 443.16 68.3603 442.24 68.2803 441.15C68.1811 439.808 68.0109 438.473 67.7703 437.15C67.4557 435.524 67.0109 433.925 66.4403 432.37C65.8836 430.81 65.1056 429.338 64.1303 428C63.3368 426.915 62.3121 426.02 61.1303 425.38C60.3293 424.952 59.4651 424.655 58.5703 424.5C58.2314 424.483 57.8957 424.426 57.5703 424.33C57.9028 424.296 58.2379 424.296 58.5703 424.33C59.4994 424.424 60.404 424.684 61.2403 425.1C62.4864 425.733 63.5709 426.643 64.4103 427.76C65.4241 429.116 66.2297 430.616 66.8003 432.21C67.3899 433.764 67.8416 435.367 68.1503 437C68.3741 438.35 68.5176 439.713 68.5803 441.08C68.5803 442.25 68.6403 443.19 68.6403 443.84C68.6591 444.194 68.6424 444.549 68.5903 444.9Z" fill="#263238"/>
<path d="M68.4591 442.78C68.4373 442.624 68.4373 442.466 68.4591 442.31C68.4591 441.96 68.4591 441.52 68.4591 440.98C68.4591 439.83 68.5391 438.15 68.5291 436.09C68.5291 431.95 68.3391 426.24 67.8191 419.95C67.2991 413.66 66.5291 407.95 65.8191 403.95C65.6491 402.95 65.4791 402.01 65.3091 401.21C65.1391 400.41 65.0191 399.71 64.8891 399.14C64.7591 398.57 64.6791 398.14 64.6091 397.84C64.57 397.689 64.5466 397.535 64.5391 397.38C64.5391 397.38 64.6091 397.53 64.6891 397.82C64.7691 398.11 64.8991 398.58 65.0391 399.11C65.1791 399.64 65.3591 400.36 65.5391 401.16C65.7191 401.96 65.9191 402.88 66.1091 403.9C67.1078 409.191 67.8221 414.532 68.2491 419.9C68.7691 426.2 68.9291 431.9 68.8491 436.08C68.8491 438.15 68.7291 439.83 68.6391 440.98C68.6391 441.52 68.5591 441.98 68.5291 442.31C68.5162 442.468 68.4928 442.625 68.4591 442.78Z" fill="#263238"/>
<path d="M68.7305 431.75C68.6888 431.284 68.6888 430.816 68.7305 430.35C68.8105 429.46 68.9605 428.17 69.2605 426.6C70.0539 422.492 71.3433 418.497 73.1005 414.7C74.7926 410.863 77.164 407.364 80.1005 404.37C80.6138 403.86 81.1582 403.383 81.7305 402.94C81.9805 402.74 82.2005 402.54 82.4205 402.38L83.0505 401.97C83.4285 401.703 83.8264 401.466 84.2405 401.26C82.8633 402.285 81.5508 403.393 80.3105 404.58C77.4575 407.597 75.1378 411.076 73.4505 414.87C72.4975 416.942 71.6791 419.073 71.0005 421.25C70.4243 423.024 69.9403 424.826 69.5505 426.65C69.2205 428.21 69.0205 429.49 68.8905 430.37C68.8683 430.833 68.8149 431.294 68.7305 431.75Z" fill="#263238"/>
</svg>
