<svg width="343" height="750" viewBox="0 0 343 750" fill="none" xmlns="http://www.w3.org/2000/svg">
<path d="M133.92 606.371C133.572 606.968 133.774 607.733 134.371 608.08L144.093 613.741C144.689 614.089 145.455 613.887 145.802 613.29C146.149 612.694 145.947 611.928 145.351 611.581L136.709 606.549L141.741 597.907C142.089 597.311 141.887 596.545 141.29 596.198C140.694 595.851 139.928 596.053 139.581 596.649L133.92 606.371ZM228.605 503.081C230.129 526.541 219.542 548.804 202.069 566.947C184.596 585.09 160.312 599.026 134.681 605.791L135.319 608.209C161.363 601.334 186.058 587.175 203.869 568.681C221.68 550.188 232.682 527.271 231.099 502.919L228.605 503.081Z" fill="black"/>
<path d="M280.939 339.595C281.395 339.076 281.343 338.286 280.825 337.831L272.371 330.408C271.852 329.953 271.062 330.004 270.607 330.523C270.151 331.042 270.203 331.832 270.721 332.287L278.236 338.885L271.638 346.4C271.183 346.918 271.234 347.708 271.753 348.164C272.272 348.619 273.061 348.568 273.517 348.049L280.939 339.595ZM279.919 337.523C218.115 341.538 157.927 291.784 140.209 224.681L137.791 225.319C155.748 293.323 216.839 344.126 280.081 340.018L279.919 337.523Z" fill="black"/>
<path d="M314.536 386.341C314.536 386.624 314.748 386.853 315.008 386.853H336.528C336.789 386.853 337 386.624 337 386.341V378.022C337 377.74 336.789 377.51 336.528 377.51H329.181C328.772 377.51 328.556 376.985 328.829 376.656L331.273 373.705C334.115 370.286 336.334 367.444 336.334 362.966C336.334 355.982 330.918 352.371 325.235 352.371C320.565 352.371 316.232 354.838 314.04 360.086C313.941 360.325 314.032 360.605 314.244 360.731L321.211 364.853C321.462 365.001 321.774 364.876 321.894 364.595C322.66 362.796 323.83 361.713 325.369 361.713C326.79 361.713 327.455 362.629 327.455 363.64C327.455 364.94 326.345 365.952 324.658 367.926L314.662 379.675C314.581 379.769 314.536 379.893 314.536 380.022V386.341Z" fill="#FFC727"/>
<path fill-rule="evenodd" clip-rule="evenodd" d="M309.414 393.319C309.149 393.319 308.935 393.086 308.935 392.797V378.563C308.935 378.431 308.98 378.305 309.062 378.208L316.265 369.705C316.476 369.455 316.415 369.056 316.142 368.893L307.25 363.607C307.034 363.479 306.942 363.195 307.037 362.948L308.657 358.72C311.704 350.763 318.226 346.983 324.928 346.983C328.747 346.983 332.749 348.192 335.911 350.925C339.202 353.769 341.325 358.068 341.325 363.381C341.325 366.72 340.48 369.462 339.294 371.783C339.111 372.14 339.343 372.59 339.717 372.59H341.521C341.786 372.59 342 372.823 342 373.111V392.797C342 393.086 341.786 393.319 341.521 393.319H309.414ZM331.049 374.32C331.537 373.73 332.007 373.157 332.452 372.59C334.628 369.809 336.181 367.17 336.181 363.381C336.181 356.268 330.689 352.589 324.928 352.589C321.694 352.589 318.619 353.761 316.287 356.207C315.739 356.781 315.233 357.425 314.775 358.14C314.326 358.841 313.925 359.61 313.576 360.448C313.475 360.691 313.567 360.976 313.783 361.105L321.207 365.518C321.27 365.555 321.349 365.524 321.377 365.45C321.378 365.447 321.378 365.445 321.379 365.442C321.569 364.932 321.787 364.47 322.034 364.065C322.109 363.941 322.186 363.823 322.267 363.71C322.992 362.688 323.928 362.106 325.063 362.106C326.503 362.106 327.178 363.038 327.178 364.068C327.178 365.113 326.477 365.975 325.342 367.279C325.274 367.358 325.204 367.437 325.133 367.518C325.11 367.546 325.086 367.573 325.063 367.6C325.031 367.636 324.999 367.672 324.968 367.709C324.77 367.936 324.561 368.177 324.342 368.434L314.206 380.401C314.124 380.497 314.079 380.623 314.079 380.754V387.191C314.079 387.479 314.293 387.713 314.558 387.713H336.377C336.641 387.713 336.856 387.479 336.856 387.191V378.718C336.856 378.43 336.641 378.196 336.377 378.196H328.927C328.513 378.196 328.294 377.661 328.571 377.326L331.049 374.32Z" fill="white"/>
<path d="M24.8135 636.187C24.477 636.061 24.3492 635.612 24.5791 635.316L29.122 629.531C29.1965 629.436 29.2374 629.314 29.2374 629.193V622.261C29.2374 621.971 29.0169 621.733 28.7441 621.733H8.39868C8.12588 621.733 7.90537 621.971 7.90537 622.261V630.841C7.90537 631.131 8.12588 631.369 8.39868 631.369H16.6196C17.0409 631.369 17.2683 631.898 16.995 632.241L13.5744 636.531C13.4304 636.71 13.4166 636.969 13.5399 637.165L16.8017 642.363C16.8934 642.506 17.0468 642.596 17.2111 642.596H18.9426C20.612 642.596 21.7249 643.341 21.7249 645.079C21.7249 646.717 20.612 647.662 18.9426 647.662C17.0602 647.662 15.8945 646.569 15.2418 644.677C15.1303 644.355 14.7771 644.202 14.4984 644.371L7.24582 648.83C7.03715 648.957 6.9444 649.231 7.03419 649.469C9.02122 654.747 13.5631 657.293 18.9426 657.293C25.435 657.293 31 653.622 31 645.575C31 640.773 28.4639 637.587 24.8135 636.187Z" fill="#FFC727"/>
<path fill-rule="evenodd" clip-rule="evenodd" d="M29.0984 629.317C29.0984 629.437 29.0584 629.557 28.9856 629.651L24.5461 635.364C24.3214 635.657 24.4463 636.1 24.7751 636.225C26.27 636.805 27.5731 637.692 28.5836 638.881C29.984 640.525 30.8209 642.743 30.8209 645.498C30.8209 653.445 25.3825 657.072 19.0377 657.072C15.519 657.072 12.3666 655.944 10.0844 653.638C9.78794 653.335 9.50591 653.017 9.2398 652.678C8.49449 651.723 7.87309 650.612 7.40016 649.344C7.31242 649.104 7.40305 648.837 7.60697 648.712L14.6946 644.308C14.967 644.141 15.3122 644.293 15.4211 644.611C15.72 645.487 16.1288 646.187 16.6678 646.688C16.8004 646.808 16.9402 646.917 17.0887 647.016C17.2203 647.105 17.3582 647.178 17.5028 647.246C17.9492 647.449 18.4588 647.559 19.0377 647.559C20.6691 647.559 21.7567 646.625 21.7567 645.007C21.7567 643.786 21.2086 643.061 20.3076 642.748C20.3056 642.743 20.3042 642.743 20.3023 642.743C20.1225 642.68 19.9282 642.633 19.7218 642.602C19.5068 642.571 19.2778 642.555 19.0377 642.555H17.3456C17.1851 642.555 17.0352 642.466 16.9455 642.325L13.7579 637.191C13.6374 636.998 13.6509 636.742 13.7917 636.565L17.1345 632.328C17.4015 631.988 17.1793 631.467 16.7676 631.467H8.73361C8.46702 631.467 8.25152 631.232 8.25152 630.945V622.471C8.25152 622.184 8.46702 621.949 8.73361 621.949H28.6163C28.8829 621.949 29.0984 622.184 29.0984 622.471V629.317ZM7.58624 637.306C7.49657 637.159 7.34665 637.076 7.18611 637.076H3.55405C3.28794 637.076 3.07196 636.841 3.07196 636.554V616.867C3.07196 616.58 3.28794 616.345 3.55405 616.345H33.7959C34.062 616.345 34.278 616.58 34.278 616.867V631.357C34.278 631.482 34.238 631.602 34.1652 631.696L32.2204 634.196C32.0585 634.404 32.0729 634.712 32.246 634.911C32.4875 635.187 32.7204 635.474 32.9445 635.772C34.9466 638.443 36 641.788 36 645.498C36 650.998 34.049 655.548 30.5828 658.611C27.2651 661.538 23.0511 662.681 19.0377 662.681C12.0104 662.681 5.16567 659.065 2.39078 650.857L1.02936 646.834C0.948851 646.594 1.03852 646.328 1.24196 646.202L9.35936 641.162C9.60185 641.01 9.67513 640.666 9.51942 640.416L7.58624 637.306Z" fill="white"/>
<path d="M16.1636 23.7068C16.1061 23.7068 16.0496 23.7176 15.9956 23.7388L7.32781 27.144C7.0839 27.2398 6.94906 27.5237 7.01797 27.7959L8.91225 35.2936C8.98364 35.5745 9.24588 35.7434 9.50566 35.6756L14.0676 34.4838C14.3794 34.4024 14.6788 34.6599 14.6788 35.0093V58.7267C14.6788 59.025 14.9009 59.2671 15.1746 59.2671H23.5042C23.7779 59.2671 24 59.025 24 58.7267V24.2472C24 23.9488 23.7779 23.7068 23.5042 23.7068H16.1636Z" fill="#FFC727"/>
<path fill-rule="evenodd" clip-rule="evenodd" d="M15.625 18.3503C15.6795 18.3295 15.7369 18.3188 15.7944 18.3188H29.5003C29.7761 18.3188 30 18.5565 30 18.8497V64.1242C30 64.4173 29.7761 64.6551 29.5003 64.6551H10.3666C10.0908 64.6551 9.86689 64.4173 9.86689 64.1242V42.3553C9.86689 42.012 9.56506 41.759 9.25075 41.839L6.22454 42.6096C5.96219 42.6763 5.69785 42.5103 5.62589 42.2343L1.01811 24.4633C0.94865 24.1959 1.08457 23.9169 1.33042 23.8229L15.625 18.3503ZM14.6196 34.6078C14.9339 34.5278 15.2357 34.7808 15.2357 35.124V58.4212C15.2357 58.7142 15.4596 58.952 15.7354 58.952H24.1315C24.4073 58.952 24.6312 58.7142 24.6312 58.4212V24.5525C24.6312 24.2594 24.4073 24.0217 24.1315 24.0217H16.7323C16.6749 24.0217 16.6174 24.0324 16.5629 24.0532L7.82608 27.3981C7.58023 27.4921 7.44431 27.7711 7.51377 28.0384L9.42315 35.4032C9.49511 35.6791 9.75945 35.8451 10.0218 35.7784L14.6196 34.6078Z" fill="white"/>
</svg>
