<svg width="343" height="696" viewBox="0 0 343 696" fill="none" xmlns="http://www.w3.org/2000/svg">
<path d="M133.92 606.371C133.572 606.968 133.774 607.733 134.371 608.08L144.093 613.741C144.689 614.089 145.455 613.887 145.802 613.29C146.149 612.694 145.947 611.928 145.351 611.581L136.709 606.549L141.741 597.907C142.089 597.311 141.887 596.545 141.29 596.198C140.694 595.851 139.928 596.053 139.581 596.649L133.92 606.371ZM228.605 503.081C230.129 526.541 219.542 548.804 202.069 566.947C184.596 585.09 160.312 599.026 134.681 605.791L135.319 608.209C161.363 601.334 186.058 587.175 203.869 568.681C221.68 550.188 232.682 527.271 231.099 502.919L228.605 503.081Z" fill="black"/>
<path d="M280.939 339.595C281.395 339.076 281.343 338.286 280.825 337.831L272.371 330.408C271.852 329.953 271.062 330.004 270.607 330.523C270.151 331.042 270.203 331.832 270.721 332.287L278.236 338.885L271.638 346.4C271.183 346.918 271.234 347.708 271.753 348.164C272.272 348.619 273.061 348.568 273.517 348.049L280.939 339.595ZM279.919 337.523C218.115 341.538 157.927 291.784 140.209 224.681L137.791 225.319C155.748 293.323 216.839 344.126 280.081 340.018L279.919 337.523Z" fill="black"/>
<path d="M314.536 358.525C314.536 358.787 314.748 359 315.008 359H336.528C336.789 359 337 358.787 337 358.525V350.805C337 350.542 336.789 350.329 336.528 350.329H329.181C328.772 350.329 328.556 349.842 328.829 349.536L331.273 346.799C334.115 343.626 336.334 340.989 336.334 336.832C336.334 330.352 330.918 327 325.235 327C320.565 327 316.232 329.29 314.04 334.16C313.941 334.381 314.032 334.642 314.244 334.758L321.211 338.584C321.462 338.721 321.774 338.605 321.894 338.344C322.66 336.675 323.83 335.67 325.369 335.67C326.79 335.67 327.455 336.52 327.455 337.458C327.455 338.665 326.345 339.603 324.658 341.435L314.662 352.338C314.581 352.426 314.536 352.541 314.536 352.66V358.525Z" fill="#FFC727"/>
<path fill-rule="evenodd" clip-rule="evenodd" d="M309.414 365C309.149 365 308.935 364.784 308.935 364.516V351.306C308.935 351.184 308.98 351.067 309.062 350.978L316.265 343.086C316.476 342.855 316.415 342.484 316.142 342.333L307.25 337.428C307.034 337.309 306.942 337.045 307.037 336.816L308.657 332.892C311.704 325.508 318.226 322 324.928 322C328.747 322 332.749 323.122 335.911 325.659C339.202 328.298 341.325 332.287 341.325 337.218C341.325 340.316 340.48 342.861 339.294 345.015C339.111 345.346 339.343 345.763 339.717 345.763H341.521C341.786 345.763 342 345.98 342 346.247V364.516C342 364.784 341.786 365 341.521 365H309.414ZM331.049 347.369C331.537 346.822 332.007 346.29 332.452 345.763C334.628 343.183 336.181 340.734 336.181 337.218C336.181 330.617 330.689 327.203 324.928 327.203C321.694 327.203 318.619 328.29 316.287 330.56C315.739 331.093 315.233 331.69 314.775 332.354C314.326 333.004 313.925 333.718 313.576 334.496C313.475 334.722 313.567 334.986 313.783 335.105L321.207 339.201C321.27 339.235 321.349 339.206 321.377 339.138C321.378 339.135 321.378 339.133 321.379 339.13C321.569 338.657 321.787 338.229 322.034 337.852C322.109 337.738 322.186 337.628 322.267 337.523C322.992 336.574 323.928 336.034 325.063 336.034C326.503 336.034 327.178 336.899 327.178 337.855C327.178 338.825 326.477 339.625 325.342 340.835C325.274 340.908 325.204 340.982 325.133 341.057C325.11 341.082 325.086 341.108 325.063 341.133C325.031 341.166 324.999 341.2 324.968 341.234C324.77 341.445 324.561 341.668 324.342 341.907L314.206 353.012C314.124 353.101 314.079 353.219 314.079 353.34V359.313C314.079 359.581 314.293 359.798 314.558 359.798H336.377C336.641 359.798 336.856 359.581 336.856 359.313V351.45C336.856 351.183 336.641 350.966 336.377 350.966H328.927C328.513 350.966 328.294 350.47 328.571 350.158L331.049 347.369Z" fill="white"/>
<path d="M24.8135 654.414C24.477 654.296 24.3492 653.879 24.5791 653.605L29.122 648.236C29.1965 648.148 29.2374 648.035 29.2374 647.923V641.49C29.2374 641.221 29.0169 641 28.7441 641H8.39868C8.12588 641 7.90537 641.221 7.90537 641.49V649.452C7.90537 649.722 8.12588 649.943 8.39868 649.943H16.6196C17.0409 649.943 17.2683 650.433 16.995 650.751L13.5744 654.732C13.4304 654.899 13.4166 655.139 13.5399 655.321L16.8017 660.145C16.8934 660.277 17.0468 660.361 17.2111 660.361H18.9426C20.612 660.361 21.7249 661.052 21.7249 662.665C21.7249 664.185 20.612 665.062 18.9426 665.062C17.0602 665.062 15.8945 664.048 15.2418 662.292C15.1303 661.993 14.7771 661.851 14.4984 662.008L7.24582 666.146C7.03715 666.264 6.9444 666.519 7.03419 666.739C9.02122 671.637 13.5631 674 18.9426 674C25.435 674 31 670.593 31 663.126C31 658.669 28.4639 655.713 24.8135 654.414Z" fill="#FFC727"/>
<path fill-rule="evenodd" clip-rule="evenodd" d="M29.0984 648.038C29.0984 648.149 29.0584 648.261 28.9856 648.348L24.5461 653.65C24.3214 653.922 24.4463 654.333 24.7751 654.449C26.27 654.987 27.5731 655.81 28.5836 656.914C29.984 658.439 30.8209 660.497 30.8209 663.054C30.8209 670.429 25.3825 673.794 19.0377 673.794C15.519 673.794 12.3666 672.749 10.0844 670.608C9.78794 670.327 9.50591 670.032 9.2398 669.717C8.49449 668.831 7.87309 667.8 7.40016 666.623C7.31242 666.4 7.40305 666.153 7.60697 666.037L14.6946 661.95C14.967 661.795 15.3122 661.936 15.4211 662.231C15.72 663.044 16.1288 663.693 16.6678 664.158C16.8004 664.27 16.9402 664.371 17.0887 664.463C17.2203 664.546 17.3582 664.613 17.5028 664.676C17.9492 664.865 18.4588 664.967 19.0377 664.967C20.6691 664.967 21.7567 664.1 21.7567 662.599C21.7567 661.466 21.2086 660.793 20.3076 660.502C20.3056 660.497 20.3042 660.497 20.3023 660.497C20.1225 660.439 19.9282 660.396 19.7218 660.367C19.5068 660.338 19.2778 660.323 19.0377 660.323H17.3456C17.1851 660.323 17.0352 660.241 16.9455 660.11L13.7579 655.345C13.6374 655.166 13.6509 654.929 13.7917 654.764L17.1345 650.832C17.4015 650.517 17.1793 650.033 16.7676 650.033H8.73361C8.46702 650.033 8.25152 649.815 8.25152 649.549V641.685C8.25152 641.419 8.46702 641.201 8.73361 641.201H28.6163C28.8829 641.201 29.0984 641.419 29.0984 641.685V648.038ZM7.58624 655.452C7.49657 655.316 7.34665 655.239 7.18611 655.239H3.55405C3.28794 655.239 3.07196 655.021 3.07196 654.754V636.484C3.07196 636.218 3.28794 636 3.55405 636H33.7959C34.062 636 34.278 636.218 34.278 636.484V649.931C34.278 650.048 34.238 650.159 34.1652 650.246L32.2204 652.566C32.0585 652.759 32.0729 653.045 32.246 653.229C32.4875 653.486 32.7204 653.752 32.9445 654.028C34.9466 656.507 36 659.611 36 663.054C36 668.158 34.049 672.381 30.5828 675.223C27.2651 677.94 23.0511 679 19.0377 679C12.0104 679 5.16567 675.644 2.39078 668.027L1.02936 664.294C0.948851 664.071 1.03852 663.824 1.24196 663.708L9.35936 659.03C9.60185 658.89 9.67513 658.57 9.51942 658.338L7.58624 655.452Z" fill="white"/>
<path d="M16.1636 22C16.1061 22 16.0496 22.0101 15.9956 22.0297L7.32781 25.1898C7.0839 25.2786 6.94906 25.5421 7.01797 25.7947L8.91225 32.7525C8.98364 33.0132 9.24588 33.17 9.50566 33.107L14.0676 32.0011C14.3794 31.9255 14.6788 32.1645 14.6788 32.4888V54.4985C14.6788 54.7753 14.9009 55 15.1746 55H23.5042C23.7779 55 24 54.7753 24 54.4985V22.5015C24 22.2246 23.7779 22 23.5042 22H16.1636Z" fill="#FFC727"/>
<path fill-rule="evenodd" clip-rule="evenodd" d="M15.625 17.0292C15.6795 17.0099 15.7369 17 15.7944 17H29.5003C29.7761 17 30 17.2205 30 17.4926V59.5074C30 59.7793 29.7761 60 29.5003 60H10.3666C10.0908 60 9.86689 59.7793 9.86689 59.5074V39.3058C9.86689 38.9873 9.56506 38.7525 9.25075 38.8267L6.22454 39.5418C5.96219 39.6037 5.69785 39.4497 5.62589 39.1936L1.01811 22.702C0.94865 22.4539 1.08457 22.195 1.33042 22.1078L15.625 17.0292ZM14.6196 32.1161C14.9339 32.0419 15.2357 32.2767 15.2357 32.5952V54.215C15.2357 54.4869 15.4596 54.7076 15.7354 54.7076H24.1315C24.4073 54.7076 24.6312 54.4869 24.6312 54.215V22.7849C24.6312 22.5128 24.4073 22.2923 24.1315 22.2923H16.7323C16.6749 22.2923 16.6174 22.3022 16.5629 22.3215L7.82608 25.4255C7.58023 25.5128 7.44431 25.7716 7.51377 26.0198L9.42315 32.8543C9.49511 33.1103 9.75945 33.2644 10.0218 33.2025L14.6196 32.1161Z" fill="white"/>
</svg>
