<svg width="400" height="400" viewBox="0 0 400 400" fill="none" xmlns="http://www.w3.org/2000/svg">
<path d="M400 60C400 26.8629 373.137 0 340 0H60C26.8629 0 0 26.8629 0 60V340C0 373.137 26.8629 400 60 400H340C373.137 400 400 373.137 400 340V60Z" fill="#3B963E"/>
<path d="M203.512 133.319L223.724 165.081L200.625 180.962L219.393 185.293L259.818 193.956L268.48 154.975L274.255 134.762L248.268 150.643L219.393 103H187.631L150.094 165.081L174.637 179.518L203.512 133.319Z" fill="black"/>
<path d="M318.999 261.814L280.018 199.733L255.475 214.171L284.349 261.814H246.812V232.939L203.5 276.252L246.812 319.564V290.689H300.231L318.999 261.814Z" fill="black"/>
<path d="M122.65 261.813L142.862 228.607L167.406 244.488L154.412 183.851L113.987 193.957L95.2187 198.288L118.319 212.725L88 261.813L106.769 290.687H189.062V261.813H122.65Z" fill="black"/>
</svg>
