<svg width="269" height="314" viewBox="0 0 269 314" fill="none" xmlns="http://www.w3.org/2000/svg">
<path d="M226.055 256.509H143.257C133.256 256.467 124.814 247.928 124.844 237.911L125.724 29.1814C125.734 26.7992 126.212 24.4421 127.132 22.2449C128.052 20.0477 129.395 18.0534 131.085 16.3761C132.775 14.6987 134.779 13.3712 136.982 12.4693C139.185 11.5674 141.544 11.1088 143.924 11.1198L227.103 11.5069C229.481 11.517 231.835 11.9962 234.029 12.9169C236.222 13.8376 238.213 15.1819 239.888 16.873C241.562 18.5641 242.888 20.5688 243.788 22.7727C244.688 24.9766 245.146 27.3364 245.135 29.7174L244.255 238.447C244.245 240.83 243.767 243.187 242.847 245.384C241.928 247.581 240.584 249.575 238.894 251.253C237.204 252.93 235.2 254.258 232.997 255.16C230.794 256.061 228.436 256.52 226.055 256.509Z" fill="#263238"/>
<path d="M227.394 20.4059L211.265 20.3582C210.74 20.3675 210.221 20.4804 209.738 20.6905C209.256 20.9005 208.82 21.2036 208.455 21.5824C208.09 21.9612 207.803 22.4083 207.61 22.8982C207.418 23.3881 207.323 23.9111 207.333 24.4374V27.3673C207.35 28.4298 206.946 29.4559 206.209 30.2206C205.472 30.9853 204.462 31.4261 203.4 31.4465L171.963 31.2976C171.438 31.2837 170.92 31.1663 170.439 30.9519C169.959 30.7376 169.525 30.4305 169.163 30.0484C168.801 29.6662 168.518 29.2165 168.33 28.7248C168.142 28.233 168.052 27.709 168.067 27.1827V24.2588C168.092 23.195 167.696 22.1644 166.965 21.3922C166.233 20.62 165.226 20.1691 164.164 20.1379H158.494L144.376 20.0724C142.709 20.0653 141.058 20.3869 139.516 21.0187C137.973 21.6506 136.57 22.5803 135.387 23.7548C134.204 24.9293 133.263 26.3257 132.619 27.8641C131.975 29.4025 131.639 31.0528 131.632 32.7209L130.77 236.413C130.755 239.781 132.078 243.016 134.447 245.408C136.815 247.8 140.036 249.153 143.4 249.169L226.413 249.55C228.08 249.558 229.732 249.238 231.276 248.607C232.819 247.975 234.223 247.046 235.407 245.871C236.591 244.696 237.533 243.299 238.177 241.76C238.821 240.221 239.156 238.57 239.162 236.901L240.001 33.1615C240.014 29.7983 238.694 26.5672 236.331 24.1763C233.968 21.7853 230.754 20.4295 227.394 20.4059V20.4059Z" fill="#F5F5F5"/>
<path d="M156.668 134.747H158V56.9634H156.668V134.747Z" fill="#8C8C8C"/>
<path d="M153.323 112.688H163.309V99.0308H153.322V112.688H153.323Z" fill="#CC7A5A"/>
<path d="M153.32 99.0308H145.69V112.688H153.32V99.0308Z" fill="#A05B4B"/>
<path d="M158.127 103.609H159.738V99.0308H158.127V103.609Z" fill="#383838"/>
<path d="M146.631 109.998H152V106.327H146.631V109.998Z" fill="#191919"/>
<path d="M165.527 112.713H132.351V114.249H165.527V112.713Z" fill="#D1D1D1"/>
<path d="M132.349 112.713H141.148V114.249H132.349V112.713Z" fill="#B5B5B5"/>
<path d="M141.147 112.688H151.133V99.0308H141.146V112.688H141.147Z" fill="#CC7A5A"/>
<path d="M141.145 99.0308H133.514V112.688H141.145V99.0308Z" fill="#A05B4B"/>
<path d="M145.955 103.609H147.566V99.0308H145.955V103.609Z" fill="#383838"/>
<path d="M134.456 109.998H139.824V106.327H134.456V109.998Z" fill="#191919"/>
<path d="M153.323 130.894H163.309V117.238H153.322V130.894H153.323Z" fill="#CC7A5A"/>
<path d="M153.32 117.238H145.69V130.895H153.32V117.238Z" fill="#A05B4B"/>
<path d="M158.127 121.816H159.738V117.238H158.127V121.816Z" fill="#383838"/>
<path d="M146.631 128.204H152V124.533H146.631V128.204Z" fill="#191919"/>
<path d="M165.527 130.92H132.351V132.456H165.527V130.92Z" fill="#D1D1D1"/>
<path d="M132.349 130.92H141.148V132.456H132.349V130.92Z" fill="#B5B5B5"/>
<path d="M141.147 130.894H151.133V117.238H141.146V130.894H141.147Z" fill="#CC7A5A"/>
<path d="M141.145 117.238H133.514V130.895H141.145V117.238Z" fill="#A05B4B"/>
<path d="M145.955 121.816H147.566V117.238H145.955V121.816Z" fill="#383838"/>
<path d="M134.456 128.204H139.824V124.533H134.456V128.204Z" fill="#191919"/>
<path d="M153.323 77.1443H163.309V63.4873H153.322V77.1443H153.323Z" fill="#CC7A5A"/>
<path d="M153.32 63.4873H145.69V77.1443H153.32V63.4873Z" fill="#A05B4B"/>
<path d="M158.127 68.0651H159.738V63.4873H158.127V68.0651Z" fill="#383838"/>
<path d="M146.631 74.455H152V70.7837H146.631V74.455Z" fill="#191919"/>
<path d="M165.527 77.1694H132.351V78.7058H165.527V77.1694Z" fill="#D1D1D1"/>
<path d="M132.349 77.1694H141.148V78.7058H132.349V77.1694Z" fill="#B5B5B5"/>
<path d="M141.147 77.1443H151.133V63.4873H141.146V77.1443H141.147Z" fill="#CC7A5A"/>
<path d="M141.145 63.4873H133.514V77.1443H141.145V63.4873Z" fill="#A05B4B"/>
<path d="M145.955 68.0651H147.566V63.4873H145.955V68.0651Z" fill="#383838"/>
<path d="M134.456 74.455H139.824V70.7837H134.456V74.455Z" fill="#191919"/>
<path d="M141.155 95.3518H151.141V81.6948H141.154V95.3518H141.155Z" fill="#CC7A5A"/>
<path d="M141.157 95.3516H133.527V81.6946H141.157V95.3516Z" fill="#A05B4B"/>
<path d="M145.959 86.2726H147.57V81.6948H145.959V86.2726Z" fill="#383838"/>
<path d="M134.464 92.661H139.832V88.9897H134.464V92.661Z" fill="#191919"/>
<path d="M165.531 95.376H132.355V96.9123H165.531V95.376Z" fill="#D1D1D1"/>
<path d="M132.353 95.376H141.152V96.9123H132.353V95.376Z" fill="#B5B5B5"/>
<path d="M165.531 56.9888H132.355V58.5251H165.531V56.9888Z" fill="#D1D1D1"/>
<path d="M141.152 56.9888H132.353V58.5251H141.152V56.9888Z" fill="#B5B5B5"/>
<path d="M132.196 134.747H133.527V56.9634H132.196V134.747Z" fill="#8C8C8C"/>
<path d="M139.821 134.747H141.152V56.9634H139.821V134.747Z" fill="#8C8C8C"/>
<path d="M164.297 134.747H165.629V56.9634H164.297V134.747Z" fill="#8C8C8C"/>
<path d="M214.931 136.082H213.605V58.6328H214.931V136.082Z" fill="#8C8C8C"/>
<path d="M218.267 114.115H208.324V100.517H218.268V114.115H218.267Z" fill="#CC7A5A"/>
<path d="M218.266 100.517H225.863V114.115H218.266V100.517Z" fill="#A05B4B"/>
<path d="M213.479 105.075H211.875V100.517H213.479V105.075Z" fill="#383838"/>
<path d="M224.931 111.438H219.586V107.782H224.931V111.438Z" fill="#191919"/>
<path d="M206.109 114.141H239.143V115.671H206.109V114.141Z" fill="#D1D1D1"/>
<path d="M239.144 114.141H230.383V115.671H239.144V114.141Z" fill="#B5B5B5"/>
<path d="M230.38 114.115H220.438V100.517H230.381V114.115H230.38Z" fill="#CC7A5A"/>
<path d="M230.379 100.517H237.976V114.115H230.379V100.517Z" fill="#A05B4B"/>
<path d="M225.593 105.075H223.988V100.517H225.593V105.075Z" fill="#383838"/>
<path d="M237.045 111.438H231.699V107.782H237.045V111.438Z" fill="#191919"/>
<path d="M218.267 132.243H208.324V118.646H218.268V132.243H218.267Z" fill="#CC7A5A"/>
<path d="M218.266 118.646H225.863V132.244H218.266V118.646Z" fill="#A05B4B"/>
<path d="M213.479 123.204H211.875V118.646H213.479V123.204Z" fill="#383838"/>
<path d="M224.931 129.565H219.586V125.91H224.931V129.565Z" fill="#191919"/>
<path d="M206.109 132.27H239.143V133.8H206.109V132.27Z" fill="#D1D1D1"/>
<path d="M239.144 132.27H230.383V133.8H239.144V132.27Z" fill="#B5B5B5"/>
<path d="M230.38 132.243H220.438V118.646H230.381V132.243H230.38Z" fill="#CC7A5A"/>
<path d="M230.379 118.646H237.976V132.244H230.379V118.646Z" fill="#A05B4B"/>
<path d="M225.593 123.204H223.988V118.646H225.593V123.204Z" fill="#383838"/>
<path d="M237.045 129.565H231.699V125.91H237.045V129.565Z" fill="#191919"/>
<path d="M218.267 78.7267H208.324V65.1284H218.268V78.7267H218.267Z" fill="#CC7A5A"/>
<path d="M218.266 65.1284H225.863V78.7267H218.266V65.1284Z" fill="#A05B4B"/>
<path d="M213.479 69.6866H211.875V65.1284H213.479V69.6866Z" fill="#383838"/>
<path d="M224.935 76.0481H219.59V72.3926H224.935V76.0481Z" fill="#191919"/>
<path d="M206.109 78.7529H239.143V80.2827H206.109V78.7529Z" fill="#D1D1D1"/>
<path d="M239.144 78.7529H230.383V80.2827H239.144V78.7529Z" fill="#B5B5B5"/>
<path d="M230.38 78.7267H220.438V65.1284H230.381V78.7267H230.38Z" fill="#CC7A5A"/>
<path d="M230.379 65.1284H237.976V78.7267H230.379V65.1284Z" fill="#A05B4B"/>
<path d="M225.593 69.6866H223.988V65.1284H225.593V69.6866Z" fill="#383838"/>
<path d="M237.045 76.0491H231.699V72.3936H237.045V76.0491Z" fill="#191919"/>
<path d="M230.388 96.8556H220.445V83.2573H230.389V96.8556H230.388Z" fill="#CC7A5A"/>
<path d="M230.391 96.8564H237.988V83.2581H230.391V96.8564Z" fill="#A05B4B"/>
<path d="M225.6 87.8155H223.996V83.2573H225.6V87.8155Z" fill="#383838"/>
<path d="M237.052 94.1765H231.707V90.521H237.052V94.1765Z" fill="#191919"/>
<path d="M206.109 96.8804H239.143V98.4101H206.109V96.8804Z" fill="#D1D1D1"/>
<path d="M239.14 96.8804H230.379V98.4101H239.14V96.8804Z" fill="#B5B5B5"/>
<path d="M206.109 58.6567H239.143V60.1865H206.109V58.6567Z" fill="#D1D1D1"/>
<path d="M230.379 58.6567H239.14V60.1865H230.379V58.6567Z" fill="#B5B5B5"/>
<path d="M239.306 136.082H237.98V58.6328H239.306V136.082Z" fill="#8C8C8C"/>
<path d="M231.709 136.082H230.383V58.6328H231.709V136.082Z" fill="#8C8C8C"/>
<path d="M207.338 136.082H206.012V58.6328H207.338V136.082Z" fill="#8C8C8C"/>
<path d="M222.947 200.475H225.395V56.9634H222.947V200.475Z" fill="#8C8C8C"/>
<path d="M216.793 159.774H235.148V134.577H216.791V159.774H216.793Z" fill="#CC7A5A"/>
<path d="M216.793 134.577H202.767V159.774H216.793V134.577Z" fill="#A05B4B"/>
<path d="M225.632 143.023H228.594V134.577H225.632V143.023Z" fill="#383838"/>
<path d="M204.487 154.812H214.355V148.039H204.487V154.812Z" fill="#191919"/>
<path d="M239.238 159.82H178.254V162.655H239.238V159.82Z" fill="#D1D1D1"/>
<path d="M178.255 159.82H194.43V162.655H178.255V159.82Z" fill="#B5B5B5"/>
<path d="M194.429 159.774H212.785V134.577H194.428V159.774H194.429Z" fill="#CC7A5A"/>
<path d="M194.43 134.577H180.404V159.774H194.43V134.577Z" fill="#A05B4B"/>
<path d="M203.269 143.023H206.23V134.577H203.269V143.023Z" fill="#383838"/>
<path d="M182.124 154.812H191.992V148.039H182.124V154.812Z" fill="#191919"/>
<path d="M216.793 193.365H235.148V168.17H216.791V193.365H216.793Z" fill="#CC7A5A"/>
<path d="M216.793 168.17H202.767V193.367H216.793V168.17Z" fill="#A05B4B"/>
<path d="M225.632 176.616H228.594V168.17H225.632V176.616Z" fill="#383838"/>
<path d="M204.487 188.403H214.355V181.63H204.487V188.403Z" fill="#191919"/>
<path d="M239.238 193.414H178.254V196.248H239.238V193.414Z" fill="#D1D1D1"/>
<path d="M178.255 193.414H194.43V196.248H178.255V193.414Z" fill="#B5B5B5"/>
<path d="M194.429 193.365H212.785V168.17H194.428V193.365H194.429Z" fill="#CC7A5A"/>
<path d="M194.43 168.17H180.404V193.367H194.43V168.17Z" fill="#A05B4B"/>
<path d="M203.269 176.616H206.23V168.17H203.269V176.616Z" fill="#383838"/>
<path d="M182.124 188.403H191.992V181.63H182.124V188.403Z" fill="#191919"/>
<path d="M216.793 94.1968H235.148V68.9995H216.791V94.1968H216.793Z" fill="#CC7A5A"/>
<path d="M216.793 68.9995H202.767V94.1968H216.793V68.9995Z" fill="#A05B4B"/>
<path d="M225.632 77.4456H228.594V68.9995H225.632V77.4456Z" fill="#383838"/>
<path d="M204.487 89.235H214.355V82.4614H204.487V89.235Z" fill="#191919"/>
<path d="M239.238 94.2451H178.254V97.0797H239.238V94.2451Z" fill="#D1D1D1"/>
<path d="M178.255 94.2451H194.43V97.0797H178.255V94.2451Z" fill="#B5B5B5"/>
<path d="M194.429 94.1968H212.785V68.9995H194.428V94.1968H194.429Z" fill="#CC7A5A"/>
<path d="M194.43 68.9995H180.404V94.1968H194.43V68.9995Z" fill="#A05B4B"/>
<path d="M203.269 77.4456H206.23V68.9995H203.269V77.4456Z" fill="#383838"/>
<path d="M182.124 89.235H191.992V82.4614H182.124V89.235Z" fill="#191919"/>
<path d="M194.429 127.79H212.785V102.593H194.428V127.79H194.429Z" fill="#CC7A5A"/>
<path d="M194.428 127.79H180.402V102.592H194.428V127.79Z" fill="#A05B4B"/>
<path d="M203.269 111.039H206.23V102.593H203.269V111.039Z" fill="#383838"/>
<path d="M182.124 122.826H191.992V116.053H182.124V122.826Z" fill="#191919"/>
<path d="M239.242 127.836H178.258V130.671H239.242V127.836Z" fill="#D1D1D1"/>
<path d="M178.255 127.836H194.43V130.671H178.255V127.836Z" fill="#B5B5B5"/>
<path d="M239.242 57.0098H178.258V59.8443H239.242V57.0098Z" fill="#D1D1D1"/>
<path d="M194.43 57.0098H178.255V59.8443H194.43V57.0098Z" fill="#B5B5B5"/>
<path d="M177.958 200.475H180.406V56.9634H177.958V200.475Z" fill="#8C8C8C"/>
<path d="M191.982 200.475H194.43V56.9634H191.982V200.475Z" fill="#8C8C8C"/>
<path d="M236.97 200.475H239.418V56.9634H236.97V200.475Z" fill="#8C8C8C"/>
<path d="M116.086 119.156H116.871H117.464L117.804 118.47L118.277 119.156L118.921 117.742L119.529 119.156H121.275H122.074L122.363 118.216L122.632 119.156H123.148V110.235H116.086V119.156Z" fill="white"/>
<path d="M50.7406 273.743L49.5 262.134L62.7801 263.008C62.7801 263.008 62.5808 269.307 62.3944 272.875C62.2851 274.983 65.1262 278.898 65.1262 278.898C65.1262 278.898 58.8848 282.24 55.5422 281.07C52.1997 279.901 50.432 275.742 50.477 274.835C50.522 273.929 50.7406 273.743 50.7406 273.743Z" fill="#FFA8A7"/>
<path d="M82.7353 291.87C82.9474 291.87 83.2945 294.023 82.1696 294.962C80.8841 296.041 77.0273 297.854 71.9364 297.321C66.8455 296.787 64.0494 295.36 61.9796 293.798C59.9098 292.236 57.0237 290.031 54.7096 289.594C52.5563 289.189 50.2101 288.309 49.5223 287.717C48.8345 287.126 48.8795 284.355 48.8795 284.355L82.7353 291.87Z" fill="#263238"/>
<path d="M50.7389 273.716C50.559 273.724 50.3868 273.791 50.2494 273.908C50.1121 274.024 50.0174 274.183 49.9804 274.359C49.8326 275.118 49.6976 277.329 49.3826 278.582C48.9455 280.318 48.6884 283.872 48.9905 285.28C49.2926 286.688 52.8023 287.607 55.0456 288.365C57.6689 289.38 60.1275 290.777 62.3413 292.512C64.771 294.318 69.8362 296.156 73.1594 296.073C77.0933 295.983 81.5157 294.716 82.4863 292.994C83.7076 290.86 84.5818 288.391 78.7132 285.968C77.6011 285.505 73.6865 283.397 72.356 282.67C68.7499 280.626 66.2044 278.737 64.5011 275.04C64.3528 274.577 64.0484 274.18 63.6397 273.916C63.2776 273.782 62.8843 273.758 62.5084 273.845C61.5378 273.986 57.6746 274.552 56.794 274.963C56.0162 275.323 54.917 275.748 54.9492 276.686C54.972 277.014 55.0502 277.336 55.1806 277.637C55.2577 277.824 55.3156 278.081 55.1356 278.197C54.9556 278.312 54.7435 278.197 54.5892 278.062C54.0114 277.526 53.4762 276.945 52.9887 276.326C52.7107 276.001 52.3958 275.71 52.0502 275.458C51.7038 275.285 51.3689 275.089 51.0475 274.873C50.6875 274.571 50.7646 274.16 50.7389 273.716Z" fill="#455A64"/>
<path d="M62.3429 292.531C61.3144 291.766 60.2217 291.021 59.1289 290.365C59.1289 290.365 66.0453 294.145 68.7708 292.332C70.532 291.162 69.6643 289.761 69.6128 289.349C69.5614 288.938 75.8158 285.673 77.5449 285.448C78.027 285.692 78.4383 285.885 78.6955 285.994C84.5641 288.417 83.6899 290.886 82.4686 293.02C81.4787 294.743 78.2969 296.125 73.2125 296.234C69.9149 296.266 64.7726 294.338 62.3429 292.531Z" fill="#37474F"/>
<path d="M69.1577 288.058C72.8088 289.344 71.2725 289.987 70.2569 290.167C69.2413 290.347 63.0898 287.088 59.3295 284.382C55.402 281.573 52.9015 278.474 51.4488 277.446C50.9025 277.06 50.3175 276.584 49.7969 276.16C49.8804 275.408 49.9447 274.727 50.0154 274.373C50.0524 274.197 50.1471 274.038 50.2844 273.922C50.4218 273.805 50.594 273.738 50.7739 273.73C50.7739 274.174 50.7225 274.585 51.0825 274.907C51.4039 275.123 51.7388 275.318 52.0852 275.492C52.4308 275.743 52.7457 276.035 53.0237 276.359C53.5112 276.979 54.0464 277.559 54.6242 278.095C57.8189 281.785 65.4874 286.766 69.1577 288.058Z" fill="#37474F"/>
<path d="M69.9633 289.672C69.8805 289.674 69.7992 289.649 69.7319 289.601C69.6957 289.575 69.6654 289.542 69.6427 289.504C69.62 289.466 69.6055 289.423 69.6001 289.379C69.5946 289.335 69.5984 289.29 69.6111 289.248C69.6239 289.205 69.6453 289.166 69.674 289.132C70.6768 287.936 75.4591 285.076 78.1524 285.307C78.203 285.299 78.2548 285.303 78.3037 285.318C78.3527 285.333 78.3976 285.359 78.4349 285.394C78.4722 285.429 78.501 285.472 78.5189 285.52C78.5369 285.568 78.5435 285.619 78.5384 285.67C78.5333 285.721 78.5166 285.77 78.4895 285.814C78.4624 285.857 78.4257 285.894 78.3822 285.921C78.3386 285.948 78.2895 285.965 78.2385 285.97C78.1875 285.975 78.1361 285.968 78.0881 285.95C75.5941 285.744 71.0175 288.585 70.2397 289.524C70.2074 289.567 70.1659 289.603 70.1181 289.629C70.0703 289.654 70.0174 289.669 69.9633 289.672Z" fill="#263238"/>
<path d="M66.7693 287.904C66.6885 287.906 66.6093 287.881 66.5444 287.833C66.5083 287.807 66.4779 287.774 66.4552 287.736C66.4325 287.698 66.418 287.655 66.4126 287.611C66.4071 287.567 66.4109 287.522 66.4236 287.48C66.4364 287.437 66.4578 287.398 66.4865 287.364C67.4893 286.175 72.2716 283.314 74.9649 283.539C75.0097 283.542 75.0535 283.553 75.0939 283.573C75.1343 283.592 75.1705 283.619 75.2004 283.653C75.2302 283.686 75.2532 283.725 75.2679 283.767C75.2827 283.81 75.2889 283.855 75.2863 283.899C75.2751 283.992 75.2275 284.077 75.154 284.135C75.0805 284.192 74.9871 284.219 74.8942 284.208C72.4002 284.002 67.8235 286.837 67.0457 287.775C67.0125 287.816 66.9703 287.849 66.9224 287.872C66.8745 287.894 66.8222 287.905 66.7693 287.904V287.904Z" fill="#263238"/>
<path d="M63.5844 286.233C63.5032 286.238 63.423 286.213 63.3594 286.163C63.3216 286.138 63.2896 286.106 63.2657 286.067C63.2418 286.029 63.2266 285.986 63.2211 285.941C63.2156 285.897 63.2199 285.851 63.2338 285.808C63.2477 285.766 63.2709 285.726 63.3016 285.693C64.3043 284.504 69.0867 281.637 71.7736 281.869C71.8192 281.871 71.8638 281.883 71.905 281.902C71.9462 281.922 71.9831 281.95 72.0135 281.984C72.044 282.018 72.0674 282.058 72.0825 282.101C72.0976 282.144 72.104 282.189 72.1014 282.235C72.0886 282.327 72.0403 282.41 71.967 282.466C71.8937 282.523 71.8012 282.548 71.7093 282.537C69.2153 282.331 64.6386 285.166 63.8608 286.111C63.8256 286.149 63.7828 286.18 63.7353 286.201C63.6877 286.222 63.6364 286.233 63.5844 286.233V286.233Z" fill="#263238"/>
<path d="M60.6213 284.316C60.5405 284.319 60.4613 284.294 60.3963 284.246C60.36 284.219 60.3296 284.185 60.3068 284.147C60.2841 284.108 60.2695 284.065 60.2641 284.02C60.2587 283.976 60.2625 283.93 60.2753 283.887C60.2881 283.844 60.3096 283.804 60.3385 283.77C61.3412 282.581 66.1557 279.72 68.8169 279.952C68.8617 279.954 68.9055 279.965 68.9459 279.985C68.9863 280.004 69.0225 280.032 69.0523 280.065C69.0822 280.098 69.1051 280.137 69.1199 280.18C69.1347 280.222 69.1409 280.267 69.1383 280.312C69.127 280.405 69.0794 280.489 69.006 280.547C68.9325 280.605 68.8391 280.631 68.7462 280.62C66.2586 280.415 61.6755 283.243 60.8977 284.188C60.8642 284.228 60.8219 284.261 60.7741 284.283C60.7263 284.306 60.6741 284.317 60.6213 284.316V284.316Z" fill="#263238"/>
<path d="M57.7218 282.394C57.641 282.396 57.5618 282.371 57.4968 282.323C57.4594 282.299 57.4277 282.266 57.4038 282.228C57.38 282.19 57.3645 282.148 57.3584 282.103C57.3523 282.059 57.3558 282.014 57.3686 281.971C57.3813 281.928 57.4032 281.888 57.4325 281.854C58.8081 280.17 63.8604 277.759 66.5216 277.997C66.5664 278 66.6102 278.011 66.6506 278.03C66.691 278.05 66.7272 278.077 66.757 278.111C66.7869 278.144 66.8098 278.183 66.8246 278.225C66.8394 278.268 66.8456 278.313 66.843 278.357C66.8302 278.449 66.7822 278.533 66.7091 278.59C66.636 278.648 66.5435 278.675 66.4509 278.666C64.0469 278.46 59.2259 280.774 57.9982 282.272C57.9635 282.311 57.9208 282.342 57.8732 282.363C57.8255 282.384 57.7739 282.394 57.7218 282.394Z" fill="#263238"/>
<path d="M24.4764 280.069L27.5104 269.077L14.0118 266.982L13.369 277.62C13.369 277.62 11.9355 281.419 12.7262 282.82C13.5168 284.222 22.5416 285.803 23.3772 284.89C24.2128 283.977 24.4764 280.069 24.4764 280.069Z" fill="#FFA8A7"/>
<path d="M23.087 304.044C22.6435 307.45 21.8979 309.649 20.4002 311.481C18.9025 313.313 16.267 313.583 13.6766 312.638C11.0861 311.693 7.82076 309.649 7.24868 306.583C6.6766 303.517 6.96585 301.505 7.76291 298.4L23.087 304.044Z" fill="#263238"/>
<path d="M13.3769 277.619C12.2906 277.549 12.5091 282.228 11.5963 286.766C10.6129 291.626 8.81949 293.451 7.96458 297.43C6.99396 301.975 7.13537 304.083 8.79377 307.143C10.4522 310.203 16.7579 313.834 20.2097 310.254C23.0187 307.336 23.353 303.717 23.4237 299.05C23.4751 294.229 23.4751 290.829 23.9251 287.223C24.3493 283.777 25.3971 280.724 24.4843 280.203C24.3814 280.705 24.2657 281.341 24.1565 281.836C24.0793 282.209 23.8479 284.079 23.2437 284.015C23.2207 283.585 23.2444 283.154 23.3144 282.73C23.358 282.531 23.3606 282.325 23.3219 282.125C23.2832 281.925 23.2041 281.735 23.0894 281.566C22.5755 281.152 21.986 280.842 21.3539 280.653C20.2997 280.319 18.4163 279.901 17.3365 279.664C16.8029 279.548 16.263 279.451 15.7231 279.381C15.2646 279.316 14.7995 279.316 14.3411 279.381C14.2111 279.393 14.0856 279.434 13.9742 279.502C13.8628 279.57 13.7684 279.663 13.6983 279.773C13.6363 279.939 13.6058 280.116 13.6083 280.293C13.5894 280.614 13.5244 280.93 13.4154 281.232C13.364 281.36 13.2483 281.515 13.094 281.463C13.0393 281.435 12.9949 281.389 12.9673 281.334C12.9396 281.279 12.93 281.216 12.9398 281.155C12.9398 280.596 13.0748 280.197 13.1455 279.554C13.1776 279.252 13.2547 278.847 13.2805 278.545C13.3062 278.243 13.3383 277.915 13.3769 277.619Z" fill="#455A64"/>
<path d="M8.28636 296.145C8.13852 296.788 7.22576 301.139 8.53062 302.123C9.95119 303.19 10.9797 299.822 10.9797 299.822C10.9797 299.822 14.4893 299.359 19.3938 301.994C19.0852 302.676 19.7152 305.157 21.1229 304.842C22.5306 304.527 23.3855 299.526 23.3984 299.455C23.3277 303.955 22.9291 307.426 20.1844 310.261C16.7326 313.841 10.4204 310.203 8.76845 307.15C7.11648 304.096 6.96864 302.007 7.93925 297.437C8.08709 296.974 8.17065 296.55 8.28636 296.145Z" fill="#37474F"/>
<path d="M11.3553 300.167C11.2267 301.839 9.42689 301.022 9.46545 298.644C9.50402 296.266 11.3488 290.84 11.5931 286.765C11.9852 281.173 12.2873 277.547 13.3736 277.618C13.3736 277.676 13.3736 277.734 13.3736 277.792L13.0844 280.119C13.0263 280.448 12.9855 280.781 12.9622 281.115C12.718 284.535 12.583 291.175 12.0559 294.26C11.6996 296.213 11.4655 298.186 11.3553 300.167V300.167Z" fill="#37474F"/>
<path d="M18.8135 301.858C19.4031 299.977 19.8712 298.06 20.2148 296.118C20.7869 293.065 22.696 286.971 23.6473 283.693C23.9018 283.095 24.0748 282.466 24.1615 281.823C24.2644 281.366 24.3672 280.781 24.4701 280.299C24.4672 280.265 24.4672 280.231 24.4701 280.196C25.1129 280.582 24.8622 283.224 24.4701 284.593C24.078 285.962 23.6537 287.428 23.1845 289.388C22.0082 293.245 21.8154 299.075 21.0633 301.299C20.3112 303.523 18.3764 303.459 18.8135 301.858Z" fill="#37474F"/>
<path d="M19.4965 302.135C19.4452 302.128 19.3965 302.108 19.3551 302.077C16.8365 300.644 13.9556 299.974 11.0631 300.148C10.9594 300.16 10.8551 300.133 10.769 300.074C10.683 300.016 10.6208 299.928 10.5938 299.827C10.5833 299.78 10.5833 299.732 10.5939 299.685C10.6044 299.639 10.6252 299.595 10.6548 299.558C10.6843 299.52 10.7219 299.489 10.7647 299.468C10.8075 299.447 10.8546 299.436 10.9024 299.435C13.994 299.217 17.0802 299.927 19.7664 301.473C19.8096 301.495 19.8477 301.527 19.8781 301.565C19.9086 301.603 19.9309 301.647 19.9436 301.694C19.9563 301.741 19.9591 301.79 19.9518 301.838C19.9446 301.886 19.9274 301.933 19.9014 301.974C19.8586 302.039 19.7968 302.089 19.7243 302.118C19.6519 302.147 19.5723 302.153 19.4965 302.135V302.135Z" fill="#263238"/>
<path d="M20.6272 298.618C20.5812 298.611 20.5373 298.593 20.4987 298.567C17.6432 297.061 14.4434 296.327 11.2168 296.439C11.1126 296.447 11.0091 296.418 10.9245 296.357C10.8398 296.295 10.7794 296.206 10.754 296.105C10.7466 296.058 10.7495 296.009 10.7626 295.963C10.7756 295.917 10.7985 295.874 10.8296 295.837C10.8607 295.801 10.8993 295.771 10.9428 295.751C10.9864 295.73 11.0338 295.72 11.0818 295.719C14.4924 295.58 17.8777 296.36 20.8844 297.976C20.9284 297.997 20.9676 298.028 20.9997 298.065C21.0317 298.102 21.056 298.146 21.0709 298.192C21.0859 298.239 21.0914 298.288 21.0869 298.337C21.0825 298.386 21.0682 298.434 21.0451 298.477C20.9982 298.54 20.9331 298.588 20.8584 298.613C20.7837 298.639 20.703 298.64 20.6272 298.618V298.618Z" fill="#263238"/>
<path d="M11.7002 293.021C11.6258 293.004 11.5567 292.969 11.4994 292.918C11.4422 292.868 11.3985 292.803 11.3724 292.732C11.359 292.685 11.3559 292.637 11.3634 292.589C11.3708 292.542 11.3887 292.496 11.4157 292.456C11.4427 292.416 11.4782 292.383 11.5196 292.358C11.561 292.334 11.6073 292.319 11.6552 292.314C16.5983 291.517 21.2521 294.364 21.4449 294.487C21.4894 294.508 21.5288 294.538 21.5605 294.576C21.5922 294.614 21.6155 294.658 21.6289 294.705C21.6423 294.753 21.6454 294.802 21.6381 294.851C21.6307 294.9 21.6131 294.947 21.5864 294.988C21.5191 295.065 21.4261 295.116 21.3244 295.13C21.2228 295.144 21.1194 295.121 21.0336 295.065C20.9886 295.065 16.4698 292.282 11.8674 293.027C11.8117 293.035 11.7552 293.033 11.7002 293.021Z" fill="#263238"/>
<path d="M12.1788 289.794C12.1059 289.779 12.038 289.746 11.9817 289.698C11.9254 289.65 11.8825 289.587 11.8574 289.518C11.8416 289.472 11.8364 289.423 11.8421 289.375C11.8477 289.327 11.8641 289.281 11.8901 289.24C11.916 289.2 11.9508 289.165 11.9919 289.14C12.033 289.114 12.0793 289.098 12.1273 289.093C15.6106 288.572 19.1642 289.345 22.1163 291.266C22.1589 291.289 22.1959 291.322 22.225 291.361C22.2541 291.4 22.2745 291.444 22.2848 291.492C22.2952 291.539 22.2952 291.588 22.285 291.636C22.2748 291.683 22.2545 291.728 22.2256 291.767C22.1546 291.843 22.058 291.889 21.9546 291.898C21.8513 291.906 21.7485 291.876 21.6663 291.812C21.6214 291.812 17.4175 288.9 12.3587 289.8C12.299 289.811 12.2376 289.809 12.1788 289.794Z" fill="#263238"/>
<path d="M12.7414 286.175C12.6693 286.161 12.6018 286.129 12.5456 286.082C12.4893 286.035 12.4461 285.974 12.42 285.905C12.4044 285.86 12.399 285.811 12.4043 285.763C12.4096 285.715 12.4254 285.669 12.4505 285.628C12.4757 285.587 12.5096 285.552 12.5499 285.525C12.5902 285.499 12.6358 285.481 12.6836 285.475C17.7873 284.498 22.544 287.621 22.7432 287.756C22.7863 287.779 22.824 287.811 22.8537 287.85C22.8834 287.889 22.9045 287.933 22.9154 287.981C22.9264 288.028 22.927 288.078 22.9173 288.125C22.9075 288.173 22.8876 288.218 22.8589 288.258C22.7905 288.337 22.6946 288.386 22.5907 288.397C22.4869 288.408 22.3829 288.379 22.2997 288.316C22.2547 288.284 17.6652 285.269 12.9214 286.182C12.8616 286.192 12.8003 286.19 12.7414 286.175V286.175Z" fill="#263238"/>
<path d="M21.6502 163.948C19.0791 190.913 17.9349 227.867 17.9349 227.867C17.7164 229.918 16.2379 233.402 15.1002 243.5C13.8789 254.183 13.8789 269.224 13.8789 269.224C13.8789 269.224 20.9496 273.338 26.9018 271.429C26.9018 271.429 32.7962 247.832 36.0359 235.311C39.102 223.464 43.4216 205.402 43.4216 205.402L46.6355 223.361C46.6355 223.361 46.0956 231.075 46.2241 236.442C46.3784 242.709 49.8816 266.743 49.8816 266.743C49.8816 266.743 56.8687 271.442 63.0717 266.743C63.0717 266.743 64.9165 231.615 65.2186 224.081C65.81 209.297 65.7007 180.635 65.5079 161.544L21.6502 163.948Z" fill="#37474F"/>
<path d="M43.4023 205.401L46.7706 186.246C46.7706 186.246 53.9313 185.308 57.6466 182.004C57.6466 182.004 55.2104 186.42 48.4418 188.04L45.125 205.479L46.6034 223.361L43.4023 205.401Z" fill="#263238"/>
<path d="M13.6875 269.521C15.1338 271.552 21.6581 273.68 26.9676 271.938L27.9575 267.798C23.9464 269.019 17.03 267.676 13.8161 265.002L13.6875 269.521Z" fill="#F9B300"/>
<path d="M49.8026 267.373C51.5702 269.121 58.191 270.079 63.1276 267.424L63.3719 263.182C59.6372 265.11 52.8108 265.11 49.2305 263.015L49.8026 267.373Z" fill="#F9B300"/>
<path d="M102.371 155.393C98.0256 152.423 78.3883 140.281 78.3883 140.281C78.3883 140.281 71.3819 126.403 68.8622 121.074C65.5197 114.003 64.0927 111.683 56.887 110.262L51.4297 127.02C51.4297 127.02 62.3571 143.764 64.594 147.589C66.831 151.414 67.7052 152.384 72.179 154.313C81.6087 158.382 93.3911 162.193 94.5674 163.787L102.371 155.393Z" fill="#FFBF9D"/>
<path d="M56.873 109.972C63.5966 111.54 64.7857 112.768 67.0355 116.625C69.2853 120.481 74.9033 132.489 74.9033 132.489C74.9033 132.489 75.636 131.994 77.2687 135.87C78.9014 139.746 78.3936 140.273 78.3936 140.273C77.2263 140.206 76.0572 140.371 74.9539 140.758C73.8506 141.145 72.835 141.747 71.9657 142.529C68.996 145.184 66.3863 150.345 66.3863 150.345C66.3863 150.345 65.6856 149.953 63.9694 147.504C62.2531 145.055 50.9336 127.044 50.9336 127.044L56.873 109.972Z" fill="#E0E0E0"/>
<path opacity="0.1" d="M67.2853 136.276C68.2404 135.552 69.2654 134.925 70.345 134.405C70.8657 134.148 71.4056 133.91 71.9455 133.704C72.5709 133.535 73.1832 133.32 73.7775 133.062C73.9382 132.978 73.7775 132.702 73.6425 132.708C72.9639 132.778 72.2991 132.947 71.6692 133.209C71.0316 133.431 70.4071 133.689 69.7986 133.981C68.5915 134.543 67.4617 135.258 66.4368 136.108C64.5856 137.664 62.8886 139.965 63.1329 142.536C63.1329 142.646 63.2807 142.774 63.3193 142.607C63.5993 141.309 64.097 140.068 64.7913 138.937C65.4651 137.914 66.3085 137.014 67.2853 136.276V136.276ZM74.6003 136.141C74.0164 136.15 73.4374 136.25 72.884 136.436C72.3308 136.583 71.7858 136.759 71.2513 136.963C70.1407 137.391 69.0854 137.949 68.1081 138.628C67.1849 139.267 66.3691 140.048 65.6912 140.942C65.3419 141.434 65.0689 141.976 64.8813 142.549C64.6596 143.135 64.5127 143.746 64.4442 144.368C64.4442 144.42 64.5085 144.503 64.5535 144.433C64.8427 143.931 64.997 143.308 65.2348 142.774C65.4799 142.21 65.7906 141.678 66.1604 141.187C66.8648 140.302 67.7044 139.534 68.648 138.911C69.5489 138.298 70.5173 137.791 71.5342 137.4C72.042 137.201 72.5562 137.015 73.0833 136.854C73.6211 136.744 74.1465 136.58 74.6517 136.366C74.6704 136.35 74.6844 136.33 74.6923 136.308C74.7001 136.285 74.7014 136.261 74.6961 136.237C74.6907 136.214 74.6789 136.192 74.662 136.175C74.645 136.158 74.6237 136.146 74.6003 136.141V136.141Z" fill="black"/>
<path d="M106.883 155.392L87.6445 170.305L100.513 175.563L119.752 160.65L106.883 155.392Z" fill="#F9B300"/>
<path d="M106.883 155.392L87.6445 170.305L100.513 175.563L119.752 160.65L106.883 155.392Z" fill="#D86159"/>
<path d="M100.526 175.563L87.6445 170.305L88.6023 177.183L101.484 182.441L100.526 175.563Z" fill="#F9B300"/>
<path opacity="0.98" d="M100.526 175.563L87.6445 170.305L88.6023 177.183L101.484 182.441L100.526 175.563Z" fill="#D86159"/>
<path d="M120.725 167.528L119.754 160.65L100.516 175.563L101.486 182.441L120.725 167.528Z" fill="#D86159"/>
<path d="M108.32 165.979C107.677 165.182 106.855 164.469 106.758 164.584C106.662 164.7 106.758 164.713 107.093 165.227C107.459 165.83 107.744 166.478 107.941 167.156C108.073 167.653 108.176 168.157 108.25 168.666L108.436 169.791C108.661 171.147 108.886 172.504 108.976 173.873C109.001 174.121 108.977 174.373 108.905 174.612C108.629 175.203 108.102 175.255 107.414 175.12C106.785 174.939 106.239 174.543 105.871 174.001C105.51 173.327 105.25 172.604 105.1 171.854C104.92 171.212 104.727 170.569 104.508 169.926C104.332 169.351 104.088 168.799 103.782 168.28C103.231 167.512 102.537 166.857 101.738 166.352C100.999 165.838 100.234 165.349 99.4497 164.899C98.6655 164.449 97.4635 163.614 96.7243 163.292L94.5067 165.009C93.2211 163.022 89.1844 161.467 89.1844 161.467C89.043 156.871 92.1155 151.504 97.245 150.437C99.1733 152.526 100.099 153.291 101.796 154.293C102.915 154.841 104.063 155.328 105.235 155.752C107.375 156.594 110.024 157.437 111.38 158.124C112.156 158.497 112.873 158.982 113.508 159.564C115.275 161.055 115.777 161.37 116.304 162.399C116.694 163.371 116.972 164.385 117.133 165.42C117.274 166.268 117.538 167.76 117.319 167.94C117.111 168.063 116.868 168.114 116.629 168.083C116.389 168.053 116.166 167.944 115.995 167.773C115.631 167.395 115.36 166.937 115.205 166.436C115.14 166.307 114.941 165.793 114.825 165.561C115.002 166.336 115.105 167.126 115.134 167.92C115.178 168.651 114.986 169.377 114.587 169.99C114.471 170.127 114.323 170.232 114.155 170.297C113.988 170.362 113.808 170.385 113.63 170.363C113.718 170.968 113.718 171.583 113.63 172.189C113.553 172.317 113.444 172.422 113.313 172.494C113.181 172.565 113.033 172.599 112.884 172.594C112.523 172.617 112.161 172.545 111.837 172.384C111.512 172.224 111.235 171.982 111.033 171.681C110.39 170.755 110.39 169.521 110.036 168.467C109.603 167.55 109.023 166.71 108.32 165.979V165.979Z" fill="#455A64"/>
<path d="M113.613 170.363C113.459 169.45 113.35 168.531 113.163 167.625C113.116 167.406 113.054 167.192 112.977 166.982C112.89 166.772 112.789 166.568 112.675 166.371L112.032 165.15C111.813 164.745 111.588 164.34 111.344 163.948C111.06 163.59 110.729 163.273 110.361 163.003C109.641 162.437 108.895 161.878 108.117 161.383C108.926 161.837 109.699 162.35 110.431 162.92C110.816 163.19 111.162 163.513 111.46 163.877C111.717 164.263 111.942 164.668 112.173 165.073C112.405 165.478 112.63 165.876 112.816 166.294C112.926 166.503 113.025 166.717 113.112 166.937C113.185 167.16 113.243 167.388 113.285 167.618C113.448 168.526 113.557 169.443 113.613 170.363V170.363Z" fill="#263238"/>
<path d="M114.799 165.561C114.614 164.966 114.389 164.384 114.124 163.819C113.901 163.245 113.552 162.729 113.102 162.309C112.626 161.923 112.112 161.563 111.604 161.19L110.094 160.078C111.174 160.716 112.217 161.416 113.218 162.174C113.469 162.377 113.676 162.628 113.828 162.913C113.986 163.186 114.125 163.47 114.246 163.761C114.488 164.342 114.673 164.945 114.799 165.561V165.561Z" fill="#263238"/>
<path d="M104.266 156.343C102.807 156.343 99.1241 159.364 99.1883 160.528C99.2526 161.563 102.087 163.832 102.981 163.549C103.874 163.266 108.226 158.921 108.766 158.304C109.306 157.687 104.928 156.356 104.266 156.343Z" fill="#37474F"/>
<path d="M33.9285 108.179C31.2352 108.738 19.5557 113.412 16.451 115.141C15.9556 123.092 16.4979 131.074 18.0644 138.885C18.6622 141.636 20.6356 149.247 21.0084 155.09C21.4776 162.964 21.4455 164.86 21.2205 169.051C21.2205 169.051 26.7292 175.814 45.9358 174.361C61.0221 173.23 65.5538 167.033 65.5538 167.033C65.5538 167.033 65.4895 146.682 65.0974 135.536C64.5767 120.926 60.1543 112.499 56.9018 109.947L47.0028 108.295L33.9285 108.179Z" fill="#EBEBEB"/>
<path d="M29.3589 109.663L24.8594 111.418C28.1376 114.323 31.4994 124.505 32.515 131.042L37.1881 129.467C36.1468 122.93 32.6371 112.568 29.3589 109.663Z" fill="#455A64"/>
<path d="M55.2856 109.696L50.0469 108.834C53.3251 111.74 56.7512 121.896 57.7604 128.433L62.5684 128.684C61.5593 122.147 58.5703 112.601 55.2856 109.696Z" fill="#455A64"/>
<path d="M27.3711 172.773C29.3959 173.242 32.8477 171.783 32.5134 161.543C32.1792 151.303 30.1222 131.743 30.1222 131.743C30.1222 131.743 40.1819 127.925 50.0487 127.128C59.9156 126.331 64.3573 127.256 64.3573 127.256C65.7264 134.179 65.8357 158.355 65.5979 170.568C52.4399 178.673 31.5171 175.839 27.3711 172.773Z" fill="#37474F"/>
<path d="M39.7461 135.382C41.2445 134.814 42.7828 134.356 44.3485 134.013C45.9149 133.655 47.501 133.388 49.0987 133.216C50.6947 133.035 52.3009 132.96 53.9068 132.991C55.5101 133.008 57.1094 133.154 58.6891 133.428C57.8856 133.428 57.095 133.364 56.298 133.428H55.1024L53.9132 133.473C52.3255 133.544 50.7378 133.647 49.163 133.833C47.5881 134.02 46.0133 134.232 44.4385 134.476C43.6543 134.605 42.8701 134.746 42.0923 134.907C41.3145 135.067 40.5303 135.209 39.7461 135.382Z" fill="#263238"/>
<path d="M58.6838 133.428C58.8597 134.689 58.8877 135.966 58.7674 137.234C58.648 138.533 58.1818 139.776 57.4176 140.833C56.5817 141.853 55.4639 142.604 54.2036 142.993C52.975 143.386 51.7041 143.632 50.4176 143.726C49.1282 143.823 47.8317 143.752 46.5608 143.514C45.2763 143.287 44.0553 142.787 42.9805 142.048C41.9145 141.298 41.0653 140.281 40.5186 139.098C40.0047 137.926 39.7377 136.661 39.7344 135.382C39.8515 136.634 40.2072 137.851 40.7821 138.969C41.3532 140.066 42.1993 140.997 43.2376 141.669C45.3202 143.012 47.9042 143.327 50.3661 143.128C51.6044 143.06 52.8302 142.844 54.0172 142.485C55.1881 142.137 56.2388 141.469 57.0512 140.557C57.8183 139.587 58.3091 138.427 58.4717 137.201C58.669 135.954 58.74 134.69 58.6838 133.428Z" fill="#263238"/>
<path d="M36.7684 133.383C36.7684 133.652 36.6885 133.916 36.5387 134.14C36.389 134.364 36.1762 134.539 35.9272 134.642C35.6782 134.745 35.4042 134.772 35.1398 134.719C34.8755 134.667 34.6327 134.537 34.4421 134.346C34.2515 134.156 34.1217 133.913 34.0692 133.649C34.0166 133.384 34.0436 133.11 34.1467 132.861C34.2498 132.612 34.4245 132.399 34.6486 132.25C34.8727 132.1 35.1362 132.02 35.4057 132.02C35.5849 132.019 35.7625 132.054 35.9282 132.122C36.0939 132.19 36.2445 132.291 36.3712 132.417C36.4979 132.544 36.5982 132.695 36.6664 132.86C36.7346 133.026 36.7693 133.204 36.7684 133.383V133.383Z" fill="#263238"/>
<path d="M61.995 130.047C61.995 130.316 61.915 130.58 61.7653 130.804C61.6156 131.028 61.4027 131.203 61.1537 131.306C60.9047 131.409 60.6307 131.436 60.3664 131.383C60.1021 131.331 59.8592 131.201 59.6687 131.01C59.4781 130.82 59.3483 130.577 59.2957 130.313C59.2431 130.048 59.2701 129.774 59.3733 129.525C59.4764 129.276 59.6511 129.063 59.8752 128.914C60.0993 128.764 60.3627 128.684 60.6323 128.684C60.9937 128.684 61.3403 128.828 61.5958 129.083C61.8514 129.339 61.995 129.685 61.995 130.047V130.047Z" fill="#263238"/>
<path d="M19.1276 114.055C14.1395 115.675 11.864 117.429 10.0192 122.064C7.86587 127.502 1.38012 150.09 0.531632 153.162C-0.316851 156.235 -0.503258 158.793 2.70427 160.876C5.91179 162.958 26.7318 169.56 31.3277 171.032L36.7657 160.978L17.5913 151.844L22.7336 137.137C22.7336 137.137 27.4067 117.654 19.1276 114.055Z" fill="#FFBF9D"/>
<path d="M46.8173 176.406C46.8852 176.626 47.0112 176.824 47.182 176.979C47.3527 177.134 47.562 177.24 47.7879 177.287L59.146 178.636C59.4837 178.676 59.8259 178.65 60.1532 178.558C60.4805 178.465 60.7864 178.31 61.0535 178.099C61.3207 177.889 61.5437 177.628 61.71 177.331C61.8762 177.035 61.9824 176.708 62.0225 176.371C62.0626 176.033 62.0358 175.691 61.9436 175.363C61.8515 175.036 61.6957 174.73 61.4853 174.463C61.2749 174.196 61.014 173.973 60.7174 173.807C60.4208 173.64 60.0943 173.534 59.7567 173.494L48.405 172.151C48.172 172.143 47.9412 172.198 47.7374 172.312C47.5336 172.425 47.3644 172.591 47.248 172.793C46.8985 173.32 46.6774 173.921 46.6026 174.548C46.5278 175.176 46.6013 175.812 46.8173 176.406V176.406Z" fill="#F9B300"/>
<path opacity="0.15" d="M46.822 176.405C46.4757 175.47 46.4871 174.44 46.8542 173.513C46.5842 174.798 46.8542 175.756 49.4253 176.084C51.9965 176.412 57.6402 177.093 58.7329 177.215C59.8257 177.337 61.7476 177.17 61.9469 175.229C62.0888 175.604 62.1374 176.007 62.0883 176.405C62.0425 176.748 61.9293 177.079 61.7555 177.378C61.5816 177.677 61.3504 177.939 61.0751 178.149C60.7998 178.358 60.4858 178.511 60.1512 178.599C59.8166 178.687 59.4678 178.708 59.125 178.661L47.7669 177.312C47.5427 177.259 47.3367 177.147 47.1705 176.988C47.0042 176.828 46.8839 176.627 46.822 176.405V176.405Z" fill="black"/>
<path d="M61.104 175.364C60.9302 175.619 60.8203 175.912 60.7834 176.219C60.7465 176.525 60.7837 176.836 60.8919 177.125C60.9269 177.23 60.9885 177.325 61.0707 177.399C61.1529 177.473 61.2529 177.525 61.3611 177.549L62.216 177.646L62.5117 175.158L61.6632 175.062C61.5518 175.059 61.4417 175.086 61.3436 175.139C61.2456 175.192 61.163 175.269 61.104 175.364Z" fill="#F0F0F0"/>
<path d="M61.753 177.222C61.777 177.332 61.8349 177.432 61.9186 177.507C62.0022 177.583 62.1074 177.63 62.2194 177.643C62.3314 177.656 62.4445 177.633 62.543 177.578C62.6415 177.523 62.7204 177.439 62.7686 177.337C62.9402 177.082 63.0484 176.79 63.0842 176.485C63.12 176.18 63.0823 175.87 62.9743 175.583C62.9511 175.472 62.8939 175.372 62.8107 175.295C62.7274 175.219 62.6224 175.171 62.5103 175.157C62.3982 175.144 62.2847 175.166 62.1857 175.22C62.0868 175.274 62.0074 175.359 61.9587 175.46C61.7889 175.717 61.6818 176.011 61.6461 176.317C61.6104 176.622 61.647 176.932 61.753 177.222V177.222Z" fill="#E0E0E0"/>
<path d="M61.9722 176.926C61.9062 176.739 61.8841 176.54 61.9075 176.344C61.9309 176.148 61.9992 175.96 62.1072 175.794C62.1447 175.729 62.2009 175.677 62.2684 175.643C62.3359 175.61 62.4118 175.598 62.4864 175.608L64.5755 175.865C65.5144 175.983 66.4059 176.345 67.1606 176.916C67.9154 177.487 68.5068 178.246 68.8757 179.118L69.4864 180.564C69.8245 181.364 70.3671 182.062 71.0598 182.586C71.7525 183.111 72.571 183.444 73.4331 183.553L75.1237 183.765L74.9244 185.359L73.2339 185.147C72.0916 185.002 71.0073 184.56 70.0891 183.866C69.171 183.171 68.4512 182.247 68.0015 181.187L67.3909 179.741C67.1324 179.13 66.7179 178.597 66.1888 178.197C65.6597 177.796 65.0346 177.542 64.3762 177.459L62.2743 177.202C62.2033 177.188 62.1376 177.155 62.0843 177.106C62.031 177.058 61.9922 176.995 61.9722 176.926V176.926Z" fill="#E0E0E0"/>
<path d="M68.6113 189.429L76.6398 178.817C76.9061 178.475 77.2906 178.246 77.7175 178.173C78.1445 178.1 78.5832 178.19 78.9474 178.424L93.6352 186.138C93.8289 186.251 93.987 186.415 94.0915 186.614C94.1237 186.691 94.2394 186.993 94.2715 187.064C94.4065 187.385 94.1751 187.655 93.5837 187.764L69.4148 190.85C68.9456 190.933 68.6563 190.85 68.5663 190.638C68.5278 190.56 68.4056 190.258 68.3735 190.181C68.2964 190.027 68.3671 189.757 68.6113 189.429Z" fill="#E0E0E0"/>
<path opacity="0.15" d="M68.6113 189.429L76.6398 178.817C76.9061 178.475 77.2906 178.246 77.7175 178.173C78.1445 178.1 78.5832 178.19 78.9474 178.424L93.6352 186.138C93.8289 186.251 93.987 186.415 94.0915 186.614C94.1237 186.691 94.2394 186.993 94.2715 187.064C94.4065 187.385 94.1751 187.655 93.5837 187.764L69.4148 190.85C68.9456 190.933 68.6563 190.85 68.5663 190.638C68.5278 190.56 68.4056 190.258 68.3735 190.181C68.2964 190.027 68.3671 189.757 68.6113 189.429Z" fill="black"/>
<path d="M76.635 178.816L68.6066 189.429C68.0731 190.142 68.3495 190.586 69.2494 190.425L93.4183 187.339C94.2925 187.179 94.4018 186.652 93.6626 186.163L78.9748 178.45C78.6109 178.203 78.167 178.104 77.7327 178.172C77.2984 178.24 76.9061 178.47 76.635 178.816Z" fill="#FAFAFA"/>
<path d="M78.01 178.334C78.3164 178.332 78.6163 178.421 78.8714 178.591L93.5399 186.305C93.8291 186.497 93.9898 186.703 93.9577 186.851C93.9255 186.999 93.7006 187.127 93.3663 187.185L69.191 190.271C69.0935 190.29 68.9946 190.301 68.8953 190.303C68.7796 190.303 68.5739 190.303 68.516 190.161C68.4582 190.02 68.516 189.801 68.7346 189.518L76.763 178.906C76.9094 178.715 77.0982 178.56 77.3146 178.454C77.531 178.348 77.7691 178.294 78.01 178.295M78.01 178.135C77.7468 178.129 77.4858 178.184 77.2473 178.296C77.0088 178.407 76.7991 178.572 76.6345 178.777L68.606 189.39C68.1432 190.033 68.2846 190.418 68.8953 190.418C69.0031 190.416 69.1106 190.406 69.2167 190.386L93.3856 187.301C94.2598 187.14 94.3691 186.613 93.6299 186.125L78.9421 178.411C78.6655 178.229 78.3412 178.133 78.01 178.135V178.135Z" fill="#E0E0E0"/>
<path d="M30.8267 156.697C33.2693 158.394 35.3262 159.769 37.2546 160.438C44.1839 162.848 45.6623 163.465 48.1435 165.284C49.8726 166.57 58.1517 177.093 57.5282 178.442C56.9047 179.792 54.3593 179.182 53.1058 178.262C51.8508 177.223 50.6595 176.109 49.5383 174.926C49.5383 174.926 51.1839 177.767 49.8405 178.783C48.0406 180.152 47.0765 178.783 47.0765 178.783C47.0765 178.783 47.8285 180.069 46.1508 180.872C45.7124 181.115 45.2041 181.2 44.7105 181.114C44.2169 181.027 43.7679 180.774 43.4383 180.396C43.4383 180.396 44.2289 182.048 41.8249 182.421C39.5879 182.768 36.3226 177.555 34.8506 174.309C33.3786 171.063 26.34 170.71 26.34 170.71C24.4502 166.699 25.7101 158.869 30.8267 156.697Z" fill="#455A64"/>
<path d="M43.4404 180.391C42.8533 179.766 42.4719 178.976 42.3477 178.128C42.6416 178.435 42.8827 178.789 43.0612 179.176C43.2527 179.557 43.3808 179.968 43.4404 180.391Z" fill="#263238"/>
<path d="M47.0748 178.777C46.3955 178.035 45.9214 177.129 45.6992 176.148C46.0425 176.513 46.3305 176.927 46.5541 177.376C46.7938 177.815 46.9691 178.287 47.0748 178.777V178.777Z" fill="#263238"/>
<path d="M38.6858 164.315C37.9402 164.501 35.1826 169.168 35.1119 169.759C35.0412 170.351 36.4746 172.973 36.9696 173.764C37.4645 174.555 44.7602 165.768 43.481 165.17C41.9614 164.548 40.3268 164.256 38.6858 164.315V164.315Z" fill="#37474F"/>
<path d="M49.5402 174.925C49.2365 174.727 48.9744 174.472 48.7689 174.173C48.5559 173.88 48.401 173.548 48.3125 173.196C48.6162 173.394 48.8783 173.65 49.0838 173.948C49.2968 174.242 49.4517 174.574 49.5402 174.925V174.925Z" fill="#263238"/>
<path d="M45.4765 165.882C45.3164 165.977 45.177 166.104 45.0666 166.254C44.9562 166.404 44.877 166.575 44.8337 166.756C44.7437 167.225 44.7823 167.753 44.2616 167.945C43.9205 168.031 43.5936 168.165 43.291 168.344C42.9428 168.584 42.6796 168.928 42.5389 169.327C42.4724 169.525 42.4313 169.73 42.4168 169.938C42.4333 170.065 42.4116 170.194 42.3543 170.309C42.2971 170.423 42.2069 170.518 42.0954 170.581C41.9026 170.709 41.684 170.806 41.4526 170.915C41.2775 171.02 41.108 171.133 40.9448 171.256C40.6002 171.514 40.3352 171.863 40.1799 172.265C40.0385 172.631 40.1285 173.043 39.9742 173.383C39.7556 173.865 39.1 173.827 38.65 173.943C38.2874 174.025 37.9486 174.19 37.6601 174.425C37.6219 174.45 37.5892 174.483 37.5637 174.521C37.5637 174.553 37.4994 174.675 37.5637 174.669H37.5959C37.7921 174.526 38.0088 174.413 38.2386 174.335C38.4075 174.273 38.5819 174.228 38.7593 174.2C38.9284 174.19 39.098 174.19 39.2671 174.2C39.4309 174.182 39.5925 174.148 39.7492 174.097C39.9017 174.054 40.0425 173.977 40.1606 173.872C40.3702 173.614 40.4716 173.284 40.4434 172.953C40.5052 172.478 40.7329 172.041 41.0862 171.719C41.4207 171.423 41.7951 171.177 42.1982 170.986C42.358 170.921 42.4976 170.815 42.6026 170.678C42.7077 170.541 42.7745 170.379 42.796 170.208C42.81 169.708 43.0174 169.234 43.3745 168.884C43.5335 168.735 43.7132 168.609 43.9081 168.511C44.133 168.415 44.3773 168.376 44.5958 168.26C44.9687 168.061 44.988 167.688 45.0265 167.303C45.0193 166.826 45.1967 166.366 45.5215 166.017C45.5215 166.017 45.5086 165.863 45.4765 165.882Z" fill="#37474F"/>
<path d="M19.5607 113.636C13.7049 115.667 11.5516 117.249 9.42392 122.352C6.7692 128.716 3.16314 142.684 2.25681 145.313C0.00703985 148.527 0.534128 153.136 0.534128 153.136C0.534128 153.136 9.31465 147.093 17.5938 151.818C17.5938 151.818 22.0933 140.01 23.0961 137.754C24.0988 135.498 28.4248 118.586 19.5607 113.636Z" fill="#E0E0E0"/>
<path opacity="0.1" d="M17.3175 147.743C15.6653 146.132 13.5458 145.086 11.2624 144.754C8.75771 144.345 6.1895 144.597 3.8125 145.487C3.8125 145.487 3.8125 145.558 3.8125 145.551C5.04873 145.256 6.3059 145.056 7.57283 144.953C8.87584 144.869 10.1842 144.947 11.4681 145.185C12.5524 145.394 13.6077 145.733 14.6114 146.194C15.5509 146.66 16.4368 147.226 17.2533 147.884C17.3368 147.962 17.3625 147.794 17.3175 147.743ZM12.3938 147.479C10.7987 147.028 9.1147 146.993 7.50212 147.377C7.50212 147.377 7.50212 147.422 7.50212 147.422C9.16477 147.293 10.8372 147.441 12.4516 147.859C13.2435 148.081 14.0103 148.385 14.7399 148.765C15.447 149.131 16.0898 149.601 16.7712 150.006C16.829 150.044 16.8483 149.916 16.8226 149.883C15.5919 148.695 14.0609 147.864 12.3938 147.479Z" fill="black"/>
<path d="M25.1055 89.1779C25.1055 89.705 27.201 90.4635 27.201 90.4635L26.1854 87.4038L25.1055 89.1779Z" fill="#F9B300"/>
<path opacity="0.3" d="M25.1055 89.1779C25.1055 89.705 27.201 90.4635 27.201 90.4635L26.1854 87.4038L25.1055 89.1779Z" fill="black"/>
<path d="M29.9987 76.9653C29.9987 76.9653 27.6718 77.1389 26.142 80.07C25.3771 81.5484 24.8564 84.2353 26.9262 91.9166C27.7266 94.9089 28.9702 97.7645 30.6158 100.389C31.0984 101.236 31.8874 101.866 32.8206 102.15L32.6727 96.2491L32.4478 92.1352C32.4478 92.1352 35.7646 89.1205 36.0538 86.1637C36.4202 82.3583 34.9354 80.205 34.9354 80.205L29.9987 76.9653Z" fill="#37474F"/>
<path d="M29.1992 77.1646C29.7713 73.8414 33.9816 69.8818 42.1 69.4511C48.7529 69.0911 52.6482 71.3795 54.9558 75.2362C57.2635 79.093 55.7465 84.1389 55.7465 84.1389L34.8429 82.7762L29.1992 77.1646Z" fill="#37474F"/>
<path d="M27.2826 97.984C30.3422 99.4753 31.7371 97.052 31.7371 97.052L32.1999 109.226C38.0686 117.088 53.7463 114.247 47.3183 108.365V105.582C48.2063 105.563 49.0916 105.477 49.9666 105.325C52.6728 104.9 54.3762 102.754 55.1797 99.816C56.3688 95.4707 56.8381 88.5286 55.1797 81.175C54.8647 79.748 54.2476 78.1861 52.9363 77.5433C49.6838 75.9363 46.682 78.2503 42.1503 80.018C40.2734 80.7508 35.7224 81.0722 34.5268 80.5065C36.1209 82.2099 36.1081 87.6994 33.8069 89.9556C33.5154 90.53 33.1185 91.0446 32.637 91.4725C31.6471 92.3339 30.8372 90.1098 30.008 89.2421C29.604 88.9014 29.1262 88.6594 28.6125 88.5352C28.0988 88.411 27.5632 88.408 27.0482 88.5265C26.5332 88.6449 26.0527 88.8816 25.6449 89.2178C25.2371 89.5539 24.9131 89.9804 24.6985 90.4634C24.364 91.1249 24.1655 91.8468 24.1146 92.5864C24.0638 93.3259 24.1617 94.0682 24.4026 94.7693C24.6435 95.4704 25.0224 96.1161 25.5171 96.6682C26.0118 97.2204 26.6121 97.6678 27.2826 97.984V97.984Z" fill="#FFBF9D"/>
<path d="M47.3075 105.57C43.7529 105.57 40.5968 105.114 38.5013 104.227C36.4058 103.339 34.5417 100.511 33.9375 97.6958C33.9375 99.9584 34.9274 103.976 38.1092 105.641C41.291 107.306 44.9871 107.402 47.314 107.453L47.3075 105.57Z" fill="#F28F8F"/>
<path d="M35.1314 87.6992C34.3022 89.3512 35.2535 94.5578 36.809 95.2134C38.3646 95.8691 40.023 94.8021 43.5455 94.5707C46.1983 94.3686 48.8664 94.5855 51.4518 95.2134C53.0459 95.6505 55.9513 96.3769 56.0542 94.7699C55.9578 98.7424 55.1671 103.255 52.3067 104.707C49.4463 106.16 42.0221 106.501 38.2168 104.508C34.4114 102.516 33.7172 100.234 32.9909 97.1225C32.4739 94.9441 31.83 92.7978 31.0625 90.6946L35.1314 87.6992Z" fill="#37474F"/>
<path d="M43.3318 84.4789L40.33 85.7645C40.1681 85.3546 40.1714 84.8979 40.3392 84.4903C40.5071 84.0828 40.8263 83.7561 41.2299 83.579C41.4265 83.496 41.6379 83.4536 41.8513 83.4541C42.0648 83.4547 42.2759 83.4982 42.4721 83.5822C42.6684 83.6662 42.8456 83.789 42.9933 83.943C43.141 84.0971 43.2562 84.2794 43.3318 84.4789V84.4789Z" fill="#37474F"/>
<path d="M53.4165 84.4289L50.3633 83.2012C50.4339 82.9994 50.5446 82.8141 50.6889 82.6563C50.8331 82.4986 51.0079 82.3717 51.2025 82.2834C51.3972 82.195 51.6077 82.1471 51.8215 82.1425C52.0352 82.1378 52.2476 82.1765 52.4459 82.2563C52.8551 82.4254 53.1838 82.7449 53.3644 83.1491C53.545 83.5533 53.5636 84.0114 53.4165 84.4289V84.4289Z" fill="#37474F"/>
<path d="M42.8169 87.919C42.8222 88.0738 42.8733 88.2236 42.9637 88.3493C43.0541 88.4751 43.1797 88.5712 43.3247 88.6255C43.4698 88.6799 43.6276 88.69 43.7784 88.6547C43.9292 88.6193 44.0661 88.5401 44.1719 88.4269C44.2776 88.3138 44.3475 88.1718 44.3725 88.019C44.3976 87.8662 44.3768 87.7093 44.3128 87.5683C44.2488 87.4273 44.1444 87.3084 44.0128 87.2267C43.8812 87.145 43.7284 87.1042 43.5736 87.1093C43.4707 87.1127 43.3696 87.1364 43.2758 87.179C43.1821 87.2215 43.0977 87.2821 43.0274 87.3573C42.9571 87.4325 42.9024 87.5208 42.8662 87.6172C42.8301 87.7136 42.8133 87.8162 42.8169 87.919Z" fill="#263238"/>
<path d="M50.6588 86.8752C50.6641 87.0298 50.715 87.1795 50.8051 87.3051C50.8951 87.4308 51.0203 87.5268 51.1648 87.5811C51.3092 87.6355 51.4665 87.6456 51.6167 87.6103C51.7669 87.5749 51.9033 87.4957 52.0086 87.3827C52.114 87.2696 52.1835 87.1278 52.2085 86.9751C52.2335 86.8223 52.2128 86.6656 52.149 86.5247C52.0852 86.3838 51.9812 86.265 51.8502 86.1834C51.7191 86.1018 51.5669 86.0609 51.4127 86.0661C51.3072 86.0589 51.2015 86.0754 51.1032 86.1144C51.0049 86.1533 50.9164 86.2137 50.8443 86.2911C50.7721 86.3686 50.718 86.4612 50.6859 86.5622C50.6539 86.6632 50.6446 86.7701 50.6588 86.8752Z" fill="#263238"/>
<path d="M45.8789 85.3286L46.9716 93.7813L51.4712 92.1358C50.1396 89.4771 48.2286 87.1509 45.8789 85.3286V85.3286Z" fill="#F28F8F"/>
<path d="M50.0298 99.3933L42.5232 97.8309C42.3967 98.3226 42.3708 98.8347 42.4471 99.3366C42.5234 99.8385 42.7002 100.32 42.967 100.752C43.2339 101.184 43.5852 101.557 43.9999 101.85C44.4147 102.143 44.8843 102.349 45.3806 102.456C46.3996 102.632 47.4475 102.413 48.3111 101.844C49.1747 101.275 49.7893 100.399 50.0298 99.3933Z" fill="#B16668"/>
<path d="M23.7436 84.8195C23.9791 86.3318 24.4384 87.8006 25.1063 89.1776C25.4444 88.7312 25.8049 88.3022 26.1862 87.8921C28.4271 85.5311 31.0582 83.5741 33.964 82.1069V82.1069C40.7325 78.578 49.1595 77.016 56.0502 78.398C55.7306 77.1229 55.2398 75.8968 54.5911 74.7534C52.9254 71.8467 50.4109 69.5187 47.3848 68.0815C44.3586 66.6442 40.9654 66.1664 37.66 66.7121C28.6609 68.1005 22.4194 76.2061 23.7436 84.8195Z" fill="#F9B300"/>
<path d="M30.0244 68.7055C30.8279 68.2748 34.9096 66.8286 35.2374 66.7129C37.3586 65.9544 40.8104 65.7872 44.5065 68.3584C47.3707 70.3631 49.4854 73.2649 50.5166 76.6054L46.1777 78.1995L44.7764 78.4117C44.0887 75.3455 39.4606 68.9176 33.4505 69.059C33.1664 69.0583 32.8827 69.0798 32.602 69.1233C31.81 69.2063 31.0346 69.4056 30.3008 69.7147C29.5171 70.3094 28.7721 70.9535 28.0703 71.6431C28.1128 71.0259 28.3153 70.4304 28.658 69.9153C29.0006 69.4002 29.4716 68.9832 30.0244 68.7055V68.7055Z" fill="#F9B300"/>
<path opacity="0.45" d="M30.0244 68.7055C30.8279 68.2748 34.9096 66.8286 35.2374 66.7129C37.3586 65.9544 40.8104 65.7872 44.5065 68.3584C47.3707 70.3631 49.4854 73.2649 50.5166 76.6054L46.1777 78.1995L44.7764 78.4117C44.0887 75.3455 39.4606 68.9176 33.4505 69.059C33.1664 69.0583 32.8827 69.0798 32.602 69.1233C31.81 69.2063 31.0346 69.4056 30.3008 69.7147C29.5171 70.3094 28.7721 70.9535 28.0703 71.6431C28.1128 71.0259 28.3153 70.4304 28.658 69.9153C29.0006 69.4002 29.4716 68.9832 30.0244 68.7055V68.7055Z" fill="white"/>
<path d="M44.7751 78.4187C43.9716 74.8448 37.7686 66.6492 30.3058 69.7024C29.5187 70.2979 28.7694 70.942 28.0625 71.6308C28.1125 71.0174 28.319 70.427 28.6623 69.9161C29.0055 69.4051 29.474 68.9908 30.023 68.7125C31.9514 67.6841 35.8981 66.9899 40.1727 69.966C43.033 71.969 45.1435 74.8689 46.1699 78.2066L44.7751 78.4187Z" fill="#F9B300"/>
<path opacity="0.3" d="M44.7751 78.4187C43.9716 74.8448 37.7686 66.6492 30.3058 69.7024C29.5187 70.2979 28.7694 70.942 28.0625 71.6308C28.1125 71.0174 28.319 70.427 28.6623 69.9161C29.0055 69.4051 29.474 68.9908 30.023 68.7125C31.9514 67.6841 35.8981 66.9899 40.1727 69.966C43.033 71.969 45.1435 74.8689 46.1699 78.2066L44.7751 78.4187Z" fill="black"/>
<path d="M33.8047 80.8404C34.1068 80.5512 35.4759 77.2922 40.8047 74.1619C44.0893 72.2335 51.0058 71.7128 54.1169 71.5907C59.5549 71.34 60.9112 72.3685 61.0204 73.1334C61.0204 73.3134 61.1683 74.149 61.2004 74.3418C61.2339 74.5136 61.2042 74.6916 61.1169 74.8432C60.3648 76.0709 56.0774 78.385 56.0774 78.385C49.1867 77.003 40.7597 78.565 33.9911 82.0939L33.8047 80.8404Z" fill="#F9B300"/>
<path opacity="0.15" d="M33.8047 80.8404C34.1068 80.5512 35.4759 77.2922 40.8047 74.1619C44.0893 72.2335 51.0058 71.7128 54.1169 71.5907C59.5549 71.34 60.9112 72.3685 61.0204 73.1334C61.0204 73.3134 61.1683 74.149 61.2004 74.3418C61.2339 74.5136 61.2042 74.6916 61.1169 74.8432C60.3648 76.0709 56.0774 78.385 56.0774 78.385C49.1867 77.003 40.7597 78.565 33.9911 82.0939L33.8047 80.8404Z" fill="black"/>
<path d="M33.9805 82.0757C40.7491 78.5468 49.176 76.9848 56.0668 78.3668C56.0668 78.3668 60.3542 76.0528 61.1062 74.825C61.5048 74.1437 61.0227 72.4981 54.2926 72.8067C51.188 72.9481 44.2651 73.4495 40.9805 75.3778C35.6517 78.5275 34.289 81.7865 33.9805 82.0757Z" fill="#F9B300"/>
<path opacity="0.3" d="M33.9805 82.0757C40.7491 78.5468 49.176 76.9848 56.0668 78.3668C56.0668 78.3668 60.3542 76.0528 61.1062 74.825C61.5048 74.1437 61.0227 72.4981 54.2926 72.8067C51.188 72.9481 44.2651 73.4495 40.9805 75.3778C35.6517 78.5275 34.289 81.7865 33.9805 82.0757Z" fill="black"/>
<path d="M134.22 102.857C134.22 102.857 160.313 138.414 180.28 154.994C190.294 163.31 236.903 177.428 236.903 177.428L236.903 172.789L236.903 167.819C236.903 167.819 204.266 147.891 191.446 144.26C177.57 127.801 165.811 97.9066 152.248 92.0128L134.22 102.857Z" fill="#F9B300"/>
<path d="M184.544 232.027L177.744 233.314L174.227 219.003L181.023 217.728L184.544 232.027Z" fill="#CE7A63"/>
<path d="M176.343 231.763L184.146 230.758C184.286 230.742 184.428 230.773 184.55 230.844C184.672 230.916 184.767 231.025 184.822 231.155L187.314 237.111C187.414 237.349 187.416 237.617 187.319 237.857C187.222 238.096 187.034 238.287 186.796 238.389C186.708 238.428 186.615 238.453 186.52 238.463C183.773 238.847 182.47 239.003 179.041 239.44L168.517 240.782C165.661 241.143 164.7 238.336 165.811 237.939C170.952 236.099 173.791 234.088 175.225 232.334C175.365 232.17 175.535 232.035 175.727 231.937C175.919 231.839 176.128 231.78 176.343 231.763V231.763Z" fill="#263238"/>
<path opacity="0.2" d="M174.237 219.01L176.054 226.377L182.997 225.688L181.037 217.723L174.237 219.01Z" fill="black"/>
<path d="M129.161 105.779C129.161 105.779 144.755 142.002 153.36 165.217C160.066 183.411 172.756 222.014 172.756 222.014L184.012 219.93C184.012 219.93 173.981 177.845 167.002 161.427C161.777 134.962 146.315 95.6512 146.315 95.6512L129.161 105.779Z" fill="#F9B300"/>
<path opacity="0.1" d="M146.795 109.038L147.165 117.75C148.8 123.53 156.188 135.627 162.286 142.448C158.441 129.081 153.66 115.437 150.336 106.344L146.795 109.038Z" fill="black"/>
<path d="M173.052 233.493C172.525 233.604 171.977 233.549 171.482 233.335C171.355 233.261 171.246 233.161 171.162 233.04C171.078 232.92 171.021 232.783 170.995 232.638C170.977 232.557 170.98 232.472 171.005 232.392C171.03 232.312 171.076 232.241 171.137 232.184C171.793 231.624 174.597 232.484 175.149 232.665C175.179 232.68 175.203 232.703 175.219 232.731C175.236 232.76 175.243 232.792 175.241 232.825C175.242 232.858 175.232 232.89 175.213 232.917C175.194 232.943 175.166 232.963 175.135 232.972C174.46 233.215 173.762 233.39 173.052 233.493V233.493ZM171.636 232.311C171.531 232.318 171.43 232.354 171.345 232.415C171.345 232.415 171.273 232.456 171.296 232.57C171.312 232.672 171.351 232.769 171.411 232.852C171.47 232.936 171.548 233.005 171.639 233.053C172.135 233.342 173.224 233.256 174.589 232.819C173.643 232.494 172.652 232.32 171.652 232.301L171.636 232.311Z" fill="#263238"/>
<path d="M175.118 232.96L175.07 232.988C174.151 232.742 172.193 231.542 172.197 230.795C172.2 230.634 172.278 230.419 172.676 230.316C174.177 229.95 175.224 232.665 175.26 232.782C175.275 232.809 175.28 232.84 175.273 232.869C175.266 232.899 175.249 232.924 175.224 232.941C175.21 232.954 175.192 232.963 175.173 232.966C175.155 232.969 175.135 232.967 175.118 232.96V232.96ZM172.871 230.544L172.792 230.59C172.641 230.624 172.568 230.719 172.536 230.737C172.534 231.175 173.908 232.137 174.872 232.517C174.51 231.907 173.774 230.449 172.871 230.544V230.544Z" fill="#263238"/>
<path d="M172.583 225.202L185.593 222.765L185.033 218.46L170.714 220.748L172.583 225.202Z" fill="#263238"/>
<path d="M113.812 80.7955C115.426 83.9597 116.86 87.0893 118.151 90.376C119.562 93.7266 120.656 97.2015 121.421 100.756C121.62 101.804 121.725 102.869 121.735 103.936C121.732 104.661 121.634 105.383 121.443 106.083L121.339 106.42L121.267 106.589L121.235 106.682L121.07 107.022L120.752 107.706C119.899 109.358 118.91 110.936 117.795 112.424C115.698 115.281 113.336 117.934 110.741 120.348L108.064 118.106C109.79 115.237 111.562 112.299 113.071 109.438C113.819 108.059 114.482 106.635 115.056 105.175L115.237 104.677L115.325 104.424C115.325 104.424 115.328 104.263 115.305 104.02C115.24 103.37 115.124 102.725 114.958 102.093C114.561 100.572 114.077 99.0755 113.508 97.6103C112.954 96.0791 112.338 94.5516 111.677 93.0185C110.359 89.981 108.952 86.8993 107.504 83.9481L113.812 80.7955Z" fill="#CE7A63"/>
<path d="M109.978 117.054L104.203 118.367L108.544 123.766C108.544 123.766 111.505 121.524 112.069 118.815L109.978 117.054Z" fill="#CE7A63"/>
<path d="M100.47 125.609L101.202 126.25C101.609 126.602 102.12 126.813 102.658 126.85C103.195 126.887 103.73 126.748 104.182 126.455L106.615 124.901L102.257 119.491L100.134 122.153C99.7332 122.661 99.5441 123.304 99.6067 123.948C99.6692 124.593 99.9784 125.188 100.47 125.609V125.609Z" fill="#CE7A63"/>
<path d="M116.284 71.6983C117.353 73.5495 118.569 77.72 119.388 80.9072C119.959 83.2051 120.354 84.9771 120.354 84.9771L119.068 85.3474L108.441 88.3546C105.534 83.6499 102.709 78.3335 105.651 72.4645C107.486 68.7878 114.357 68.4166 116.284 71.6983Z" fill="#263238"/>
<path opacity="0.3" d="M116.459 72.0207C115.484 71.7325 114.047 72.4132 111.603 75.0903C108.102 78.9207 109.614 84.3035 111.396 87.5196L119.067 85.346L119.729 85.1659L120.354 84.9757C120.354 84.9757 120.152 84.0921 119.828 82.7575C119.697 82.2164 119.551 81.5771 119.37 80.8945C118.678 77.8523 117.704 74.8815 116.459 72.0207V72.0207Z" fill="black"/>
<path d="M150.974 91.6088L127.867 105.396C114.259 89.1975 108.491 81.0485 106.1 76.9072C105.499 75.8767 105.277 74.669 105.472 73.4923C105.667 72.3156 106.266 71.2437 107.166 70.4614C108.425 69.3621 110.012 68.0202 111.649 66.7455C112.209 66.3156 112.777 65.8811 113.347 65.4671C116.691 63.1337 120.198 61.0417 123.84 59.2068C124.367 58.9027 124.913 58.6512 125.482 58.3652C127.963 57.1348 130.325 56.1757 132.019 55.5167C132.631 55.2838 133.31 55.3032 133.907 55.5708C134.504 55.8384 134.971 56.3322 135.205 56.9437C135.231 56.9812 135.255 57.0213 135.274 57.0633C136.43 60.6513 137.507 63.8064 138.516 66.5859C140.109 70.9856 141.542 74.4991 142.919 77.4918C145.223 82.4046 147.917 87.1253 150.974 91.6088V91.6088Z" fill="#263238"/>
<path opacity="0.1" d="M142.922 77.5205C139.717 74.6788 135.566 67.3408 135.463 64.251L138.53 66.5974C140.122 71.0302 141.545 74.5278 142.922 77.5205Z" fill="black"/>
<path d="M150.557 90.0323L152.827 91.477C152.999 91.5905 152.917 91.8721 152.646 92.0287L128.4 106.495C128.184 106.62 127.957 106.613 127.859 106.499L126.426 104.55C126.343 104.406 126.436 104.182 126.66 104.053L150.065 90.0825C150.137 90.0351 150.219 90.0057 150.305 89.997C150.39 89.9883 150.477 90.0004 150.557 90.0323V90.0323Z" fill="#263238"/>
<path d="M148.944 94.5586L149.59 94.1854C149.71 94.1163 149.764 93.9892 149.715 93.922L147.805 91.4071C147.759 91.3273 147.615 91.336 147.487 91.4097L146.889 91.7552C146.761 91.8289 146.707 91.956 146.764 92.0186L148.661 94.5301C148.658 94.617 148.824 94.6277 148.944 94.5586Z" fill="#F9B300"/>
<path d="M130.261 105.682L130.899 105.313C131.027 105.239 131.073 105.117 131.019 105.042L129.13 102.525C129.084 102.446 128.919 102.456 128.792 102.529L128.153 102.898C128.026 102.972 127.971 103.099 128.025 103.174L129.922 105.685C129.984 105.756 130.133 105.755 130.261 105.682Z" fill="#F9B300"/>
<path d="M139.596 100.093L140.235 99.7248C140.362 99.6511 140.417 99.524 140.363 99.4488L138.466 96.9373C138.415 96.8495 138.258 96.8548 138.135 96.9365L137.497 97.305C137.369 97.3787 137.323 97.5012 137.369 97.581L139.266 100.093C139.313 100.193 139.469 100.167 139.596 100.093Z" fill="#F9B300"/>
<path d="M82.8973 99.5173L114.739 74.8033L139.129 105.991L107.859 130.258L82.8973 99.5173Z" fill="#F9B300"/>
<path opacity="0.2" d="M114.266 72.8908L105.785 79.5283L130.961 111.695L139.442 105.058L114.266 72.8908Z" fill="#F9B300"/>
<path d="M138.785 56.5025C142.857 54.8253 146.938 53.3506 151.12 52.0648C153.22 51.4123 155.331 50.7962 157.493 50.2791C158.588 50.0245 159.702 49.7966 160.865 49.6126C162.079 49.407 176.702 47.5454 177.933 47.5312C177.153 47.3488 178.735 47.5192 177.933 47.5312C178.895 47.7889 177.17 47.8861 177.933 48.5253C179.034 49.4598 172.271 50.3301 172.963 51.5974C172.338 49.3184 174.094 53.6727 172.963 51.5974C174.165 55.8566 167.452 47.6555 167.831 52.0648L167.557 52.0226C166.983 50.0296 167.986 52.4934 167.33 50.5135C166.674 48.5336 178.723 49.4125 177.933 47.5312C178.982 49.1584 177.219 45.7324 177.933 47.5312C177.549 46.9402 179.258 51.689 178.697 51.2625C178.507 51.1516 165.482 55.7778 165.483 55.7962C165.209 55.7906 164.936 55.8036 164.664 55.8348C163.773 55.9118 162.889 56.0491 162.017 56.2456C161.104 56.4363 160.083 56.6875 159.081 56.9561C157.133 57.5092 155.142 58.1197 153.153 58.7947C149.213 60.1336 145.216 61.6228 141.366 63.1051L138.785 56.5025Z" fill="#CE7A63"/>
<path d="M175.21 49.4806L178.16 46.2446L180.055 50.993C180.055 50.993 177.557 52.0736 175.619 51.4461L175.21 49.4806Z" fill="#CE7A63"/>
<path d="M182.647 46.838L182.883 48.0397C182.965 48.4227 182.92 48.822 182.755 49.177C182.589 49.5321 182.313 49.8235 181.967 50.0072L180.031 51.03L178.139 46.2877L180.25 45.5272C180.472 45.4439 180.709 45.4053 180.947 45.4137C181.185 45.4221 181.418 45.4773 181.635 45.5762C181.851 45.675 182.046 45.8156 182.208 45.9898C182.369 46.164 182.495 46.3685 182.578 46.5914C182.607 46.6719 182.63 46.7543 182.647 46.838V46.838Z" fill="#CE7A63"/>
<path d="M133.862 52.7335C137.174 52.2788 133.21 52.3734 139.163 52.7335C145.117 53.0936 142.476 62.4433 142.476 62.4433C142.476 62.4433 130.394 64.6939 129.404 60.5098C128.572 56.9684 129.649 53.3248 133.862 52.7335Z" fill="#263238"/>
<path d="M96.5515 43.1274C96.5515 43.1274 96.4417 50.3083 100.185 51.2642C103.929 52.2201 99.8446 43.5241 99.8446 43.5241L96.5515 43.1274Z" fill="#263238"/>
<path d="M118.614 47.0955C118.614 47.0955 119.001 38.5522 113.762 33.3105C108.523 28.0688 103.08 36.5523 98.8267 36.7415C97.2074 36.705 95.5892 36.8506 94.0024 37.1755C93.752 37.2356 93.5186 37.3523 93.3202 37.5166C93.1218 37.681 92.9638 37.8886 92.8581 38.1235C92.4656 39.2863 94.6141 39.8013 95.3306 40.0473C94.8886 39.8938 94.4274 39.802 93.9603 39.7745C93.3761 39.7394 92.7958 40.0426 93.3973 40.6422C94.166 41.2158 95.1132 41.4982 96.0705 41.4394C95.658 41.4435 93.2758 41.5741 93.4844 42.2303C93.55 42.3808 93.669 42.5016 93.8185 42.5694C96.3053 44.1126 100.337 45.53 103.146 43.9827C106.517 42.1003 115.14 49.6652 118.614 47.0955Z" fill="#263238"/>
<path d="M120.188 46.5605C121.197 48.7868 118.083 50.6167 118.083 50.6167C118.267 52.118 118.011 53.6404 117.347 54.9993C117.985 56.3271 118.766 57.5813 119.677 58.7397C121.35 60.4225 122.417 60.7218 123.513 60.6849L123.225 61.7342C122.369 63.215 121.153 64.4553 119.689 65.3396L118.516 65.3356L117.473 66.1825C113.678 66.98 113.237 64.3729 113.237 64.3729C112.977 62.5792 112.073 60.9414 110.694 59.766C107.077 60.5775 104.285 58.6357 101.266 54.4C98.2456 50.1644 98.2886 44.4158 98.2886 44.4158C103.682 45.7597 109.305 39.6514 109.305 39.6514C112.64 46.1095 116.917 46.7362 116.917 46.7362C117.385 45.317 119.176 44.3468 120.188 46.5605Z" fill="#CE7A63"/>
<path d="M109.382 53.5655C110.072 52.8596 110.483 51.9269 110.537 50.941C110.542 50.8627 110.517 50.7854 110.466 50.7253C110.416 50.6653 110.344 50.6271 110.266 50.6188C110.227 50.6143 110.188 50.6176 110.15 50.6285C110.113 50.6394 110.078 50.6576 110.047 50.6821C110.017 50.7065 109.992 50.7368 109.973 50.7711C109.954 50.8054 109.943 50.8431 109.939 50.8819C109.949 51.5214 109.754 52.1474 109.383 52.6681C109.011 53.1888 108.483 53.5769 107.875 53.7756C107.799 53.7929 107.733 53.8397 107.691 53.9056C107.65 53.9716 107.636 54.0513 107.653 54.1275C107.67 54.2048 107.718 54.2721 107.784 54.3152C107.851 54.3582 107.932 54.3735 108.009 54.3579C108.527 54.2158 109 53.9429 109.382 53.5655V53.5655Z" fill="#263238"/>
<path d="M107.121 47.5506C107.356 47.9575 107.399 48.4008 107.15 48.5973C106.902 48.7938 106.461 48.6015 106.195 48.213C105.928 47.8245 105.901 47.3183 106.173 47.1617C106.444 47.005 106.849 47.1541 107.121 47.5506Z" fill="#263238"/>
<path d="M102.111 50.1629C102.346 50.5699 102.389 51.0131 102.141 51.2096C101.892 51.4062 101.459 51.2092 101.193 50.8207C100.926 50.4322 100.915 49.9705 101.163 49.774C101.411 49.5775 101.847 49.7618 102.111 50.1629Z" fill="#263238"/>
<path d="M105.69 53.3654L103.929 50.4453L103.898 53.7825C104.209 53.852 104.531 53.8506 104.842 53.7784C105.152 53.7062 105.441 53.5651 105.69 53.3654Z" fill="#BA4D3C"/>
<path d="M107.909 43.7749C107.938 43.7454 107.961 43.7103 107.977 43.6718C108.003 43.6264 108.019 43.5762 108.025 43.5244C108.031 43.4725 108.026 43.42 108.011 43.37C107.996 43.32 107.971 43.2735 107.938 43.2334C107.904 43.1933 107.863 43.1603 107.817 43.1365C107.294 42.8445 106.699 42.7053 106.101 42.7346C105.503 42.7639 104.925 42.9607 104.433 43.3024C104.391 43.3332 104.356 43.3722 104.329 43.417C104.303 43.4619 104.285 43.5117 104.278 43.5633C104.272 43.615 104.275 43.6676 104.289 43.7179C104.303 43.7681 104.327 43.8151 104.359 43.8559C104.423 43.9388 104.517 43.9931 104.621 44.007C104.725 44.0209 104.829 43.9932 104.913 43.93V43.93C105.285 43.6832 105.717 43.5435 106.163 43.5262C106.609 43.5089 107.052 43.6147 107.441 43.8319C107.515 43.8736 107.6 43.8905 107.684 43.8803C107.769 43.87 107.847 43.8331 107.909 43.7749Z" fill="#263238"/>
<path d="M99.0639 48.4466C99.1401 48.3714 99.1843 48.2697 99.1872 48.1626C99.2054 47.8636 99.3099 47.5763 99.4882 47.3355C99.6664 47.0947 99.9107 46.9109 100.191 46.8062C100.241 46.79 100.286 46.764 100.326 46.7297C100.365 46.6955 100.397 46.6537 100.419 46.6068C100.442 46.56 100.455 46.5091 100.457 46.4572C100.46 46.4052 100.452 46.3533 100.434 46.3045C100.399 46.2063 100.327 46.1257 100.233 46.0803C100.139 46.035 100.031 46.0284 99.9321 46.0622C99.495 46.217 99.1148 46.5 98.8412 46.8744C98.5676 47.2488 98.4133 47.697 98.3986 48.1604C98.3995 48.2649 98.4407 48.3651 98.5137 48.4399C98.5866 48.5147 98.6857 48.5585 98.7901 48.5621C98.8925 48.5587 98.99 48.5176 99.0639 48.4466Z" fill="#263238"/>
<path d="M124.973 60.2124L124.225 62.8786L122.901 67.6432L120.697 66.4793L118.515 65.3348L119.759 58.2757L124.691 60.1097L124.973 60.2124Z" fill="#F9B300"/>
<path d="M118.514 65.3352L118.48 67.3227L118.424 70.2281L112.33 66.565L112.942 63.2217L118.514 65.3352Z" fill="#F9B300"/>
</svg>
